<svg xmlns="http://www.w3.org/2000/svg" viewBox="0 0 57.18 57.18">
  <title>fall</title>
  <g id="Layer_2" data-name="Layer 2">
    <g id="Layer_1-2" data-name="Layer 1">
      <g id="fall">
        <g>
          <rect width="57.18" height="57.18" fill="#ffedce"/>
          <path d="M0,35.25c15.13,5.8,40,9.61,57.18,3.52V0H0Z" fill="#ffe6b9"/>
          <path d="M0,22.5c16.11,6.14,41.82,3.18,57.18-6.33V0H0Z" fill="#ffdfa4"/>
          <path d="M0,4.82c14.87,7.38,40.79,9.89,57.18,1.34V0H0Z" fill="#ffd98f"/>
        </g>
        <g>
          <path d="M41.42,23c-.83-.25-1.23,2-2,2.93s-1.5.72-2.67.69c-.08-2.19-.15-4-.22-5.22s-.36-1.52-1.2-1.52h0c-.84,0-1.14.42-1.2,1.52-.15,2.65-.34,8.44-.5,14.35a7.54,7.54,0,0,1-5.46-2.5c-1.39-1.71-1.9-6.67-2.7-6.49S24.93,32.6,26.83,35a8.89,8.89,0,0,0,6.76,3.46C33.39,46,33.23,53,33.23,53h4.27s-.32-14.41-.64-24.25c1.89-.06,2.92-.45,3.68-1.31S42.25,23.23,41.42,23Z" fill="#b18963"/>
          <path d="M32.46,30.38a3.73,3.73,0,0,1-2,3.11,3.73,3.73,0,0,1-2-3.11,3.73,3.73,0,0,1,2-3.11A3.73,3.73,0,0,1,32.46,30.38Z" fill="#faa74a"/>
          <path d="M33.08,17.67a3.73,3.73,0,0,1-2,3.11,3.73,3.73,0,0,1-2-3.11,3.73,3.73,0,0,1,2-3.11A3.73,3.73,0,0,1,33.08,17.67Z" fill="#faa74a"/>
          <path d="M28.19,19a3.73,3.73,0,0,1-2,3.11,3.73,3.73,0,0,1-2-3.11,3.73,3.73,0,0,1,2-3.11A3.73,3.73,0,0,1,28.19,19Z" fill="#faa74a"/>
          <path d="M30.08,12.53a3.73,3.73,0,0,1-2,3.11,3.73,3.73,0,0,1-2-3.11,3.73,3.73,0,0,1,2-3.11A3.73,3.73,0,0,1,30.08,12.53Z" fill="#f58345"/>
          <path d="M34.64,10.34a3.73,3.73,0,0,1-2,3.11,3.73,3.73,0,0,1-2-3.11,3.73,3.73,0,0,1,2-3.11A3.73,3.73,0,0,1,34.64,10.34Z" fill="#f58345"/>
          <path d="M45.1,12.63a3.73,3.73,0,0,1-2,3.11,3.73,3.73,0,0,1-2-3.11,3.73,3.73,0,0,1,2-3.11A3.73,3.73,0,0,1,45.1,12.63Z" fill="#faa74a"/>
          <path d="M43.06,18.84a3.73,3.73,0,0,1-2,3.11,3.73,3.73,0,0,1-2-3.11,3.73,3.73,0,0,1,2-3.11A3.73,3.73,0,0,1,43.06,18.84Z" fill="#f58345"/>
          <path d="M20.76,30.46a3.73,3.73,0,0,1-3.11-2,3.73,3.73,0,0,1,3.11-2,3.73,3.73,0,0,1,3.11,2A3.73,3.73,0,0,1,20.76,30.46Z" fill="#f58345"/>
          <path d="M44.51,30.32a3.73,3.73,0,0,1-3.11-2,3.39,3.39,0,0,1,6.21,0A3.73,3.73,0,0,1,44.51,30.32Z" fill="#faa74a"/>
          <path d="M30.73,25.63a3.73,3.73,0,0,1-3.64.76,3.73,3.73,0,0,1,.76-3.64A3.73,3.73,0,0,1,31.49,22,3.73,3.73,0,0,1,30.73,25.63Z" fill="#f58345"/>
          <path d="M47.78,18.59a3.73,3.73,0,0,1-3.64.76,3.73,3.73,0,0,1,.76-3.64A3.73,3.73,0,0,1,48.53,15,3.73,3.73,0,0,1,47.78,18.59Z" fill="#faa74a"/>
          <path d="M46.54,24.32a3.73,3.73,0,0,1-3.64.76,3.73,3.73,0,0,1,.76-3.64,3.73,3.73,0,0,1,3.64-.76A3.73,3.73,0,0,1,46.54,24.32Z" fill="#f58345"/>
          <path d="M23.52,35a3.73,3.73,0,0,1-3.64.76,3.73,3.73,0,0,1,.76-3.64,3.73,3.73,0,0,1,3.64-.76A3.73,3.73,0,0,1,23.52,35Z" fill="#faa74a"/>
          <path d="M39.11,33.61A3.73,3.73,0,0,1,38.35,30a3.39,3.39,0,0,1,4.39,4.39A3.73,3.73,0,0,1,39.11,33.61Z" fill="#f58345"/>
          <path d="M21.67,24.94a3.73,3.73,0,0,1-.76-3.64,3.73,3.73,0,0,1,3.64.76,3.73,3.73,0,0,1,.76,3.64A3.73,3.73,0,0,1,21.67,24.94Z" fill="#f58345"/>
          <path d="M34.62,17.86a3.73,3.73,0,0,1-.76-3.64A3.73,3.73,0,0,1,37.5,15a3.73,3.73,0,0,1,.76,3.64A3.73,3.73,0,0,1,34.62,17.86Z" fill="#faa74a"/>
          <path d="M36.31,13.34a3.73,3.73,0,0,1-.76-3.64,3.73,3.73,0,0,1,3.64.76,3.73,3.73,0,0,1,.76,3.64A3.73,3.73,0,0,1,36.31,13.34Z" fill="#faa74a"/>
        </g>
        <g>
          <g>
            <g>
              <polygon points="4.51 53.51 2.19 53.51 1.86 45.6 3.35 44.71 4.84 45.6 4.51 53.51" fill="#c6a87d"/>
              <polygon points="7.86 53.51 5.54 53.51 5.21 45.6 6.7 44.71 8.19 45.6 7.86 53.51" fill="#c6a87d"/>
              <polygon points="11.21 53.51 8.9 53.51 8.56 45.6 10.05 44.71 11.54 45.6 11.21 53.51" fill="#c6a87d"/>
              <polygon points="14.56 53.51 12.25 53.51 11.91 45.6 13.4 44.71 14.89 45.6 14.56 53.51" fill="#c6a87d"/>
              <polygon points="17.91 53.51 15.6 53.51 15.26 45.6 16.75 44.71 18.24 45.6 17.91 53.51" fill="#c6a87d"/>
              <polygon points="21.26 53.51 18.95 53.51 18.61 45.6 20.1 44.71 21.59 45.6 21.26 53.51" fill="#c6a87d"/>
              <polygon points="24.61 53.51 22.3 53.51 21.96 45.6 23.45 44.71 24.95 45.6 24.61 53.51" fill="#c6a87d"/>
            </g>
            <g>
              <polygon points="1.16 53.51 0 53.51 0 44.71 1.49 45.6 1.16 53.51" fill="#ccb28b"/>
              <polygon points="4.51 53.51 3.35 53.51 3.35 44.71 4.84 45.6 4.51 53.51" fill="#ccb28b"/>
              <polygon points="7.86 53.51 6.7 53.51 6.7 44.71 8.19 45.6 7.86 53.51" fill="#ccb28b"/>
              <polygon points="11.21 53.51 10.05 53.51 10.05 44.71 11.54 45.6 11.21 53.51" fill="#ccb28b"/>
              <polygon points="14.56 53.51 13.4 53.51 13.4 44.71 14.89 45.6 14.56 53.51" fill="#ccb28b"/>
              <polygon points="17.91 53.51 16.75 53.51 16.75 44.71 18.24 45.6 17.91 53.51" fill="#ccb28b"/>
              <polygon points="21.26 53.51 20.1 53.51 20.1 44.71 21.59 45.6 21.26 53.51" fill="#ccb28b"/>
              <polygon points="24.61 53.51 23.45 53.51 23.45 44.71 24.95 45.6 24.61 53.51" fill="#ccb28b"/>
            </g>
            <rect y="46.81" width="25.66" height="1.03" fill="#977348"/>
            <rect y="50.27" width="25.66" height="1.03" fill="#977348"/>
            <path d="M10.05,47.11a.22.22,0,1,0,.22.22A.22.22,0,0,0,10.05,47.11Zm3.35,0a.22.22,0,1,0,.22.22A.22.22,0,0,0,13.4,47.11Zm-10.05,0a.22.22,0,1,0,.22.22A.22.22,0,0,0,3.35,47.11ZM0,47.11v.43a.22.22,0,0,0,.22-.22A.22.22,0,0,0,0,47.11Zm6.7,0a.22.22,0,1,0,.22.22A.22.22,0,0,0,6.7,47.11Zm10.05,0a.22.22,0,1,0,.22.22A.22.22,0,0,0,16.75,47.11Zm6.7,0a.22.22,0,1,0,.22.22A.22.22,0,0,0,23.45,47.11Zm-3.35,0a.22.22,0,1,0,.22.22A.22.22,0,0,0,20.1,47.11Z" fill="#876740"/>
            <path d="M10.05,50.62a.22.22,0,1,0,.22.22A.22.22,0,0,0,10.05,50.62Zm3.35,0a.22.22,0,1,0,.22.22A.22.22,0,0,0,13.4,50.62Zm-10.05,0a.22.22,0,1,0,.22.22A.22.22,0,0,0,3.35,50.62ZM0,50.62v.43a.22.22,0,0,0,.22-.22A.22.22,0,0,0,0,50.62Zm6.7,0a.22.22,0,1,0,.22.22A.22.22,0,0,0,6.7,50.62Zm10.05,0a.22.22,0,1,0,.22.22A.22.22,0,0,0,16.75,50.62Zm6.7,0a.22.22,0,1,0,.22.22A.22.22,0,0,0,23.45,50.62Zm-3.35,0a.22.22,0,1,0,.22.22A.22.22,0,0,0,20.1,50.62Z" fill="#876740"/>
          </g>
          <g>
            <path d="M28.59,52.07C14.29,52.07,0,53.45,0,53.45v3.73H57.18V53.45S42.88,52.07,28.59,52.07Z" fill="#fdb913"/>
            <g>
              <path d="M5.85,57.18h5.08l3.13-4.72c-1.89.1-3.66.2-5.27.31Z" fill="#ffc54e"/>
              <path d="M24.43,52.1c-1.76,0-3.49.08-5.18.14L16,57.18h5.09Z" fill="#ffc54e"/>
              <path d="M44.53,52.54c-1.57-.09-3.24-.17-5-.24L36.3,57.18h5.11Z" fill="#ffc54e"/>
              <path d="M26.13,57.18h5.1l3.35-5c-1.67,0-3.36-.07-5.06-.07Z" fill="#ffc54e"/>
              <path d="M3.88,53.12c-2.44.19-3.88.33-3.88.33v3.73H1.54Z" fill="#ffc54e"/>
              <path d="M54.37,53.21c-1.29-.11-3-.24-4.94-.37l-2.94,4.34h5.14Z" fill="#ffc54e"/>
            </g>
          </g>
          <path d="M29.53,54A3.73,3.73,0,0,1,26,52.87a3.73,3.73,0,0,1,2.47-2.77A3.73,3.73,0,0,1,32,51.26,3.73,3.73,0,0,1,29.53,54Z" fill="#f58345"/>
          <g>
            <g>
              <path d="M49.15,44.51a1.14,1.14,0,0,0,0-.31,1,1,0,0,0-1-1l-.33,0a2.37,2.37,0,0,0-1.75.95,7.15,7.15,0,0,0-.88,1.37l.11.06h0a7,7,0,0,1,.87-1.35,2.25,2.25,0,0,1,1.66-.9l.3,0c.64.12.86.49.86.87a1,1,0,0,1,0,.12.93.93,0,0,0-.53-.45.74.74,0,0,0-1,.72.65.65,0,0,0,.45.62.78.78,0,0,0,.29.06.92.92,0,0,0,.79-.56,1.94,1.94,0,0,1,0,.41,1.82,1.82,0,0,1,0,.21h0a1.41,1.41,0,0,1-.23.65,2.13,2.13,0,0,1-.15.21l-.06.08.09.08a1.83,1.83,0,0,0,.47-1,2.06,2.06,0,0,0-.08-.83Zm-.31.34a.72.72,0,0,1-.55.29.66.66,0,0,1-.24,0,.53.53,0,0,1-.37-.51.67.67,0,0,1,.18-.44.59.59,0,0,1,.44-.2.65.65,0,0,1,.21,0,.83.83,0,0,1,.52.51v0A1.06,1.06,0,0,1,48.84,44.85Zm-5.93-.17a2.7,2.7,0,0,0-1.12.4l0,0a.68.68,0,0,0-.45-.2.61.61,0,0,0-.38.14,1.17,1.17,0,0,1-.22-.28.54.54,0,0,0,.24.06.93.93,0,0,0,.67-.36,1.07,1.07,0,0,0-.43-.37,1.14,1.14,0,0,0,.07-.74,1.09,1.09,0,0,0-.78.24,1.18,1.18,0,0,0-.75-.35,1.18,1.18,0,0,0,0,.83,1.09,1.09,0,0,0-.57.59,1.14,1.14,0,0,0,.7.27,1.07,1.07,0,0,0,.13.55.93.93,0,0,0,.62-.43.57.57,0,0,0,.05-.2,1.28,1.28,0,0,0,.22.27,4,4,0,0,0-.78,1.64l.12,0h0a5.48,5.48,0,0,1,.42-1.13,1.89,1.89,0,0,1,.33-.46.8.8,0,0,0,.48.16.88.88,0,0,0,.34-.07h0a2.64,2.64,0,0,1,.35.53.7.7,0,0,0,.6.46,1,1,0,0,0,.65-.33,3.84,3.84,0,0,0,.49-.58l0,0,0,0A1.16,1.16,0,0,0,42.91,44.68Zm-1.51.51a.66.66,0,0,1-.38-.12.48.48,0,0,1,.28-.1.56.56,0,0,1,.37.17A.75.75,0,0,1,41.4,45.19Zm1.88.62a.91.91,0,0,1-.57.29c-.17,0-.33-.1-.49-.4a2.86,2.86,0,0,0-.35-.53,2.49,2.49,0,0,1,1-.37,1,1,0,0,1,.82.48A3.62,3.62,0,0,1,43.28,45.8Z" fill="#73a533"/>
              <g>
                <path d="M43.46,45.45a5,5,0,0,1,.9-1.92c.09-.08,1.78-.89,1.78-.89l.25.46a11.27,11.27,0,0,0-1.17.93,2.1,2.1,0,0,0,.38,1.32Z" fill="#73a533"/>
                <path d="M45.22,44a11.27,11.27,0,0,1,1.17-.93l-.08-.15a6.19,6.19,0,0,0-1.49,1,2.49,2.49,0,0,0-.15,1.46l.93,0A2.1,2.1,0,0,1,45.22,44Z" fill="#5f8d2a"/>
              </g>
            </g>
            <g>
              <g>
                <path d="M46.68,49.09c0,3.28-1,4.42-2.15,4.42s-2.15-1.13-2.15-4.42,1-4.35,2.15-4.35S46.68,45.81,46.68,49.09Z" fill="#f7941d"/>
                <path d="M46.68,49.09c0,3.28-1,4.42-2.15,4.42s-2.15-1.13-2.15-4.42c0,2.6,1,4,2.15,4S46.68,51.71,46.68,49.09Z" fill="#e0861a"/>
              </g>
              <g>
                <path d="M41.15,45.91a1.27,1.27,0,0,0-.4-.06c-.92,0-1.67.88-1.67,3.51s.86,3.57,1.78,3.57a1.12,1.12,0,0,0,.48-.1c-.54-.55-.9-1.67-.9-3.6A5.82,5.82,0,0,1,41.15,45.91Z" fill="#f7941d"/>
                <path d="M41.24,52.69c-.89,0-2.15-.76-2.15-3.34,0,2.62.86,3.57,1.78,3.57a1.12,1.12,0,0,0,.48-.1Z" fill="#e0861a"/>
              </g>
              <g>
                <path d="M42.38,49.09a6.32,6.32,0,0,1,.78-3.63,1.43,1.43,0,0,0-.77-.21c-1.07,0-1.93,1-1.93,4s.87,4,1.93,4a1.39,1.39,0,0,0,.9-.32C42.74,52.31,42.38,51.1,42.38,49.09Z" fill="#faa61a"/>
                <path d="M43.21,52.84c-1.21.51-2.76-.54-2.76-3.62,0,3,.87,4,1.93,4a1.39,1.39,0,0,0,.9-.32Z" fill="#e39717"/>
              </g>
              <g>
                <path d="M46.66,45.25a1.43,1.43,0,0,0-.76.21,6.31,6.31,0,0,1,.78,3.64c0,2-.36,3.22-.91,3.85a1.39,1.39,0,0,0,.9.32c1.07,0,1.93-1,1.93-4S47.73,45.25,46.66,45.25Z" fill="#faa61a"/>
                <path d="M45.85,52.84l-.08.1a1.39,1.39,0,0,0,.9.32c1.07,0,1.93-1,1.93-4C48.6,52.29,47.05,53.35,45.85,52.84Z" fill="#e39717"/>
              </g>
              <g>
                <path d="M48.3,45.85a1.27,1.27,0,0,0-.4.06,5.83,5.83,0,0,1,.7,3.31c0,1.92-.36,3-.9,3.6a1.12,1.12,0,0,0,.48.1c.92,0,1.78-.95,1.78-3.57S49.22,45.85,48.3,45.85Z" fill="#f7941d"/>
                <path d="M47.81,52.69l-.11.13a1.12,1.12,0,0,0,.48.1c.92,0,1.78-.95,1.78-3.57C50,51.93,48.7,52.74,47.81,52.69Z" fill="#e0861a"/>
              </g>
            </g>
          </g>
        </g>
      </g>
    </g>
  </g>
</svg>
