<svg xmlns="http://www.w3.org/2000/svg" viewBox="0 0 147.11 238.04">
  <title>blouse</title>
  <g id="Layer_2" data-name="Layer 2">
    <g id="blouse">
      <path d="M110.66,110.9c.24,17.92,7.3,26.85,15.52,42.38,1.79,3.38,6,10.74,8.16,14.52s11.74,25.27,12.54,34.82-.4,19.7-5.57,22.68S124,238,102.31,238c-10.15,0-60-7.12-67.45-16.71-16.35-21.15-4.58-16.92-6-28.05-.4-3.18-2.59-12.14-2.39-15.32s.6-16.72,1.19-22.68c1.12-11.2-.17-27.51-2.38-38.6C22.59,103.09,16.68,92.23,15,83c-1.19-6.37-1.19-27.26-1.19-31.84s-1.59-12.73-3.58-16.71S1.82,24.74.83,22.35-.76,18.77,2,13.6C2.86,12,10.18,1.56,12.62,2c1.09.2,3,.4,3.48,1.59s2.49,1.19,4.18.7S28.54,1.91,30.92.41s1.58,1.33.65,4.09S26.75,16,25.37,19.91s-4.25,11.61-5.06,13.8S18.7,37.39,20,38.42s13.1,14.72,14.37,16.33,4.14,5.17,6,5.17a15.48,15.48,0,0,1,7.59,2.65c1.84,1.5,4.94,4,7.47,4.37s5.18-1.49,7.25-3.79,10.12-8.28,13.68-11,12-6.21,15.41-7.13,9.89-2.3,10.81-2.41,2.76-.23,3.1-2.18,2.64-21.62,3.11-24.84.34-5.17.46-5.75,0-1.49,1.84-.23,4.94,2,9.08,1.49,5.06-2.42,9.54-1.15,5.29,2.18,6.67,2.18,2.53,0,2.42,1.61a10.33,10.33,0,0,0,2.18,6c1.26,1.49,3.1,3.79,2.64,4.71s-4.25-.35-7.47,1.49-8.16,8.28-10.69,11.5-6,8.39-6.32,12.65.35,13.11.46,15.75.58,6.09-.46,8.62-3.1,5.29-3.22,7.7c-.16,3.35-3.51,14.21-4.25,19.89C111.26,104.65,110.66,110.9,110.66,110.9Z" fill="#a34498" fill-rule="evenodd"/>
    </g>
  </g>
</svg>
