<svg id="boot" xmlns="http://www.w3.org/2000/svg" xmlns:xlink="http://www.w3.org/1999/xlink" viewBox="0 0 300 300">
  <defs>
    <linearGradient id="leather_brn_to_blk" data-name="leather brn to blk" x1="99.06" y1="234.99" x2="249.06" y2="234.99" gradientUnits="userSpaceOnUse">
      <stop offset="0" stop-color="#8b4513"/>
      <stop offset="1"/>
    </linearGradient>
    <linearGradient id="linear-gradient" x1="50.55" y1="230.57" x2="99.26" y2="230.57" gradientUnits="userSpaceOnUse">
      <stop offset="0"/>
      <stop offset="0.16" stop-color="#1e0f04"/>
      <stop offset="0.43" stop-color="#4d260b"/>
      <stop offset="0.67" stop-color="#6f370f"/>
      <stop offset="0.87" stop-color="#844112"/>
      <stop offset="1" stop-color="#8b4513"/>
    </linearGradient>
    <linearGradient id="leather_brn_to_blk-2" x1="108.36" y1="28.51" x2="111.01" y2="6.98" xlink:href="#leather_brn_to_blk"/>
  </defs>
  <title>boot</title>
  <g>
    <g id="Boot_base" data-name="Boot base">
      <path id="front_boot_base" data-name="front boot base" d="M192.49,283.74a152.32,152.32,0,0,1-18-.35c-12.58-1.07-22.05-4-30.09-8.7a130.65,130.65,0,0,0-36.11-13.91,41.54,41.54,0,0,0-4.46-.59c-1.38-.12-2.87-.2-4.44-.27-.82-6.41-.16-17.2.72-27.46.35-4.09.73-8,1.06-11.53,1.71.27,3.61.52,5.67.69a60.43,60.43,0,0,0,17.75-1c12.3-2.62,18.54-8.15,19-13.47a6.82,6.82,0,0,0-.08-1.81c-.56-3-1.5-8.26-1.11-12.83a12.54,12.54,0,0,1,2-6.37c1.5,6.73,3,11.49,3,11.51v0l0,0c2.08,5.19,5.38,9.4,11,14.61s13.7,11.5,25.46,21c23.66,19.08,39.51,19.92,52,23.77,6.1,1.89,9.32,5.24,11.08,8.11a15.77,15.77,0,0,1,1.66,3.72c.14.48.23.86.28,1.12s0,.23,0,.29v.08l0,.3C239.87,279.55,214.12,283,192.49,283.74Z" fill="url(#leather_brn_to_blk)"/>
      <path id="back_boot_base" data-name="back boot base" d="M71.47,259.16c-1.86-.16-3.59-.36-5.13-.64A28.12,28.12,0,0,1,53.88,253a24.35,24.35,0,0,1-3-2.78l-.31-.35v-.6c0-1.21.07-2.59.2-4.11a155.71,155.71,0,0,1,2.88-18,91.91,91.91,0,0,1,3.54-13.12,114.13,114.13,0,0,0,4.14-12.84c1,1.8,3.25,4.45,8.06,7.6,8.78,5.76,19.74,10.12,25.13,10.91,1.25.18,2.86.49,4.78.82-.34,3.51-.72,7.52-1.08,11.68-.88,10.38-1.63,20.81-.76,27.56C89.19,259.62,79.22,259.82,71.47,259.16Z" fill="url(#linear-gradient)"/>
    </g>
    <path id="top" d="M101.32,11.11c-26.5.61-37,27.92-39.41,37.73-3.17,13.15,0,24.69-.85,54.11-1.11,40.5-2.33,88.66.74,98.33,2.55,8.05,27.45,17.25,40,19.41,12.35,2.13,37.66-2.61,40.74-9.84,2.19-5.15-2.34-16.8,0-21.39s3.39-2.81.7-18.34c-2.15-12.41-.11-30.73.61-40,.46-5.84,2.81-47.08,5-55.54,1.18-4.54,3.66-24.68,2.21-34.87-3.57-25.19-31.89-29.61-31.89-29.61s-4.08,33.31-4.93,43.42c-.17,2.06-8.91-1.9-8.91-1.9s-6.25,2.82-7,1.22C96.52,50.3,101.32,11.11,101.32,11.11Z" fill="#333"/>
    <path id="tab" d="M103.8,7.44c-1.38,1.14-3.72,10.18-4.4,20-.73,10.64-3,27-1.1,26.38,3.38-1.06,4.9-2,7.4-1.07s8.1,2.82,8.53,2c.6-1.12.92-10.81,2-21.18,1.08-10.79,2.87-22.29,3-24.39.2-2.91-6.12-1.71-7.6-1.79A72.42,72.42,0,0,0,103.8,7.44Z" fill="url(#leather_brn_to_blk-2)"/>
    <path d="M250.91,269.68a16.89,16.89,0,0,0-2.19-5.51c-2-3.23-5.62-7-12.18-9-12.85-4-27.94-4.61-51.33-23.42-11.77-9.48-19.81-15.76-25.36-20.89s-8.57-9-10.52-13.85c-.07-.23-.46-1.52-1-3.58-1.84-6.83-5.44-22-5-33.86.3-8.49,2.13-32.86,4.09-55.95C149.12,83.34,151,64,151.94,57.26c.17-1.14.31-2.33.41-3.57.62-7.37-.05-16.3-4.66-24.43S134.7,14,120.2,10.09c0-.16-.08-.33-.13-.51a3.66,3.66,0,0,0-1.94-2.66,4.17,4.17,0,0,0-1-.18c-1.94-.16-5.27.25-7.55,0a7.29,7.29,0,0,1-1.21-.19,10.49,10.49,0,0,0-1.81-.33A5.1,5.1,0,0,0,103,7.2a5.49,5.49,0,0,0-1.73,2.5A40.28,40.28,0,0,0,86.62,14C78.55,18.1,69.07,26,63.49,41.18a72,72,0,0,0-4,18.91c-1.35,16,1.46,31.31.6,41.23q-.08.92-.2,1.77c-.11.79-.21,1.69-.29,2.68-.71,8.37-.52,23.54-.22,37.59s.72,27,.49,30.57c-.46,7.18.61,18.31.14,23.78a14.25,14.25,0,0,1-.21,1.57c-.07.26-.64,2.47-1.44,5.22a86.06,86.06,0,0,1-3,8.84,92.64,92.64,0,0,0-3.66,13.49A157.33,157.33,0,0,0,48.79,245c-.11,1.34-.18,2.59-.2,3.73A4.35,4.35,0,0,0,47,251.94a9,9,0,0,0,.27,2.86c1,4.21,6.41,25.13,6.77,26.5a5.23,5.23,0,0,0,1.28,2.56c1.15,1.36,3.27,2.89,7.14,4a83.57,83.57,0,0,0,12.27,1.68c6.1.52,13.16.86,18.86.89,2.85,0,5.36-.05,7.26-.22a18.32,18.32,0,0,0,2.39-.34,5.13,5.13,0,0,0,.87-.27,1.85,1.85,0,0,0,.77-.57,27.38,27.38,0,0,0,2.68-5.68c.78-2.08,1.36-3.88,1.37-3.89l0-.15L108.87,269l2,.4c5.92,1.22,18.82,4.3,26.45,8.87,10.49,6.25,23.43,14.22,35.57,15.27s48.56-1.8,65.08-7c5.31-1.67,8.93-3.71,11.31-5.84s3.49-4.36,3.66-6.36A5,5,0,0,0,250.91,269.68ZM132.49,196.35l0,.31a4.49,4.49,0,0,1-1.09,2.89,1.75,1.75,0,0,1-1.4.45,2.88,2.88,0,0,1-.56-.11c.38-1.55,1.54-6.33,1.91-8.39a19.25,19.25,0,0,0,0-5.35l-3.2,14a6.77,6.77,0,0,1-3.39,4.22,8.14,8.14,0,0,1-1.36.58c1.23-2.89,4.67-11,7-17.4a24.89,24.89,0,0,0,1-6.87,145.61,145.61,0,0,1-5.32,14.58c-1.9,4.69-3.67,8.84-4.16,10h0l-.12.36s-.11.35-.34.88a12.36,12.36,0,0,1-1.71,2.93,3.25,3.25,0,0,1-2.66,1.46,2.91,2.91,0,0,1-1.32-.49,3.16,3.16,0,0,1-1.48-3.19,9.59,9.59,0,0,1,1.2-3.55c.27-.5.54-.92.74-1.22l.11-.15a2.73,2.73,0,0,0,1.77-.67,11.82,11.82,0,0,0,2.73-3.31c1.91-3.11,7.11-12.75,10.23-18.59a11.83,11.83,0,0,0,1.44-5.2s-2.48,4.67-5.3,9.9-6,11-7.37,13.27a10.78,10.78,0,0,1-2.43,3,1.69,1.69,0,0,1-1,.43,4.52,4.52,0,0,1-1-3.24,8.59,8.59,0,0,1,1.7-4.07,14.3,14.3,0,0,1,1.06-1.3l.38-.39c.64-.27,3.38-1.67,5.65-6.54,1.22-2.62,3.25-6.18,5-9.07a17.39,17.39,0,0,0,2.13-5.75s-5.65,8.94-8.16,14.32a14.47,14.47,0,0,1-3.5,4.94,7.07,7.07,0,0,1-1.19.85l-.25.13a2.08,2.08,0,0,1-1.32-1,3.27,3.27,0,0,1-.28-1.84,13.41,13.41,0,0,1,.83-3.25,39,39,0,0,1,2.14-4.08c1.65-2.89,3.93-6.66,5.79-9.71s3.31-5.36,3.31-5.36l.48-.77-.9-.13s-2.09-.3-4.89-1a41.4,41.4,0,0,1-9.09-3.16c-2.37-1.27-2.75-2.54-2.68-3.65a4.45,4.45,0,0,1,.69-1.91,5.66,5.66,0,0,1,.42-.59l.07-.08h0a7.12,7.12,0,0,1,2.11-.14,5.45,5.45,0,0,1,2.65.91c1.2.82,3.51,2.58,5.51,4.12s3.69,2.88,3.69,2.88a14.5,14.5,0,0,0-3.57-4.27c-1.85-1.42-3.84-2.93-5-3.7a6.64,6.64,0,0,0-3.22-1.11,8.16,8.16,0,0,0-2.57.19c-.27,0-1.51-.32-2.77-2.83a4,4,0,0,1-.3-2.1,14.15,14.15,0,0,1,1.33-4.39c.29-.64.58-1.19.8-1.58v0a11.58,11.58,0,0,1,2.83,3.8,15.74,15.74,0,0,0,5.61,6.57c.95.62,2.69,1.93,4.28,3.25a20.15,20.15,0,0,1,3.39,3.28,11.46,11.46,0,0,0-2.64-4.19c-1.63-1.35-3.37-2.66-4.39-3.33a14.56,14.56,0,0,1-5.18-6.08,12.51,12.51,0,0,0-3.58-4.57c-.21-.51-.94-2.34-1.64-4.55-.83-2.61-1.59-5.79-1.41-7.8a4,4,0,0,1,.21-1.06,4,4,0,0,1,2.31-2.48,4.73,4.73,0,0,1,2-.29h0a6,6,0,0,1,2.68,4.42c.1,1.61,0,4.71.22,7.8s.58,6.17,1.82,8,3.69,3.55,6.16,5.55,4.9,4.09,5.9,5.91c0,0-.48-3.46-5.16-6.83-2.48-2-4.95-3.89-5.94-5.31s-1.44-4.32-1.6-7.34-.11-6.1-.22-7.81a7.11,7.11,0,0,0-3.19-5.32,35.14,35.14,0,0,1-1.76-5.89c-.3-1.32-.55-2.52-.69-3.27a22.45,22.45,0,0,1,4.13,1.63c.77.34,1.77,1.66,2.66,3.53,2.71,5.58,4.77,16,4.44,19.68,0,.08,0,.17,0,.25s0,.16,0,.24c-.22,2.68,1.18,5.16,2.91,7.39s3.87,4.23,5.29,5.85a1.61,1.61,0,0,0,1,.63.93.93,0,0,0,.68-.22,2.7,2.7,0,0,0,.63-1.82c.35-4.31-1.53-16.18-3.55-27-2.75-14.72-11-38.08-13.78-46.27a22.9,22.9,0,0,1-1.15-9.54c.33-3.93,1.53-7.78,2.64-12.24,1-3.87,3.16-10.57,5.12-16.28,1.52-4.43,2.88-8.26,3.42-9.77,2.59,1.69,13,9.64,15.61,31a95,95,0,0,1,.66,19.89c-.71,8.4-2.71,13.23-3.25,19.55-.06.72-.1,1.46-.12,2.23-.19,8.36-.17,23.41-1,32.73a31.28,31.28,0,0,1-1.13,7,13.39,13.39,0,0,0-.84,3.62,10.7,10.7,0,0,0,1.07,5.93l.42.72.54-.64s.13-.16.39-.41a9.35,9.35,0,0,1,3.44-2.24c-.25,3.91-.42,7.08-.5,9.25-.07,1.88,0,3.83.07,5.81-6.09,4.35-7.9,12.28-8.5,19.2C132.49,189.51,132.7,194,132.49,196.35ZM119.76,12.56c0-.1.07-.19.11-.27l.15-.2c13.91,3.87,21.7,10.62,26,18.14s5,16.17,4.41,23.29c-.1,1.19-.24,2.35-.4,3.45-1,6.84-2.83,26.17-4.56,46.51-1.42,16.67-2.76,34-3.52,45.56a9.63,9.63,0,0,0-4.18,2.47,10.29,10.29,0,0,1-.58-4.5,12.14,12.14,0,0,1,.77-3.31,31.92,31.92,0,0,0,1.2-7.32c.8-9.4.77-24.45,1-32.8,0-.74.06-1.46.12-2.16.51-6.1,2.52-11,3.25-19.55a96.24,96.24,0,0,0-.67-20.14c-3.08-25-16.7-32.26-16.82-32.3l-.6-.31-.23.64s-6.86,18.94-8.82,26.84C115.23,61,114,64.91,113.66,69a24.14,24.14,0,0,0,1.21,10c2.76,8.2,11,31.56,13.74,46.11,2,10.78,3.88,22.77,3.53,26.71a4,4,0,0,1-.14.85l-.11-.12c-1.48-1.69-3.58-3.67-5.25-5.8s-2.86-4.4-2.66-6.56c0-.07,0-.13,0-.2s0-.19,0-.29c.23-2.78-.63-8.23-2-13.34a43.15,43.15,0,0,0-2.5-7c-1-2-1.95-3.45-3.21-4.08-3.12-1.5-4.5-1.79-5.1-1.85a1.45,1.45,0,0,0-.39,0l-.57.11.1.57s.34,1.89.85,4.12a42.91,42.91,0,0,0,1.54,5.41,5.8,5.8,0,0,0-1.79.38,5.17,5.17,0,0,0-3,3.17,5.1,5.1,0,0,0-.29,1.37c-.19,2.36.62,5.57,1.46,8.25.67,2.11,1.36,3.87,1.62,4.53a18.82,18.82,0,0,0-2.49,6.83,5.16,5.16,0,0,0,.42,2.73,6.53,6.53,0,0,0,2.87,3.22,5.84,5.84,0,0,0-1,2.7c-.16,1.58.66,3.45,3.31,4.8,4.71,2.45,11.14,3.71,13.47,4.1-.86,1.39-2.8,4.53-4.81,7.85-1.35,2.24-2.73,4.56-3.84,6.5a38.5,38.5,0,0,0-2.23,4.27,14.48,14.48,0,0,0-.89,3.56,4.4,4.4,0,0,0,.42,2.51,3.08,3.08,0,0,0,1.34,1.27,11,11,0,0,0-3,5.94,5.71,5.71,0,0,0,1.07,3.87,12.55,12.55,0,0,0-2.23,5.46,4.36,4.36,0,0,0,2,4.28A4.08,4.08,0,0,0,117,212h0a3.75,3.75,0,0,0,2.66-.89,12,12,0,0,0,3.14-4.85,9.18,9.18,0,0,0,2.48-.91,8,8,0,0,0,3.78-4.34,4.09,4.09,0,0,0,.79.15,2.94,2.94,0,0,0,2.31-.76,5.62,5.62,0,0,0,1.47-3.63l0-.33c.21-2.47,0-6.92.41-11.81.55-6.58,2.26-13.81,7.4-17.89a132.68,132.68,0,0,0,2.68,17.94c-1.84,1.94-2.62,4.77-2.88,7.73-.4,4.79.57,10.09,1.12,13.14a5.71,5.71,0,0,1,.07,1.5c-.33,4.4-6,9.86-18.11,12.41a59.29,59.29,0,0,1-17.41,1c-2.06-.17-3.95-.43-5.65-.69.2-2.07.37-3.94.51-5.54,1-11.32,1.88-62,1.66-82.71-.11-10.25.92-29.94,2-47C106,75.93,106.55,68,107,62.26c.28-3.94.49-6.88.6-8.34l1.28.57a13.33,13.33,0,0,0,3.81,1.22,2.88,2.88,0,0,0,1.38-.18,1.93,1.93,0,0,0,1-1l0-.09v-.11s.35-4.9.9-11.38,1.27-14.2,2-20.44c.38-3.12.78-5.84,1.17-7.75A16.54,16.54,0,0,1,119.76,12.56ZM101.87,12c.32-2.12,1-3.27,1.82-3.88a3.92,3.92,0,0,1,2.81-.68,9.46,9.46,0,0,1,1.61.3,8.25,8.25,0,0,0,1.41.23c2.46.2,5.84-.2,7.55,0a3.06,3.06,0,0,1,.69.12c.45.11.94.95,1.18,1.86a9.6,9.6,0,0,1,.25,1.21v.08a1.35,1.35,0,0,0-.2.23,5.48,5.48,0,0,0-.62,1.61c-1.29,4.92-2.68,19.37-3.57,29.8-.5,5.9-.84,10.5-.9,11.28a.7.7,0,0,1-.36.32,1.72,1.72,0,0,1-.81.08,12.41,12.41,0,0,1-3.43-1.12,24.78,24.78,0,0,0-3.4-1.37,2.91,2.91,0,0,0-.46-.07,9.7,9.7,0,0,0-3.78.84,9.09,9.09,0,0,1-3,.79.77.77,0,0,1-.27-.06,8,8,0,0,1-.13-1.58c-.05-2.64.28-7.77.77-13.49C100,27.86,101.4,15.15,101.87,12ZM61.35,143.32c-.3-14-.49-29.22.21-37.38.08-1,.18-1.83.28-2.57s.16-1.24.21-1.88c.87-10.39-1.95-25.51-.6-41.23a70.1,70.1,0,0,1,3.9-18.4C70.76,27.19,79.8,19.69,87.51,15.79a41.55,41.55,0,0,1,9.92-3.53c1.27-.27,2.3-.42,3-.51l.28,0s0,.08,0,.12c-.48,3.2-1.9,15.88-2.81,26.51-.35,4.07-.62,7.84-.72,10.67-.05,1.41-.07,2.59,0,3.46a8.58,8.58,0,0,0,.1,1.09,1.31,1.31,0,0,0,.39.83,1.76,1.76,0,0,0,1,.36h0a9.53,9.53,0,0,0,3.48-.86,8.86,8.86,0,0,1,3.28-.77l.28,0h0c-.41,5.48-4.33,58.68-4.11,78.35.22,20.59-.7,71.41-1.65,82.52-.13,1.55-.3,3.37-.5,5.39-1.87-.32-3.45-.63-4.72-.81-5.06-.72-16-5.06-24.65-10.73-4.29-2.82-6.4-5.17-7.42-6.77a7.54,7.54,0,0,1-.83-1.66c.09-.48.15-1,.2-1.58.11-1.3.14-2.87.13-4.59a3.06,3.06,0,0,0,1.76.71,4.27,4.27,0,0,0,1,0,7.52,7.52,0,0,0,3.28,4.46,9.54,9.54,0,0,0,2.37,1.11,14.41,14.41,0,0,0,1,2.61c.75,1.48,2,3.17,4,3.36h0a4.26,4.26,0,0,0,2.11-.41,4.07,4.07,0,0,0,2.53-3.53A10.78,10.78,0,0,0,78.56,196a5.18,5.18,0,0,0,1.49-3.22c.19-2.57-1.32-4.94-2.21-6.1a3.11,3.11,0,0,0,1.35-.9,3.7,3.7,0,0,0,.81-2.14,11.89,11.89,0,0,0-.46-3.73,34.51,34.51,0,0,0-1.73-4.22c-2.17-4.75-5.74-11.85-6.95-14.25,2.4-.12,9-.58,14-2.33,2.69-.92,3.78-2.47,3.89-4a5.08,5.08,0,0,0-.68-2.79,6.52,6.52,0,0,0,3.22-2.67,4.44,4.44,0,0,0,.73-2.19c.21-2.75-1.2-6-1.66-7,.79-1.34,4.22-7.28,4.58-11.21a5,5,0,0,0-.1-1.68,5,5,0,0,0-2.34-3.13,6,6,0,0,0-2-.7A39.41,39.41,0,0,0,92.6,119c.78-2,1.34-3.74,1.34-3.74l.19-.57-.58-.18a1.16,1.16,0,0,0-.24,0c-.51,0-1.86,0-5.45,1.15-1.29.43-2.45,1.66-3.61,3.31-3.44,5-6.67,13.95-7,18.11,0,.25,0,.49,0,.72s0,.28,0,.42c-.15,2-1.62,3.89-3.53,5.65s-4.19,3.34-5.84,4.72l-.16.12a4.78,4.78,0,0,1,0-1.23c.34-4.09,3.5-14.56,6.67-24C78.74,110.17,89.8,89.34,93.53,82a21.3,21.3,0,0,0,2.34-8c.36-4.28-.51-8.38-1.14-13-1-7.57-5.67-25.94-5.67-26l-.16-.63-.61.22c-.11,0-14.64,5.24-20.7,28.23a91.22,91.22,0,0,0-2.87,15.58c-.91,10.76,1.3,16,.68,23.16,0,.17,0,.34,0,.51-.59,5.79-1.74,15-2.42,23-.54,6.48-.81,12.05-.15,14.56a10.46,10.46,0,0,1,.35,3.61,9.14,9.14,0,0,1-.85,3.16c-.08.17-.16.32-.24.46l-.15-.17-.48-.52Q61.38,144.76,61.35,143.32Zm.11,4.71.17.21.45.61.48-.59a9.49,9.49,0,0,0,1.75-4.9,11.61,11.61,0,0,0-.38-4c-.58-2.08-.37-7.75.18-14.16.68-8,1.83-17.2,2.42-23,0-.18,0-.35,0-.52C67.19,94.15,65,89,65.9,78.48A90,90,0,0,1,68.73,63.1c3-11.28,8-18.13,12.25-22.17a29.33,29.33,0,0,1,5.47-4.14c.69-.4,1.24-.67,1.63-.85.36,1.46,1.28,5.18,2.28,9.46,1.28,5.53,2.7,12,3.2,15.7.64,4.7,1.48,8.72,1.13,12.77a20.14,20.14,0,0,1-2.21,7.61c-3.73,7.32-14.8,28.14-19.3,41.54-3.18,9.49-6.35,19.88-6.73,24.27a5.68,5.68,0,0,0,0,1.59,1.54,1.54,0,0,0,.26.62,1,1,0,0,0,.68.38,1.61,1.61,0,0,0,1.13-.47c1.58-1.33,3.9-2.92,5.88-4.76s3.68-3.94,3.9-6.42c0-.17,0-.35,0-.52s0-.38,0-.61c.21-2.51,1.71-7.41,3.67-11.75a37.07,37.07,0,0,1,3.16-5.79,7.28,7.28,0,0,1,3-2.86,24.18,24.18,0,0,1,4.34-1.07c-.24.68-.61,1.74-1.06,2.9A31.44,31.44,0,0,1,89,123.82a6.81,6.81,0,0,0-3.84,4.63c-.31,1.58-.6,4.44-1.14,7.24s-1.36,5.52-2.46,6.62S77.73,145,75,146.6c-5.78,3.29-6,5.87-6,5.87,1.21-1.59,3.91-3.28,6.61-4.85s5.42-3,6.83-4.48,2.21-4.36,2.78-7.23.85-5.76,1.14-7.24a5.08,5.08,0,0,1,1.85-2.94,6.8,6.8,0,0,1,1-.69l.32-.16h.28a5,5,0,0,1,2,.61,3.75,3.75,0,0,1,1.78,2.41,3.84,3.84,0,0,1,.07,1.28,22.86,22.86,0,0,1-2.4,7c-.93,1.9-1.82,3.42-2.09,3.87a12.26,12.26,0,0,0-4.14,3.86A14.34,14.34,0,0,1,79.18,149c-1.1.51-3,1.54-4.79,2.61a6.39,6.39,0,0,0-3.18,3.69A20.18,20.18,0,0,1,75,152.6c1.75-1.06,3.65-2.08,4.68-2.55a15.52,15.52,0,0,0,6.4-5.5,11.27,11.27,0,0,1,2.54-2.71c.29-.22.55-.4.76-.53l0,.07a14.29,14.29,0,0,1,1.38,6,3.26,3.26,0,0,1-.52,1.61,5.89,5.89,0,0,1-2.3,2.1,2.53,2.53,0,0,1-.67.21l-.16,0a8.61,8.61,0,0,0-2.09-.43,7.27,7.27,0,0,0-3.8.65c-2.7,1.32-10.12,5.53-10.13,5.54a10.94,10.94,0,0,0,4.63-1.24c2.18-1.22,4.71-2.6,6-3.23a6.09,6.09,0,0,1,3.19-.53,8,8,0,0,1,1.36.24l.36.11.06.09a4.24,4.24,0,0,1,.79,2.53c-.1,1-.66,2.05-3.1,2.94a44.79,44.79,0,0,1-9.5,1.94c-2.89.31-5,.36-5,.36l-.94,0,.42.84s2.09,4.12,4.27,8.57c1.09,2.23,2.2,4.54,3.07,6.45a35.09,35.09,0,0,1,1.66,4,10.89,10.89,0,0,1,.43,3.34A2.54,2.54,0,0,1,78.3,185a2.22,2.22,0,0,1-1.4.69c-.55-.32-2.72-1.74-4.26-6C71.76,177.2,70.3,174,69,171.2a17.47,17.47,0,0,0-3.9-5.24s1.15,2.23,2.53,5.11,3,6.41,3.91,9c1.71,4.81,4.3,6.41,4.91,6.73.07.08.19.22.35.43.79,1,2.29,3.34,2.09,5.45a4,4,0,0,1-1.33,2.66h0c-.26,0-1.42-.33-3-3.55-1.11-2.22-3.61-8-5.82-13.15-2.92-7.22-5.24-9.34-5.24-9.34s7.73,18.46,10,23c1.67,3.36,3.08,4.11,4,4.2h.06l.1.18a9.64,9.64,0,0,1,1.35,4.79A2.87,2.87,0,0,1,77.1,204a3.08,3.08,0,0,1-1.53.31c-1.28-.08-2.32-1.33-3-2.71a12.76,12.76,0,0,1-.74-1.86c-.16-.51-.23-.83-.23-.83l-.08-.37h0c-.36-1.14-1.64-5.19-3-9.73a127.88,127.88,0,0,1-3.61-14.15,8.31,8.31,0,0,0-.1,5.24c1.58,6.27,4.34,15.12,5.31,18.21a8.17,8.17,0,0,1-1.76-1,6.19,6.19,0,0,1-2.43-3.95l-1.56-13.33a15.4,15.4,0,0,0-.6,5.09c.19,2,.73,6.38.92,7.88a3,3,0,0,1-.73,0,1.8,1.8,0,0,1-1.29-.63,3.15,3.15,0,0,1-.61-1.61c0-.56,0-1.12,0-1.69,0-.2,0-.41,0-.64.14-1.69.49-4.11.73-6.87.35-4.22.46-9.24-.89-13.81C61.82,162.6,61.63,155.64,61.45,148Zm.33,26.85c.06,1.54,0,3.06-.06,4.52C61.71,177.79,61.72,176.26,61.78,174.87Zm9.69,84.29c-1.86-.16-3.59-.36-5.13-.64A28.12,28.12,0,0,1,53.88,253a24.35,24.35,0,0,1-3-2.78l-.31-.35v-.6c0-1.21.07-2.59.2-4.11a155.71,155.71,0,0,1,2.88-18,91.91,91.91,0,0,1,3.54-13.12,114.13,114.13,0,0,0,4.14-12.84c1,1.8,3.25,4.45,8.06,7.6,8.78,5.76,19.74,10.12,25.13,10.91,1.25.18,2.86.49,4.78.82-.34,3.51-.72,7.52-1.08,11.68-.88,10.38-1.63,20.81-.76,27.56C89.19,259.62,79.22,259.82,71.47,259.16Zm121,24.58a152.32,152.32,0,0,1-18-.35c-12.58-1.07-22.05-4-30.09-8.7a130.65,130.65,0,0,0-36.11-13.91,41.54,41.54,0,0,0-4.46-.59c-1.38-.12-2.87-.2-4.44-.27-.82-6.41-.16-17.2.72-27.46.35-4.09.73-8,1.06-11.53,1.71.27,3.61.52,5.67.69a60.43,60.43,0,0,0,17.75-1c12.3-2.62,18.54-8.15,19-13.47a6.82,6.82,0,0,0-.08-1.81c-.56-3-1.5-8.26-1.11-12.83a12.54,12.54,0,0,1,2-6.37c1.5,6.73,3,11.49,3,11.51v0l0,0c2.08,5.19,5.38,9.4,11,14.61s13.7,11.5,25.46,21c23.66,19.08,39.51,19.92,52,23.77,6.1,1.89,9.32,5.24,11.08,8.11a15.77,15.77,0,0,1,1.66,3.72c.14.48.23.86.28,1.12s0,.23,0,.29v.08l0,.3C239.87,279.55,214.12,283,192.49,283.74Z"/>
  </g>
</svg>
