<svg xmlns="http://www.w3.org/2000/svg" viewBox="0 0 31.92 58.96">
  <title>coat</title>
  <g id="Layer_2" data-name="Layer 2">
    <g id="rain-coat">
      <g>
        <path d="M7.31,5.36,21,4l3.55,1.38a2.22,2.22,0,0,1,1.87,2.17c.3,2.07,2.46,12.31,2.76,15.17s1.38,12.11,1.67,13,.79,2.66.79,2.66a7.17,7.17,0,0,1-5.34.47l-1.46-6.88C24.45,29,23,19,23,19s-1.67,3,.3,7.09,3.25,29.25,3.25,29.25S15.88,61,4.75,56.28c0,0,.69-15.27,1-17.33S6.91,27.72,7.9,25.85,9,19.44,7.7,18c0,0-2.59,13.12-2.19,20,0,0-3.27,1.16-5.24,0,0,0,2.9-23.15,3.3-24.92s1.08-6.3,1.08-6.3S4.55,5.36,7.31,5.36Z" fill="#5e5e5e" stroke="#000" stroke-width="0.5"/>
        <path d="M17.94,1c-.69-.49-2.36.1-3.35,0S13.12,2.8,13.12,2.8L13.22,7l3,5.22L19,6.64C19.23,3.09,18.63,1.52,17.94,1Z" fill="#5e5e5e" stroke="#000" stroke-width="0.5"/>
        <path d="M20.56,28.57s3.28-.53,3.19-1c0,0,.35.15.35.32l1.11,10A3,3,0,0,1,23,39c-1.46.06-2.58-.41-2.58-1Z" fill="#bbb9bd" stroke="#231f20" stroke-width="0.75"/>
        <polygon points="20.64 31.71 24.47 31.57 24.54 31.95 20.59 32.3 20.64 31.71" fill="#141414"/>
        <path d="M22.85,13.38a2.07,2.07,0,0,1-.49,1.42A29.52,29.52,0,0,0,19.81,17c0,.25.59,2.84.59,2.84s.74,12,.39,16.76.49,20.64.49,20.64a7.78,7.78,0,0,1-1.18.25c-.29,0-.2-21.47-.2-21.47l-.2-16.32-1.47-2.94.93-1.32Z" fill="none"/>
        <path d="M24.41,10.54S21.08,7.06,20.93,7s-1.22-.59-1.42-.34-.78.79-.29,1.18A35.24,35.24,0,0,0,24.41,10.54Z" fill="#080808"/>
        <path d="M7.06,10.44l.25-1.13s4.85-2.25,5.29-2.06,1.81,1.08-.1,2.89a1.38,1.38,0,0,0-1.57-1.23A17.09,17.09,0,0,0,7.06,10.44Z" fill="#141414"/>
        <path d="M19.27,18.68l.94,1.06s.78,12.52.29,18.69-.15,19.85-.15,19.85-6.13.59-9.8-.39" fill="#5e5e5e" stroke="#000"/>
        <path d="M19.91,7.13l4.63,3.25c.39-1.77-1.48-5.52-3.15-6.3S20.32,3.32,19,1.42s-5-1.24-6.4.2A9.54,9.54,0,0,1,10,3.49l-1.18.59c-1.18.59-2,6-2,6S13,7,13,8.12s-3.45,4.53-3.45,4.53c.59,3.35,10.64,7.09,10.64,7.09l-1.38-3.15c5-2.36,4.53-3.94,4.53-3.94S20,8.81,19.42,8,19.91,7.13,19.91,7.13ZM19,6.64l-2.86,5.61L13.22,7l-.1-4.24S13.61.93,14.6,1s2.66-.49,3.35,0S19.23,3.09,19,6.64Z" fill="#bbb9bd" stroke="#231f20" stroke-width="0.5"/>
        <path d="M8.61,20.9s.77.71,4.81.71,7.42-.14,9-.63l.46,3.9s-1.57.77-6.7,1a38,38,0,0,1-8.06-.39l-.35-.94S8.51,21.49,8.61,20.9Z" fill="#111" stroke="#000"/>
        <path d="M14.52,21.55s.14-.64.54-.66c.59,0,.61.67.61.67l0,4.35s.1.81-.58.85-.61-.81-.61-.81l.34,0,0-4.39Z" fill="#fff"/>
        <path d="M17,21.5s.09-.65.5-.66c.59,0,.63.7.63.7l.07,4.27s.11.86-.57.9-.61-.84-.61-.84h.33l0-4.35Z" fill="#fff"/>
        <ellipse cx="8.79" cy="22.69" rx="0.22" ry="0.21" fill="#c1b49a"/>
        <ellipse cx="10.55" cy="23.03" rx="0.22" ry="0.21" fill="#c1b49a"/>
        <ellipse cx="12.58" cy="23.03" rx="0.22" ry="0.21" fill="#c1b49a"/>
        <ellipse cx="8.51" cy="24.41" rx="0.22" ry="0.21" fill="#c1b49a"/>
        <ellipse cx="10.27" cy="24.6" rx="0.22" ry="0.21" fill="#c1b49a"/>
        <ellipse cx="12.29" cy="24.6" rx="0.22" ry="0.21" fill="#c1b49a"/>
        <ellipse cx="19.92" cy="22.76" rx="0.22" ry="0.21" fill="#c1b49a"/>
        <ellipse cx="21.59" cy="22.55" rx="0.22" ry="0.21" fill="#c1b49a"/>
        <ellipse cx="19.98" cy="24.28" rx="0.22" ry="0.21" fill="#c1b49a"/>
        <ellipse cx="21.82" cy="23.95" rx="0.22" ry="0.21" fill="#c1b49a"/>
        <path d="M7.09,28.65,7,29.18a41.55,41.55,0,0,0,4.28,0s0,8.52-.33,9.2A2.77,2.77,0,0,1,8.52,39.8a22.45,22.45,0,0,1-2.85-.42s.46-10,.59-10.21A3.06,3.06,0,0,1,7.09,28.65Z" fill="#bbb9bd" stroke="#231f20" stroke-width="0.5"/>
        <path d="M7.52,18.54s.05-7.19-.05-8a86.1,86.1,0,0,1,1,9.14,8.36,8.36,0,0,0-.71-1.76A2.46,2.46,0,0,0,7.52,18.54Z" fill="#141414"/>
        <path d="M23,19s1.18-5.85,1.26-7c0,0,0,5.59-1,8.68Z" fill="#141414"/>
        <polygon points="6.04 32.3 7.16 32.74 10.74 32.65 11.18 29.95 11.13 32.99 7.31 33.38 6.04 32.7 6.04 32.3" fill="#141414"/>
        <line x1="16.17" y1="12.25" x2="18.83" y2="16.59" fill="none" stroke="#000" stroke-width="0.5"/>
      </g>
    </g>
  </g>
</svg>
