<svg id="Layer_1" data-name="Layer 1" xmlns="http://www.w3.org/2000/svg" xmlns:xlink="http://www.w3.org/1999/xlink" viewBox="0 0 300 300">
  <defs>
    <radialGradient id="radial-gradient" cx="150.71" cy="123.31" r="120.61" gradientUnits="userSpaceOnUse">
      <stop offset="0" stop-color="#f0f"/>
      <stop offset="0.15" stop-color="#fc00ff"/>
      <stop offset="0.28" stop-color="#f100ff"/>
      <stop offset="0.4" stop-color="#e000ff"/>
      <stop offset="0.52" stop-color="#c700ff"/>
      <stop offset="0.63" stop-color="#a700ff"/>
      <stop offset="0.74" stop-color="#7f00ff"/>
      <stop offset="0.85" stop-color="#5100ff"/>
      <stop offset="0.95" stop-color="#1c00ff"/>
      <stop offset="1" stop-color="blue"/>
    </radialGradient>
  </defs>
  <title>dress</title>
  <path id="node14" d="M110.12,8.24s-5-.58-4.65,11.29c-.34,6.89,1.88,27.49,1.88,34.36,0,4.49,2.91,14,6.08,21.4,10.3,22.19,10.57,30.65,1.32,53.63-6.6,16.64-46.23,127.34-51.52,143.72-1.59,5.28,7.93,10,19.55,10a20.48,20.48,0,0,1,12.15,4.76c4.49,4,11.1,4.49,56.54,4.49,44.12,0,51.78-.53,54.42-4.23,1.85-2.38,8.72-4.76,15.85-5.55s14-2.64,15.06-3.7c2.38-2.38-26.68-90.88-45.44-137.9-9.25-23.78-10.57-29.32-9.25-41.48.79-7.66,4-18.76,6.87-24.57,3.17-6.08,5.55-15.06,5.55-20.08,0-8.19,1.06-9.51,9.25-12.15,5-1.59,9.77-4.23,10.57-5.55s-.79-7.66-3.7-14C206.69,13.2,204,10.83,198,10c-6.87-.79-7.66.26-12.68,15.06L180,40.94l-28.27.26-28.53.53S113.88,5.41,110.12,8.24Zm65.65,112c-4.23,4.23-37.78,5-45.44,1.06-6.08-3.43-4.23-3.7,20.61-3.7C168.64,117.56,177.63,118.35,175.78,120.2Z" fill="url(#radial-gradient)"/>
</svg>
