<svg xmlns="http://www.w3.org/2000/svg" viewBox="0 0 38.23 60">
  <title>ear</title>
  <g id="Layer_2" data-name="Layer 2">
    <g id="ear">
      <g>
        <path d="M2.32,40.72S-2,35.61,1.18,25.83a87.72,87.72,0,0,0,1.2-11.28s4.35-20,24-12c0,0,18.92,11,7.64,33.49a42,42,0,0,1-12.1,15.16S10.26,65,5,56.59c0,0-.53-1.37.06-4.76,0,0,1.06-5.46-1.53-9.11Z" fill="#f0d0b4"/>
        <path d="M30.83,27.26a40.36,40.36,0,0,0-1.94-10.09c-1-2.68-1.84-5.73-3.93-7.7-2.33-2.19-5.64-2.64-8.76-2.34-3.44.34-5.15,1.74-6.64,5a12,12,0,0,0-1.46,6.08c.11,1.74,1.32,3.39,2,4.94.73,1.76,1.57,3.91,3.1,5.15,1.28,1,2.91,1.5,4.18,2.52,1,.81,1.63,2.55,2.82,2.93.17-1-.77-2.58.4-3.25,1.71-1,2.07,1.94,3.22,2.53,1.77-1.7-1.94-6.73-2.69-8.43-.67-1.53,0-3-.7-4.59-.61-1.38-2-2.63-2.83-3.89C16,13.82,14,8.7,19,10.34c2.92,1,4.32,5.09,5.37,7.71a44.66,44.66,0,0,1,2.23,8.69c.56,3.08,1.69,7,.36,10a10.33,10.33,0,0,1-2.46,3.62c-1,.87-2.08,2.19-3.19,3-2.53,1.82-5.47-.44-7.76,1.58-.68.6-2.89,2.2-2.44,3.13.59,1.2,4.31.08,5.27-.19a21.8,21.8,0,0,0,7.89-4.27,27.81,27.81,0,0,0,4.92-6.16C31.21,34.19,31.21,31,30.83,27.26ZM16.22,19.15c.63,1.05,3.9,3,3.06,4.22s-5.08-2.09-5.66-2.88c-.73-1-2.17-3.87-1.1-5C14.4,13.53,15.6,18.12,16.22,19.15Z" fill="#cf9e76"/>
        <path d="M5.93,22.51c1.31,1.61,1.54,3.22,2.62,4.92-1.16-1.56-3-2.49-4.25-3.86C1.53,20.62,1.52,15,2.87,11.45,3.59,9.52,6,3.69,8.6,3.81c.2,1.5-1.38,2.37-2.11,3.42A15.43,15.43,0,0,0,4.5,12C3.57,15.51,3.54,19.59,5.93,22.51Z" fill="#cf9e76"/>
        <path d="M6,53.48C5.89,55,5.7,56.07,7,56.83s3,.15,4.2-.57a44.23,44.23,0,0,0,6.9-5.42c2.28-2.2,5-3.42,7.41-5.46,4.51-3.85,6.86-9.83,7.93-15.32,1-4.88,1.84-10.25.19-15.09S27,5.68,22.54,3.38A21.13,21.13,0,0,0,18.48,2,24.26,24.26,0,0,1,15,1.26C20-1.45,27.66,3.73,31.35,6.46a11,11,0,0,1,4.59,7,38,38,0,0,1,.71,17.11,25.34,25.34,0,0,1-3.49,7.94c-1.43,2.24-2.85,4.93-4.76,6.73a67.11,67.11,0,0,0-5.72,5.6c-1.7,2-3.27,4.08-5.59,5.42-3.68,2.12-8.46,6-12,1.63-3-3.84,1.28-6.91.21-10.8a33.63,33.63,0,0,0-1.47-3.63C8.13,43.29,6.19,51.49,6,53.48Z" fill="#cf9e76"/>
        <path d="M10.73,31.63c1.71,1.45,4,2.74,5.52,4.36.67.69,2.16,2.53,1.72,3.58s-2.66,1.08-3.57,1.36c-2.21.68-4.91,4.49-6.7,1-1.09-2.15.71-2.67,1.46-4.27,1-2.09-2.43-3.16-2.48-4.94C6.62,30.27,9.45,30.55,10.73,31.63Z" fill="#cf9e76"/>
        <g>
          <path d="M2,19S-.36,4.56,15.05.2c0,0,18.4-3.37,22.78,17.76,0,0,3.29,13.37-9.21,27.18s-17.91,17-23,13.64S7.06,51,4,43.69c0,0,2.45,3.09,1.37,8.44S8,61.26,14.22,57c0,0,15.73-12.92,19.22-21,0,0,10.28-18.9-4.51-30.85,0,0-9.63-7.68-19-1.36C10,3.85,2.75,7.24,2,19Z" fill="#7d4921"/>
          <path d="M15,33s-.82,0-3.11-5.41c0,0-1.35-3.59-2.84-4.6,0,0-4.6-5.58-1.71-11.48,0,0,6.6-10.63,18.84-2.43,0,0,5.39,3.64,5.69,17.12,0,0,1.72,12.42-9.22,18.95,0,0,11-6.56,7.14-23.05,0,0-1.15-18.49-15.65-14,0,0-2.49.57-2.55,2.12,0,0,0,2.67-1.71,3.8,0,0-2.78,1.81-.47,5.32s5.82,4,9,8.32c0,0,7.86,9.68,2.13,13a5.14,5.14,0,0,1-3.7.59s-2.08-.84-4.57,1.75c0,0-3.18,2.53-5.41-.66a3.1,3.1,0,0,1,.39-3.87c1.76-1.9,1.57-1.88-.17-4S7,29.25,8.88,31s4.06,4.68,4.86,4.86a9.81,9.81,0,0,1-3.12-2.41C9.49,32,7,30.83,8,33.13s4.46,2.74,2.4,5.67A10.17,10.17,0,0,1,8.8,40.14,1,1,0,0,0,8.55,42c1.26,1.2,3.1-.65,4.59-1.75a4,4,0,0,1,3.24-.66s4.59.83,4.56-2.5a17.26,17.26,0,0,0-3.6-9s-3.41-4.24-5-4.19-.32,1,.12,2.42A19.65,19.65,0,0,0,15,33Z" fill="#7d4921"/>
        </g>
        <path d="M4.15,33.91c.44.72,2,1.74,2.09,2.61.06,1.2-2,2-1.52,3.6-2.38.6-1.81-3.51-2.19-4.71a9.4,9.4,0,0,1-.62-2.91,12.17,12.17,0,0,1,.82-2.86c.32-1.2.19-5.36,2.62-3.41.69.56,1.1,1.27,1.8,1.8.49.36,1.09.5,1.41,1a1.65,1.65,0,0,1-1,.26c-1,0-2.33-.25-3.17.37C3.12,30.62,3.44,32.74,4.15,33.91Z" fill="#f5e0cd"/>
        <path d="M12.85,4.26C10,5.69,6.6,8.05,5.8,11.33c1.27.19,3-3,3.83-3.77A10.21,10.21,0,0,1,15.31,5a13.21,13.21,0,0,1,6.23.59c1.74.68,3.3,1.89,5,2.59a2.85,2.85,0,0,0,.82.34c-.34,0-1.71-2.05-2.15-2.37a20,20,0,0,0-2.42-1.51A11.2,11.2,0,0,0,12.85,4.26Z" fill="#f5e0cd"/>
        <path d="M23.56,21.57c-.38-2.35-.83-7.36-3.76-8-1.28-.29-1.39.83-1,1.79.77,1.77,2.44,3,3.09,4.91.36,1,.2,2,.47,3.08a16.8,16.8,0,0,0,1.23,2.73,21.3,21.3,0,0,1,1,2.9c.54,1.81,1.39,1.54.95-.37C25,26.24,23.94,23.91,23.56,21.57Z" fill="#f5e0cd"/>
        <path d="M17.74,35.58c.21.47.74,2.48,1.23,2.65.86.3.86-1,.8-1.53a5.61,5.61,0,0,0-1.44-3c-.63-.79-1.77-3-2.91-2.83s-.27.47,0,1C16.11,33.2,17.12,34.22,17.74,35.58Z" fill="#f5e0cd"/>
        <path d="M12.6,50.1a24.16,24.16,0,0,0,5.86-2c-.43,1.57-3.33,2.14-4.48,3-1.7,1.29-2.93,3.25-5,4-3.25,1.21-1.36-3.37-1.29-4.87,0-.93-.26-2.19.26-3a8.45,8.45,0,0,1,2.69-1.91c.1,0,.2-.1.32-.1.43,0-1.23,2.3-1.29,2.46C8.85,49.79,11.17,50.32,12.6,50.1Z" fill="#f5e0cd"/>
      </g>
    </g>
  </g>
</svg>
