<svg xmlns="http://www.w3.org/2000/svg" viewBox="0 0 57.42 21.17">
  <title>eye-glasses</title>
  <g id="Layer_2" data-name="Layer 2">
    <g id="eye-glasses">
      <g>
        <path d="M6.72,9.47s5.94-.1,7.62-.05,7.15.6,7.15.6,3.46.35,2.94,2.36c0,0-.79,5.42-1.5,6.48s-5.28,1.61-8,1.61-9.77-.1-10.33-3c0,0-1.54-7.48.09-7.78A9.11,9.11,0,0,1,6.72,9.47Z" fill="#ddd"/>
        <path d="M37.7,9.47s8.46-.8,10.66-.7a22.21,22.21,0,0,1,3.93.1c1.64.25,1.59,1.51,1.5,2.81S53.5,17.2,52.19,18c0,0-4.39,2.46-13.88,1.91,0,0-3-.05-3.55-1.81,0,0-1.87-4.67-1.45-6.38C33.31,11.68,33.31,9.67,37.7,9.47Z" fill="#ddd"/>
        <path d="M33.36,12.28s2.29-.75,2.71,3.61c0,0,.09,2.51-1.22,2.06l-2.1-3.36S31.35,12.63,33.36,12.28Z" fill="#666"/>
        <path d="M24.25,12.53s-1.45.1-2,2.41-.09,3.61.51,3.87A6.07,6.07,0,0,0,25,15.94S26.4,12.13,24.25,12.53Z" fill="#666"/>
        <path d="M56.87,8.31c.42-1.76-1.4-5.47-1.4-5.47.23-.35.19-.65-.47-2.21s-2.24.25-2.24.25l-1.5,1.46c-.93.5-1.5,1.05-.93,2.36S52.19,4,52.19,4s.37-.75,1.26-2.16,1.08-.15,1.17.25a2.63,2.63,0,0,0,.33.75,15.79,15.79,0,0,1,.89,5.22,22.37,22.37,0,0,1-.56,2.36l-.79-.05C54.39,8,51.54,8.11,50.84,8s-6.12.15-7.95.25a84.15,84.15,0,0,0-8.41,1.1,3.19,3.19,0,0,0-2.1,1.91c-1.45-.35-7.24.15-7.24.15C24.57,8.31,14.9,8.67,13.36,8.61A80.83,80.83,0,0,0,4.85,9c-1.59.25-1.73,2.21-1.73,2.21A1.51,1.51,0,0,1,1.86,11c.23-.55-.28-1.71-.28-1.71a5.26,5.26,0,0,1,0-1.91,26.36,26.36,0,0,1,.93-3.77,1.74,1.74,0,0,0,.61-1c.51-1.66,1.31.35,1.31.35S5.5,5.15,5.92,5.3s.89.3.79-1.2A1.91,1.91,0,0,0,5.36,2.29,8.13,8.13,0,0,0,4.1,1c-.61-.45-1.17-.2-1.73.65A2.73,2.73,0,0,0,2,3.39C.88,4.7.27,9.22.27,9.22c-.61.8,0,2.31,0,2.31a1.48,1.48,0,0,0,.56,1,7,7,0,0,0,2.29.6,18.45,18.45,0,0,0,.28,2.56,7.17,7.17,0,0,0,1.17,3.46c1.82,1.66,8.13,2.06,9.39,2.06s6.31-.15,7.66-.6A3.7,3.7,0,0,0,24,17.85a50.74,50.74,0,0,0,1.12-5.37c1.22-.65,6.73-.3,7.2-.2S33,15,33,15s.51,3.51,2.06,4.67,7.71.9,9.91.7,7.57-1.31,8.32-2.31,1.12-5.92,1.12-5.92c2.48-.2,2.66-1.31,2.66-1.31C57.94,8.46,56.87,8.31,56.87,8.31ZM24.43,12.53S23.64,18,22.94,19s-5.28,1.61-8,1.61-9.77-.1-10.33-3c0,0-1.54-7.48.09-7.78a9.09,9.09,0,0,1,2.06-.25s5.94-.1,7.62-.05,7.15.6,7.15.6S24.95,10.52,24.43,12.53Zm29.35-.85C53.69,13,53.5,17.2,52.19,18c0,0-4.39,2.46-13.88,1.91,0,0-3-.05-3.55-1.81,0,0-1.87-4.67-1.45-6.38,0,0,0-2,4.39-2.21,0,0,8.46-.8,10.66-.7a22.21,22.21,0,0,1,3.93.1C53.92,9.12,53.88,10.37,53.78,11.68Z"/>
      </g>
    </g>
  </g>
</svg>
