<svg xmlns="http://www.w3.org/2000/svg" viewBox="0 0 60 32.64">
  <title>eye</title>
  <g id="Layer_2" data-name="Layer 2">
    <g id="eye">
      <g id="_Group_" data-name="&lt;Group&gt;">
        <path id="_Path_" data-name="&lt;Path&gt;" d="M60,16.32S46.57,0,30,0,0,16.32,0,16.32,13.43,32.64,30,32.64,60,16.32,60,16.32Z" fill="#fff"/>
        <path id="_Path_2" data-name="&lt;Path&gt;" d="M30,3.14c15.33,0,28,11.24,29.78,12.92C58,14,45.33,0,30,0S2,14,.22,16.06C2,14.38,14.67,3.14,30,3.14Z" fill="#eeb1af"/>
        <circle id="_Path_3" data-name="&lt;Path&gt;" cx="30.14" cy="16.53" r="12.64" fill="#88c7f9"/>
        <circle id="_Path_4" data-name="&lt;Path&gt;" cx="30.14" cy="16.53" r="6.39" fill="#592e25"/>
        <path id="_Compound_Path_" data-name="&lt;Compound Path&gt;" d="M30.14,7.5a9,9,0,1,0,9,9A9,9,0,0,0,30.14,7.5Zm0,16.33a7.31,7.31,0,1,1,7.31-7.31A7.31,7.31,0,0,1,30.14,23.83Z" fill="#592e25"/>
        <circle id="_Path_5" data-name="&lt;Path&gt;" cx="34.03" cy="12.5" r="1.67" fill="#fff"/>
      </g>
    </g>
  </g>
</svg>
