<svg xmlns="http://www.w3.org/2000/svg" viewBox="0 0 288.72 197.23">
  <title>hat_1</title>
  <g id="Layer_2" data-name="Layer 2">
    <g id="Layer_1-2" data-name="Layer 1">
      <g>
        <rect x="44.51" y="91.03" width="189.4" height="49.75" fill="#d42400"/>
        <path id="path-0" d="M139.19.14C134.91.6,122.13,3,111.86,5.41,96.64,9,85.31,10.74,74.31,11.4c-8.3.46-9.75,1.12-13.11,6.19-4.87,7.25-8,20.35-11.07,46.18L49,73.45l-3,1.12A161.46,161.46,0,0,0,22.34,86.89c-4.74,3.23-13.5,11.4-16.07,15A44.66,44.66,0,0,0,.4,115.55,43.48,43.48,0,0,0,.14,125c.33,5,.79,6.65,3.29,12,6.85,14.62,20.75,27.07,42.69,38.14,14.1,7.11,32.21,13.77,43.34,15.81.92.2,3,.66,4.61,1,3.89.86,12.45,2.5,17.79,3.43,14.1,2.31,55.07,2.5,71.47.33,10.67-1.38,20.16-2.9,25.69-4,2.57-.53,6.13-1.25,7.9-1.65a236.75,236.75,0,0,0,32.61-9.95c18-7.38,31.42-17.46,36.69-27.73,2.37-4.61,2.44-4.94,2.5-12s-.07-7.38-2.5-12.19a73.39,73.39,0,0,0-4.41-7.58c-1.71-2.44-8.37-9.09-12.85-12.85-5.86-4.94-17.79-12.32-28.65-17.85a71.57,71.57,0,0,1-8.43-4.74,41.09,41.09,0,0,1-2.31-5.73,215.45,215.45,0,0,0-11.66-28.06c-11.79-24.24-26-40.05-42.16-46.83C166.4.66,164.36.27,152.7.07,146.7-.06,140.64,0,139.19.14Zm89.19,98.41a58.56,58.56,0,0,1-1,9.55c-1.05,5.73-1.19,6-4.55,9.29-10.54,10.34-31.49,17.13-62.25,20.09-9.95,1-40.84,1-54,0A177.5,177.5,0,0,1,75,132.41c-7.51-2.11-19.76-8.37-23.78-12.19-3.23-3-3.23-3-3.23-7.25,0-3.69,1.71-16.34,2.31-16.93.13-.13,4.08,1.71,8.89,4.08a131.07,131.07,0,0,0,14.69,6.26c6.65,2.24,29.71,7,37,7.71a28.4,28.4,0,0,1,5.93,1.12c3.75,2,36.49,1.52,52.63-.86,26.35-3.75,48.81-11.79,56.39-20,1.45-1.58,1.65-1.65,2-.59A18.56,18.56,0,0,1,228.38,98.55Z"/>
      </g>
    </g>
  </g>
</svg>
