<svg xmlns="http://www.w3.org/2000/svg" viewBox="0 0 56.94 47.21">
  <title>headband</title>
  <g id="Layer_2" data-name="Layer 2">
    <g id="Layer_2-2" data-name="Layer 2">
      <g>
        <g>
          <g>
            <path d="M47.37,23c0,3.69,2.14,6.69,4.78,6.69s4.78-6,4.78-9.73-2.83-3.57-5.06-2.14C49.3,19.5,47.37,19.34,47.37,23Z" fill="#cf9e76"/>
            <path d="M51.8,26.29a2.51,2.51,0,0,0,1.6-4.46.75.75,0,0,1-.27-.61.55.55,0,0,1,.25-.44l.16-.09a1.39,1.39,0,0,1,1.34.11.44.44,0,1,0,.5-.72,2.27,2.27,0,0,0-2.22-.18l-.27.15a1.44,1.44,0,0,0-.64,1.13,1.63,1.63,0,0,0,.58,1.33,1.63,1.63,0,0,1-1.21,2.9.44.44,0,0,0-.11.87Z" fill="#bb8b66"/>
          </g>
          <g>
            <path d="M10,23c0,3.69-2.14,6.69-4.78,6.69S.48,23.69.48,20s2.83-3.57,5.06-2.14C8.12,19.5,10,19.34,10,23Z" fill="#cf9e76"/>
            <path d="M5.63,26.29A2.51,2.51,0,0,1,4,21.82a.75.75,0,0,0,.27-.61A.55.55,0,0,0,4,20.77l-.16-.09a1.39,1.39,0,0,0-1.34.11.44.44,0,0,1-.5-.72,2.27,2.27,0,0,1,2.22-.18l.27.15a1.44,1.44,0,0,1,.64,1.13,1.63,1.63,0,0,1-.58,1.33,1.63,1.63,0,0,0,1.21,2.9.44.44,0,0,1,.11.87Z" fill="#bb8b66"/>
          </g>
        </g>
        <path d="M53.34,32.05c0,4.71-10.76,14-24,14s-24-9.3-24-14S16,16.2,29.3,16.2,53.34,27.34,53.34,32.05Z" fill="#cf9e76"/>
        <circle cx="28.71" cy="23.61" r="23.61" fill="#cf9e76"/>
        <g>
          <g>
            <g>
              <ellipse cx="19.63" cy="23.35" rx="3" ry="4.18" fill="#231f20"/>
              <ellipse cx="20.64" cy="21.17" rx="0.95" ry="1.04" fill="#fff"/>
            </g>
            <path d="M22.58,15.81l-5.13-1.47a2.08,2.08,0,0,0-2.09.48c-.36.49,0,1.08.77,1.3l5.13,1.47a2.08,2.08,0,0,0,2.09-.48C23.71,16.62,23.37,16,22.58,15.81Z" fill="#231f20"/>
          </g>
          <g>
            <g>
              <ellipse cx="37.79" cy="23.35" rx="3" ry="4.18" fill="#231f20"/>
              <ellipse cx="36.79" cy="21.17" rx="0.95" ry="1.04" fill="#fff"/>
            </g>
            <path d="M34.85,15.81,40,14.34a2.08,2.08,0,0,1,2.09.48c.36.49,0,1.08-.77,1.3l-5.13,1.47a2.08,2.08,0,0,1-2.09-.48C33.71,16.62,34.06,16,34.85,15.81Z" fill="#231f20"/>
          </g>
        </g>
        <path d="M48,6.27A119.47,119.47,0,0,0,29.45,4.65,119.47,119.47,0,0,0,10.94,6.27C7.93,9.68,5,17.6,5,17.6c9.64,1.66,24.49,1.5,24.49,1.5s14.85.16,24.49-1.5C53.94,17.6,51,9.68,48,6.27Z" fill="#d62d2c"/>
        <g>
          <g>
            <path d="M31.25,12l-.34.52v.39a.77.77,0,0,1-.2.53l-.09.09-.12.09v-.11a.14.14,0,0,0-.14-.14h-.13a.14.14,0,1,1-.28,0h-.13a.14.14,0,0,1-.28,0h-.13a.14.14,0,0,1-.28,0H29a.14.14,0,1,1-.28,0h-.13a.14.14,0,0,0-.14.14v.08l-.07-.06-.09-.09a.77.77,0,0,1-.2-.53v-.39L27.72,12a.13.13,0,0,0-.24.09V13a.69.69,0,0,0,.16.45l.81,1a.47.47,0,0,0,.36.17h1.36a.47.47,0,0,0,.36-.17l.81-1a.69.69,0,0,0,.16-.45v-.9A.13.13,0,0,0,31.25,12Z"/>
            <path d="M32.35,7.71A3,3,0,0,0,29.48,6a3,3,0,0,0-2.87,1.75,5.91,5.91,0,0,0,.1,3.43.35.35,0,0,0,.35.35,1,1,0,0,1,.88.59,6.28,6.28,0,0,0,.49.42.14.14,0,0,0,0,.07v.33a.14.14,0,0,0,.14.14h.13A.14.14,0,1,1,29,13h.13a.14.14,0,1,1,.28,0h.13a.14.14,0,1,1,.28,0h.13a.14.14,0,1,1,.28,0h.13a.14.14,0,0,0,.14-.14v-.33a.14.14,0,0,0,0,0,6,6,0,0,0,.53-.44,1,1,0,0,1,.88-.59.35.35,0,0,0,.35-.35A5.91,5.91,0,0,0,32.35,7.71Zm-3.93,2.73c-.1.14-.33.1-.62-.06s-.38-.26-.42-.43a2.92,2.92,0,0,1-.13-.69,5.17,5.17,0,0,1,.38-.85c.51-.29,1.21-.18,1.28.49A2.64,2.64,0,0,1,28.42,10.44Zm1.19,1.35-.09-.09a.17.17,0,0,0-.22,0l-.09.09c-.09.09-.29.05-.3-.07a4.14,4.14,0,0,1,.06-.63,2.45,2.45,0,0,1,.3-.46.2.2,0,0,1,.28,0,2.45,2.45,0,0,1,.3.46,4.14,4.14,0,0,1,.06.63C29.9,11.84,29.7,11.89,29.61,11.79ZM31.37,10c0,.16-.14.26-.42.43s-.51.2-.62.06a2.64,2.64,0,0,1-.49-1.54c.07-.67.77-.78,1.28-.49a5.16,5.16,0,0,1,.38.85A2.92,2.92,0,0,1,31.37,10Z"/>
          </g>
          <path d="M32.95,14.45l.6-.48a1.14,1.14,0,0,0-.47-.5c-.33-.18-.65.74-.65.74L26.3,16.32s-.82-.53-1-.18a1.14,1.14,0,0,0-.06.68H26s-.71.52-.24.8.69.16.75,0a2.71,2.71,0,0,0,0-.73l6.12-2.11a2.71,2.71,0,0,0,.42.59c.12.06.37,0,.57-.49S32.95,14.45,32.95,14.45Z"/>
          <path d="M26,14.45l-.6-.48a1.14,1.14,0,0,1,.47-.5c.33-.18.65.74.65.74l6.12,2.11s.82-.53,1-.18a1.14,1.14,0,0,1,.06.68h-.77s.71.52.24.8-.69.16-.75,0a2.71,2.71,0,0,1,0-.73l-6.12-2.11a2.71,2.71,0,0,1-.42.59c-.12.06-.37,0-.57-.49S26,14.45,26,14.45Z"/>
        </g>
        <g>
          <g>
            <path d="M9.51,8.46a.26.26,0,0,1,0-.52A54.53,54.53,0,0,1,17,7.08a.26.26,0,1,1,0,.52,55.19,55.19,0,0,0-7.45.85Z" fill="#c02126"/>
            <path d="M13.83,13H7.29a.26.26,0,0,1,0-.52h6.54a.26.26,0,0,1,0,.52Z" fill="#c02126"/>
            <path d="M12.47,15.88c-2.77,0-6.52-.31-6.56-.31A.26.26,0,1,1,6,15s3.77.31,6.52.31a.26.26,0,0,1,0,.52Z" fill="#c02126"/>
            <path d="M8.25,10.64a.26.26,0,0,1,0-.52,54.36,54.36,0,0,1,5.84-.38.26.26,0,1,1,0,.52,53.77,53.77,0,0,0-5.77.38Z" fill="#c02126"/>
          </g>
          <g>
            <path d="M49.09,8.46h0A55.19,55.19,0,0,0,41.6,7.6a.26.26,0,1,1,0-.52,54.52,54.52,0,0,1,7.54.86.26.26,0,0,1,0,.52Z" fill="#c02126"/>
            <path d="M51.32,13H44.78a.26.26,0,0,1,0-.52h6.54a.26.26,0,0,1,0,.52Z" fill="#c02126"/>
            <path d="M46.13,15.88a.26.26,0,0,1,0-.52c2.75,0,6.48-.31,6.52-.31a.26.26,0,0,1,0,.52S48.91,15.88,46.13,15.88Z" fill="#c02126"/>
            <path d="M50.36,10.64h0a53.77,53.77,0,0,0-5.77-.38.26.26,0,1,1,0-.52,54.36,54.36,0,0,1,5.84.38.26.26,0,0,1,0,.52Z" fill="#c02126"/>
          </g>
          <path d="M7.13,12.82A.26.26,0,0,1,7,12.75,36.26,36.26,0,0,0,2.45,9.36a.26.26,0,0,1,.21-.47A35.48,35.48,0,0,1,7.3,12.36a.26.26,0,0,1-.17.46Z" fill="#c02126"/>
          <path d="M.26,16.31a.26.26,0,0,1,0-.52c2-.27,6.08-2.55,6.12-2.58a.26.26,0,0,1,.25.45c-.17.1-4.22,2.36-6.3,2.64Z" fill="#c02126"/>
        </g>
        <g>
          <path d="M10.46,31.26a.13.13,0,0,1,0-.26c.1,0,9.7-.55,14.31-2.94a.13.13,0,0,1,.12.23c-4.66,2.42-14.32,3-14.42,3Z" fill="#bb8b66"/>
          <g>
            <path d="M13.39,32.14a.13.13,0,0,1-.11-.06,5,5,0,0,0-2.06-1.8.13.13,0,0,1,.11-.24,5.2,5.2,0,0,1,2.18,1.91.13.13,0,0,1,0,.18Z" fill="#bb8b66"/>
            <path d="M11.56,32.3a.13.13,0,0,1-.1-.22,14.64,14.64,0,0,0,1.8-2.41.13.13,0,1,1,.23.11,14.55,14.55,0,0,1-1.84,2.47A.13.13,0,0,1,11.56,32.3Z" fill="#bb8b66"/>
          </g>
          <g>
            <path d="M16.63,31.72a.13.13,0,0,1-.11-.06,5,5,0,0,0-2.06-1.8.13.13,0,0,1,.11-.24,5.2,5.2,0,0,1,2.18,1.91.13.13,0,0,1,0,.18Z" fill="#bb8b66"/>
            <path d="M14.81,31.88a.13.13,0,0,1-.1-.22,14.64,14.64,0,0,0,1.8-2.41.13.13,0,1,1,.23.11,14.55,14.55,0,0,1-1.84,2.47A.13.13,0,0,1,14.81,31.88Z" fill="#bb8b66"/>
          </g>
          <g>
            <path d="M20.1,31.1A.13.13,0,0,1,20,31a5,5,0,0,0-2.06-1.8A.13.13,0,0,1,18,29a5.2,5.2,0,0,1,2.18,1.91.13.13,0,0,1,0,.18Z" fill="#bb8b66"/>
            <path d="M18.28,31.26a.13.13,0,0,1-.1-.22A14.64,14.64,0,0,0,20,28.63a.13.13,0,0,1,.23.11,14.55,14.55,0,0,1-1.84,2.47A.13.13,0,0,1,18.28,31.26Z" fill="#bb8b66"/>
          </g>
          <g>
            <path d="M23.68,30.12a.13.13,0,0,1-.11-.06,5,5,0,0,0-2.06-1.8.13.13,0,0,1,.11-.24,5.2,5.2,0,0,1,2.18,1.91.13.13,0,0,1,0,.18Z" fill="#bb8b66"/>
            <path d="M21.86,30.28a.13.13,0,0,1-.1-.22,14.64,14.64,0,0,0,1.8-2.41.13.13,0,1,1,.23.11A14.55,14.55,0,0,1,22,30.24.13.13,0,0,1,21.86,30.28Z" fill="#bb8b66"/>
          </g>
        </g>
        <g>
          <path d="M46.87,26.35a.13.13,0,0,0-.23-.12c0,.08-4.67,8.52-8.81,11.65a.13.13,0,1,0,.16.21c4.19-3.16,8.84-11.65,8.89-11.73Z" fill="#bb8b66"/>
          <g>
            <path d="M46.4,29.37a.13.13,0,0,0,0-.13,5,5,0,0,1-.74-2.63.13.13,0,0,0-.26,0,5.2,5.2,0,0,0,.79,2.79.13.13,0,0,0,.18,0Z" fill="#bb8b66"/>
            <path d="M47.33,27.8a.13.13,0,0,0-.16-.18,14.64,14.64,0,0,1-3,.59.13.13,0,0,0,0,.26,14.55,14.55,0,0,0,3-.6A.13.13,0,0,0,47.33,27.8Z" fill="#bb8b66"/>
          </g>
          <g>
            <path d="M44.63,32.12a.13.13,0,0,0,0-.13,5,5,0,0,1-.74-2.63.13.13,0,0,0-.26,0,5.2,5.2,0,0,0,.79,2.79.13.13,0,0,0,.18,0Z" fill="#bb8b66"/>
            <path d="M45.56,30.55a.13.13,0,0,0-.16-.18,14.64,14.64,0,0,1-3,.59.13.13,0,1,0,0,.26,14.55,14.55,0,0,0,3-.6A.13.13,0,0,0,45.56,30.55Z" fill="#bb8b66"/>
          </g>
          <g>
            <path d="M42.57,35a.13.13,0,0,0,0-.13,5,5,0,0,1-.74-2.63.13.13,0,0,0-.26,0A5.2,5.2,0,0,0,42.35,35a.13.13,0,0,0,.18,0Z" fill="#bb8b66"/>
            <path d="M43.5,33.41a.13.13,0,0,0-.16-.18,14.64,14.64,0,0,1-3,.59.13.13,0,1,0,0,.26,14.55,14.55,0,0,0,3-.6A.13.13,0,0,0,43.5,33.41Z" fill="#bb8b66"/>
          </g>
          <g>
            <path d="M40.14,37.79a.13.13,0,0,0,0-.13A5,5,0,0,1,39.39,35a.13.13,0,0,0-.26,0,5.2,5.2,0,0,0,.79,2.79.13.13,0,0,0,.18,0Z" fill="#bb8b66"/>
            <path d="M41.08,36.22a.13.13,0,0,0-.16-.18,14.64,14.64,0,0,1-3,.59.13.13,0,0,0,0,.26,14.55,14.55,0,0,0,3-.6A.13.13,0,0,0,41.08,36.22Z" fill="#bb8b66"/>
          </g>
        </g>
        <g>
          <path d="M37.25,40.81a.25.25,0,0,1-.13,0,16.73,16.73,0,0,0-8.07-1.87A16.73,16.73,0,0,0,21,40.78a.25.25,0,0,1-.26-.43,16.89,16.89,0,0,1,8.33-1.94,16.89,16.89,0,0,1,8.33,1.94.25.25,0,0,1-.13.47Z" fill="#231f20"/>
          <path d="M20.85,42.48a1.92,1.92,0,1,1,0-3.83.25.25,0,0,1,0,.5,1.41,1.41,0,1,0,0,2.83.25.25,0,0,1,0,.5Z" fill="#231f20"/>
          <path d="M37.3,42.48a.25.25,0,1,1,0-.5,1.41,1.41,0,1,0,0-2.83.25.25,0,0,1,0-.5,1.92,1.92,0,1,1,0,3.83Z" fill="#231f20"/>
        </g>
      </g>
    </g>
  </g>
</svg>
