<svg xmlns="http://www.w3.org/2000/svg" viewBox="0 0 64 64">
  <title>hot</title>
  <g id="hot">
    <g>
      <path d="M35.73,44.76V9.05a3.73,3.73,0,1,0-7.46,0V44.76a7.46,7.46,0,1,0,7.46,0Z" fill="#d4effc"/>
      <path d="M28.27,13.84V44.76a7.46,7.46,0,1,0,7.46,0V13.84Z" fill="#ed1c24"/>
      <path d="M39.06,43.07v-34a7.05,7.05,0,0,0-14.11,0v34a10.78,10.78,0,1,0,14.11,0ZM32,60.19a9,9,0,0,1-5.58-16l.34-.27V9.05a5.24,5.24,0,1,1,10.48,0v3.42H32.6a1.22,1.22,0,1,0,0,2.44h4.64v8.34H32.6a1.22,1.22,0,0,0,0,2.44h4.64V34H32.6a1.22,1.22,0,1,0,0,2.44h4.64v7.45l.34.27a9,9,0,0,1-5.58,16Z" fill="#6dcff6"/>
    </g>
  </g>
</svg>
