<svg id="Layer_2" data-name="Layer 2" xmlns="http://www.w3.org/2000/svg" xmlns:xlink="http://www.w3.org/1999/xlink" viewBox="0 0 500 500">
  <defs>
    <radialGradient id="Summer" cx="313.92" cy="173.22" r="17.67" gradientUnits="userSpaceOnUse">
      <stop offset="0" stop-color="#fff"/>
      <stop offset="0.09" stop-color="#ffedd8"/>
      <stop offset="0.21" stop-color="#ffd5a7"/>
      <stop offset="0.33" stop-color="#ffc17d"/>
      <stop offset="0.46" stop-color="#ffb05b"/>
      <stop offset="0.59" stop-color="#ffa340"/>
      <stop offset="0.72" stop-color="#ff9a2d"/>
      <stop offset="0.86" stop-color="#ff9522"/>
      <stop offset="1" stop-color="#ff931e"/>
    </radialGradient>
  </defs>
  <title>jacket</title>
  <path d="M242.3,387.8a204.63,204.63,0,0,0-35.82,3.73q.7-3.59,1.37-7.18c.43-2.29.84-4.57,1.26-6.86a1.76,1.76,0,0,0,.82,0,147,147,0,0,1,26.15-3.85c17.73-1.26,36.22,0,52.85,6.71.66.27,1.31.55,2,.83.94,4.59,2,9.17,3.28,13.67l.38,1.27C278.07,389.45,260,387.52,242.3,387.8Z" fill="#c7b299" stroke="#000" stroke-miterlimit="10"/>
  <path d="M108.08,437.55a1.32,1.32,0,0,0,1,0c8.11-3.86,18-2.21,25.31,2.63-.54,2.64-1.12,5.26-1.69,7.86h-23Z" fill="#c7b299" stroke="#000" stroke-miterlimit="10"/>
  <path d="M200.69,398.59c-1,4.3-2.11,8.89-5.87,11.67-3.09,2.28-7.37,1.55-10.75.51-4.59-1.41-8.84-4-12.85-6.62-3.67-2.36-8-3.12-12.25-3.91a35,35,0,0,1-5.57-1.33c-1.54-.56-2.21-1.14-2.47-2.81-.47-3,.42-6.24.83-9.21a33.1,33.1,0,0,0,.18-8.57,2.18,2.18,0,0,0,1.3.65,88.85,88.85,0,0,1,17.84,1.44c10.92,1.85,22.37,5.57,30.74,13.1C201.45,395.21,201.08,396.9,200.69,398.59Z" fill="#c7b299" stroke="#000" stroke-miterlimit="10"/>
  <path d="M146.84,365.54c-1-2-1.86-4-2.69-6.11a4.43,4.43,0,0,0-.21-.43c2.32-27.23,5.32-54.39,8.18-81.56.84-7.95,2-16,2.17-24,.18-10.8-.62-21.69-1.07-32.47q-.92-22.1-2-44.2c-.08-1.63-3.95-4-3.84-1.77,1,21.85,2.09,43.71,2.81,65.57a162.43,162.43,0,0,1-.47,20.84c-1.14,12.1-2.5,24.18-3.78,36.26-3.46,32.67-6.93,65.4-8.54,98.23-.25,5.07-.43,10.15-.52,15.23-.08,4.24.21,8.53-.09,12.75a114.25,114.25,0,0,1-1.87,13.48c-8.14-5.45-19.33-7.87-28.52-3.68-.25-.34-.51-.68-.75-1-1.87-2.67-3.72-5.36-5.43-8.14a16.11,16.11,0,0,1-2.46-5.84c-.42-2-.75-4-1-6.07-.71-4.86-1.15-9.77-1.47-14.67-1.71-26.38-.07-53,2.14-79.33,2.61-31.06,6.6-62,11.63-92.78,4.38-26.78,9.45-53.55,16.55-79.76a226.83,226.83,0,0,1,8.71-26.83c2-4.87,4.28-10.83,8.77-14,4.16-2.9,9.43-4.54,14.17-6.18,6.65-2.31,13.43-4.26,20.22-6.11q13.67-3.73,27.51-6.84c.88,3.55,3.41,6.88,5.69,9.56C216.82,103,225.09,108,234,111.41a10.43,10.43,0,0,0-.26,4,9.84,9.84,0,0,0,.19,1.06l.07,1.42q.2,4.1.37,8.2.68,16,1.06,32c.65,27.4,1.13,55.06-1.35,82.39-.78,8.63-1.79,17.36-5.23,25.38-4.38,10.18-6.59,21.47-8.95,32.25-6.28,28.67-10.82,57.68-16.29,86.5-.49,2.57-1,5.15-1.51,7.71-8.8-7.87-20-12.27-31.51-14.57a90.23,90.23,0,0,0-19.05-1.92C150.63,372.15,148.44,368.9,146.84,365.54Z" fill="#c7b299" stroke="#000" stroke-miterlimit="10"/>
  <path id="middle" d="M238.12,126.54q-.16-3.7-.34-7.41l-.05-1c0-.89-.28-1.53-.26-2.55a6.67,6.67,0,0,1,.64-2.71l.4.13c.24.08.1-.24-.15-.63a9.77,9.77,0,0,1,2.18-2.61c3.94-3.39,4.45-8.69,3.87-13.56a2.72,2.72,0,0,0,1.62.89c3.52-.36,7.05-.57,10.58-.6,0,4.1.95,8.15,3.78,11.31,1.15,1.28,2.74,2.23,3.36,3.9a7,7,0,0,1,.21,3.84,7.81,7.81,0,0,0-.15,1.38q-.17,3.43-.32,6.87c-1.06,24-1.68,48.06-1.54,72.09.08,13.63.38,27.28,1.44,40.87.43,5.49,1,11,1.91,16.42a54.31,54.31,0,0,0,2.83,11.33c.81,2,1.29,2.93,2,4.86.76,2.17,1.4,4.39,2,6.61,1.53,5.69,2.74,11.48,3.86,17.26,2.82,14.45,5,29,7.33,43.56,2.11,13.37,4.17,26.75,6.75,40-16-6.82-33.85-8.68-51.15-8a165.33,165.33,0,0,0-28.82,3.52c1.82-10.08,3.59-20.16,5.43-30.24,2.73-15,5.53-29.91,8.86-44.74,2.3-10.24,4.56-20.82,8.88-30.44A46.05,46.05,0,0,0,236.14,256c.93-5.27,1.48-10.61,1.93-15.94,1.14-13.49,1.44-27,1.54-40.57C239.8,175.2,239.17,150.85,238.12,126.54Z" fill="#c7b299" stroke="#000" stroke-miterlimit="10"/>
  <path d="M350.33,395.33c-1.1,3.37-6.08,4-9,4.54-4.15.82-8.43,1.47-12.12,3.66A39.77,39.77,0,0,1,318.67,408a18.88,18.88,0,0,1-13.11-1.18,14.64,14.64,0,0,1-2.95-2.06c-.18-.16-.36-.33-.54-.5s-.23-.3-.34-.45-.2-.35-.3-.53a17.1,17.1,0,0,1-1.07-2.22c0-.07-.05-.15-.09-.23-.17-.46-.35-1-.58-1.66-.72-2.06-1.31-4.17-1.86-6.28-.41-1.55-.79-3.11-1.15-4.68.84.5,1.66.7,2.21.31a68.81,68.81,0,0,1,17.51-8.68c10.71-3.69,22.71-4.66,33,.4,0,.88.08,1.76.16,2.63C349.93,386.81,351.61,391.41,350.33,395.33Z" fill="#c7b299" stroke="#000" stroke-miterlimit="10"/>
  <path d="M391.66,447.63H369.37c-.63-3.91-1.3-7.83-2-11.74.47.36.86.55,1.08.41a28,28,0,0,1,25.24-1.94,4.94,4.94,0,0,0-.19.8Z" fill="#c7b299" stroke="#000" stroke-miterlimit="10"/>
  <path d="M273.81,226.9c.38,8.63.76,17.51,2.7,26,.67,2.91,2,5.56,2.91,8.39a141.28,141.28,0,0,1,3.72,14.5c5.65,26.21,8.58,52.95,14.61,79.08a115.78,115.78,0,0,0,3.85,13.69,22.43,22.43,0,0,0,4.68,8.29,67.51,67.51,0,0,0-10.82,5.75c-.44-2.15-.86-4.31-1.27-6.46-2.73-14.34-4.9-28.78-7.17-43.19s-4.5-28.68-7.41-42.89c-1.11-5.43-2.33-10.86-3.9-16.17-.59-2-1.25-4-2-5.9-.35-.86-.73-1.71-1.11-2.56l0-.09-.2-.52c-.16-.43-.31-.87-.45-1.3-3-9.37-3.55-19.73-4.18-29.49-.9-13.88-1.11-27.8-1.11-41.71,0-23,.62-45.93,1.67-68.87q.11-2.44.23-4.87c0-.06,0-.15.06-.29a11.12,11.12,0,0,0,.11-3.49c2.3-.91,4.58-1.91,6.81-3-.66,13.38-1.14,26.76-1.53,40.15C273.23,176.87,272.7,201.93,273.81,226.9Z" fill="#c7b299" stroke="#000" stroke-miterlimit="10"/>
  <path d="M404.17,385.57a232.23,232.23,0,0,1-4.31,37.66,19.49,19.49,0,0,1-4.06,8c-.53.7-1,1.26-1.43,1.86a10.48,10.48,0,0,0-2.21-1.76,28.74,28.74,0,0,0-25.63-.93c-.81-5-1.55-10.07-2.09-15.11-1.71-15.72-2.24-31.63-2.47-47.43,0-2.28-.13-4.55-.26-6.82l.23-.56a2.09,2.09,0,0,0-.39-1.89c-.32-4.56-.77-9.12-1.2-13.68-1.3-13.73-2.7-27.45-4.05-41.17-1.27-12.86-2.56-25.72-3.61-38.6a196.28,196.28,0,0,1-.48-22.69c.72-21.86,1.76-43.72,2.81-65.57.1-2.07-4.53-4.93-4.67-2.06-1,21.85-2.09,43.71-2.81,65.57a196.52,196.52,0,0,0,.48,22.69c1,12.88,2.34,25.74,3.61,38.6,1.36,13.72,2.75,27.45,4.05,41.17.49,5.19,1,10.36,1.33,15.56-1.27,3.08-2.67,6.11-4.2,9.07a28.44,28.44,0,0,0-3,7.49c-.11.54-.19,1.08-.25,1.62-11.22-6.24-24.23-6.17-36.35-2.34-1.78.56-3.57,1.2-5.34,1.9l-.05,0-.4-.53-.06-.1-.25-.43c-.21-.36-.4-.73-.58-1.11a39.75,39.75,0,0,1-1.95-5,145.44,145.44,0,0,1-3.9-14.89c-2.91-13.26-5.08-26.69-7.35-40.07-2.2-13-4.32-26.07-7.23-38.95a109,109,0,0,0-3.75-13.48,52.89,52.89,0,0,1-2.57-8.05c-1.77-9-2.06-18.29-2.39-27.4-.46-12.47-.48-25-.37-37.44.2-22.08.88-44.16,1.83-66.23q.21-4.87.45-9.74c0-.62-.74-1.46-1.59-2.11a57.21,57.21,0,0,0,17.62-14.07,31.61,31.61,0,0,0,5.23-8.5c8.35,1.93,16.65,4.1,24.89,6.47,6.71,1.93,13.4,4,19.9,6.56a69.79,69.79,0,0,1,7.31,3.29,24.38,24.38,0,0,1,2.58,1.64c-.44-.32,1.21,1.23.91.85a23.54,23.54,0,0,1,1.86,2.47l.41.65.54.91c.41.71.8,1.43,1.18,2.15a104.2,104.2,0,0,1,4.59,10.25A309,309,0,0,1,374.64,154c7.92,28.68,13.74,58,18.48,87.32a886.19,886.19,0,0,1,10.76,99C404.61,355.41,404.83,370.51,404.17,385.57Z" fill="#c7b299" stroke="#000" stroke-miterlimit="10"/>
  <path id="collar_right" data-name="collar right" d="M279.18,57.9l.91-1.14c1.13-.14,3-.22,3.56.43a4.31,4.31,0,0,1,.42,1.76,15.31,15.31,0,0,0,.82,2.76,27,27,0,0,0,2.91,5.38A44.69,44.69,0,0,0,292,72.3c1.36,1.5,3.54,3.06,4.28,5a8.32,8.32,0,0,1-.76,6.57,1.53,1.53,0,0,0,.07,1.46,36,36,0,0,1-4.67,7.16c-6.27,7.82-15,13.3-24.19,17.21a12.77,12.77,0,0,0-1.55-1.84c-.6-.58-1.25-1.09-1.84-1.68,0,0-.64-.85-.74-1a13.88,13.88,0,0,1-1.36-8.56h.07c.24,0,.18-.22,0-.52A46,46,0,0,1,263,88.81a95,95,0,0,1,7.94-18.15q2.46-4.51,5.27-8.83c.28-.43.55-.86.87-1.26Z" fill="#c7b299" stroke="#000" stroke-miterlimit="10"/>
  <path id="collar_middle" data-name="collar middle" d="M241.15,51.85a69.75,69.75,0,0,1,33.53,2.76L272.81,57a23.58,23.58,0,0,0-1.32,2,145.47,145.47,0,0,0-7.71,13.65c-2.95,5.95-5.55,12.23-6.7,18.8q-.06.33-.11.66h0a105.67,105.67,0,0,0-13.21.34,74.6,74.6,0,0,0-5.29-14.8,151.77,151.77,0,0,0-12.32-21.91A66.24,66.24,0,0,1,241.15,51.85Z" fill="#c7b299" stroke="#000" stroke-miterlimit="10"/>
  <path id="colloar_left" data-name="colloar left" d="M207.46,77.2c3.05-3.11,6.43-6,8.76-9.74,1.79-2.87,1.55-6.59,4.08-8.94a8.75,8.75,0,0,1,3.09-1.7l.14,0q1.68,2.57,3.27,5.2a153.41,153.41,0,0,1,8.74,16.46c2.54,5.63,4.81,11.73,5.2,17.94a14.86,14.86,0,0,1-1.14,7.14,8.69,8.69,0,0,1-1.85,2.53,19.48,19.48,0,0,0-2.73,3.07,3.52,3.52,0,0,0-.49-.21,63.5,63.5,0,0,1-14.88-6.67,25.88,25.88,0,0,1-6.6-5.64,18.13,18.13,0,0,1-3.9-7.44c-.2-1-1.68-2.13-2.41-2.75,0,0-.36-.28-.74-.53l.39-.09.34-.08c1.63-.36-.53-2.78-1-3.13.57.43-.12,0-.34-.58C204.64,80.15,206.28,78.4,207.46,77.2Z" fill="#c7b299" stroke="#000" stroke-miterlimit="10"/>
  <path d="M329.55,176.44H291.1c-2.11,0-2.19-1.85-1.73-3.51,1-3.73,6.26-2.89,9.15-2.89h38.06c1.45,0,2,.57,2.12,2.05C338.43,177.2,333.13,176.44,329.55,176.44Z" stroke="#000" stroke-miterlimit="10" fill="url(#Summer)"/>
</svg>
