<svg id="Vector_Graphics" data-name="Vector Graphics" xmlns="http://www.w3.org/2000/svg" xmlns:xlink="http://www.w3.org/1999/xlink" viewBox="0 0 651.97 651.97">
  <defs>
    <linearGradient id="linear-gradient" x1="93.98" y1="1023.6" x2="93.98" y2="552.25" gradientTransform="translate(232 -551.72)" gradientUnits="userSpaceOnUse">
      <stop offset="0.65" stop-color="#78b2db"/>
      <stop offset="1" stop-color="#179bd7"/>
    </linearGradient>
    <linearGradient id="linear-gradient-2" x1="-188.43" y1="1017.6" x2="-188.06" y2="1017.6" gradientTransform="matrix(1, 0.07, -0.09, 1.2, 311.62, -753.44)" gradientUnits="userSpaceOnUse">
      <stop offset="0" stop-color="#404748"/>
      <stop offset="0.12" stop-color="#484f4f"/>
      <stop offset="0.7" stop-color="#74767a"/>
      <stop offset="1" stop-color="#85888a"/>
    </linearGradient>
    <linearGradient id="linear-gradient-3" x1="38.8" y1="804.26" x2="122.49" y2="1034.2" xlink:href="#linear-gradient-2"/>
    <linearGradient id="linear-gradient-4" x1="93.96" y1="859.45" x2="70.57" y2="882.84" gradientTransform="matrix(1, 0.07, -0.09, 1.2, 311.62, -753.44)" gradientUnits="userSpaceOnUse">
      <stop offset="0" stop-color="#daf0fc"/>
      <stop offset="1" stop-color="#fff"/>
    </linearGradient>
    <linearGradient id="linear-gradient-5" x1="143.58" y1="894.49" x2="132.69" y2="905.38" xlink:href="#linear-gradient-4"/>
    <linearGradient id="linear-gradient-6" x1="309.53" y1="351.83" x2="253.97" y2="407.4" gradientTransform="matrix(1, 0.07, -0.09, 1.2, 31.44, -110.08)" xlink:href="#linear-gradient-4"/>
    <linearGradient id="linear-gradient-7" x1="268.23" y1="285.54" x2="97.31" y2="456.45" gradientTransform="matrix(1, 0.07, -0.09, 1.2, 31.44, -110.08)" xlink:href="#linear-gradient-4"/>
    <linearGradient id="linear-gradient-8" x1="391.21" y1="265.96" x2="337.9" y2="319.27" gradientTransform="matrix(1, 0.07, -0.09, 1.2, 31.44, -110.08)" xlink:href="#linear-gradient-4"/>
    <linearGradient id="linear-gradient-9" x1="169.78" y1="896.04" x2="165.59" y2="900.23" xlink:href="#linear-gradient-4"/>
    <linearGradient id="linear-gradient-10" x1="514.23" y1="313.21" x2="472.19" y2="355.25" gradientTransform="matrix(1, 0.07, -0.09, 1.2, 31.44, -110.08)" xlink:href="#linear-gradient-4"/>
    <linearGradient id="linear-gradient-11" x1="5.72" y1="952.3" x2="-27.92" y2="985.94" xlink:href="#linear-gradient-4"/>
    <linearGradient id="linear-gradient-12" x1="211.08" y1="884.76" x2="191.23" y2="904.61" xlink:href="#linear-gradient-4"/>
    <linearGradient id="linear-gradient-13" x1="86.68" y1="1121.86" x2="105.37" y2="908.25" gradientTransform="translate(232 -551.72)" gradientUnits="userSpaceOnUse">
      <stop offset="0.01" stop-color="#86ab7b"/>
      <stop offset="1" stop-color="#c2bc91"/>
    </linearGradient>
    <linearGradient id="linear-gradient-14" x1="113.43" y1="1194.43" x2="392.2" y2="915.66" gradientTransform="translate(232 -551.72)" gradientUnits="userSpaceOnUse">
      <stop offset="0" stop-color="#86ab7b"/>
      <stop offset="1" stop-color="#6b8a80"/>
    </linearGradient>
    <linearGradient id="linear-gradient-15" x1="20.42" y1="1225.54" x2="37.98" y2="1024.9" gradientTransform="translate(232 -551.72)" gradientUnits="userSpaceOnUse">
      <stop offset="0" stop-color="#86ab7b"/>
      <stop offset="1" stop-color="#9f9972"/>
    </linearGradient>
    <linearGradient id="linear-gradient-16" x1="-33.1" y1="1354.37" x2="313.18" y2="1008.08" gradientTransform="translate(232 -551.72)" gradientUnits="userSpaceOnUse">
      <stop offset="0" stop-color="#86ab7b"/>
      <stop offset="0.51" stop-color="#809d7a"/>
      <stop offset="1" stop-color="#b7b58f"/>
    </linearGradient>
  </defs>
  <title>mountain</title>
  <g>
    <rect x="0.28" y="0.53" width="651.4" height="471.35" fill="url(#linear-gradient)"/>
    <path d="M652,472.42H0V0H652ZM.56,471.35H651.41V1.06H.56Z" fill="#020202"/>
  </g>
  <g>
    <path d="M33.65,451.21l.36.22.08-1.09C33.93,450.64,33.8,451,33.65,451.21Z" fill="url(#linear-gradient-2)"/>
    <g>
      <path d="M599.23,380.22c-6.46-5.65-11.87-12.47-18.58-17.76-16.19-12.85-29.22-23.17-43.76-37.92-13.57-13.71-26.83-10.37-42.51-16.48-17.67-6.84-33.46-20-49.62-32a370.38,370.38,0,0,1-40.21-35.49c-7.24-7.22-13.66-14.64-22.12-18.35s-14.67,8.25-22.11,12.6c-5.92,3.44-12.18,3.64-17.71,7.73-8.24,6.1-15.82,4.2-24.7,3.55-16-1.18-28.33,5.38-41.12-7-12.95-12.53-12.87-23.09-28.15-16-15.93,7.4-43,29.09-56.46,47.68-13,18-26.09,18.73-39,37.11-5.1,7.21-12.25,14.34-17,21.39-4,6-38.71,52-44.37,63.55-7.37,15-49.81,43.54-57.76,57.5L34,451.5c6.77,3.72,43.89,2.1,49,6.08,19.62,15.26,68.25,2.36,90.82,4,38.92,2.88,67.8-7.61,106.72-5.81,32.5,1.48,64.1-14.92,96.27-18.32,20.61-2.19,39.83-13.41,60.51-11.93,19.1,1.37,36.56,1.74,55.6-1.49,25.57-4.38,51.23-13.25,76.93-18.2,15.59-3,34.79-3.29,49.39-9.8C613.79,389.52,605.59,385.8,599.23,380.22Z" fill="url(#linear-gradient-3)"/>
      <path d="M106.51,465.16h0c-10.61-.78-18.35-3.17-23.66-7.3-1.89-1.46-8.65-2.11-13.56-2.48-3.43-.25-7.26-.45-11-.65s-7.56-.38-11-.64c-7.4-.55-11.54-1.26-13.42-2.29l-.18-.1.15-1.51c3.81-6.7,15.26-16.53,27.38-26.94,13-11.19,26.54-22.77,30.38-30.57,4.11-8.38,23.68-35.11,35.36-51.1,4.44-6.05,7.94-10.83,9-12.47a133.44,133.44,0,0,1,8.83-11.21c2.84-3.33,5.76-6.78,8.18-10.2,6.56-9.34,13.28-14.24,19.76-18.95,6.31-4.57,12.82-9.31,19.23-18.17,13.77-19.06,40.86-40.49,56.57-47.79,3.72-1.72,6.61-2.44,9.06-2.26,4.53.33,7.18,3.75,10.86,8.52a84.24,84.24,0,0,0,8.51,9.81,25,25,0,0,0,16.51,7.49,73,73,0,0,0,11-.31,86.5,86.5,0,0,1,13.47-.3c1.3.1,2.56.21,3.8.35s2.39.22,3.54.31c6.51.48,11.66-.06,17.2-4.15,3.1-2.3,6.48-3.39,9.73-4.47a28.68,28.68,0,0,0,15-9.21c3.86-3.81,7.86-7.74,12.48-7.4a8.12,8.12,0,0,1,2.82.72c7.24,3.18,12.95,9,19,15.15,1.06,1.09,2.11,2.17,3.21,3.26a363,363,0,0,0,40.17,35.47c2.49,1.84,5,3.72,7.45,5.61,13.36,10.14,27.19,20.61,42.11,26.39a83.09,83.09,0,0,0,15.46,4c9.36,1.81,18.2,3.5,27.14,12.52,14.36,14.58,27.08,24.68,43.19,37.48l.53.42a105.72,105.72,0,0,1,10.49,9.89c2.6,2.65,5.27,5.4,8.11,7.87a81.08,81.08,0,0,0,8.15,6c4.22,2.89,8.59,5.87,11.89,9.85l.29.36-.41.19c-10,4.45-22.11,6-33.82,7.51-5.49.69-10.69,1.36-15.63,2.31-12,2.31-24.24,5.53-36.05,8.67-13.41,3.53-27.27,7.2-40.88,9.53-18.84,3.17-35.86,2.9-55.65,1.48-12-.86-23.72,2.63-35.09,6-8.22,2.46-16.74,5-25.38,5.91-13.51,1.42-27.16,5.2-40.35,8.88-18.24,5.06-37.08,10.28-56,9.43-18.69-.86-35.3,1.13-51.37,3.08-17.27,2.08-35.12,4.23-55.35,2.73-7.25-.54-17.34.44-28,1.49C133.11,464.66,118.77,466.07,106.51,465.16ZM69.34,454.71c8,.59,12.28,1.4,13.81,2.59,5.24,4.06,12.89,6.42,23.41,7.19h0c12.22.9,26.55-.5,39.19-1.71,10.7-1,20.81-2,28.1-1.5,20.17,1.49,38-.66,55.26-2.75,16.08-1.92,32.71-3.94,51.46-3.07s37.61-4.36,55.79-9.42c13.23-3.65,26.9-7.46,40.45-8.9,8.59-.91,17.09-3.44,25.29-5.89,11.4-3.39,23.18-6.91,35.26-6,19.75,1.41,36.75,1.71,55.54-1.49,13.59-2.31,27.44-6,40.85-9.51,11.83-3.13,24-6.35,36.09-8.68,4.94-.93,10.13-1.6,15.65-2.31,11.5-1.46,23.4-3,33.26-7.28-3.21-3.73-7.4-6.59-11.47-9.38a82.89,82.89,0,0,1-8.2-6.07c-2.86-2.49-5.54-5.26-8.12-7.91a107.92,107.92,0,0,0-10.44-9.84l-.55-.42c-16.12-12.81-28.85-22.93-43.24-37.53-8.81-8.91-17.58-10.59-26.87-12.37a84.36,84.36,0,0,1-15.55-4.06c-15-5.78-28.84-16.28-42.22-26.44-2.49-1.86-5-3.74-7.45-5.61a365.43,365.43,0,0,1-40.24-35.52c-1.08-1.09-2.15-2.17-3.21-3.26-6-6.11-11.69-11.9-18.82-15a8.47,8.47,0,0,0-2.67-.68c-4.4-.33-8.14,3.36-12.1,7.25a38.73,38.73,0,0,1-7.14,6,41.07,41.07,0,0,1-8.1,3.34c-3.38,1.09-6.55,2.14-9.57,4.37-6.29,4.66-12.35,4.64-17.54,4.26h0c-1.15-.08-2.33-.2-3.52-.33s-2.5-.23-3.8-.32a86,86,0,0,0-13.41.31,79.77,79.77,0,0,1-11,.3,25.39,25.39,0,0,1-16.81-7.65,84.38,84.38,0,0,1-8.58-9.85c-3.59-4.65-6.18-8-10.48-8.32-2.35-.17-5.17.54-8.84,2.23C233.11,230.7,206.12,252,192.41,271c-6.46,8.92-13,13.69-19.36,18.31s-13.12,9.53-19.62,18.8c-2.44,3.45-5.36,6.9-8.2,10.25a138.06,138.06,0,0,0-8.8,11.12c-1.09,1.67-4.6,6.44-9,12.51-11.68,16-31.21,42.68-35.31,51-3.88,7.9-17.42,19.54-30.52,30.78-12,10.32-23.39,20.09-27.2,26.68l-.06.82c2.48,1.22,8.61,1.8,13.06,2.13,3.45.25,7.29.45,11,.63S65.91,454.46,69.34,454.71Z" fill="#020202"/>
    </g>
    <g>
      <path d="M291.71,265.31c-.32,7.61,2.38,11.21,4.28,18,2.67,9.48,4.1,18.23,8.71,26.16,4.48,7.74,10.07,11.35,15.91,16.37,6.68,5.71,14.92,11.85,18.22,12.87s-6.44-10.68-10.44-14.38c3.16-.08,5,2.9,7.91,3-3.3-9.13-11.66-15.5-17.85-18.84,7.32.29,12.76,6.54,21.75,8s-13.6-14.81-14.06-23.47c4.42,1.2,6.22,5.87,12.29,5.83s-8-10.84-11.29-15.29c-4.75-6.32-7.46-6.26-13-9.33-3.84-2.08-21.94-29.08-23.67-17Z" fill="url(#linear-gradient-4)"/>
      <path d="M339.1,339.11h0a2.8,2.8,0,0,1-.35-.07c-3.43-1.08-11.89-7.46-18.31-12.92-1.12-1-2.23-1.89-3.34-2.78-4.62-3.81-9-7.38-12.64-13.69-3.54-6.08-5.22-12.65-7-19.61-.55-2.15-1.13-4.38-1.77-6.62-.57-2.06-1.21-3.81-1.83-5.49-1.45-3.91-2.69-7.27-2.46-12.63l-1.26-8.13c.34-2.35,1.3-3.48,2.86-3.37,3.65.27,10,7.63,15,13.55,2.75,3.22,5.11,6,6.19,6.56,1.38.78,2.6,1.34,3.69,1.86a20.69,20.69,0,0,1,9.42,7.54,58.88,58.88,0,0,0,5.37,5.57c4.82,4.61,7.95,7.75,7.45,9.39-.19.59-.75.88-1.74.9-.32,0-.61,0-.91,0-3.13-.23-5.07-1.76-7-3.22a13.47,13.47,0,0,0-4.09-2.48c.59,4.14,6,10,10.36,14.71,4.07,4.42,6.18,6.77,5.71,8.05-.26.67-1.12.7-1.75.66a5.58,5.58,0,0,1-.63-.07c-4.44-.73-7.94-2.58-11.35-4.35-3-1.56-5.76-3-8.84-3.49,4.7,2.74,13.2,8.83,16.59,18.21l.19.49-.63,0a8.23,8.23,0,0,1-3.64-1.5,8.79,8.79,0,0,0-3.23-1.43c3.48,3.44,11.06,12.3,10.51,14A.6.6,0,0,1,339.1,339.11Zm-48.37-81.89,1.25,8c-.2,5.29,1,8.58,2.42,12.4.62,1.7,1.27,3.47,1.86,5.55.63,2.26,1.2,4.5,1.75,6.64,1.76,6.91,3.43,13.44,6.93,19.45,3.59,6.19,7.91,9.74,12.48,13.5,1.11.91,2.23,1.82,3.35,2.78,6.37,5.44,14.75,11.79,18.13,12.82l.35,0c.22-1.17-7.13-10.22-11-13.84l-.63-.56.8,0a4,4,0,0,1,.5,0,8.53,8.53,0,0,1,3.84,1.56,8.5,8.5,0,0,0,3.12,1.39c-3.84-9.9-13.51-16-17.53-18.17l.14-.64c3.76.14,7.08,1.87,10.56,3.71s6.86,3.59,11.21,4.3c.22,0,.41.05.59.06,1,.07,1.15-.18,1.2-.24.33-.89-2.82-4.28-5.58-7.29-4.61-5-10.36-11.19-10.59-15.64l0-.45.37.09a13.31,13.31,0,0,1,4.65,2.7c1.84,1.41,3.72,2.89,6.71,3.11.28,0,.58,0,.87,0,.69,0,1.13-.16,1.21-.45.4-1.31-4-5.56-7.29-8.66a57.23,57.23,0,0,1-5.42-5.62,20.41,20.41,0,0,0-9.22-7.39c-1.1-.5-2.33-1.09-3.7-1.86-1.17-.62-3.45-3.3-6.35-6.69-4.74-5.54-11.23-13.12-14.67-13.37C292.2,254.42,291.12,254.64,290.72,257.22Z" fill="#c6e9fa"/>
    </g>
    <g>
      <path d="M348,308.84c9.65,21.48,23.24,52.61,43.6,50.33a29.31,29.31,0,0,0,.46-8.27,55.57,55.57,0,0,1-19.84-14.32c-5.9-6.74-16-13.74-19.14-22.88Z" fill="url(#linear-gradient-5)"/>
      <path d="M388.13,359.56h0c-18.25-1.35-30.72-29.1-39.83-49.38l-.53-1.18.42-.41,5.17,5c2.2,6.32,7.65,11.53,12.93,16.58,2.25,2.13,4.37,4.17,6.14,6.18a55.08,55.08,0,0,0,19.76,14.26l.16.05,0,.21a31,31,0,0,1-.47,8.4l-.06.22-.2,0A20.07,20.07,0,0,1,388.13,359.56Zm-39.21-49.43c9,20.12,21.4,47.47,39.26,48.79a19.19,19.19,0,0,0,3.23-.06,29.5,29.5,0,0,0,.42-7.71,55.39,55.39,0,0,1-19.77-14.31c-1.77-2-3.88-4-6.13-6.18-5.31-5.07-10.8-10.29-13.06-16.74Z" fill="#c6e9fa"/>
    </g>
    <g>
      <path d="M229.93,370.12c1.42-8.17,12-11.73,15.93-16.19,4-4.67,7-11.06,10.82-16,6.48-8.21,15.42-27.08,23.3-31.78,15.51-9.22,23.45,36.38,31.89,49.8,3.55,5.66,12.83,12.36,10.92,22.27-3.57,1.22-6.23.28-11.21.58s-6.51-8.09-10.13-11.56c.46,10.44-.24,14.13-7.24,17-5.21,2.14-11.16,4.23-15.44,5.57s3.81-10,3-16.95c-4.47-.33-10.5,7.82-14.47,10.88-4.47,3.47-9.94,7.55-13.84,8.64s11-20,14.63-23.2c4.43-3.88,14.32-2.21,13.87-14.39-9.84-2.09-18.72,14.15-27,17.12-.38-8.22,11-21,14.8-24.44s16-4,15.5-12.22c-8.59-1-19.59,7.69-27.56,13.16-8.68,6-14,16.63-24,19.11Zm44.89-41.06c3.77-1.58,21.58-7.6,10.81-10.05-9.35-2.17-13.91,6-14.48,10.68Z" fill="url(#linear-gradient-6)"/>
      <path d="M253.11,392.76a.62.62,0,0,1-.56-.53c-.62-2.73,12.24-20.58,15.37-23.3a16.21,16.21,0,0,1,5.11-2.58c4.35-1.58,8.86-3.24,8.66-11.27a6.05,6.05,0,0,0-.9-.13c-5.4-.4-10.54,4.57-15.5,9.37-3.56,3.45-6.91,6.7-10.26,7.9l-.32.11,0-.4c-.4-8.69,11.67-21.72,14.92-24.73,1.26-1.13,3.43-2,5.73-2.84,4.6-1.74,9.82-3.73,9.67-8.8a1.08,1.08,0,0,0-.26,0c-7.38-.55-16.54,5.89-23.88,11.06-1,.75-2.06,1.46-3,2.1a59.05,59.05,0,0,0-8.9,8.21c-4.61,4.83-8.94,9.41-15.22,10.94l-4.19,3,.13-.73c1-5.61,6.06-9,10.53-12.06a31.1,31.1,0,0,0,5.48-4.3,68.77,68.77,0,0,0,5.85-8.52,77.53,77.53,0,0,1,5-7.47,131.45,131.45,0,0,0,7.52-11.4c5-8.13,10.68-17.36,15.87-20.47a7.94,7.94,0,0,1,4.66-1.24c8.48.63,14.48,17.48,19.76,32.32,2.7,7.59,5.25,14.74,7.82,18.82a43.66,43.66,0,0,0,3.58,4.58c3.94,4.66,8.85,10.44,7.4,18l0,.19-.17.06a16.13,16.13,0,0,1-6.46.6,46.34,46.34,0,0,0-4.81,0,4,4,0,0,1-.54,0c-3-.22-4.7-3.44-6.4-6.54a24.14,24.14,0,0,0-2.89-4.55c.37,9.6-.31,13.58-7.47,16.52-5.54,2.28-11.62,4.38-15.46,5.57-.88.25-1.34-.06-1.49-.33-.42-.9.34-2.86,1.42-5.6,1.34-3.44,3-7.71,2.74-11-3,0-6.67,3.69-10,7a46,46,0,0,1-4.12,3.86c-5,3.88-10.15,7.62-13.94,8.69A.84.84,0,0,1,253.11,392.76Zm27.73-38.46a10.57,10.57,0,0,1,1.18.16l.2,0,0,.27c.32,8.79-4.66,10.62-9.05,12.22a15.69,15.69,0,0,0-4.93,2.45c-3.69,3.2-15.65,20.51-15.17,22.6l.07,0a.65.65,0,0,0,.24,0c3.69-1,8.8-4.74,13.75-8.61a47.07,47.07,0,0,0,4.06-3.8c3.44-3.46,7.35-7.38,10.58-7.14l.22,0,0,.27c.41,3.55-1.36,8-2.76,11.66-.85,2.15-1.72,4.37-1.43,5a.31.31,0,0,0,.27.13,1.69,1.69,0,0,0,.58-.09c3.84-1.22,9.9-3.3,15.42-5.57,6.69-2.73,7.51-6,7-16.65l0-.76.49.49a21.31,21.31,0,0,1,3.51,5.23c1.69,3.1,3.28,6,6,6.24a2.67,2.67,0,0,0,.47,0,48.59,48.59,0,0,1,4.87,0,16.33,16.33,0,0,0,6.12-.51c1.27-7.07-3.28-12.42-7.27-17.14a40.83,40.83,0,0,1-3.63-4.66c-2.6-4.15-5.16-11.35-7.88-19-5.23-14.69-11.15-31.33-19.31-31.93a7.42,7.42,0,0,0-4.36,1.18c-5.07,3-10.71,12.17-15.68,20.26a133.13,133.13,0,0,1-7.54,11.44,80.46,80.46,0,0,0-4.93,7.4,66.75,66.75,0,0,1-5.91,8.63,31.26,31.26,0,0,1-5.6,4.39c-4.16,2.8-8.85,6-10.09,10.87l3.18-2.2c6.21-1.56,10.5-6.07,15-10.84a59.14,59.14,0,0,1,9-8.26l3-2.11c7.41-5.23,16.64-11.7,24.2-11.15l.52,0,.22,0,0,.27c.37,5.8-5.17,7.92-10.06,9.78-2.24.84-4.37,1.67-5.55,2.73-4.66,4.31-14.67,16.13-14.69,23.73,3.11-1.24,6.32-4.37,9.72-7.65C270,358.91,275.23,353.89,280.84,354.3Zm-10-24.22.05-.44c.48-3.95,4.22-11.93,12.68-11.31a14.43,14.43,0,0,1,2.14.34c2.44.56,3.6,1.32,3.63,2.39.08,2.47-6.46,5.2-12.58,7.58-.75.3-1.38.55-1.83.74ZM283.51,319c-7.77-.57-11.34,6.41-12,10.28l3.29-.56c.39-.18,1-.42,1.78-.7,3.67-1.43,12.27-4.75,12.18-6.91,0-.4-.44-1.15-3.19-1.78A13.55,13.55,0,0,0,283.51,319Z" fill="#c6e9fa"/>
    </g>
    <g>
      <path d="M79.39,416.09C100.7,397.63,111.3,358.18,133.9,344c11.54-7.27,18.83-17.84,28.91-29.6,9.49-11,20.79-20.51,30.3-32.63a157.74,157.74,0,0,1,29.77-29.49c9.6-7.28,18.37-17.12,29.45-15.79,9.87,1.17,19.54,5.52,21.14,21.95.83,8.68.37,16.72-5.31,20.17-4.59,2.79-10.4,2.25-15.36,4.48-7.75,3.48-12.06,12.09-18.47,18.11,11.5,2.06,16.81-12,29.19-10,.69,7.86-13.31,16.88-17.5,20.3-6.4,5.17-15.5,6.64-17.28,17.14,8.36,1.11,10.85-6.58,19.55-5.47,1.87,13-14.48,18.53-19.66,26.16-6.94,10.16-13.21,18.25-22.61,25.84-8.84,7.18-16.67,17-25.53,25-7.83,7.1-16.51,14.06-24,20.58-1.54-9.4,10.23-20.37,14.92-25,7.07-7,13.78-11.31,18-24.07-7,0-17.57,8.41-23.55,13.12-7.25,5.73-14.11,12.25-21.45,18.51-13,11.13-26.87,31.61-42.66,31.31-.83-14.3,13.84-30.82,20.53-38.1,7.58-8.26,17.64-11.39,26.09-18.24,4.5-3.63,8.24-5.53,13-11.45,4.08-5,8-10.2,12.07-15.2,4.46-5.62,27.74-21.83,27.31-32,.6-.09.77-.55.47-1.35-22.53-7.55-48.09,23.06-64.55,41.61-8.36,9.39-14.88,19.69-22.22,29.27-8.74,11.28-11.8,24-23.49,30.51-4.65,2.61-11.26,5.24-15.89,5.86A12.9,12.9,0,0,1,78,418.74ZM184.84,312.9a24.94,24.94,0,0,0,9.26-6.26c2.74-2.82,5.28-7.42,9.15-7.49-.19,1.28.21,3.5-.05,5,3.56.49,6.45-3.73,9.22-6.86,2.23-2.5,5.52-6.1,8.3-9.43,3.42-4.07,11.69-12.39,12.27-18.66-8.13-3.47-21.87,6.33-28.27,11.68-7.75,6.41-25.2,29.9-28.53,34.13S184.84,312.9,184.84,312.9ZM243,275.16c4.63-3.93,26.31-18.67,14-25.82-10.63-6.2-17.1,15-18.42,27.26Zm-48.55,73.92c6.82-7.44,39.7-41.45,17.32-25.69-19.34,13.65-25.06,27.56-24.32,32.17Z" fill="url(#linear-gradient-7)"/>
      <path d="M101.53,434.85v-.31c-.87-15,15.31-32.6,20.62-38.36,4.48-4.86,9.88-8,15.1-11.06a86,86,0,0,0,11-7.22c1.19-1,2.33-1.8,3.44-2.61a45.13,45.13,0,0,0,9.55-8.81c2.17-2.68,4.37-5.45,6.48-8.16,1.85-2.35,3.7-4.72,5.59-7a74.24,74.24,0,0,1,7.49-7.08c8.46-7.43,20-17.59,19.72-24.68v-.31l.27-.05a.4.4,0,0,0,.35-.17,1,1,0,0,0-.05-.57,23.33,23.33,0,0,0-5.35-1c-19.86-1.47-41,22.42-56.38,39.88L136.93,360a231.3,231.3,0,0,0-14.66,19c-2.45,3.4-5,6.9-7.55,10.27a103.27,103.27,0,0,0-7.65,11.93c-4.24,7.39-8.24,14.36-15.94,18.67-4.22,2.37-11,5.23-16,5.89l-.36,0,0-.42a13.28,13.28,0,0,1,2.91-6.84l1.45-2.67c9.82-8.5,17.47-21.67,24.86-34.42,8.6-14.76,17.47-30.06,29.7-37.76,9.13-5.75,15.52-13.49,22.91-22.45,1.9-2.3,3.85-4.66,5.93-7.08,4.12-4.8,8.67-9.39,13.08-13.82a221.73,221.73,0,0,0,17.2-18.78A157.18,157.18,0,0,1,222.74,252c1.92-1.45,3.82-3,5.65-4.53,7.49-6.18,14.56-12,23.2-11.4l.8.08c8.33,1,19.64,4.38,21.38,22.24.71,7.57.76,16.73-5.47,20.52-2.56,1.56-5.54,2.1-8.42,2.62a30.15,30.15,0,0,0-7,1.88c-4.94,2.21-8.4,6.45-12.07,11a74.81,74.81,0,0,1-5.8,6.6c.22,0,.46.06.68.07,4.93.36,8.65-2.22,12.6-5s8.28-5.77,14-5.35a12.63,12.63,0,0,1,1.3.14l.2,0,0,.25c.59,6.87-9.24,14.27-15.1,18.67-1,.78-1.88,1.43-2.53,2a44.54,44.54,0,0,1-5.91,3.82c-5.06,2.92-9.83,5.65-11.18,12.76l.43,0c3.67.27,6.11-1.18,8.7-2.74s5.33-3.19,9.37-2.89c.24,0,.5,0,.76.08l.2,0,0,.23c1.28,8.89-5.76,14.39-12,19.23-3.09,2.43-6,4.7-7.73,7.22-7.15,10.46-13.42,18.44-22.67,25.9a161.81,161.81,0,0,0-14.35,13.85c-3.58,3.74-7.29,7.63-11.15,11.13-4.74,4.31-9.81,8.57-14.72,12.68-3.26,2.76-6.34,5.35-9.29,7.91l-.36.31-.08-.5c-1.49-9.06,9.09-19.49,14.16-24.52l.87-.85c1.31-1.29,2.61-2.51,3.87-3.7,5.39-5,10.47-9.77,13.92-19.76-6.79.28-16.65,8.05-22.61,12.74l-.38.31c-4.5,3.56-8.77,7.34-13.27,11.35-2.65,2.36-5.39,4.79-8.17,7.16-3.5,3-7,6.62-10.75,10.47-10.05,10.38-20.45,21.11-32.07,20.9ZM201.1,319.76c0,7.43-11.51,17.55-20,25a74.92,74.92,0,0,0-7.42,7c-1.89,2.32-3.74,4.69-5.59,7-2.1,2.69-4.3,5.48-6.5,8.18a45.25,45.25,0,0,1-9.63,8.89c-1.1.81-2.25,1.65-3.44,2.61a85,85,0,0,1-11.09,7.26c-5.18,3-10.56,6.14-15,10.93-5.23,5.68-21.06,22.91-20.45,37.52,11.29.05,21.55-10.49,31.44-20.73,3.73-3.84,7.26-7.5,10.79-10.5,2.79-2.37,5.52-4.81,8.17-7.16,4.51-4,8.78-7.79,13.3-11.37l.38-.31c6.12-4.81,16.35-12.87,23.32-12.87h.41l-.16.44c-3.5,10.48-8.72,15.36-14.25,20.52-1.26,1.18-2.56,2.38-3.87,3.7l-.85.83c-4.91,4.85-15,14.81-14,23.36,2.85-2.48,5.81-5,9-7.6,4.89-4.11,9.94-8.38,14.68-12.66,3.86-3.5,7.55-7.36,11.13-11.11a165.85,165.85,0,0,1,14.41-13.91c9.18-7.4,15.42-15.35,22.55-25.77,1.75-2.58,4.72-4.89,7.85-7.34,6-4.68,12.84-10,11.78-18.31l-.52,0c-3.89-.29-6.53,1.29-9.08,2.82s-5.17,3.09-9,2.81c-.24,0-.5,0-.76-.08l-.29,0,.06-.35c1.32-7.69,6.53-10.69,11.58-13.58a45.61,45.61,0,0,0,5.84-3.78c.63-.51,1.52-1.18,2.55-2,5.29-4,15.12-11.37,14.83-17.77-.35,0-.7-.1-1-.12-5.53-.41-9.65,2.49-13.67,5.28-3.84,2.7-7.81,5.47-12.91,5.09a13.51,13.51,0,0,1-1.37-.17l-.63-.11.5-.48a74.05,74.05,0,0,0,6.26-7c3.57-4.35,7.24-8.86,12.29-11.13a29.86,29.86,0,0,1,7.09-1.89c3-.54,5.76-1.05,8.23-2.57,5.91-3.59,5.86-12.48,5.16-19.83-1.68-17.38-12.73-20.7-20.9-21.67-.26,0-.52-.06-.76-.08-8.44-.62-15.43,5.15-22.84,11.27-1.84,1.52-3.75,3.1-5.67,4.55a157.22,157.22,0,0,0-29.71,29.43,220.25,220.25,0,0,1-17.26,18.85c-4.41,4.44-9,9-13.07,13.81q-3.09,3.63-5.91,7.06c-7.43,9-13.85,16.79-23.06,22.6-12.1,7.61-20.95,22.83-29.49,37.52-7.42,12.77-15.08,26-24.95,34.55l-1.4,2.58A12.59,12.59,0,0,0,75.48,425c4.87-.74,11.35-3.48,15.44-5.78,7.55-4.23,11.51-11.12,15.72-18.45a101.26,101.26,0,0,1,7.67-12c2.58-3.36,5.09-6.87,7.55-10.27a227.39,227.39,0,0,1,14.7-19l2.42-2.73c15.48-17.55,36.71-41.56,56.81-40.07a22.84,22.84,0,0,1,5.59,1.11l.13.05,0,.14a1.6,1.6,0,0,1,.05,1.3A.86.86,0,0,1,201.1,319.76Zm-13.88,36.4-.07-.52c-.69-4.31,4.51-18.44,24.46-32.53,4.07-2.88,6.52-4.24,7.47-4.17a.62.62,0,0,1,.6.47c.54,2-7.84,11.48-21.55,26.14-1.48,1.54-2.69,2.86-3.52,3.76ZM219,319.61c-.56,0-2.26.62-7.16,4.06C193,337,187.47,350.24,187.63,355l6.63-6.13c.81-.9,2-2.2,3.5-3.77,5.49-5.86,22.21-23.72,21.4-25.41A.64.64,0,0,0,219,319.61Zm-43-2.85h0a.64.64,0,0,1-.64-.45c-.12-.39.08-.87.62-1.54l2.49-3.22c5.84-7.65,19.52-25.53,26.1-31C208.25,277.5,221,267.5,230,268.16a9.36,9.36,0,0,1,3,.71l.2.09,0,.25c-.49,5.4-6.47,12.16-10.42,16.64-.73.84-1.38,1.58-1.93,2.23-2.29,2.74-4.91,5.66-7,8l-1.28,1.43c-.41.46-.82.95-1.22,1.43-2.41,2.84-4.88,5.77-7.95,5.55l-.28,0-.29,0,.06-.35a13.3,13.3,0,0,0,0-2.66,14.85,14.85,0,0,1,0-1.9c-2.64.2-4.65,2.65-6.62,5-.7.84-1.35,1.65-2,2.36a25.51,25.51,0,0,1-9.36,6.31C184.66,313.35,177.87,316.9,176,316.76Zm-.12-.7a.83.83,0,0,0,.16,0c1.39.1,6.3-2.25,8.69-3.5a24.58,24.58,0,0,0,9.19-6.22,29.44,29.44,0,0,0,2-2.32c2.12-2.55,4.3-5.19,7.32-5.26h.32l0,.38a13.73,13.73,0,0,0,0,2.17,16.43,16.43,0,0,1,0,2.46c2.78.18,5.17-2.62,7.46-5.36l1.24-1.43,1.28-1.43c2.11-2.35,4.73-5.27,7-8,.53-.63,1.2-1.38,1.94-2.23,3.82-4.33,9.58-10.84,10.22-16a9.82,9.82,0,0,0-2.7-.58c-8.87-.66-21.47,9.24-25.13,12.31-6.51,5.38-20.16,23.22-26,30.84-1.11,1.44-2,2.57-2.48,3.22a2.17,2.17,0,0,0-.51.86Zm62.36-39,.06-.49c1.32-12.26,7-29.28,15.43-28.65a8,8,0,0,1,3.4,1.13c2.48,1.46,3.78,3.32,3.86,5.57.24,6.6-10.07,14.68-15.6,19-.95.74-1.72,1.35-2.28,1.82l-.08,0Zm15.43-28.47c-8-.59-13.38,15.6-14.77,27.58l4-1.3c.54-.48,1.31-1.07,2.24-1.78,5-4,15.56-12.21,15.33-18.43-.06-2-1.26-3.67-3.56-5A7.22,7.22,0,0,0,253.68,248.58Z" fill="#c6e9fa"/>
    </g>
    <g>
      <path d="M315.39,257.24c5.06-2.33,13.75-.42,20.22-2.11,4.72-1.24,11.11-.7,15.89-2.81,9.45-4.25,17.3-14.64,28.91-17.07,7.27-1.54,6.38-1.09,9.71,7.59,2.18,5.62,3.77,8.33,8.27,9.74s10.46-1,13.83,4.38c3,4.63,2.68,15.69,1.33,21.88-2.33,10.5-19.5,32.24-28.56,32.42.2-12,11.63-17.38,11.52-28.27-9.34-1.27-13,4.74-20.91,10.18-8.2,5.73-14.17,3-21-2.22a178.4,178.4,0,0,0-18.09-12.62c-4.54-2.62-15.9-7.42-18-13.77C318.5,264.61,310.33,259.53,315.39,257.24Zm41.86,26.46c2.59,5,13.91,8.3,30.78-8.78,19.56-19.7-16.07.15-23.71,4Z" fill="url(#linear-gradient-8)"/>
      <path d="M384.71,311.59v-.33c.1-6.19,3.14-10.65,6.06-14.93,2.78-4.09,5.42-7.95,5.46-13.05l-.93-.09c-6.15-.45-9.73,2.46-14.23,6.16-1.65,1.35-3.34,2.73-5.34,4.1-3.42,2.41-6.65,3.45-9.86,3.21-4.19-.31-8-2.78-11.44-5.43a178.47,178.47,0,0,0-18.07-12.59c-.79-.46-1.81-1-3-1.58-5.3-2.78-13.29-7-15.11-12.26-.91-.52-4.59-3-4.83-5.32-.1-1.09.5-1.93,1.83-2.55,2.78-1.27,6.56-1.28,10.57-1.32a39.87,39.87,0,0,0,9.68-.78,40.62,40.62,0,0,1,6.45-1c3.25-.3,6.61-.61,9.4-1.86,3.8-1.69,7.3-4.36,11-7.2,5.42-4.14,11-8.41,18-9.88a19.37,19.37,0,0,1,4.79-.68c2.15.16,2.74,1.79,4.18,5.7.29.8.64,1.73,1,2.76,2.12,5.44,3.59,8.14,8.1,9.55a12.22,12.22,0,0,0,2.87.5c.65,0,1.32.08,2,.1s1.36,0,2,.08c2.56.19,5.18.79,7.08,3.81,3,4.68,2.74,15.87,1.38,22.17C411.58,289,394.3,311.41,385,311.59Zm10.65-29.07c.39,0,.8.08,1.2.13l.24,0V283c.06,5.48-2.69,9.49-5.59,13.75-2.82,4.11-5.73,8.39-5.93,14.17,9.2-.62,25.81-22.31,28-32.17,1.34-6.15,1.65-17.06-1.28-21.58-1.77-2.82-4.26-3.38-6.69-3.56-.67,0-1.34-.07-2-.08s-1.34-.06-2-.11a13,13,0,0,1-3-.51c-4.5-1.41-6.19-4.09-8.44-9.93-.39-1-.73-1.94-1-2.76-1.43-3.86-1.91-5.18-3.73-5.31a19.76,19.76,0,0,0-4.65.66c-6.86,1.44-12.41,5.68-17.78,9.79-3.72,2.86-7.23,5.55-11.09,7.28-2.85,1.24-6.27,1.57-9.55,1.89a43.33,43.33,0,0,0-6.37.91,40.65,40.65,0,0,1-9.79.82c-4,0-7.7,0-10.39,1.29-.94.42-1.43,1-1.46,1.61-.06,2.08,4.23,4.9,4.6,5.08h.17v.15c1.67,5.11,9.63,9.26,14.88,12,1.13.6,2.16,1.12,3,1.59a177.64,177.64,0,0,1,18.1,12.64c3.41,2.6,7.1,5,11.19,5.35,3.1.23,6.21-.79,9.55-3.12,2-1.38,3.65-2.75,5.28-4.08C385.36,285,389,282.06,395.35,282.53ZM364.29,288h0c-3.35-.25-6.07-1.79-7.28-4.14l-.14-.3.25-.16,7.07-4.81c.93-.47,2.21-1.15,3.76-2,7.83-4.08,21-10.94,24.86-10.65a1.22,1.22,0,0,1,1.24.85c.22.82-.15,2.58-5.85,8.32C376.49,287,368.19,288.31,364.29,288Zm-6.64-4.21c1.2,2,3.67,3.31,6.69,3.54h0c3.82.28,11.95-1,23.52-12.7,5.26-5.29,5.81-7,5.67-7.59-.07-.27-.48-.37-.77-.39-3.77-.28-17.32,6.8-24.61,10.6-1.54.8-2.83,1.47-3.72,1.92Z" fill="#c6e9fa"/>
    </g>
    <g>
      <path d="M394.11,326.55c-1.53,8.35,7.13,14.51,11.67,14,.57-6.45-5.66-6.89-7-10.91Z" fill="url(#linear-gradient-9)"/>
      <path d="M404.73,340.85c-2.8-.21-6.87-2.41-9.27-6.26a11.3,11.3,0,0,1-1.62-8.11l.08-.44.33.2,4.75,3.13,0,.09c.5,1.49,1.76,2.48,3.07,3.54,2,1.61,4.32,3.43,4,7.52l0,.29-.25,0A5.05,5.05,0,0,1,404.73,340.85Zm-10.41-13.8a10.39,10.39,0,0,0,1.6,7.13c2.28,3.68,6.19,5.81,8.86,6a3.93,3.93,0,0,0,.74,0c.2-3.5-1.8-5.11-3.74-6.63a8.79,8.79,0,0,1-3.23-3.73Z" fill="#c6e9fa"/>
    </g>
    <g>
      <path d="M500,374.68c-5.43,1.26-2.3-11.34-5.85-15.25-3.7-4.1-7.29-6.09-11.09-10.22-6.39-6.92-18.54-10.28-24.31-17C452.28,324.8,444.09,312,439,303c-5.65-9.91-8.67-19.66-12.82-31.86,11.63-1.94,16.54,11.38,25.48,18.29,9.79,7.51,18.74,16.83,28.48,23.84A154.71,154.71,0,0,0,513,330.9c9.64,3.78,19.22,5.36,27.81,13.67,9.5,9.19,21.78,15.42,24.43,33-9.19-.05-11.85-7.19-18.31-15.14C540.77,354.86,536.73,350,528,350c-8.33,13,14.09,10.75,12.5,19.59-1.5,8.48-23-1.25-25.75-4.07a283.87,283.87,0,0,1-22.9-27.25c-5.62-7.4-17.64-16.88-26.22-16.13a14.81,14.81,0,0,0-.29,4.14c10.21,12.77,38.74,18.73,37.28,45Zm10.27-32.34c-1.49,8.33,7.1,14.51,11.65,14,.58-6.51-5.64-7-7-10.95Z" fill="url(#linear-gradient-10)"/>
      <path d="M499.06,375.08c-2.48-.18-2.8-3.72-3.12-7.48-.28-3.11-.56-6.31-2-7.92a50.58,50.58,0,0,0-5.55-5.13,54.8,54.8,0,0,1-5.53-5.09c-3.14-3.41-7.75-6-12.21-8.46-4.71-2.61-9.17-5.11-12.12-8.53-6.39-7.37-14.52-20-19.74-29.26-5.05-8.88-8.07-17.81-11.57-28.12l-1.41-4.2.36-.06a14.64,14.64,0,0,1,3.2-.14c6.15.46,10.31,5.33,14.7,10.51a55.22,55.22,0,0,0,7.77,8c4.52,3.47,8.91,7.35,13.16,11.11,5,4.4,10.06,8.94,15.32,12.73a154.82,154.82,0,0,0,32.75,17.57c2.26.88,4.56,1.66,6.78,2.4,7.46,2.52,14.5,4.92,21.13,11.32,2,1.94,4.21,3.8,6.34,5.62,7.9,6.69,16.07,13.61,18.17,27.57l.06.41h-.34c-.39,0-.78,0-1.15,0-6.53-.48-9.66-4.79-13.62-10.25-1.15-1.59-2.35-3.24-3.73-5-5.49-6.78-9.45-11.69-17.07-12.25-.48,0-1,0-1.5-.07-1.42,2.29-1.95,4.17-1.6,5.77.61,2.8,3.95,4.36,7.19,5.86,3.82,1.78,7.78,3.64,7.06,7.71-.48,2.7-2.79,3.91-6.87,3.61-7.18-.51-17.52-5.64-19.34-7.49a282.89,282.89,0,0,1-22.91-27.28c-4.78-6.26-15.4-15.4-24.11-16a13.32,13.32,0,0,0-1.68,0,14.33,14.33,0,0,0-.24,3.68c3.25,4,8.33,7.37,13.74,10.93,11.5,7.58,24.56,16.18,23.56,34.24v.11l-.06.08L500.11,375H500A3.05,3.05,0,0,1,499.06,375.08ZM426.58,271.45l1.15,3.38c3.47,10.28,6.49,19.19,11.52,28,5.19,9.2,13.3,21.8,19.68,29.16,2.87,3.32,7.29,5.8,12,8.4,4.49,2.51,9.13,5.09,12.33,8.54a51.59,51.59,0,0,0,5.48,5,51.19,51.19,0,0,1,5.6,5.18c1.62,1.78,1.9,5.11,2.18,8.33.31,3.63.58,6.78,2.62,6.93a3.08,3.08,0,0,0,.73-.05l2.51-3.22c.9-17.55-11.95-26-23.29-33.5-5.46-3.58-10.63-7-13.93-11.13l-.07-.07v-.11a15.4,15.4,0,0,1,.3-4.25l.06-.24.21,0a13.33,13.33,0,0,1,2,0c8.87.66,19.65,9.89,24.47,16.24a284.21,284.21,0,0,0,22.88,27.23c1.77,1.81,11.93,6.83,19,7.35,3.74.28,5.86-.77,6.27-3.1.63-3.51-2.94-5.18-6.72-6.94-3.37-1.57-6.83-3.19-7.51-6.31-.41-1.82.18-3.95,1.78-6.47l.1-.13H528c.58,0,1.14,0,1.67.05,7.85.58,11.86,5.56,17.43,12.46,1.4,1.72,2.6,3.37,3.75,5,3.87,5.34,6.94,9.56,13.24,10,.26,0,.52,0,.78,0-2.18-13.44-10.18-20.2-17.92-26.77-2.12-1.79-4.32-3.65-6.37-5.64-6.53-6.31-13.51-8.68-20.91-11.19-2.24-.75-4.53-1.52-6.81-2.43A154.08,154.08,0,0,1,480,313.58c-5.26-3.79-10.4-8.34-15.36-12.73-4.25-3.78-8.63-7.67-13.12-11.11a55.1,55.1,0,0,1-7.87-8.06c-4.31-5.09-8.39-9.91-14.34-10.35A13.2,13.2,0,0,0,426.58,271.45Zm94.26,85.19c-2.76-.2-6.81-2.41-9.22-6.21a11.4,11.4,0,0,1-1.65-8.16l.09-.44,5.07,3.28,0,.09c.51,1.49,1.74,2.46,3,3.51,2,1.6,4.33,3.45,4,7.59l0,.29-.24,0A5.48,5.48,0,0,1,520.84,356.64Zm-10.39-13.8a10.69,10.69,0,0,0,1.63,7.17c2.29,3.66,6.17,5.76,8.81,6a3.9,3.9,0,0,0,.75,0c.21-3.57-1.8-5.17-3.75-6.72a8.68,8.68,0,0,1-3.2-3.68Z" fill="#c6e9fa"/>
    </g>
    <g>
      <path d="M193.4,411.11c7.81-8.33,14.73-4.26,24.15-6.3,4.77-1,5.91-5,9.84-7.8,3.27-2.35,8.2-1.72,12-1.17-2.61,6.84-14,13.42-19.09,17-8.09,5.85-15,1.78-24.36,4.67S193.4,411.11,193.4,411.11Z" fill="url(#linear-gradient-11)"/>
      <path d="M192.69,418.42a1.85,1.85,0,0,1-1.82-1.18c-.7-2.09,2-5.92,2.32-6.35,5.34-5.69,10.15-5.71,15.73-5.73a40.43,40.43,0,0,0,8.57-.66c2.88-.62,4.37-2.3,6.07-4.23a20.06,20.06,0,0,1,3.69-3.53c1.95-1.42,4.64-1.94,8.44-1.66,1.3.1,2.56.25,3.75.43l.37,0-.16.42c-2.2,5.74-10.2,11.11-16,15-1.2.81-2.27,1.53-3.14,2.16-4.83,3.49-9.26,3.5-13.94,3.51A33.55,33.55,0,0,0,196,417.86,9.57,9.57,0,0,1,192.69,418.42Zm43-22.67c-3.69-.27-6.26.21-8.11,1.55a21.25,21.25,0,0,0-3.59,3.45c-1.71,1.93-3.32,3.76-6.35,4.39a39.17,39.17,0,0,1-8.68.7c-5.46,0-10.18,0-15.32,5.51-.77,1.06-2.68,4.19-2.2,5.61.36,1,1.91,1.08,4.51.27A34.21,34.21,0,0,1,206.54,416c4.61,0,8.95,0,13.64-3.4.91-.65,2-1.38,3.18-2.18,5.32-3.54,13.28-8.89,15.64-14.29C237.92,396,236.79,395.83,235.64,395.75Z" fill="#c6e9fa"/>
    </g>
    <g>
      <path d="M405.26,315.73c3.22,3.06,5,11.8,8.54,15.87,4,4.5,9.65,6.64,14.39,9.32,10.11,5.73,23.73,12.92,35.69,11-.47-7.06-7.22-9.58-10.4-12.43-4.3-3.9-7.92-9.67-11.62-15.27-5.37-8.14-15.5-27.64-23.51-28-2.11,9,5.93,23.53,6.67,32.63-5.45,3.71-9.16-11.58-14.35-12.74l-5.43-.4v0Z" fill="url(#linear-gradient-12)"/>
      <path d="M457.58,352.52h0c-9.74-.72-19.93-5.86-29.5-11.29-1.13-.64-2.28-1.22-3.5-1.85-3.88-2-7.88-4.07-11-7.53-1.81-2.06-3.13-5.24-4.43-8.34s-2.47-5.91-4-7.43l-.24,0,0-.21-.52-.5,6.27.46c2.36.53,4.38,3.75,6.34,6.85s4,6.31,6.1,6.47a2.6,2.6,0,0,0,1.58-.42c-.31-3.54-1.73-7.89-3.22-12.48-2.32-7.15-4.73-14.56-3.42-20.06l.07-.26.37,0c6.64.49,14.46,13.29,20.16,22.64,1.25,2,2.41,4,3.4,5.47l1.06,1.6c3.27,5,6.65,10.12,10.52,13.62a29.82,29.82,0,0,0,2.74,2c3.3,2.28,7.4,5.09,7.77,10.65l0,.31-.27.05A28.71,28.71,0,0,1,457.58,352.52Zm-51.52-36.37c1.37,1.67,2.46,4.3,3.62,7.07,1.27,3,2.57,6.16,4.3,8.13,3,3.4,7,5.44,10.83,7.4,1.22.65,2.37,1.23,3.5,1.87,9.54,5.4,19.68,10.52,29.32,11.23a26.83,26.83,0,0,0,6-.19c-.49-5-4.36-7.64-7.48-9.79a27.74,27.74,0,0,1-2.79-2.06c-3.91-3.56-7.32-8.74-10.62-13.75l-1.06-1.6c-1-1.51-2.17-3.43-3.42-5.47-5.62-9.21-13.3-21.82-19.65-22.38C417.46,301.86,419.78,309,422,316c1.54,4.72,3,9.19,3.28,12.86v.23l-.16.1a3.15,3.15,0,0,1-2.06.63c-2.39-.18-4.39-3.37-6.49-6.72-1.91-3-3.85-6.13-6-6.6Z" fill="#c6e9fa"/>
    </g>
  </g>
  <g>
    <g>
      <path d="M.7,465s24.59-15.18,72.89-27.86,83.46-20.26,119.55-28.47,64.6-14.58,120.31-15.19,139.17-6.33,198.16-7.6,140-1.88,140-1.88l-8.21,214.53Z" fill="url(#linear-gradient-13)"/>
      <path d="M643.73,598.87l-.48-.09L0,465.12l.45-.27c.23-.14,25.19-15.35,73-27.9,40.79-10.65,72.26-17.77,102.7-24.66,5.65-1.26,11.25-2.53,16.88-3.81,34.11-7.82,63.59-14.57,120.43-15.21,29.77-.33,68.09-2.15,105.16-3.91,32.22-1.52,65.53-3.1,93-3.69,58.25-1.27,139.19-1.88,140-1.88H652V384ZM1.41,464.93,643,598.24l8.19-214c-6.18,0-83.44.66-139.58,1.88-27.45.58-60.76,2.17-93,3.69-37.08,1.76-75.43,3.58-105.21,3.91-56.71.63-86.13,7.37-120.18,15.18-5.63,1.28-11.23,2.55-16.88,3.81-30.42,6.88-61.89,14-102.65,24.66C29.56,449,5,462.82,1.41,464.93Z" fill="#020202"/>
    </g>
    <g>
      <path d="M574.18,393.88C512.27,399,419,434.45,350.39,453.27s-141,40.6-129.5,64.61c9.64,20.21,329.86,65.94,430.73,79.9V391.36A760,760,0,0,0,574.18,393.88Z" fill="url(#linear-gradient-14)"/>
      <path d="M652,598l-.41-.06c-126.46-17.51-421.61-60.35-431-80.05-11.37-23.78,57.84-45.07,129.69-64.86,20.73-5.69,43.42-12.79,67.43-20.32,55.64-17.45,113.21-35.48,156.45-39.08,21-1.76,42.36-2.64,63.5-2.64,4.69,0,9.41,0,14,.13H652Zm-14.33-206.6c-21.12,0-42.45.88-63.41,2.64-43.12,3.59-100.62,21.61-156.24,39-24,7.52-46.7,14.63-67.45,20.33C279,473.17,210,494.37,221.21,517.82c9.55,20,331,66,430.06,79.68V391.56C646.81,391.49,642.21,391.45,637.64,391.45Z" fill="#020202"/>
    </g>
    <g>
      <path d="M528.68,547.94c-28.47-18.66-143.06-49.61-212.83-65.06s-91.08-12.8-159.4-16.55C99.66,463.24,24.22,464.19.32,464.6V651.77h460C493.85,619.35,548.9,561.22,528.68,547.94Z" fill="url(#linear-gradient-15)"/>
      <path d="M460.52,652H0V464.4H.32c10.05-.18,30.6-.47,55.34-.47,40.09,0,74,.75,100.8,2.2,14.92.83,27.74,1.33,39.06,1.8,41.09,1.65,65.89,2.66,120.43,14.76,71.24,15.76,184.4,46.39,213,65.11,20.34,13.35-34.06,70.93-68.28,104.07ZM.65,651.57H460.18c16.13-15.62,38.59-38.5,54.2-59,18.12-23.78,22.84-38.76,14.06-44.52-28.49-18.66-141.52-49.25-212.69-65C261.28,471,236.53,470,195.48,468.32c-11.32-.46-24.13-1-39.06-1.79-26.78-1.47-60.69-2.2-100.76-2.2-24.46,0-44.86.28-55,.47Z" fill="#020202"/>
    </g>
    <g>
      <path d="M651.61,562.8c-37-12.06-94.69-29.56-130.5-34.19-56.06-7.25-83.71-7.25-124.42,6.63S365.23,572.06,333,582.62s-26.05,2-92.15,14.48C199.52,604.9,109.57,632.32,48,651.75H651.61v-89Z" fill="url(#linear-gradient-16)"/>
      <path d="M652,652H48l-.16-.41c65.62-20.71,152.35-47,192.89-54.67,32.72-6.21,47.6-7.23,58.49-8s17.36-1.2,33.59-6.48c15.14-5,21.13-12.71,27.44-20.95,7.25-9.39,14.75-19.12,36.3-26.44,23.86-8.14,43-11.46,66-11.46,15.08,0,32.62,1.44,58.7,4.81,37,4.79,97.68,23.49,130.59,34.22l.19.06Zm-602.51-.44h601.8V562.93c-32.91-10.72-93.4-29.34-130.21-34.1-26-3.38-43.55-4.81-58.56-4.81-22.85,0-41.85,3.31-65.62,11.4-21.34,7.24-28.79,16.91-36,26.25-6.36,8.29-12.39,16.11-27.75,21.14-16.35,5.33-22.94,5.78-33.85,6.54s-25.7,1.78-58.37,8C200.7,604.9,114.89,630.89,49.46,651.53Z" fill="#020202"/>
    </g>
  </g>
</svg>
