<svg xmlns="http://www.w3.org/2000/svg" viewBox="0 0 9.7 60.14">
  <title>neck-tie</title>
  <g id="Layer_2" data-name="Layer 2">
    <g id="neck-tie">
      <g>
        <path d="M5.09,5.18c.34,0,.75-.22,1.19-.76,0,0,0,0,0-.06C6.27,3.87,6.86,3,8,1.85c.26-.26.51-.51,0-1.08A3,3,0,0,0,5.95.23H5.48C4.23.12,3.39.28,3.11.71a.84.84,0,0,0-.06.7A19.88,19.88,0,0,1,4.11,3.54a3.71,3.71,0,0,1,.31,1.09A1,1,0,0,0,5.09,5.18Z" fill="#919ac1"/>
        <path d="M6.77,5.3A1.73,1.73,0,0,1,5.56,6H5.42a1.16,1.16,0,0,1-.65-.35.81.81,0,0,1-.13.29A10.3,10.3,0,0,0,3.37,8.37C3,9.62,1.66,39.23,1,54.84a27.24,27.24,0,0,1,2.85,3.48c.72,1,1.25,1.22,1.56,1.22a.86.86,0,0,0,.67-.41l0,0,3.37-4C9.21,42.48,8.45,10,8.15,8.3A12.58,12.58,0,0,1,6.77,5.3Zm.29,12.88.12,0c0,.09-3.39,9-3.77,13.29H3.28C3.67,27.21,7,18.28,7.06,18.19Zm0,9.6h.12s-3.77,10-3.77,14H3.28C3.28,37.78,7,27.78,7.06,27.78ZM3.41,51.44H3.28C3.48,49.66,6.92,39,7.06,38.59l.13,0C7.15,38.74,3.61,49.69,3.41,51.44Z" fill="#919ac1"/>
        <path d="M9.69,55.22c0-.12-.26-11.82-.55-23.41-.6-23.57-.75-23.73-.9-23.88A10.77,10.77,0,0,1,6.87,4.75c0-.23.42-.91,1.59-2.08a1.21,1.21,0,0,0,0-1.9A3.55,3.55,0,0,0,5.95,0H5.51C4-.11,3,.14,2.61.77A1.46,1.46,0,0,0,2.5,2l0,0a19.35,19.35,0,0,1,1,2.08c.43,1,.21,1.38.21,1.38A10.7,10.7,0,0,0,2.4,8.2C1.9,9.84.08,53.11,0,55v.14l.1.09A25.12,25.12,0,0,1,3,58.67c.7,1,1.39,1.48,2,1.48a1.45,1.45,0,0,0,1.17-.68l3.5-4.13Zm-4,3.87,0,0a.86.86,0,0,1-.67.41c-.31,0-.84-.21-1.56-1.22A27.24,27.24,0,0,0,.61,54.84C1.26,39.23,2.59,9.62,3,8.37A10.3,10.3,0,0,1,4.24,5.91a.81.81,0,0,0,.13-.29,2.35,2.35,0,0,1-.49-.78l.38-.14A2.13,2.13,0,0,0,4.41,5a3.71,3.71,0,0,0-.31-1.09A19.88,19.88,0,0,0,3,1.8a.84.84,0,0,1,.06-.7C3.39.68,4.23.51,5.48.64h.47A3,3,0,0,1,8,1.17c.52.58.27.82,0,1.08-1.17,1.17-1.76,2-1.76,2.51,0,0,0,0,0,.06l.14-.18.32.24a4.87,4.87,0,0,1-.35.43,12.58,12.58,0,0,0,1.38,3C8.05,10,8.82,42.48,9.09,55.12Z"/>
        <path d="M5.17,6A1.73,1.73,0,0,0,6.38,5.3a4.87,4.87,0,0,0,.35-.43l-.32-.24-.14.18c-.44.55-.85.81-1.19.76A1,1,0,0,1,4.41,5a2.13,2.13,0,0,1-.15-.31l-.38.14a2.35,2.35,0,0,0,.49.78A1.16,1.16,0,0,0,5,6Z"/>
        <path d="M6.79,18.23l-.12,0c0,.09-3.39,9-3.78,13.32H3C3.41,27.24,6.76,18.32,6.79,18.23Z"/>
        <path d="M6.79,27.22l-.12-.17c0,.1-3.78,10.73-3.78,14.73H3C3,37.78,6.75,27.32,6.79,27.22Z"/>
        <path d="M2.89,51.42H3c.19-1.75,3.74-12.69,3.78-12.8l-.13,0C6.52,39,3.08,49.66,2.89,51.42Z"/>
      </g>
    </g>
  </g>
</svg>
