<svg id="Layer_1" data-name="Layer 1" xmlns="http://www.w3.org/2000/svg" viewBox="0 0 64 64">
  <title>nose</title>
  <g>
    <path d="M45.16,36.94c-1-.33-2.34-33.41-13-32.24-10.69-1.17-12,31.9-13,32.24-12.19,5.68-9.35,15-5.18,17.7S20.28,52.3,24,56a11.7,11.7,0,0,0,16.37,0c3.67-3.67,5.85,1.34,10-1.34S57.36,42.62,45.16,36.94Z" fill="#ffe0a6"/>
    <path d="M32.44,62h-.6a14.18,14.18,0,0,1-9.77-4.13c-.62-.62-.92-.62-1-.62a5.73,5.73,0,0,0-1.35.31,10.46,10.46,0,0,1-3.14.58,7.45,7.45,0,0,1-4.05-1.25,11.17,11.17,0,0,1-4.79-10c.19-2.8,1.65-7.94,9.16-11.84.13-.79.29-2,.44-3.06C18.75,21.52,21.44,2,31.59,2l.55,0,.55,0C42.83,2,45.52,21.52,47,32c.15,1.09.31,2.27.44,3.06,7.51,3.9,9,9,9.16,11.84a11.17,11.17,0,0,1-4.79,10,7.45,7.45,0,0,1-4.05,1.25h0a10.46,10.46,0,0,1-3.14-.58,5.72,5.72,0,0,0-1.35-.31c-.11,0-.41,0-1,.62A14.18,14.18,0,0,1,32.44,62Zm-.1-5.35h.1a8.69,8.69,0,0,0,6-2.57,6.63,6.63,0,0,1,4.81-2.19,9.64,9.64,0,0,1,2.91.54,6,6,0,0,0,1.59.35h0a2.06,2.06,0,0,0,1.17-.4,5.85,5.85,0,0,0,2.34-5.13c-.2-3-2.72-5.79-7.09-7.85-1.64-.61-1.8-1.77-2.48-6.68A112.76,112.76,0,0,0,38.41,16c-1.68-5.48-3.76-8.62-5.73-8.62h-.26l-.29,0-.29,0h-.26c-2,0-4.05,3.14-5.73,8.62A112.69,112.69,0,0,0,22.6,32.73c-.68,4.92-.84,6.07-2.48,6.68-4.37,2.06-6.89,4.85-7.09,7.85a5.85,5.85,0,0,0,2.34,5.13,2.06,2.06,0,0,0,1.17.4,6,6,0,0,0,1.59-.35A9.64,9.64,0,0,1,21,51.9a6.63,6.63,0,0,1,4.81,2.19,8.69,8.69,0,0,0,6,2.57h.5Z" fill="#5a4a42"/>
    <path d="M26.63,40.78l-.37,0a2.34,2.34,0,0,1-1.94-2.67l3.51-22.21a2.34,2.34,0,0,1,4.62.73L28.93,38.81A2.34,2.34,0,0,1,26.63,40.78Z" fill="#5a4a42"/>
  </g>
</svg>
