<svg xmlns="http://www.w3.org/2000/svg" viewBox="0 0 21.66 59.25">
  <title>pants</title>
  <g id="Layer_2" data-name="Layer 2">
    <g id="pants">
      <g>
        <path d="M5,4.52A3.83,3.83,0,0,0,5.88,3c-2.09-.24-3.53-.53-4-.63l-.26.92C1.43,4,1.19,4.86,1,5.79A4.74,4.74,0,0,0,5,4.52Z" fill="#434354"/>
        <circle cx="15.47" cy="3.39" r="0.12" fill="#434354"/>
        <path d="M14.08,58.11a.54.54,0,0,0,.06.35.73.73,0,0,0,.51.25,9.19,9.19,0,0,0,1.5.13,3.81,3.81,0,0,0,2.46-.66c0-.06,0-.16,0-.31a8.31,8.31,0,0,1-2.72.48A6.31,6.31,0,0,1,14.08,58.11Z" fill="#434354"/>
        <path d="M16.71,4.94a3.2,3.2,0,0,1-.94-1.44.32.32,0,0,1-.61,0,4.21,4.21,0,0,0,1.46,2.21,5.36,5.36,0,0,0,4.17.76L20.72,6l-.53,0A5.08,5.08,0,0,1,16.71,4.94Z" fill="#434354"/>
        <path d="M15.15,3.39a.32.32,0,0,1,.55-.24l0-.11-.6,0a3.2,3.2,0,0,0,.08.36A.32.32,0,0,1,15.15,3.39Z" fill="#434354"/>
        <path d="M5.82,4.9a4.18,4.18,0,0,0,1-2l-.72-.08a4.26,4.26,0,0,1-4.45,3q-.34,0-.72,0-.08.34-.16.69C3,6.67,4.75,6.12,5.82,4.9ZM6.31,3A.35.35,0,1,1,6,3.34.35.35,0,0,1,6.31,3Z" fill="#434354"/>
        <path d="M3.88,58.37a.86.86,0,0,0,.56.48,6.46,6.46,0,0,0,1.16.09,6.74,6.74,0,0,0,2.78-.45c0-.07,0-.1,0-.28v-.09A18.42,18.42,0,0,1,5,58.41C4.68,58.41,4.29,58.4,3.88,58.37Z" fill="#434354"/>
        <circle cx="6.31" cy="3.34" r="0.15" fill="#434354"/>
        <path d="M10.83,3.17c0,1,0,2.25,0,3.3,0,.76,0,1.36,0,1.56s0,.78,0,1.39a13.37,13.37,0,0,0,0,2.29s.14.07.32,0a1.64,1.64,0,0,0,1.29-1.49c0-1.46.11-5.89,0-7.07h-1.7Z" fill="#434354"/>
        <path d="M7,2.75c1.09.1,2.31.18,3.63.22a6.87,6.87,0,0,0-.1-1.06,1.08,1.08,0,0,1,0-.6s-.06.15-.08.15h0A27.53,27.53,0,0,1,7,1,5,5,0,0,0,7,2.75Z" fill="#434354"/>
        <circle cx="11.64" cy="1.88" r="0.37" fill="#434354"/>
        <path d="M15.09,2.88l.63,0h-.05a4.88,4.88,0,0,0,0-1.9l-.55,0A3.77,3.77,0,0,1,15.09,2.88Z" fill="#434354"/>
        <path d="M20.94,11.53l0-.13a1.81,1.81,0,0,0,0-.89.17.17,0,0,1-.13-.08.17.17,0,0,1,0-.17l.06-.06a6.15,6.15,0,0,0,0-1.29c0-.63-.15-1.39-.27-2.15a8.61,8.61,0,0,1-1.3.11,4.87,4.87,0,0,1-3-.91,4.4,4.4,0,0,1-1.63-2.77h0c-.73,0-1.45.07-2.15.08.1,1.21,0,5.62,0,7.08A1.85,1.85,0,0,1,11.11,12l-.19,0a.35.35,0,0,1-.35-.18,10.86,10.86,0,0,1-.06-2.37c0-.59,0-1.14,0-1.37s0-.81,0-1.57c0-1,0-2.31,0-3.3-1.32,0-2.54-.11-3.62-.22a4.29,4.29,0,0,1-1,2.08A5.63,5.63,0,0,1,1.34,6.83l-.79,0c-.09.42-.17.85-.24,1.3-.49,3.11.19,9.63.2,9.69.3,4.33.91,9.1,1.27,12,.18,1.4.31,2.42.32,2.77s0,1.17,0,2.13c0,.79,0,1.68,0,2.55a5.75,5.75,0,0,0,2.59.64v.1H4.41a6.14,6.14,0,0,1-2.36-.64c0,.84,0,1.65.06,2.35s.16,2.14.28,3.63C2.6,46,2.84,49,2.9,50.73c0,.4,0,.85,0,1.32,0,2,.1,4.9.67,6.2A18.78,18.78,0,0,0,8.17,58a9.88,9.88,0,0,1,0-1.75c.16-2.14.24-8.88.09-12.09-.07-1.55-.14-3.75-.14-5.77-.46.11-2.31.41-2.31.41v-.1s1.88-.31,2.31-.41c0-1.48-.2-2.85-.17-3.78a8.55,8.55,0,0,1-4.14,1.16v-.1A8.93,8.93,0,0,0,8,34.39a6.83,6.83,0,0,1,.16-.82c0-.39.09-1,.09-1.74a63.11,63.11,0,0,1,.4-7.76c.43-3.63,1.09-7.54,1.37-9.21.08-.46.14-.77.15-.85,0-.31.31-.49.71-.49a1.29,1.29,0,0,1,.57.13c.31.16.33.65.35,1.48A16.61,16.61,0,0,0,11.92,17c.25,1.77,1.43,10,1.44,10.09v0c0,1.64.28,3.81.5,5.73.15,1.32.29,2.56.35,3.5,0,.22,0,.62,0,1.14a6.3,6.3,0,0,0,2,.73v.1a6.2,6.2,0,0,1-2-.72c0,.75-.13,1.74-.21,2.8-.2,2.52-.52,5.65-.46,7.25.1,2.76.33,10.14.33,10.21v0l.06,0s0,0,0,0a7.43,7.43,0,0,0,4.56-.24c0-.36.05-.89.05-1.59,0-1.36.17-3.75.45-6.39.25-2.31.91-9.29.91-9.36.08-1.24.12-2.64.15-4a4.64,4.64,0,0,1-2,.43A4.8,4.8,0,0,1,17,36.71l0-.1a4.17,4.17,0,0,0,2.94-.31c.06-2.93-.1-5.55-.1-5.59h.12c.05-.53.19-1.19.28-2,.17-1.46.42-3.28.58-5.21.19-2.19.22-6.34.23-8.34,0-.94,0-1.14,0-1.19l0-.08a2.44,2.44,0,0,0,0-1.42C20.83,12,20.85,11.81,20.94,11.53ZM8.53,13.7a50.9,50.9,0,0,1-5.24-.3l0-.1c.88.22,5.18.3,5.22.3Zm0-1.55s-3.82-.39-4.86-.54v-.1c1,.15,4.82.53,4.85.54Zm0-1.66a16.08,16.08,0,0,0-5.21-.59v-.1a16.19,16.19,0,0,1,5.25.59Zm10.7-.84v.1a16.1,16.1,0,0,0-5.21.59l0-.1A16.18,16.18,0,0,1,19.22,9.64Zm-.39,1.71v.1C17.81,11.6,14,12,14,12v-.1S17.8,11.5,18.83,11.36Zm-1,23.93a13.13,13.13,0,0,1-3.21-.85l.11-.09a12.44,12.44,0,0,0,3.11.84ZM14,13.55v-.1s4.34-.08,5.22-.3l0,.1A50.88,50.88,0,0,1,14,13.55Z" fill="#434354"/>
        <path d="M10.71,1.86A7.11,7.11,0,0,1,10.82,3c1.27,0,2.63,0,4.06-.07a3.57,3.57,0,0,0,0-1.93l-4.06.16h-.1A1.13,1.13,0,0,0,10.71,1.86Zm.92-.65a.68.68,0,1,1-.68.68A.68.68,0,0,1,11.64,1.21Z" fill="#434354"/>
        <path d="M16.85,5a5.23,5.23,0,0,0,3.83,1c-.27-1.55-.58-2.94-.63-3.18l0-.12c-1.41.25-2.81.43-4.15.53A3,3,0,0,0,16.85,5Z" fill="#434354"/>
        <path d="M15.87,3c1.34-.11,2.73-.28,4.13-.53,0-.21,0-.42,0-.63,0-.38,0-.77-.14-.91a.27.27,0,0,0-.21-.07h-.12c-.4.06-2,.15-3.69.23A5,5,0,0,1,15.87,3Z" fill="#434354"/>
        <path d="M6,.9C5,.77,4.21.65,3.61.63a6.71,6.71,0,0,1-1-.11l-.26,0h0a1.77,1.77,0,0,0-.1.49l0,.26A9.29,9.29,0,0,1,2,2.17c.45.1,1.87.39,3.93.63A6.77,6.77,0,0,1,6,.9Z" fill="#434354"/>
        <path d="M6.1,2.66l.68.07a5.94,5.94,0,0,1,0-1.89L6.19.76A6.63,6.63,0,0,0,6.1,2.66Z" fill="#434354"/>
        <path d="M21.52,12.28c-.21-.46-.18-.54-.12-.75l0-.15c0-.15.21-.89,0-1.19a5.77,5.77,0,0,0,0-1.4,55.94,55.94,0,0,0-1-6.25,4.1,4.1,0,0,1-.06-.88A1.64,1.64,0,0,0,20.07.54.64.64,0,0,0,19.48.4c-.93.15-8.62.39-8.7.39l-.4,0h0A34.71,34.71,0,0,1,6.11.41C5.11.28,4.25.15,3.62.13a6.81,6.81,0,0,1-1-.09L2.36,0C2,0,2,.24,1.91.76l0,.26a18.54,18.54,0,0,1-.52,2A38.61,38.61,0,0,0,.18,8c-.5,3.15.19,9.7.2,9.76.3,4.34.91,9.11,1.27,12,.18,1.4.31,2.41.32,2.75s0,1.19,0,2.11c0,1.59-.08,3.57,0,5,.05.85.16,2.14.28,3.64.21,2.66.45,5.67.52,7.41,0,.39,0,.84,0,1.32.06,3.08.14,6.91,1.59,7.18a6.76,6.76,0,0,0,1.21.1c1.11,0,2.85-.24,3-.61a.67.67,0,0,0,0-.47,8,8,0,0,1,0-2c.16-2.15.24-8.91.09-12.12s-.11-9.18,0-10.56c0-.4,0-1,0-1.77A61.67,61.67,0,0,1,9.15,24c.43-3.63,1.08-7.53,1.35-9.2.08-.48.13-.78.14-.87s.31-.23.4-.23a1,1,0,0,1,.43.1c.15.08.16.63.18,1.21a16.85,16.85,0,0,0,.14,2c.24,1.75,1.4,9.76,1.44,10.08,0,1.66.28,3.83.5,5.75.15,1.31.29,2.55.35,3.48,0,.52-.1,2.14-.25,4-.2,2.53-.46,5.67-.4,7.29.1,2.68.38,9.74.4,10.19a1,1,0,0,0,.06.82,1,1,0,0,0,.71.39,9.51,9.51,0,0,0,1.55.14,3.79,3.79,0,0,0,2.72-.78l0,0v0a17.52,17.52,0,0,0,.1-2.21c0-1.35.17-3.73.45-6.36.25-2.32.89-9.3.9-9.37.24-3.92.18-9.46.17-9.72.05-.53.13-1.18.22-1.95.17-1.46.39-3.29.55-5.22.19-2.2.21-6.36.22-8.36,0-.61,0-1.09,0-1.14l0-.07A2.7,2.7,0,0,0,21.52,12.28Zm-.27,1.54,0,.08s0,.25,0,1.19c0,2,0,6.15-.21,8.34-.16,1.93-.37,3.75-.55,5.21-.09.77-.38,1.43-.43,2h-.2s.24,2.67.18,5.59a1.06,1.06,0,0,1,.21-.06l.11.09a.5.5,0,0,1-.14.09c0,1.35-.06,2.75-.14,4,0,.07-.66,7-.9,9.36-.28,2.64-.45,5-.45,6.39,0,.7,0,1.23,0,1.59l.11,0,.07.19-.19.07c0,.15,0,.25,0,.31a3.81,3.81,0,0,1-2.46.66,9.19,9.19,0,0,1-1.5-.13.73.73,0,0,1-.51-.25.54.54,0,0,1-.06-.35L13.91,58l.08-.19.13,0s-.14,0-.14,0l-.15,0v0c0-.07-.15-7.45-.25-10.21-.06-1.6.27-4.73.47-7.25.09-1.07.2-2.05.25-2.8l-.18-.11.06-.09.15.08c0-.52,0-.92,0-1.14-.06-.94-.2-2.18-.35-3.5-.22-1.92-.47-4.09-.5-5.73v0c0-.08-1.2-8.32-1.44-10.09A16.6,16.6,0,0,1,12,15c0-.82,0-1.32-.35-1.48a1.28,1.28,0,0,0-.56-.13c-.4,0-.66.19-.7.49,0,.08-.06.39-.14.85-.28,1.67-.93,5.58-1.36,9.21a61.92,61.92,0,0,0-.37,7.76c0,.76,0,1.36,0,1.74,0,.19,0,.47,0,.82l.05,0,.06.08-.11.08c0,.93,0,2.3-.05,3.78l.14,0,0,.1-.17,0c0,2,0,4.21.09,5.77.15,3.21.07,9.94-.09,12.09a9.88,9.88,0,0,0,0,1.75l.14,0,0,.2-.16,0v.09c0,.17,0,.21,0,.28a6.74,6.74,0,0,1-2.78.45,6.46,6.46,0,0,1-1.16-.09.86.86,0,0,1-.56-.48H3.65v-.2h.11c-.57-1.3-.63-4.15-.67-6.2,0-.48,0-.93,0-1.32-.06-1.75-.31-4.77-.52-7.43-.12-1.5-.22-2.79-.28-3.63s-.06-1.51-.06-2.35L2,37.14l0-.09.13.06c0-.87,0-1.76,0-2.55,0-1,0-1.73,0-2.13S2.13,31.06,2,29.66c-.36-2.85-1-7.62-1.27-12C.67,17.64,0,11.13.48,8c.07-.45.15-.88.24-1.3H.56l0-.2H.76q.08-.35.16-.69H.78l0-.2H1c.22-.92.47-1.76.68-2.49l.26-.92-.15,0,0-.2L2,2a9.29,9.29,0,0,0,.21-.95l0-.26a1.77,1.77,0,0,1,.1-.49h0l.26,0a6.71,6.71,0,0,0,1,.11C4.21.48,5,.61,6,.73A1.36,1.36,0,0,1,6.07.52l.18.09a1.12,1.12,0,0,0-.06.15l.57.08c0-.07,0-.14,0-.2L7,.69C7,.74,7,.94,7,1a27.53,27.53,0,0,0,3.43.45h0s.06-.14.08-.15A1,1,0,0,1,10.56,1a.47.47,0,0,1,.23-.18V1a.12.12,0,0,0-.09.06l0,0h.1L14.86,1,14.79.85,15,.73a1.14,1.14,0,0,1,.12.22l.55,0,0-.11.19-.06,0,.16C17.55.84,19.13.75,19.53.69h.12a.27.27,0,0,1,.21.07c.14.14.14.54.14.91,0,.21,0,.42,0,.63l.14,0,0,.2-.15,0,0,.12c.05.24.36,1.64.63,3.18h.16V6h-.14l.08.47h0l0,.2h0c.12.76.22,1.51.27,2.15a6.15,6.15,0,0,1,0,1.29l-.06.06a.17.17,0,0,0,0,.17.17.17,0,0,0,.13.08,1.81,1.81,0,0,1,0,.89l0,.13c-.08.28-.11.43.14,1A2.44,2.44,0,0,1,21.25,13.82Z"/>
        <path d="M5.9,2.75V2.63C3.83,2.39,2.41,2.1,2,2L1.81,2l0,.2.15,0c.44.1,1.88.39,4,.63Z"/>
        <path d="M7,2.75v.08l-.2,0,0-.14L6.1,2.66v.09h0l0,.09.72.08h0L7,3H7c1.09.1,2.31.18,3.62.22V3C9.3,2.93,8.08,2.85,7,2.75Z"/>
        <path d="M15.87,2.87l-.14,0-.63,0,0,.08-.2,0v0C13.46,3,12.1,3,10.82,3v.2h1l.55,0,.18,0c.7,0,1.51,0,2.24-.08l.23,0h0l.61,0a.6.6,0,0,1,0-.1h.21V3c1.35-.11,2.74-.28,4.15-.53l.15,0,0-.2-.14,0c-1.41.25-2.79.42-4.13.53Z"/>
        <path d="M16.85,4.79a3,3,0,0,1-1-1.76c0-.06,0-.09,0-.1h-.2s0,0,0,.1l0,.11a.32.32,0,0,1,.08.34,3.2,3.2,0,0,0,.94,1.44A5.08,5.08,0,0,0,20.19,6l.53,0h.14v-.2h-.16A5.23,5.23,0,0,1,16.85,4.79Z"/>
        <path d="M16.63,5.71A4.21,4.21,0,0,1,15.17,3.5l0-.06a3.2,3.2,0,0,1-.08-.36h0l-.19,0h0a4.4,4.4,0,0,0,1.63,2.77,4.87,4.87,0,0,0,3,.91,8.61,8.61,0,0,0,1.3-.11h0l0-.2h0A5.36,5.36,0,0,1,16.63,5.71Z"/>
        <path d="M6.08,2.86l0-.09h0V2.66a6.63,6.63,0,0,1,.1-1.9A1.12,1.12,0,0,1,6.25.61L6.07.52A1.36,1.36,0,0,0,6,.73a6.77,6.77,0,0,0-.1,1.9v.11l0,.09A3.83,3.83,0,0,1,5,4.35,4.74,4.74,0,0,1,1,5.62H.8l0,.2H.92q.37,0,.72,0A4.26,4.26,0,0,0,6.08,2.86Z"/>
        <path d="M6,5A4.29,4.29,0,0,0,7,3H7l-.2,0h0a4.18,4.18,0,0,1-1,2C4.75,6.12,3,6.67.76,6.51H.58l0,.2H.72l.79,0A5.63,5.63,0,0,0,6,5Z"/>
        <path d="M6.31,3.69A.35.35,0,1,0,6,3.34.35.35,0,0,0,6.31,3.69Zm0-.5a.15.15,0,1,1-.15.15A.15.15,0,0,1,6.31,3.19Z"/>
        <path d="M15.15,3.39a.32.32,0,0,0,0,.06l0,.06a.32.32,0,0,0,.61,0,.32.32,0,0,0-.31-.43A.33.33,0,0,0,15.15,3.39Zm.45,0a.12.12,0,1,1-.12-.12A.12.12,0,0,1,15.59,3.39Z"/>
        <path d="M6.78,2.73l0,.14.2,0V2.75A5.9,5.9,0,0,1,7,.86L7,.69,6.81.63c0,.07,0,.13,0,.2A5.94,5.94,0,0,0,6.78,2.73Z"/>
        <path d="M14.88,2.9v0l.2,0,0-.08a3.77,3.77,0,0,0,0-1.93A1.14,1.14,0,0,0,15,.73l-.17.12.07.11A3.57,3.57,0,0,1,14.88,2.9Z"/>
        <path d="M15.67,2.83h.05l.14,0v0a5,5,0,0,0,0-1.91l0-.16L15.6.82l0,.11A4.88,4.88,0,0,1,15.67,2.83Z"/>
        <path d="M11.64,2.56A.68.68,0,1,0,11,1.88.68.68,0,0,0,11.64,2.56Zm0-1a.37.37,0,1,1-.37.37A.37.37,0,0,1,11.64,1.51Z"/>
        <path d="M10.52,1.91A6.87,6.87,0,0,1,10.62,3v.2c0,1,0,2.31,0,3.3,0,.77,0,1.37,0,1.57s0,.79,0,1.37a10.86,10.86,0,0,0,.06,2.37.35.35,0,0,0,.35.18l.19,0a1.85,1.85,0,0,0,1.46-1.69c0-1.46.1-5.86,0-7.08l-.35,0-.55,0h0c0,1.18.38,5.61.35,7.07a1.5,1.5,0,0,1-1.12,1.49c-.18,0-.21,0-.23,0a14.89,14.89,0,0,1,0-2.29c0-.62.05-1.15,0-1.39s0-.8,0-1.56c0-1,0-2.32,0-3.3,0-.07,0-.14,0-.2a7.15,7.15,0,0,0-.11-1.11,1.13,1.13,0,0,1,0-.72l0,0A.14.14,0,0,1,10.8,1V.84a.32.32,0,0,0-.23.14.54.54,0,0,0-.08.19A1.62,1.62,0,0,0,10.52,1.91Z"/>
        <path d="M14.11,57.9l-.13,0-.08.19.17.06a6.31,6.31,0,0,0,1.84.25,8.31,8.31,0,0,0,2.72-.48l.2-.07-.07-.19-.11,0A7.38,7.38,0,0,1,14.11,57.9Z"/>
        <path d="M3.78,58.16H3.67v.2h.23c.4,0,.79,0,1.16,0a18.42,18.42,0,0,0,3.32-.29l.16,0,0-.2-.14,0A18.78,18.78,0,0,1,3.78,58.16Z"/>
        <path d="M19.38,9.66v-.1a16.18,16.18,0,0,0-5.25.59l0,.1A16.1,16.1,0,0,1,19.38,9.66Z"/>
        <path d="M19,11.37v-.1c-1,.15-4.82.53-4.85.54v.1S18,11.52,19,11.37Z"/>
        <path d="M14.15,13.36v.1a50.88,50.88,0,0,0,5.24-.3l0-.1C18.49,13.29,14.19,13.36,14.15,13.36Z"/>
        <path d="M3.46,9.71v.1a16.08,16.08,0,0,1,5.21.59l0-.1A16.19,16.19,0,0,0,3.46,9.71Z"/>
        <path d="M3.83,11.52c1,.15,4.82.53,4.86.54V12s-3.82-.39-4.85-.54Z"/>
        <path d="M3.46,13.31a50.9,50.9,0,0,0,5.24.3v-.1s-4.34-.08-5.22-.3Z"/>
        <path d="M14.7,34.35a12.21,12.21,0,0,0,3.13.85v-.1a12,12,0,0,1-3.06-.84Z"/>
        <path d="M17.15,36.53l0,.1a4.8,4.8,0,0,0,1.13.13,4.64,4.64,0,0,0,2-.43l.16-.09-.05-.09-.11.06A4.59,4.59,0,0,1,17.15,36.53Z"/>
        <path d="M16.38,38.17a6.3,6.3,0,0,1-2-.73l-.15-.08-.05.09.19.11a6.2,6.2,0,0,0,2,.72Z"/>
        <path d="M3.83,35.58a9.1,9.1,0,0,0,4.24-1.16,1.08,1.08,0,0,1,.28-.08l0-.08a2.23,2.23,0,0,0-.34,0c-.29.2-1.2,1.17-4.2,1.18Z"/>
        <path d="M4.82,37.86v-.1a5.75,5.75,0,0,1-2.59-.64l-.13-.06,0,.09.18.09a6.14,6.14,0,0,0,2.36.64Z"/>
        <path d="M5.83,38.72a9.53,9.53,0,0,0,2.39-.41l.23,0v-.1l-.26,0a9.39,9.39,0,0,1-2.38.41Z"/>
      </g>
    </g>
  </g>
</svg>
