<svg xmlns="http://www.w3.org/2000/svg" viewBox="0 0 64 64">
  <title>rain</title>
  <g id="rain">
    <g>
      <path d="M52.12,35A9.88,9.88,0,1,0,51,15.32a11.95,11.95,0,0,0-22.82,3.85A7.93,7.93,0,0,0,28.74,35Z" fill="#c2d7e1"/>
      <path d="M43,53.76a2.9,2.9,0,0,1-5.59-1.5c.69-2.59,4.07-4,4.07-4S43.7,51.17,43,53.76Z" fill="#ccdde7"/>
      <path d="M13.51,53.76A2.77,2.77,0,0,1,10,55.66a2.77,2.77,0,0,1-2.08-3.4c.69-2.59,4.07-4,4.07-4S14.2,51.17,13.51,53.76Z" fill="#ccdde7"/>
      <path d="M28.26,53.76a2.9,2.9,0,0,1-5.59-1.5c.69-2.59,4.07-4,4.07-4S29,51.17,28.26,53.76Z" fill="#ccdde7"/>
      <path d="M40,46.29a12,12,0,1,0-1.39-23.92A14.52,14.52,0,0,0,10.92,27a9.63,9.63,0,0,0,.71,19.24Z" fill="#ccdde7"/>
    </g>
  </g>
</svg>
