<svg xmlns="http://www.w3.org/2000/svg" xmlns:xlink="http://www.w3.org/1999/xlink" viewBox="0 0 300 300">
  <defs>
    <symbol id="class" data-name="class" viewBox="0 0 25.11 7.93">
      <g>
        <path d="M6.16,7.59a5.42,5.42,0,0,1-2.07.33C1.55,7.92,0,6.45,0,4.19,0,1.75,1.83.27,4.28.27A4.92,4.92,0,0,1,6.23.6L5.91,1.68A4.17,4.17,0,0,0,4.34,1.4,2.57,2.57,0,0,0,1.53,4.13,2.53,2.53,0,0,0,4.33,6.8a4.38,4.38,0,0,0,1.59-.27Z"/>
        <path d="M7.31,0H8.78V7.81H7.31Z"/>
        <path d="M13.62,7.81l-.1-.59h0a2.22,2.22,0,0,1-1.71.72A1.66,1.66,0,0,1,10,6.34c0-1.35,1.3-2,3.44-2V4.22c0-.35-.15-.94-1.18-.94a3.26,3.26,0,0,0-1.56.4l-.29-.88a4.44,4.44,0,0,1,2.09-.47,2.08,2.08,0,0,1,2.39,2.26V6.52a8,8,0,0,0,.08,1.29Zm-.19-2.62c-1,0-2,.19-2,1a.74.74,0,0,0,.83.77,1.18,1.18,0,0,0,1.14-.74.91.91,0,0,0,0-.3Z"/>
        <path d="M16.33,6.57A3.46,3.46,0,0,0,17.81,7c.64,0,.93-.24.93-.59s-.24-.55-1-.78c-1.13-.36-1.6-.94-1.59-1.56,0-.95.84-1.68,2.19-1.68a3.62,3.62,0,0,1,1.53.32l-.29,1a2.76,2.76,0,0,0-1.22-.31c-.52,0-.81.23-.81.56s.27.51,1,.75c1,.35,1.53.85,1.54,1.64,0,1-.82,1.67-2.35,1.67A4,4,0,0,1,16,7.55Z"/>
        <path d="M21.28,6.57A3.46,3.46,0,0,0,22.77,7c.64,0,.93-.24.93-.59s-.24-.55-1-.78c-1.13-.36-1.6-.94-1.59-1.56,0-.95.84-1.68,2.19-1.68a3.62,3.62,0,0,1,1.53.32l-.29,1a2.76,2.76,0,0,0-1.22-.31c-.52,0-.81.23-.81.56s.27.51,1,.75c1,.35,1.53.85,1.54,1.64,0,1-.82,1.67-2.35,1.67A4,4,0,0,1,21,7.55Z"/>
      </g>
    </symbol>
    <symbol id="lunch" data-name="lunch" viewBox="0 0 29.78 7.93">
      <g id="lunch-3" data-name="lunch">
        <path d="M0,.4H1.46V6.68H4.75V7.81H0Z"/>
        <path d="M10.83,6.2c0,.64,0,1.17,0,1.61H9.59L9.52,7h0a2.13,2.13,0,0,1-1.85.94c-1.06,0-2-.58-2-2.33V2.45H7.08V5.37c0,.89.31,1.46,1.08,1.46a1.23,1.23,0,0,0,1.12-.73,1.16,1.16,0,0,0,.08-.42V2.45h1.46Z"/>
        <path d="M12.41,4c0-.62,0-1.13,0-1.6h1.28l.07.8h0a2.12,2.12,0,0,1,1.84-.92,2,2,0,0,1,2.06,2.3V7.81H16.19v-3c0-.77-.31-1.35-1.11-1.35a1.22,1.22,0,0,0-1.14.79,1.3,1.3,0,0,0-.06.44V7.81H12.41Z"/>
        <path d="M23.46,7.65a4.53,4.53,0,0,1-1.64.27,2.68,2.68,0,0,1-3-2.73c0-1.61,1.19-2.86,3.22-2.86a3.9,3.9,0,0,1,1.41.25l-.26,1a2.75,2.75,0,0,0-1.11-.21,1.66,1.66,0,0,0-1.77,1.74,1.65,1.65,0,0,0,1.77,1.73,3.06,3.06,0,0,0,1.15-.21Z"/>
        <path d="M24.54,0H26V3.19h0a1.92,1.92,0,0,1,.73-.62,2.11,2.11,0,0,1,1-.24c1,0,2,.61,2,2.32V7.81H28.32v-3c0-.78-.31-1.36-1.12-1.36a1.19,1.19,0,0,0-1.13.76,1.05,1.05,0,0,0-.06.41v3.2H24.54Z"/>
      </g>
    </symbol>
  </defs>
  <title>schedule</title>
  <g id="Layer_2" data-name="Layer 2">
    <g id="rows">
      <path id="bottom" d="M10,230H290a0,0,0,0,1,0,0v10a10,10,0,0,1-10,10H20a10,10,0,0,1-10-10V230a0,0,0,0,1,0,0Z" fill="blue"/>
      <rect x="10" y="190" width="280" height="20" fill="#e6e6e6"/>
      <rect x="10" y="170" width="280" height="20" fill="#ccc"/>
      <rect x="10" y="150" width="280" height="20" fill="#e6e6e6"/>
      <text></text>
      <rect x="10" y="110" width="280" height="20" fill="#e6e6e6"/>
      <rect x="10" y="90" width="280" height="20" fill="#ccc"/>
      <rect x="10" y="70" width="280" height="20" fill="#e6e6e6"/>
      <path id="top" d="M20,50H280a10,10,0,0,1,10,10V70a0,0,0,0,1,0,0H10a0,0,0,0,1,0,0V60A10,10,0,0,1,20,50Z" fill="blue"/>
    </g>
    <g id="columns">
      <rect id="times_column" data-name="times column" x="10" y="70" width="55" height="160" fill="blue" opacity="0.35"/>
      <rect id="mon_column" data-name="mon column" x="65" y="70" width="45" height="160" fill="#b3b3b3" opacity="0.5"/>
      <rect id="tue_column" data-name="tue column" x="110" y="70" width="45" height="160" fill="blue" opacity="0.25"/>
      <rect id="wed_column" data-name="wed column" x="155" y="70" width="45" height="160" fill="#b3b3b3" opacity="0.5"/>
      <rect id="thu_column" data-name="thu column" x="200" y="70" width="45" height="160" fill="blue" opacity="0.25"/>
      <rect id="fri_column" data-name="fri column" x="245" y="70" width="45" height="160" fill="#b3b3b3" opacity="0.5"/>
    </g>
    <g id="times">
      <g>
        <path d="M24.57,81.48c0,2.51-1.06,4.08-3.07,4.08s-3-1.63-3-4,1.12-4.05,3.09-4.05S24.57,79.18,24.57,81.48Zm-4.46.07c0,1.9.56,2.88,1.44,2.88S23,83.38,23,81.51s-.47-2.88-1.43-2.88S20.09,79.6,20.11,81.55Z"/>
        <path d="M30.7,78.68a7.09,7.09,0,0,0-.82,0A2.91,2.91,0,0,0,27.06,81h0A2.52,2.52,0,0,1,29,80.23a2.44,2.44,0,0,1,2.58,2.54,2.82,2.82,0,0,1-3,2.78,3.06,3.06,0,0,1-3.18-3.36,4.59,4.59,0,0,1,1.47-3.5,5.09,5.09,0,0,1,3-1.15,4.77,4.77,0,0,1,.8,0Zm-.75,4.19a1.41,1.41,0,0,0-1.47-1.55,1.56,1.56,0,0,0-1.37.8,1,1,0,0,0-.1.47c0,1,.56,1.87,1.58,1.87A1.41,1.41,0,0,0,29.95,82.86Z"/>
        <path d="M38.33,81.72v1H35v-1Z"/>
        <path d="M45.23,81.48c0,2.51-1.06,4.08-3.07,4.08s-3-1.63-3-4,1.12-4.05,3.09-4.05S45.23,79.18,45.23,81.48Zm-4.46.07c0,1.9.56,2.88,1.44,2.88s1.43-1.06,1.43-2.93-.47-2.88-1.43-2.88S40.76,79.6,40.77,81.55Z"/>
        <path d="M46.11,83.42a2.17,2.17,0,0,1,1.58-2v0a1.91,1.91,0,0,1-1.28-1.73c0-1.27,1.22-2.13,2.81-2.13,1.82,0,2.65,1,2.65,2a2,2,0,0,1-1.3,1.76v0a2.13,2.13,0,0,1,1.61,2c0,1.39-1.27,2.33-3.07,2.33C47.14,85.56,46.11,84.52,46.11,83.42Zm4.45-.07c0-.79-.64-1.22-1.57-1.46a1.46,1.46,0,0,0-1.25,1.37,1.28,1.28,0,0,0,1.41,1.26A1.24,1.24,0,0,0,50.56,83.35Zm-2.63-3.78c0,.64.57,1,1.37,1.22a1.29,1.29,0,0,0,1.05-1.17,1.22,1.22,0,0,0-2.43,0Z"/>
      </g>
      <g>
        <path d="M24.57,102c0,2.51-1.06,4.08-3.07,4.08s-3-1.63-3-4S19.61,98,21.58,98,24.57,99.67,24.57,102Zm-4.46.07c0,1.9.56,2.88,1.44,2.88S23,103.87,23,102s-.47-2.88-1.43-2.88S20.09,100.09,20.11,102Z"/>
        <path d="M25.45,103.92a2.17,2.17,0,0,1,1.58-2v0a1.91,1.91,0,0,1-1.28-1.73C25.75,98.86,27,98,28.56,98c1.82,0,2.65,1,2.65,2a2,2,0,0,1-1.3,1.76v0a2.13,2.13,0,0,1,1.61,2c0,1.39-1.27,2.33-3.07,2.33C26.47,106.05,25.45,105,25.45,103.92Zm4.45-.07c0-.79-.64-1.22-1.57-1.46a1.46,1.46,0,0,0-1.25,1.37A1.28,1.28,0,0,0,28.49,105,1.24,1.24,0,0,0,29.9,103.85Zm-2.63-3.78c0,.64.57,1,1.38,1.22a1.29,1.29,0,0,0,1.05-1.17,1.22,1.22,0,0,0-2.43,0Z"/>
        <path d="M38.33,102.22v1H35v-1Z"/>
        <path d="M41.78,99.46h0l-1.54.72-.27-1.12,2-.94h1.34v7.8H41.78Z"/>
        <path d="M52.18,102c0,2.51-1.06,4.08-3.07,4.08s-3-1.63-3-4S47.23,98,49.2,98,52.18,99.67,52.18,102Zm-4.46.07c0,1.9.56,2.88,1.44,2.88s1.43-1.06,1.43-2.93-.47-2.88-1.43-2.88S47.71,100.09,47.72,102Z"/>
      </g>
      <g>
        <path d="M21.12,118.19h0l-1.54.72-.27-1.12,2-.94h1.34v7.8H21.12Z"/>
        <path d="M31.52,120.7c0,2.51-1.06,4.08-3.07,4.08s-3-1.63-3-4,1.12-4.05,3.09-4.05S31.52,118.4,31.52,120.7Zm-4.46.07c0,1.9.56,2.88,1.44,2.88s1.43-1.06,1.43-2.93-.47-2.88-1.43-2.88S27,118.82,27.06,120.78Z"/>
        <path d="M38.33,120.94v1H35v-1Z"/>
        <path d="M41.78,118.19h0l-1.54.72-.27-1.12,2-.94h1.34v7.8H41.78Z"/>
        <path d="M46.23,124.65v-.9l1-.85c2-1.7,2.92-2.64,2.93-3.67,0-.7-.4-1.31-1.5-1.31a3.21,3.21,0,0,0-1.8.65l-.47-1a4.39,4.39,0,0,1,2.59-.8c1.87,0,2.78,1.09,2.78,2.36s-1.06,2.47-2.53,3.73l-.74.59v0h3.46v1.22Z"/>
      </g>
      <g>
        <path d="M21.12,138.33h0l-1.54.72-.27-1.12,2-.94h1.34v7.8H21.12Z"/>
        <path d="M25.56,144.79v-.9l1-.85c2-1.7,2.92-2.64,2.93-3.67,0-.7-.4-1.31-1.5-1.31a3.21,3.21,0,0,0-1.8.65l-.47-1a4.39,4.39,0,0,1,2.59-.8c1.87,0,2.78,1.09,2.78,2.36S30,141.7,28.56,143l-.74.59v0h3.46v1.22Z"/>
        <path d="M38.33,141.09v1H35v-1Z"/>
        <path d="M41.78,138.33h0l-1.54.72-.27-1.12,2-.94h1.34v7.8H41.78Z"/>
        <path d="M49.74,144.79v-2H45.93v-1L49.37,137h1.88v4.7h1.09v1.12H51.25v2Zm0-3.09v-2.12c0-.44,0-.9.05-1.36h-.05c-.26.49-.48.89-.74,1.32l-1.54,2.13v0Z"/>
      </g>
      <g>
        <path d="M21.12,158.46h0l-1.54.72-.27-1.12,2-.94h1.34v7.8H21.12Z"/>
        <path d="M29.08,164.93v-2H25.27v-1l3.44-4.86h1.88v4.7h1.09V163H30.58v2Zm0-3.09v-2.12c0-.44,0-.9.05-1.36h-.05c-.26.49-.48.89-.74,1.32l-1.54,2.13v0Z"/>
        <path d="M38.33,161.22v1H35v-1Z"/>
        <path d="M41.78,158.46h0l-1.54.72-.27-1.12,2-.94h1.34v7.8H41.78Z"/>
        <path d="M51.36,158.18a7.11,7.11,0,0,0-.82,0,2.91,2.91,0,0,0-2.83,2.28h0a2.52,2.52,0,0,1,1.89-.76,2.44,2.44,0,0,1,2.58,2.54,2.82,2.82,0,0,1-3,2.78,3.06,3.06,0,0,1-3.18-3.36,4.59,4.59,0,0,1,1.47-3.5,5.09,5.09,0,0,1,3-1.15,4.78,4.78,0,0,1,.8,0Zm-.75,4.19a1.41,1.41,0,0,0-1.47-1.55,1.56,1.56,0,0,0-1.37.8,1,1,0,0,0-.1.47c0,1,.56,1.87,1.58,1.87A1.41,1.41,0,0,0,50.61,162.36Z"/>
      </g>
      <g>
        <path d="M21.12,179.31h0l-1.54.72-.27-1.12,2-.94h1.34v7.8H21.12Z"/>
        <path d="M30.7,179a7.09,7.09,0,0,0-.82,0,2.91,2.91,0,0,0-2.83,2.28h0a2.52,2.52,0,0,1,1.89-.76,2.44,2.44,0,0,1,2.58,2.54,2.82,2.82,0,0,1-3,2.78,3.06,3.06,0,0,1-3.18-3.36,4.59,4.59,0,0,1,1.47-3.5,5.09,5.09,0,0,1,3-1.15,4.77,4.77,0,0,1,.8,0Zm-.75,4.19a1.41,1.41,0,0,0-1.47-1.55,1.56,1.56,0,0,0-1.37.8,1,1,0,0,0-.1.47c0,1,.56,1.87,1.58,1.87A1.41,1.41,0,0,0,29.95,183.21Z"/>
        <path d="M38.33,182.07v1H35v-1Z"/>
        <path d="M41.78,179.31h0l-1.54.72-.27-1.12,2-.94h1.34v7.8H41.78Z"/>
        <path d="M46.11,183.77a2.17,2.17,0,0,1,1.58-2v0A1.91,1.91,0,0,1,46.41,180c0-1.27,1.22-2.13,2.81-2.13,1.82,0,2.65,1,2.65,2a2,2,0,0,1-1.3,1.76v0a2.13,2.13,0,0,1,1.61,2c0,1.39-1.27,2.33-3.07,2.33C47.14,185.91,46.11,184.87,46.11,183.77Zm4.45-.07c0-.79-.64-1.22-1.57-1.46a1.46,1.46,0,0,0-1.25,1.37,1.28,1.28,0,0,0,1.41,1.26A1.24,1.24,0,0,0,50.56,183.7Zm-2.63-3.78c0,.64.57,1,1.37,1.22A1.29,1.29,0,0,0,50.35,180a1.22,1.22,0,0,0-2.43,0Z"/>
      </g>
      <g>
        <path d="M21.12,199.45h0l-1.54.72-.27-1.12,2-.94h1.34v7.8H21.12Z"/>
        <path d="M25.45,203.92a2.17,2.17,0,0,1,1.58-2v0a1.91,1.91,0,0,1-1.28-1.73c0-1.27,1.22-2.13,2.81-2.13,1.82,0,2.65,1,2.65,2a2,2,0,0,1-1.3,1.76v0a2.13,2.13,0,0,1,1.61,2c0,1.39-1.27,2.33-3.07,2.33C26.47,206.05,25.45,205,25.45,203.92Zm4.45-.07c0-.79-.64-1.22-1.57-1.46a1.46,1.46,0,0,0-1.25,1.37A1.28,1.28,0,0,0,28.49,205,1.24,1.24,0,0,0,29.9,203.84Zm-2.63-3.78c0,.64.57,1,1.38,1.22a1.29,1.29,0,0,0,1.05-1.17,1.22,1.22,0,0,0-2.43,0Z"/>
        <path d="M38.33,202.21v1H35v-1Z"/>
        <path d="M39.28,205.92V205l1-.85c2-1.7,2.92-2.64,2.93-3.67,0-.7-.4-1.31-1.5-1.31a3.21,3.21,0,0,0-1.8.65l-.47-1A4.39,4.39,0,0,1,42,198c1.87,0,2.78,1.09,2.78,2.36s-1.06,2.47-2.53,3.73l-.74.59v0H45v1.22Z"/>
        <path d="M52.18,202c0,2.51-1.06,4.08-3.07,4.08s-3-1.63-3-4S47.23,198,49.2,198,52.18,199.67,52.18,202Zm-4.46.07c0,1.9.56,2.88,1.44,2.88s1.43-1.06,1.43-2.93-.47-2.88-1.43-2.88S47.71,200.09,47.72,202Z"/>
      </g>
      <g>
        <path d="M18.61,225v-.9l1-.85c2-1.7,2.92-2.64,2.93-3.67,0-.7-.4-1.31-1.5-1.31a3.21,3.21,0,0,0-1.8.65l-.47-1a4.39,4.39,0,0,1,2.59-.8c1.87,0,2.78,1.09,2.78,2.36s-1.06,2.47-2.53,3.73l-.74.59v0h3.46V225Z"/>
        <path d="M31.52,221.05c0,2.51-1.06,4.08-3.07,4.08s-3-1.63-3-4,1.12-4.05,3.09-4.05S31.52,218.75,31.52,221.05Zm-4.46.07c0,1.9.56,2.88,1.44,2.88s1.43-1.06,1.43-2.93-.47-2.88-1.43-2.88S27,219.17,27.06,221.13Z"/>
        <path d="M38.33,221.29v1H35v-1Z"/>
        <path d="M39.28,225v-.9l1-.85c2-1.7,2.92-2.64,2.93-3.67,0-.7-.4-1.31-1.5-1.31a3.21,3.21,0,0,0-1.8.65l-.47-1a4.39,4.39,0,0,1,2.59-.8c1.87,0,2.78,1.09,2.78,2.36s-1.06,2.47-2.53,3.73l-.74.59v0H45V225Z"/>
        <path d="M46.23,225v-.9l1-.85c2-1.7,2.92-2.64,2.93-3.67,0-.7-.4-1.31-1.5-1.31a3.21,3.21,0,0,0-1.8.65l-.47-1a4.39,4.39,0,0,1,2.59-.8c1.87,0,2.78,1.09,2.78,2.36s-1.06,2.47-2.53,3.73l-.74.59v0h3.46V225Z"/>
      </g>
    </g>
    <g id="days">
      <g id="mon">
        <path d="M81.6,61c-.05-1-.12-2.3-.1-3.39h0c-.29,1-.65,2.07-1,3.09l-1.27,3.5H77.92L76.75,60.8c-.34-1-.65-2.13-.88-3.14h0c0,1.06-.09,2.34-.16,3.44l-.19,3.25H74l.58-8.08h2.1l1.14,3.25c.31.95.58,1.91.8,2.81h0c.23-.88.53-1.87.87-2.82l1.21-3.24h2.08l.51,8.08H81.77Z" fill="#fff"/>
        <path d="M92.7,60.22a4,4,0,0,1-4.19,4.26,3.86,3.86,0,0,1-4-4.11,4,4,0,0,1,4.15-4.23A3.86,3.86,0,0,1,92.7,60.22Zm-6.52.12c0,1.64.9,3,2.43,3S91,62,91,60.28c0-1.52-.82-3-2.41-3S86.18,58.67,86.18,60.34Z" fill="#fff"/>
        <path d="M94.07,64.35V56.26h1.82l2.26,3.47a21.63,21.63,0,0,1,1.49,2.71h0c-.1-1.08-.14-2.12-.14-3.36V56.26H101v8.08H99.35L97.07,60.8A27.37,27.37,0,0,1,95.5,58h0c.06,1,.08,2.11.08,3.44v2.89Z" fill="#fff"/>
      </g>
      <g id="tue">
        <path d="M124.22,57.5h-2.49V56.26h6.6V57.5h-2.52v6.85h-1.6Z" fill="#fff"/>
        <path d="M130.94,56.26V61c0,1.58.71,2.31,1.79,2.31s1.84-.73,1.84-2.31V56.26h1.6v4.62c0,2.49-1.39,3.6-3.49,3.6s-3.33-1-3.33-3.59V56.26Z" fill="#fff"/>
        <path d="M142.88,60.76h-3.29v2.37h3.68v1.21H138V56.26h5.08v1.21h-3.49v2.09h3.29Z" fill="#fff"/>
      </g>
      <g id="wed">
        <path d="M166.57,64.35l-2.14-8.08h1.7l.83,3.67c.22,1,.43,2,.57,2.82h0c.14-.85.39-1.81.64-2.83l.95-3.66h1.67l.87,3.72c.22,1,.4,1.86.53,2.73h0c.16-.89.36-1.81.6-2.79l.91-3.66h1.62L173,64.35h-1.71l-.91-3.8a21.59,21.59,0,0,1-.48-2.57h0c-.16.86-.32,1.64-.58,2.57l-1,3.8Z" fill="#fff"/>
        <path d="M181.31,60.76H178v2.37h3.68v1.21h-5.28V56.26h5.08v1.21H178v2.09h3.29Z" fill="#fff"/>
        <path d="M183.1,56.37a17.4,17.4,0,0,1,2.54-.17,5.63,5.63,0,0,1,3.57.94,3.5,3.5,0,0,1,1.36,3,4,4,0,0,1-1.36,3.21,6.16,6.16,0,0,1-4,1.1,18.81,18.81,0,0,1-2.15-.11Zm1.6,6.85a6.4,6.4,0,0,0,.88,0c2.08,0,3.31-1,3.31-3.09,0-1.79-1.1-2.81-3.1-2.81a5.51,5.51,0,0,0-1.09.08Z" fill="#fff"/>
      </g>
      <g id="thu">
        <path d="M213.42,57.5h-2.49V56.26h6.6V57.5H215v6.85h-1.6Z" fill="#fff"/>
        <path d="M220.15,56.26V59.5h3.7V56.26h1.6v8.08h-1.6V60.78h-3.7v3.56h-1.59V56.26Z" fill="#fff"/>
        <path d="M228.85,56.26V61c0,1.58.71,2.31,1.79,2.31s1.84-.73,1.84-2.31V56.26h1.59v4.62c0,2.49-1.39,3.6-3.49,3.6s-3.33-1-3.33-3.59V56.26Z" fill="#fff"/>
      </g>
      <g id="fri">
        <path d="M259.71,56.26h5v1.21h-3.45V59.7h3.22v1.21h-3.22v3.43h-1.59Z" fill="#fff"/>
        <path d="M266.31,56.37a16.31,16.31,0,0,1,2.41-.17,4.3,4.3,0,0,1,2.7.65,2,2,0,0,1,.75,1.62,2.18,2.18,0,0,1-1.58,2v0a2.08,2.08,0,0,1,1.22,1.56,15.23,15.23,0,0,0,.69,2.25h-1.65a10.74,10.74,0,0,1-.58-1.91C270,61.38,269.61,61,268.7,61h-.8v3.32h-1.58Zm1.58,3.57h.95c1.08,0,1.75-.53,1.75-1.33s-.67-1.3-1.71-1.3a4.92,4.92,0,0,0-1,.07Z" fill="#fff"/>
        <path d="M275.29,56.26v8.08h-1.6V56.26Z" fill="#fff"/>
      </g>
    </g>
  </g>
  <g id="Layer_1" data-name="Layer 1">
    <use width="25.11" height="7.93" transform="translate(119.23 117.27)" xlink:href="#class"/>
    <use width="25.11" height="7.93" transform="translate(209.31 117.27)" xlink:href="#class"/>
    <use width="25.11" height="7.93" transform="translate(73.54 97.33)" xlink:href="#class"/>
    <use width="25.11" height="7.93" transform="translate(165.17 97.33)" xlink:href="#class"/>
    <use width="25.11" height="7.93" transform="translate(119.46 197.32)" xlink:href="#class"/>
    <use width="25.11" height="7.93" transform="translate(209.16 197.32)" xlink:href="#class"/>
    <use width="29.78" height="7.93" transform="translate(208.06 138.03)" xlink:href="#lunch"/>
    <use width="29.78" height="7.93" transform="translate(117.15 138.03)" xlink:href="#lunch"/>
    <use width="29.78" height="7.93" transform="translate(161.79 138.03)" xlink:href="#lunch"/>
    <use width="29.78" height="7.93" transform="translate(71.25 138.03)" xlink:href="#lunch"/>
  </g>
</svg>
