<svg xmlns="http://www.w3.org/2000/svg" xmlns:xlink="http://www.w3.org/1999/xlink" viewBox="0 0 667.47 493.47">
  <defs>
    <filter id="luminosity-noclip" x="0" y="-8439" width="667.47" height="32766" filterUnits="userSpaceOnUse" color-interpolation-filters="sRGB">
      <feFlood flood-color="#fff" result="bg"/>
      <feBlend in="SourceGraphic" in2="bg"/>
    </filter>
    <mask id="mask" x="0" y="-8439" width="667.47" height="32766" maskUnits="userSpaceOnUse">
      <g filter="url(#luminosity-noclip)"/>
    </mask>
    <linearGradient id="linear-gradient" x1="333.73" y1="74.97" x2="333.73" y2="571.94" gradientUnits="userSpaceOnUse">
      <stop offset="0" stop-color="#d1d1d1"/>
      <stop offset="0.98" stop-color="#fff"/>
    </linearGradient>
    <filter id="luminosity-noclip-2" x="542.76" y="-8439" width="9" height="32766" filterUnits="userSpaceOnUse" color-interpolation-filters="sRGB">
      <feFlood flood-color="#fff" result="bg"/>
      <feBlend in="SourceGraphic" in2="bg"/>
    </filter>
    <mask id="mask-2" x="542.76" y="-8439" width="9" height="32766" maskUnits="userSpaceOnUse">
      <g filter="url(#luminosity-noclip-2)"/>
    </mask>
    <linearGradient id="linear-gradient-2" x1="128.04" y1="250.17" x2="128.04" y2="259.62" gradientTransform="matrix(-1, 0, 0, 1, 675.3, 0)" gradientUnits="userSpaceOnUse">
      <stop offset="0" stop-color="#d1d1d1"/>
      <stop offset="0.2" stop-color="#dadada"/>
      <stop offset="0.41" stop-color="#e4e4e4"/>
      <stop offset="0.74" stop-color="#f4f4f4"/>
      <stop offset="0.98" stop-color="#fff"/>
    </linearGradient>
    <filter id="luminosity-noclip-3" x="102.54" y="-8439" width="54" height="32766" filterUnits="userSpaceOnUse" color-interpolation-filters="sRGB">
      <feFlood flood-color="#fff" result="bg"/>
      <feBlend in="SourceGraphic" in2="bg"/>
    </filter>
    <mask id="mask-3" x="102.54" y="-8439" width="54" height="32766" maskUnits="userSpaceOnUse">
      <g filter="url(#luminosity-noclip-3)"/>
    </mask>
    <linearGradient id="linear-gradient-3" x1="545.76" y1="352.76" x2="545.76" y2="409.45" xlink:href="#linear-gradient-2"/>
    <filter id="luminosity-noclip-4" x="170.76" y="-8439" width="30" height="32766" filterUnits="userSpaceOnUse" color-interpolation-filters="sRGB">
      <feFlood flood-color="#fff" result="bg"/>
      <feBlend in="SourceGraphic" in2="bg"/>
    </filter>
    <mask id="mask-4" x="170.76" y="-8439" width="30" height="32766" maskUnits="userSpaceOnUse">
      <g filter="url(#luminosity-noclip-4)"/>
    </mask>
    <linearGradient id="linear-gradient-4" x1="489.54" y1="376.71" x2="489.54" y2="408.2" xlink:href="#linear-gradient-2"/>
    <filter id="luminosity-noclip-5" x="542.76" y="-8439" width="30" height="32766" filterUnits="userSpaceOnUse" color-interpolation-filters="sRGB">
      <feFlood flood-color="#fff" result="bg"/>
      <feBlend in="SourceGraphic" in2="bg"/>
    </filter>
    <mask id="mask-5" x="542.76" y="-8439" width="30" height="32766" maskUnits="userSpaceOnUse">
      <g filter="url(#luminosity-noclip-5)"/>
    </mask>
    <linearGradient id="linear-gradient-5" x1="117.54" y1="209.71" x2="117.54" y2="241.2" xlink:href="#linear-gradient-2"/>
    <filter id="luminosity-noclip-6" x="502.94" y="-8439" width="18.6" height="32766" filterUnits="userSpaceOnUse" color-interpolation-filters="sRGB">
      <feFlood flood-color="#fff" result="bg"/>
      <feBlend in="SourceGraphic" in2="bg"/>
    </filter>
    <mask id="mask-6" x="502.94" y="-8439" width="18.6" height="32766" maskUnits="userSpaceOnUse">
      <g filter="url(#luminosity-noclip-6)"/>
    </mask>
    <linearGradient id="linear-gradient-6" x1="163.06" y1="236.09" x2="163.06" y2="255.62" xlink:href="#linear-gradient-2"/>
    <radialGradient id="radial-gradient" cx="318.02" cy="255.14" r="443.92" gradientUnits="userSpaceOnUse">
      <stop offset="0.01" stop-color="#fffdf0"/>
      <stop offset="0.54" stop-color="#fff692"/>
      <stop offset="0.99" stop-color="#fbbb77"/>
    </radialGradient>
    <filter id="luminosity-noclip-7" x="0" y="74.07" width="667.47" height="419.41" filterUnits="userSpaceOnUse" color-interpolation-filters="sRGB">
      <feFlood flood-color="#fff" result="bg"/>
      <feBlend in="SourceGraphic" in2="bg"/>
    </filter>
    <mask id="mask-7" x="0" y="74.07" width="667.47" height="419.41" maskUnits="userSpaceOnUse">
      <g mask="url(#mask)" filter="url(#luminosity-noclip-7)">
        <path d="M609.26,82.8s-46.35,51.26-99.79,51.86c-48.14.54-76.15-60.6-76.15-60.6s-55.15,57.65-88.41,60.47-48.14-43.88-48.14-43.88S266.12,137,234.61,134.44s-35.89-60.37-35.89-60.37S132.19,137,110.31,134.34,85.8,90.66,85.8,90.66C75.56,103.89,28.4,119.6,0,128.11V493.47H667.47V135.66c-5-.32-10.63-.65-17.07-1C616.23,132.84,609.26,82.8,609.26,82.8Z" fill="url(#linear-gradient)" style="mix-blend-mode: multiply"/>
      </g>
    </mask>
    <linearGradient id="linear-gradient-7" x1="333.73" y1="74.97" x2="333.73" y2="571.94" gradientUnits="userSpaceOnUse">
      <stop offset="0" stop-color="#299efe"/>
      <stop offset="0.98" stop-color="#2b4dfe"/>
    </linearGradient>
    <filter id="luminosity-noclip-8" x="102.54" y="352.65" width="54" height="54" filterUnits="userSpaceOnUse" color-interpolation-filters="sRGB">
      <feFlood flood-color="#fff" result="bg"/>
      <feBlend in="SourceGraphic" in2="bg"/>
    </filter>
    <mask id="mask-8" x="102.54" y="352.65" width="54" height="54" maskUnits="userSpaceOnUse">
      <g mask="url(#mask-3)" filter="url(#luminosity-noclip-8)">
        <circle cx="129.54" cy="379.65" r="27" fill="url(#linear-gradient-3)" style="mix-blend-mode: multiply"/>
      </g>
    </mask>
    <linearGradient id="linear-gradient-8" x1="545.76" y1="352.76" x2="545.76" y2="409.45" gradientTransform="matrix(-1, 0, 0, 1, 675.3, 0)" gradientUnits="userSpaceOnUse">
      <stop offset="0" stop-color="#fff"/>
      <stop offset="0.2" stop-color="#e9edff"/>
      <stop offset="0.41" stop-color="#ffdeff"/>
      <stop offset="0.74" stop-color="#fffffe"/>
      <stop offset="0.98" stop-color="#e6e3fe"/>
    </linearGradient>
    <filter id="luminosity-noclip-9" x="170.76" y="376.65" width="30" height="30" filterUnits="userSpaceOnUse" color-interpolation-filters="sRGB">
      <feFlood flood-color="#fff" result="bg"/>
      <feBlend in="SourceGraphic" in2="bg"/>
    </filter>
    <mask id="mask-9" x="170.76" y="376.65" width="30" height="30" maskUnits="userSpaceOnUse">
      <g mask="url(#mask-4)" filter="url(#luminosity-noclip-9)">
        <circle cx="185.76" cy="391.65" r="15" fill="url(#linear-gradient-4)" style="mix-blend-mode: multiply"/>
      </g>
    </mask>
    <linearGradient id="linear-gradient-9" x1="489.54" y1="376.71" x2="489.54" y2="408.2" xlink:href="#linear-gradient-8"/>
    <filter id="luminosity-noclip-10" x="542.76" y="209.65" width="30" height="30" filterUnits="userSpaceOnUse" color-interpolation-filters="sRGB">
      <feFlood flood-color="#fff" result="bg"/>
      <feBlend in="SourceGraphic" in2="bg"/>
    </filter>
    <mask id="mask-10" x="542.76" y="209.65" width="30" height="30" maskUnits="userSpaceOnUse">
      <g mask="url(#mask-5)" filter="url(#luminosity-noclip-10)">
        <circle cx="557.76" cy="224.65" r="15" fill="url(#linear-gradient-5)" style="mix-blend-mode: multiply"/>
      </g>
    </mask>
    <linearGradient id="linear-gradient-10" x1="117.54" y1="209.71" x2="117.54" y2="241.2" xlink:href="#linear-gradient-8"/>
    <filter id="luminosity-noclip-11" x="502.94" y="236.05" width="18.6" height="18.6" filterUnits="userSpaceOnUse" color-interpolation-filters="sRGB">
      <feFlood flood-color="#fff" result="bg"/>
      <feBlend in="SourceGraphic" in2="bg"/>
    </filter>
    <mask id="mask-11" x="502.94" y="236.05" width="18.6" height="18.6" maskUnits="userSpaceOnUse">
      <g mask="url(#mask-6)" filter="url(#luminosity-noclip-11)">
        <circle cx="512.24" cy="245.35" r="9.3" fill="url(#linear-gradient-6)" style="mix-blend-mode: multiply"/>
      </g>
    </mask>
    <linearGradient id="linear-gradient-11" x1="163.06" y1="236.09" x2="163.06" y2="255.62" xlink:href="#linear-gradient-8"/>
    <filter id="luminosity-noclip-12" x="542.76" y="250.15" width="9" height="9" filterUnits="userSpaceOnUse" color-interpolation-filters="sRGB">
      <feFlood flood-color="#fff" result="bg"/>
      <feBlend in="SourceGraphic" in2="bg"/>
    </filter>
    <mask id="mask-12" x="542.76" y="250.15" width="9" height="9" maskUnits="userSpaceOnUse">
      <g mask="url(#mask-2)" filter="url(#luminosity-noclip-12)">
        <circle cx="547.26" cy="254.65" r="4.5" fill="url(#linear-gradient-2)" style="mix-blend-mode: multiply"/>
      </g>
    </mask>
    <linearGradient id="linear-gradient-12" x1="128.04" y1="250.17" x2="128.04" y2="259.62" xlink:href="#linear-gradient-8"/>
  </defs>
  <title>sea</title>
  <g id="FreeVector.com_BG" data-name="FreeVector.com BG">
    <rect width="667.47" height="493.48" fill="url(#radial-gradient)"/>
  </g>
  <g id="Vector_Graphics" data-name="Vector Graphics">
    <g mask="url(#mask-7)">
      <path d="M609.26,82.8s-46.35,51.26-99.79,51.86c-48.14.54-76.15-60.6-76.15-60.6s-55.15,57.65-88.41,60.47-48.14-43.88-48.14-43.88S266.12,137,234.61,134.44s-35.89-60.37-35.89-60.37S132.19,137,110.31,134.34,85.8,90.66,85.8,90.66C75.56,103.89,28.4,119.6,0,128.11V493.47H667.47V135.66c-5-.32-10.63-.65-17.07-1C616.23,132.84,609.26,82.8,609.26,82.8Z" fill="url(#linear-gradient-7)"/>
    </g>
    <g mask="url(#mask-8)">
      <circle cx="129.54" cy="379.65" r="27" fill="url(#linear-gradient-8)"/>
    </g>
    <g mask="url(#mask-9)">
      <circle cx="185.76" cy="391.65" r="15" fill="url(#linear-gradient-9)"/>
    </g>
    <g mask="url(#mask-10)">
      <circle cx="557.76" cy="224.65" r="15" fill="url(#linear-gradient-10)"/>
    </g>
    <g mask="url(#mask-11)">
      <circle cx="512.24" cy="245.35" r="9.3" fill="url(#linear-gradient-11)"/>
    </g>
    <g mask="url(#mask-12)">
      <circle cx="547.26" cy="254.65" r="4.5" fill="url(#linear-gradient-12)"/>
    </g>
  </g>
</svg>
