<svg xmlns="http://www.w3.org/2000/svg" viewBox="0 0 2100 2100">
  <title>seasons</title>
  <g id="Layer_2" data-name="Layer 2">
    <g id="Layer_1-2" data-name="Layer 1">
      <g>
        <g>
          <g>
            <rect width="1000" height="1000" fill="#d8eff4"/>
            <path d="M0,616.45c264.66,101.38,699.33,168,1000,61.59V0H0Z" fill="#c5e8f0"/>
            <path d="M0,393.49C281.77,500.87,731.35,449.08,1000,282.7V0H0Z" fill="#b3e2ec"/>
            <path d="M0,84.38c260.07,129,713.45,173,1000,23.37V0H0Z" fill="#9fdbe8"/>
          </g>
          <path d="M895.57,783.9A48.91,48.91,0,0,0,885.08,785,62.83,62.83,0,0,0,771.6,801.26a40.29,40.29,0,0,0,5.31,80.23H895.57a48.8,48.8,0,1,0,0-97.6Z" fill="#fff"/>
          <path d="M204.8,238a48.88,48.88,0,0,0-10.49,1.14A62.83,62.83,0,0,0,80.83,255.4a40.29,40.29,0,0,0,5.31,80.23H204.8a48.8,48.8,0,1,0,0-97.6Z" fill="#fff"/>
        </g>
        <g>
          <path d="M724.39,401.76c-14.56-4.43-21.52,35.44-34.17,51.26-11.18,14-26.32,12.64-46.71,12.14-1.35-38.26-2.67-70.31-3.89-91.37-1.11-19.18-6.31-26.56-21-26.56h0c-14.7,0-19.9,7.38-21,26.56-2.69,46.35-5.92,147.52-8.79,250.88-33.16-1.19-72.26-15.12-95.42-43.66-24.24-29.87-33.21-116.57-47.19-113.53s-10.28,102.63,23.07,144.78c26.65,33.67,66.88,58.66,118.22,60.45-3.54,132.47-6.26,255-6.26,255H656s-5.59-252-11.18-424c33-1,51.08-7.8,64.39-22.85C724.21,463.89,738.95,406.19,724.39,401.76Z" fill="#b18963"/>
          <path d="M567.71,531.39c0,37-35.63,54.32-35.63,54.32s-35.63-17.28-35.63-54.32,35.63-54.32,35.63-54.32S567.71,494.34,567.71,531.39Z" fill="#bfd730"/>
          <path d="M578.53,309.08c0,37-35.63,54.32-35.63,54.32s-35.63-17.28-35.63-54.32,35.63-54.32,35.63-54.32S578.53,272,578.53,309.08Z" fill="#bfd730"/>
          <path d="M492.94,332.37c0,37-35.63,54.32-35.63,54.32s-35.63-17.28-35.63-54.32S457.32,278,457.32,278,492.94,295.32,492.94,332.37Z" fill="#bfd730"/>
          <path d="M526.08,219.15c0,37-35.63,54.32-35.63,54.32s-35.63-17.28-35.63-54.32,35.63-54.32,35.63-54.32S526.08,182.1,526.08,219.15Z" fill="#8dc63f"/>
          <path d="M605.75,180.81c0,37-35.63,54.32-35.63,54.32s-35.63-17.28-35.63-54.32,35.63-54.32,35.63-54.32S605.75,143.76,605.75,180.81Z" fill="#8dc63f"/>
          <path d="M788.75,220.82c0,37-35.63,54.32-35.63,54.32s-35.63-17.28-35.63-54.32,35.63-54.32,35.63-54.32S788.75,183.77,788.75,220.82Z" fill="#bfd730"/>
          <path d="M753.12,329.47c0,37-35.63,54.32-35.63,54.32s-35.63-17.28-35.63-54.32,35.63-54.32,35.63-54.32S753.12,292.42,753.12,329.47Z" fill="#8dc63f"/>
          <path d="M363.08,532.72c-37,0-54.32-35.63-54.32-35.63s17.28-35.63,54.32-35.63,54.32,35.63,54.32,35.63S400.13,532.72,363.08,532.72Z" fill="#8dc63f"/>
          <path d="M880.35,482.27c-37,0-54.32-35.63-54.32-35.63S843.3,411,880.35,411s54.32,35.63,54.32,35.63S917.39,482.27,880.35,482.27Z" fill="#bfd730"/>
          <path d="M778.43,530.32c-37,0-54.32-35.63-54.32-35.63s17.28-35.63,54.32-35.63,54.32,35.63,54.32,35.63S815.47,530.32,778.43,530.32Z" fill="#bfd730"/>
          <path d="M537.48,448.21c-26.2,26.2-63.6,13.22-63.6,13.22s-13-37.41,13.22-63.6,63.61-13.22,63.6-13.22S563.67,422,537.48,448.21Z" fill="#8dc63f"/>
          <path d="M835.53,325.14c-26.2,26.2-63.6,13.22-63.6,13.22s-13-37.41,13.22-63.6,63.61-13.22,63.6-13.22S861.73,298.94,835.53,325.14Z" fill="#bfd730"/>
          <path d="M814,425.41c-26.2,26.2-63.6,13.22-63.6,13.22s-13-37.41,13.22-63.61,63.61-13.22,63.6-13.22S840.16,399.21,814,425.41Z" fill="#8dc63f"/>
          <path d="M411.26,612.66c-26.2,26.2-63.6,13.22-63.6,13.22s-13-37.41,13.22-63.6,63.61-13.22,63.6-13.22S437.45,586.46,411.26,612.66Z" fill="#bfd730"/>
          <path d="M877.16,217.5c-26.2,26.2-63.6,13.22-63.6,13.22s-13-37.41,13.22-63.6,63.61-13.22,63.6-13.22S903.35,191.3,877.16,217.5Z" fill="#8dc63f"/>
          <path d="M911.22,373.5c-26.2,26.2-63.6,13.22-63.6,13.22s-13-37.41,13.22-63.6,63.61-13.22,63.6-13.22S937.41,347.31,911.22,373.5Z" fill="#8dc63f"/>
          <path d="M683.92,587.83c-26.2-26.2-13.22-63.6-13.22-63.6s37.41-13,63.6,13.22,13.22,63.61,13.22,63.6S710.12,614,683.92,587.83Z" fill="#8dc63f"/>
          <path d="M378.91,436.21c-26.2-26.2-13.22-63.6-13.22-63.6s37.41-13,63.6,13.22,13.22,63.61,13.22,63.6S405.11,462.4,378.91,436.21Z" fill="#8dc63f"/>
          <path d="M283.57,430.21c-26.2-26.2-13.22-63.6-13.22-63.6s37.41-13,63.6,13.22,13.22,63.6,13.22,63.6S309.76,456.4,283.57,430.21Z" fill="#bfd730"/>
          <path d="M342.69,336.68c-26.2-26.2-13.22-63.6-13.22-63.6s37.41-13,63.6,13.22,13.22,63.61,13.22,63.61S368.88,362.87,342.69,336.68Z" fill="#8dc63f"/>
          <path d="M785.15,612.66c-26.2-26.2-13.22-63.6-13.22-63.6s37.41-13,63.6,13.22,13.22,63.61,13.22,63.6S811.34,638.86,785.15,612.66Z" fill="#bfd730"/>
          <path d="M605.42,312.33c-26.2-26.2-13.22-63.6-13.22-63.6s37.41-13,63.6,13.22S669,325.56,669,325.56,631.61,338.53,605.42,312.33Z" fill="#bfd730"/>
          <path d="M635,233.32c-26.2-26.2-13.22-63.6-13.22-63.6s37.41-13,63.6,13.22,13.22,63.6,13.22,63.6S661.24,259.51,635,233.32Z" fill="#bfd730"/>
          <path d="M474.26,668c0,37-35.63,54.32-35.63,54.32S403,705.07,403,668s35.63-54.32,35.63-54.32S474.26,631,474.26,668Z" fill="#8dc63f"/>
        </g>
        <g>
          <g>
            <g>
              <polygon points="78.81 935.83 38.38 935.83 32.52 797.49 58.6 781.87 84.67 797.49 78.81 935.83" fill="#c6a87d"/>
              <polygon points="137.41 935.83 96.98 935.83 91.12 797.49 117.19 781.87 143.27 797.49 137.41 935.83" fill="#c6a87d"/>
              <polygon points="196.01 935.83 155.58 935.83 149.72 797.49 175.79 781.87 201.87 797.49 196.01 935.83" fill="#c6a87d"/>
              <polygon points="254.61 935.83 214.17 935.83 208.31 797.49 234.39 781.87 260.47 797.49 254.61 935.83" fill="#c6a87d"/>
              <polygon points="313.21 935.83 272.77 935.83 266.91 797.49 292.99 781.87 319.06 797.49 313.21 935.83" fill="#c6a87d"/>
              <polygon points="371.8 935.83 331.37 935.83 325.51 797.49 351.59 781.87 377.66 797.49 371.8 935.83" fill="#c6a87d"/>
              <polygon points="430.4 935.83 389.97 935.83 384.11 797.49 410.19 781.87 436.26 797.49 430.4 935.83" fill="#c6a87d"/>
            </g>
            <g>
              <polygon points="20.22 935.83 0 935.83 0 781.87 26.08 797.49 20.22 935.83" fill="#ccb28b"/>
              <polygon points="78.81 935.83 58.6 935.83 58.6 781.87 84.67 797.49 78.81 935.83" fill="#ccb28b"/>
              <polygon points="137.41 935.83 117.19 935.83 117.19 781.87 143.27 797.49 137.41 935.83" fill="#ccb28b"/>
              <polygon points="196.01 935.83 175.79 935.83 175.79 781.87 201.87 797.49 196.01 935.83" fill="#ccb28b"/>
              <polygon points="254.61 935.83 234.39 935.83 234.39 781.87 260.47 797.49 254.61 935.83" fill="#ccb28b"/>
              <polygon points="313.21 935.83 292.99 935.83 292.99 781.87 319.06 797.49 313.21 935.83" fill="#ccb28b"/>
              <polygon points="371.8 935.83 351.59 935.83 351.59 781.87 377.66 797.49 371.8 935.83" fill="#ccb28b"/>
              <polygon points="430.4 935.83 410.19 935.83 410.19 781.87 436.26 797.49 430.4 935.83" fill="#ccb28b"/>
            </g>
            <rect y="818.65" width="448.78" height="18.03" fill="#977348"/>
            <rect y="879.13" width="448.78" height="18.03" fill="#977348"/>
            <path d="M175.79,823.89a3.77,3.77,0,1,0,3.77,3.77A3.77,3.77,0,0,0,175.79,823.89Zm58.6,0a3.77,3.77,0,1,0,3.77,3.77A3.77,3.77,0,0,0,234.39,823.89Zm-175.79,0a3.77,3.77,0,1,0,3.77,3.77A3.77,3.77,0,0,0,58.6,823.89Zm-58.6,0v7.54a3.77,3.77,0,0,0,3.77-3.77A3.77,3.77,0,0,0,0,823.89Zm117.2,0a3.77,3.77,0,1,0,3.77,3.77A3.77,3.77,0,0,0,117.2,823.89Zm175.79,0a3.77,3.77,0,1,0,3.77,3.77A3.77,3.77,0,0,0,293,823.89Zm117.2,0a3.77,3.77,0,1,0,3.77,3.77A3.77,3.77,0,0,0,410.18,823.89Zm-58.6,0a3.77,3.77,0,1,0,3.77,3.77A3.77,3.77,0,0,0,351.59,823.89Z" fill="#876740"/>
            <path d="M175.79,885.34a3.77,3.77,0,1,0,3.77,3.77A3.77,3.77,0,0,0,175.79,885.34Zm58.6,0a3.77,3.77,0,1,0,3.77,3.77A3.77,3.77,0,0,0,234.39,885.34Zm-175.79,0a3.77,3.77,0,1,0,3.77,3.77A3.77,3.77,0,0,0,58.6,885.34Zm-58.6,0v7.54a3.77,3.77,0,0,0,3.77-3.77A3.77,3.77,0,0,0,0,885.34Zm117.2,0a3.77,3.77,0,1,0,3.77,3.77A3.77,3.77,0,0,0,117.2,885.34Zm175.79,0a3.77,3.77,0,1,0,3.77,3.77A3.77,3.77,0,0,0,293,885.34Zm117.2,0a3.77,3.77,0,1,0,3.77,3.77A3.77,3.77,0,0,0,410.18,885.34Zm-58.6,0a3.77,3.77,0,1,0,3.77,3.77A3.77,3.77,0,0,0,351.59,885.34Z" fill="#876740"/>
          </g>
          <g>
            <path d="M500,910.58c-250,0-500,24.24-500,24.24V1000H1000V934.82S750,910.58,500,910.58Z" fill="#c5da46"/>
            <g>
              <path d="M102.33,1000h88.87l54.71-82.47c-33,1.67-64,3.51-92.18,5.34Z" fill="#d1e174"/>
              <path d="M427.32,911.22c-30.74.53-61.1,1.36-90.61,2.39L279.53,1000h89.05Z" fill="#d1e174"/>
              <path d="M778.69,918.82c-27.52-1.5-56.69-2.91-87-4.13L634.86,1000h89.37Z" fill="#d1e174"/>
              <path d="M457.06,1000h89.19l58.5-88.12c-29.14-.7-58.78-1.15-88.49-1.27Z" fill="#d1e174"/>
              <path d="M67.94,929C25.34,932.36,0,934.82,0,934.82V1000H27Z" fill="#d1e174"/>
              <path d="M950.93,930.53c-22.51-1.84-51.9-4.11-86.36-6.45L813.13,1000H903Z" fill="#d1e174"/>
            </g>
          </g>
        </g>
      </g>
      <g>
        <g>
          <g>
            <rect x="1100" width="1000" height="1000" fill="#c7eafb"/>
            <path d="M1100,616.45c264.66,101.38,699.33,168,1000,61.59V0H1100Z" fill="#b2e3fa"/>
            <path d="M1100,393.49c281.77,107.38,731.35,55.59,1000-110.79V0H1100Z" fill="#9ddcf9"/>
            <path d="M1100,84.38c260.07,129,713.45,173,1000,23.37V0H1100Z" fill="#7ed3f7"/>
          </g>
          <path d="M1443.72,108.57a48.88,48.88,0,0,0-10.49,1.14,62.83,62.83,0,0,0-113.48,16.22,40.29,40.29,0,0,0,5.31,80.23h118.67a48.8,48.8,0,1,0,0-97.6Z" fill="#fff"/>
        </g>
        <g>
          <g>
            <path d="M1824.39,401.76c-14.56-4.43-21.52,35.44-34.17,51.26-11.18,14-26.32,12.64-46.71,12.14-1.35-38.26-2.67-70.31-3.89-91.37-1.11-19.18-6.31-26.56-21-26.56h0c-14.7,0-19.9,7.38-21,26.56-2.69,46.35-5.92,147.52-8.79,250.88-33.16-1.19-72.26-15.12-95.42-43.66-24.24-29.87-33.21-116.57-47.19-113.53s-10.28,102.63,23.07,144.78c26.65,33.67,66.88,58.66,118.22,60.45-3.54,132.47-6.26,255-6.26,255H1756s-5.59-252-11.18-424c33-1,51.08-7.8,64.39-22.85C1824.21,463.89,1838.95,406.19,1824.39,401.76Z" fill="#b18963"/>
            <path d="M1667.71,531.39c0,37-35.63,54.32-35.63,54.32s-35.63-17.28-35.63-54.32,35.63-54.32,35.63-54.32S1667.71,494.34,1667.71,531.39Z" fill="#58ba57"/>
            <path d="M1678.53,309.08c0,37-35.63,54.32-35.63,54.32s-35.63-17.28-35.63-54.32,35.63-54.32,35.63-54.32S1678.53,272,1678.53,309.08Z" fill="#58ba57"/>
            <path d="M1592.94,332.37c0,37-35.63,54.32-35.63,54.32s-35.63-17.28-35.63-54.32S1557.32,278,1557.32,278,1592.94,295.32,1592.94,332.37Z" fill="#58ba57"/>
            <path d="M1626.08,219.15c0,37-35.63,54.32-35.63,54.32s-35.63-17.28-35.63-54.32,35.63-54.32,35.63-54.32S1626.08,182.1,1626.08,219.15Z" fill="#58ba57"/>
            <path d="M1705.75,180.81c0,37-35.63,54.32-35.63,54.32s-35.63-17.28-35.63-54.32,35.63-54.32,35.63-54.32S1705.75,143.76,1705.75,180.81Z" fill="#58ba57"/>
            <path d="M1888.75,220.82c0,37-35.63,54.32-35.63,54.32s-35.63-17.28-35.63-54.32,35.63-54.32,35.63-54.32S1888.75,183.77,1888.75,220.82Z" fill="#58ba57"/>
            <path d="M1853.12,329.47c0,37-35.63,54.32-35.63,54.32s-35.63-17.28-35.63-54.32,35.63-54.32,35.63-54.32S1853.12,292.42,1853.12,329.47Z" fill="#58ba57"/>
            <path d="M1463.08,532.72c-37,0-54.32-35.63-54.32-35.63s17.28-35.63,54.32-35.63,54.32,35.63,54.32,35.63S1500.13,532.72,1463.08,532.72Z" fill="#58ba57"/>
            <path d="M1980.35,482.27c-37,0-54.32-35.63-54.32-35.63S1943.3,411,1980.35,411s54.32,35.63,54.32,35.63S2017.39,482.27,1980.35,482.27Z" fill="#58ba57"/>
            <path d="M1878.43,530.32c-37,0-54.32-35.63-54.32-35.63s17.28-35.63,54.32-35.63,54.32,35.63,54.32,35.63S1915.47,530.32,1878.43,530.32Z" fill="#58ba57"/>
            <path d="M1637.48,448.21c-26.2,26.2-63.6,13.22-63.6,13.22s-13-37.41,13.22-63.6,63.61-13.22,63.61-13.22S1663.67,422,1637.48,448.21Z" fill="#58ba57"/>
            <path d="M1935.53,325.14c-26.2,26.2-63.6,13.22-63.6,13.22s-13-37.41,13.22-63.6,63.61-13.22,63.6-13.22S1961.73,298.94,1935.53,325.14Z" fill="#58ba57"/>
            <path d="M1914,425.41c-26.2,26.2-63.6,13.22-63.6,13.22s-13-37.41,13.22-63.61,63.61-13.22,63.6-13.22S1940.16,399.21,1914,425.41Z" fill="#58ba57"/>
            <path d="M1511.26,612.66c-26.2,26.2-63.6,13.22-63.6,13.22s-13-37.41,13.22-63.6,63.61-13.22,63.6-13.22S1537.45,586.46,1511.26,612.66Z" fill="#58ba57"/>
            <path d="M1977.16,217.5c-26.2,26.2-63.6,13.22-63.6,13.22s-13-37.41,13.22-63.6,63.61-13.22,63.6-13.22S2003.35,191.3,1977.16,217.5Z" fill="#58ba57"/>
            <path d="M2011.22,373.5c-26.2,26.2-63.6,13.22-63.6,13.22s-13-37.41,13.22-63.6,63.61-13.22,63.6-13.22S2037.41,347.31,2011.22,373.5Z" fill="#58ba57"/>
            <path d="M1783.92,587.83c-26.2-26.2-13.22-63.6-13.22-63.6s37.41-13,63.6,13.22,13.22,63.61,13.22,63.6S1810.12,614,1783.92,587.83Z" fill="#58ba57"/>
            <path d="M1478.91,436.21c-26.2-26.2-13.22-63.6-13.22-63.6s37.41-13,63.6,13.22,13.22,63.61,13.22,63.6S1505.11,462.4,1478.91,436.21Z" fill="#58ba57"/>
            <path d="M1383.57,430.21c-26.2-26.2-13.22-63.6-13.22-63.6s37.41-13,63.6,13.22,13.22,63.6,13.22,63.6S1409.76,456.4,1383.57,430.21Z" fill="#58ba57"/>
            <path d="M1442.69,336.68c-26.2-26.2-13.22-63.6-13.22-63.6s37.41-13,63.6,13.22,13.22,63.61,13.22,63.61S1468.88,362.87,1442.69,336.68Z" fill="#58ba57"/>
            <path d="M1885.15,612.66c-26.2-26.2-13.22-63.6-13.22-63.6s37.41-13,63.6,13.22,13.22,63.61,13.22,63.6S1911.34,638.86,1885.15,612.66Z" fill="#58ba57"/>
            <path d="M1705.42,312.33c-26.2-26.2-13.22-63.6-13.22-63.6s37.41-13,63.6,13.22S1769,325.56,1769,325.56,1731.61,338.53,1705.42,312.33Z" fill="#58ba57"/>
            <path d="M1735,233.32c-26.2-26.2-13.22-63.6-13.22-63.6s37.41-13,63.6,13.22,13.22,63.6,13.22,63.6S1761.24,259.51,1735,233.32Z" fill="#58ba57"/>
            <path d="M1574.26,668c0,37-35.63,54.32-35.63,54.32S1503,705.07,1503,668s35.63-54.32,35.63-54.32S1574.26,631,1574.26,668Z" fill="#58ba57"/>
          </g>
          <g>
            <path d="M1590.46,339.07c-23.17,0-42-13.18-42-42,0-22.1,15.5-38.48,42-30.15,26.45-8.33,42,8,42,30.15C1632.41,325.9,1613.63,339.07,1590.46,339.07Z" fill="#ed1c24"/>
            <path d="M1592.47,250.14a13.23,13.23,0,0,0-4,0c-.2.14.41,22.21.61,22.35a3.47,3.47,0,0,0,2.8,0C1592.06,272.35,1592.67,250.28,1592.47,250.14Z" fill="#977348"/>
          </g>
          <g>
            <path d="M1461,500.1c-23.17,0-42-13.18-42-42,0-22.1,15.5-38.48,42-30.15,26.45-8.33,42,8,42,30.15C1503,486.92,1484.19,500.1,1461,500.1Z" fill="#ed1c24"/>
            <path d="M1463,411.17a13.23,13.23,0,0,0-4,0c-.2.14.41,22.21.61,22.35a3.47,3.47,0,0,0,2.8,0C1462.62,433.38,1463.23,411.31,1463,411.17Z" fill="#977348"/>
          </g>
          <g>
            <path d="M1630.9,630.26c-23.17,0-42-13.18-42-42,0-22.1,15.5-38.48,42-30.15,26.45-8.33,42,8,42,30.15C1672.85,617.08,1654.07,630.26,1630.9,630.26Z" fill="#ed1c24"/>
            <path d="M1632.91,541.33a13.22,13.22,0,0,0-4,0c-.2.14.41,22.21.61,22.35a3.47,3.47,0,0,0,2.8,0C1632.5,563.53,1633.12,541.46,1632.91,541.33Z" fill="#977348"/>
          </g>
          <g>
            <path d="M1809.12,299.3c-23.17,0-42-13.18-42-42,0-22.1,15.5-38.48,42-30.15,26.45-8.33,42,8,42,30.15C1851.07,286.13,1832.29,299.3,1809.12,299.3Z" fill="#ed1c24"/>
            <path d="M1811.13,210.37a13.23,13.23,0,0,0-4,0c-.2.14.41,22.21.61,22.35a3.47,3.47,0,0,0,2.8,0C1810.72,232.58,1811.33,210.51,1811.13,210.37Z" fill="#977348"/>
          </g>
          <g>
            <path d="M1932.75,425.93c-23.17,0-42-13.18-42-42,0-22.1,15.5-38.48,42-30.15,26.45-8.33,42,8,42,30.15C1974.7,412.76,1955.92,425.93,1932.75,425.93Z" fill="#ed1c24"/>
            <path d="M1934.76,337a13.23,13.23,0,0,0-4,0c-.2.14.41,22.21.61,22.35a3.47,3.47,0,0,0,2.8,0C1934.35,359.21,1935,337.14,1934.76,337Z" fill="#977348"/>
          </g>
          <g>
            <path d="M1847.14,590.38c-23.17,0-42-13.18-42-42,0-22.1,15.5-38.48,42-30.15,26.45-8.33,42,8,42,30.15C1889.09,577.21,1870.31,590.38,1847.14,590.38Z" fill="#ed1c24"/>
            <path d="M1849.15,501.45a13.23,13.23,0,0,0-4,0c-.2.14.41,22.21.61,22.35a3.47,3.47,0,0,0,2.8,0C1848.75,523.66,1849.36,501.59,1849.15,501.45Z" fill="#977348"/>
          </g>
        </g>
        <g>
          <g>
            <g>
              <polygon points="1178.82 935.83 1138.38 935.83 1132.52 797.49 1158.6 781.87 1184.67 797.49 1178.82 935.83" fill="#c6a87d"/>
              <polygon points="1237.41 935.83 1196.98 935.83 1191.12 797.49 1217.19 781.87 1243.27 797.49 1237.41 935.83" fill="#c6a87d"/>
              <polygon points="1296.01 935.83 1255.58 935.83 1249.72 797.49 1275.79 781.87 1301.87 797.49 1296.01 935.83" fill="#c6a87d"/>
              <polygon points="1354.61 935.83 1314.17 935.83 1308.32 797.49 1334.39 781.87 1360.47 797.49 1354.61 935.83" fill="#c6a87d"/>
              <polygon points="1413.2 935.83 1372.77 935.83 1366.91 797.49 1392.99 781.87 1419.07 797.49 1413.2 935.83" fill="#c6a87d"/>
              <polygon points="1471.8 935.83 1431.37 935.83 1425.51 797.49 1451.59 781.87 1477.66 797.49 1471.8 935.83" fill="#c6a87d"/>
              <polygon points="1530.4 935.83 1489.97 935.83 1484.11 797.49 1510.18 781.87 1536.26 797.49 1530.4 935.83" fill="#c6a87d"/>
            </g>
            <g>
              <polygon points="1120.22 935.83 1100 935.83 1100 781.87 1126.08 797.49 1120.22 935.83" fill="#ccb28b"/>
              <polygon points="1178.82 935.83 1158.6 935.83 1158.6 781.87 1184.67 797.49 1178.82 935.83" fill="#ccb28b"/>
              <polygon points="1237.41 935.83 1217.19 935.83 1217.19 781.87 1243.27 797.49 1237.41 935.83" fill="#ccb28b"/>
              <polygon points="1296.01 935.83 1275.79 935.83 1275.79 781.87 1301.87 797.49 1296.01 935.83" fill="#ccb28b"/>
              <polygon points="1354.61 935.83 1334.39 935.83 1334.39 781.87 1360.47 797.49 1354.61 935.83" fill="#ccb28b"/>
              <polygon points="1413.2 935.83 1392.99 935.83 1392.99 781.87 1419.07 797.49 1413.2 935.83" fill="#ccb28b"/>
              <polygon points="1471.8 935.83 1451.59 935.83 1451.59 781.87 1477.66 797.49 1471.8 935.83" fill="#ccb28b"/>
              <polygon points="1530.4 935.83 1510.18 935.83 1510.18 781.87 1536.26 797.49 1530.4 935.83" fill="#ccb28b"/>
            </g>
            <rect x="1100" y="818.65" width="448.78" height="18.03" fill="#977348"/>
            <rect x="1100" y="879.13" width="448.78" height="18.03" fill="#977348"/>
            <path d="M1275.79,823.89a3.77,3.77,0,1,0,3.77,3.77A3.77,3.77,0,0,0,1275.79,823.89Zm58.6,0a3.77,3.77,0,1,0,3.77,3.77A3.77,3.77,0,0,0,1334.39,823.89Zm-175.79,0a3.77,3.77,0,1,0,3.77,3.77A3.77,3.77,0,0,0,1158.6,823.89Zm-58.6,0v7.54a3.77,3.77,0,0,0,0-7.54Zm117.2,0a3.77,3.77,0,1,0,3.77,3.77A3.77,3.77,0,0,0,1217.2,823.89Zm175.79,0a3.77,3.77,0,1,0,3.77,3.77A3.77,3.77,0,0,0,1393,823.89Zm117.2,0a3.77,3.77,0,1,0,3.77,3.77A3.77,3.77,0,0,0,1510.18,823.89Zm-58.6,0a3.77,3.77,0,1,0,3.77,3.77A3.77,3.77,0,0,0,1451.59,823.89Z" fill="#876740"/>
            <path d="M1275.79,885.34a3.77,3.77,0,1,0,3.77,3.77A3.77,3.77,0,0,0,1275.79,885.34Zm58.6,0a3.77,3.77,0,1,0,3.77,3.77A3.77,3.77,0,0,0,1334.39,885.34Zm-175.79,0a3.77,3.77,0,1,0,3.77,3.77A3.77,3.77,0,0,0,1158.6,885.34Zm-58.6,0v7.54a3.77,3.77,0,0,0,0-7.54Zm117.2,0a3.77,3.77,0,1,0,3.77,3.77A3.77,3.77,0,0,0,1217.2,885.34Zm175.79,0a3.77,3.77,0,1,0,3.77,3.77A3.77,3.77,0,0,0,1393,885.34Zm117.2,0a3.77,3.77,0,1,0,3.77,3.77A3.77,3.77,0,0,0,1510.18,885.34Zm-58.6,0a3.77,3.77,0,1,0,3.77,3.77A3.77,3.77,0,0,0,1451.59,885.34Z" fill="#876740"/>
          </g>
          <g>
            <path d="M1600,910.58c-250,0-500,24.24-500,24.24V1000H2100V934.82S1850,910.58,1600,910.58Z" fill="#8dc63f"/>
            <g>
              <path d="M1202.33,1000h88.87l54.71-82.47c-33,1.67-64,3.51-92.18,5.34Z" fill="#a3cf62"/>
              <path d="M1527.32,911.22c-30.74.53-61.1,1.36-90.61,2.39L1379.53,1000h89.05Z" fill="#a3cf62"/>
              <path d="M1878.69,918.82c-27.52-1.5-56.69-2.91-87-4.13L1734.86,1000h89.37Z" fill="#a3cf62"/>
              <path d="M1557.06,1000h89.19l58.5-88.12c-29.14-.7-58.78-1.15-88.49-1.27Z" fill="#a3cf62"/>
              <path d="M1167.94,929c-42.6,3.35-67.94,5.81-67.94,5.81V1000h27Z" fill="#a3cf62"/>
              <path d="M2050.93,930.53c-22.51-1.84-51.9-4.11-86.36-6.45L1913.13,1000H2003Z" fill="#a3cf62"/>
            </g>
          </g>
        </g>
      </g>
      <g>
        <g>
          <rect y="1100" width="1000" height="1000" fill="#ffedce"/>
          <path d="M0,1716.45c264.66,101.38,699.33,168,1000,61.59V1100H0Z" fill="#ffe6b9"/>
          <path d="M0,1493.49c281.77,107.38,731.35,55.59,1000-110.79V1100H0Z" fill="#ffdfa4"/>
          <path d="M0,1184.38c260.07,129,713.45,173,1000,23.37V1100H0Z" fill="#ffd98f"/>
        </g>
        <g>
          <path d="M724.39,1501.76c-14.56-4.43-21.52,35.44-34.17,51.26-11.18,14-26.32,12.64-46.71,12.14-1.35-38.26-2.67-70.31-3.89-91.37-1.11-19.18-6.31-26.56-21-26.56h0c-14.7,0-19.9,7.38-21,26.56-2.69,46.35-5.92,147.52-8.79,250.88-33.16-1.19-72.26-15.12-95.42-43.66-24.24-29.87-33.21-116.57-47.19-113.53s-10.28,102.63,23.07,144.78c26.65,33.67,66.88,58.66,118.22,60.45-3.54,132.47-6.26,255-6.26,255H656s-5.59-252-11.18-424c33-1,51.08-7.8,64.39-22.85C724.21,1563.89,738.95,1506.19,724.39,1501.76Z" fill="#b18963"/>
          <path d="M567.71,1631.39c0,37-35.63,54.32-35.63,54.32s-35.63-17.28-35.63-54.32,35.63-54.32,35.63-54.32S567.71,1594.34,567.71,1631.39Z" fill="#faa74a"/>
          <path d="M578.53,1409.08c0,37-35.63,54.32-35.63,54.32s-35.63-17.28-35.63-54.32,35.63-54.32,35.63-54.32S578.53,1372,578.53,1409.08Z" fill="#faa74a"/>
          <path d="M492.94,1432.37c0,37-35.63,54.32-35.63,54.32s-35.63-17.28-35.63-54.32S457.32,1378,457.32,1378,492.94,1395.32,492.94,1432.37Z" fill="#faa74a"/>
          <path d="M526.08,1319.15c0,37-35.63,54.32-35.63,54.32s-35.63-17.28-35.63-54.32,35.63-54.32,35.63-54.32S526.08,1282.1,526.08,1319.15Z" fill="#f58345"/>
          <path d="M605.75,1280.81c0,37-35.63,54.32-35.63,54.32s-35.63-17.28-35.63-54.32,35.63-54.32,35.63-54.32S605.75,1243.76,605.75,1280.81Z" fill="#f58345"/>
          <path d="M788.75,1320.82c0,37-35.63,54.32-35.63,54.32s-35.63-17.28-35.63-54.32,35.63-54.32,35.63-54.32S788.75,1283.78,788.75,1320.82Z" fill="#faa74a"/>
          <path d="M753.12,1429.47c0,37-35.63,54.32-35.63,54.32s-35.63-17.28-35.63-54.32,35.63-54.32,35.63-54.32S753.12,1392.42,753.12,1429.47Z" fill="#f58345"/>
          <path d="M363.08,1632.72c-37,0-54.32-35.63-54.32-35.63s17.28-35.63,54.32-35.63,54.32,35.63,54.32,35.63S400.13,1632.72,363.08,1632.72Z" fill="#f58345"/>
          <path d="M778.43,1630.32c-37,0-54.32-35.63-54.32-35.63s17.28-35.63,54.32-35.63,54.32,35.63,54.32,35.63S815.47,1630.32,778.43,1630.32Z" fill="#faa74a"/>
          <path d="M537.48,1548.21c-26.2,26.2-63.6,13.22-63.6,13.22s-13-37.41,13.22-63.6,63.61-13.22,63.6-13.22S563.67,1522,537.48,1548.21Z" fill="#f58345"/>
          <path d="M835.53,1425.14c-26.2,26.2-63.6,13.22-63.6,13.22s-13-37.41,13.22-63.6,63.61-13.22,63.6-13.22S861.73,1398.95,835.53,1425.14Z" fill="#faa74a"/>
          <path d="M814,1525.41c-26.2,26.2-63.6,13.22-63.6,13.22s-13-37.41,13.22-63.61,63.61-13.22,63.6-13.22S840.16,1499.21,814,1525.41Z" fill="#f58345"/>
          <path d="M411.26,1712.66c-26.2,26.2-63.6,13.22-63.6,13.22s-13-37.41,13.22-63.6,63.61-13.22,63.6-13.22S437.45,1686.46,411.26,1712.66Z" fill="#faa74a"/>
          <path d="M683.92,1687.83c-26.2-26.2-13.22-63.6-13.22-63.6s37.41-13,63.6,13.22,13.22,63.61,13.22,63.6S710.12,1714,683.92,1687.83Z" fill="#f58345"/>
          <path d="M378.91,1536.21c-26.2-26.2-13.22-63.6-13.22-63.6s37.41-13,63.6,13.22,13.22,63.61,13.22,63.6S405.11,1562.41,378.91,1536.21Z" fill="#f58345"/>
          <path d="M605.42,1412.34c-26.2-26.2-13.22-63.6-13.22-63.6s37.41-13,63.6,13.22S669,1425.56,669,1425.56,631.61,1438.53,605.42,1412.34Z" fill="#faa74a"/>
          <path d="M635,1333.32c-26.2-26.2-13.22-63.6-13.22-63.6s37.41-13,63.6,13.22,13.22,63.6,13.22,63.6S661.24,1359.51,635,1333.32Z" fill="#faa74a"/>
        </g>
        <g>
          <g>
            <g>
              <polygon points="78.81 2035.83 38.38 2035.83 32.52 1897.49 58.6 1881.87 84.67 1897.49 78.81 2035.83" fill="#c6a87d"/>
              <polygon points="137.41 2035.83 96.98 2035.83 91.12 1897.49 117.19 1881.87 143.27 1897.49 137.41 2035.83" fill="#c6a87d"/>
              <polygon points="196.01 2035.83 155.58 2035.83 149.72 1897.49 175.79 1881.87 201.87 1897.49 196.01 2035.83" fill="#c6a87d"/>
              <polygon points="254.61 2035.83 214.17 2035.83 208.31 1897.49 234.39 1881.87 260.47 1897.49 254.61 2035.83" fill="#c6a87d"/>
              <polygon points="313.21 2035.83 272.77 2035.83 266.91 1897.49 292.99 1881.87 319.06 1897.49 313.21 2035.83" fill="#c6a87d"/>
              <polygon points="371.8 2035.83 331.37 2035.83 325.51 1897.49 351.59 1881.87 377.66 1897.49 371.8 2035.83" fill="#c6a87d"/>
              <polygon points="430.4 2035.83 389.97 2035.83 384.11 1897.49 410.19 1881.87 436.26 1897.49 430.4 2035.83" fill="#c6a87d"/>
            </g>
            <g>
              <polygon points="20.22 2035.83 0 2035.83 0 1881.87 26.08 1897.49 20.22 2035.83" fill="#ccb28b"/>
              <polygon points="78.81 2035.83 58.6 2035.83 58.6 1881.87 84.67 1897.49 78.81 2035.83" fill="#ccb28b"/>
              <polygon points="137.41 2035.83 117.19 2035.83 117.19 1881.87 143.27 1897.49 137.41 2035.83" fill="#ccb28b"/>
              <polygon points="196.01 2035.83 175.79 2035.83 175.79 1881.87 201.87 1897.49 196.01 2035.83" fill="#ccb28b"/>
              <polygon points="254.61 2035.83 234.39 2035.83 234.39 1881.87 260.47 1897.49 254.61 2035.83" fill="#ccb28b"/>
              <polygon points="313.21 2035.83 292.99 2035.83 292.99 1881.87 319.06 1897.49 313.21 2035.83" fill="#ccb28b"/>
              <polygon points="371.8 2035.83 351.59 2035.83 351.59 1881.87 377.66 1897.49 371.8 2035.83" fill="#ccb28b"/>
              <polygon points="430.4 2035.83 410.19 2035.83 410.19 1881.87 436.26 1897.49 430.4 2035.83" fill="#ccb28b"/>
            </g>
            <rect y="1918.65" width="448.78" height="18.03" fill="#977348"/>
            <rect y="1979.13" width="448.78" height="18.03" fill="#977348"/>
            <path d="M175.79,1923.89a3.77,3.77,0,1,0,3.77,3.77A3.77,3.77,0,0,0,175.79,1923.89Zm58.6,0a3.77,3.77,0,1,0,3.77,3.77A3.77,3.77,0,0,0,234.39,1923.89Zm-175.79,0a3.77,3.77,0,1,0,3.77,3.77A3.77,3.77,0,0,0,58.6,1923.89Zm-58.6,0v7.54a3.77,3.77,0,0,0,3.77-3.77A3.77,3.77,0,0,0,0,1923.89Zm117.2,0a3.77,3.77,0,1,0,3.77,3.77A3.77,3.77,0,0,0,117.2,1923.89Zm175.79,0a3.77,3.77,0,1,0,3.77,3.77A3.77,3.77,0,0,0,293,1923.89Zm117.2,0a3.77,3.77,0,1,0,3.77,3.77A3.77,3.77,0,0,0,410.18,1923.89Zm-58.6,0a3.77,3.77,0,1,0,3.77,3.77A3.77,3.77,0,0,0,351.59,1923.89Z" fill="#876740"/>
            <path d="M175.79,1985.34a3.77,3.77,0,1,0,3.77,3.77A3.77,3.77,0,0,0,175.79,1985.34Zm58.6,0a3.77,3.77,0,1,0,3.77,3.77A3.77,3.77,0,0,0,234.39,1985.34Zm-175.79,0a3.77,3.77,0,1,0,3.77,3.77A3.77,3.77,0,0,0,58.6,1985.34Zm-58.6,0v7.54a3.77,3.77,0,0,0,3.77-3.77A3.77,3.77,0,0,0,0,1985.34Zm117.2,0a3.77,3.77,0,1,0,3.77,3.77A3.77,3.77,0,0,0,117.2,1985.34Zm175.79,0a3.77,3.77,0,1,0,3.77,3.77A3.77,3.77,0,0,0,293,1985.34Zm117.2,0a3.77,3.77,0,1,0,3.77,3.77A3.77,3.77,0,0,0,410.18,1985.34Zm-58.6,0a3.77,3.77,0,1,0,3.77,3.77A3.77,3.77,0,0,0,351.59,1985.34Z" fill="#876740"/>
          </g>
          <g>
            <path d="M500,2010.58c-250,0-500,24.24-500,24.24V2100H1000v-65.18S750,2010.58,500,2010.58Z" fill="#fdb913"/>
            <g>
              <path d="M102.33,2100h88.87l54.71-82.47c-33,1.67-64,3.51-92.18,5.34Z" fill="#ffc54e"/>
              <path d="M427.32,2011.22c-30.74.53-61.1,1.36-90.61,2.39L279.53,2100h89.05Z" fill="#ffc54e"/>
              <path d="M778.69,2018.82c-27.52-1.5-56.69-2.91-87-4.13L634.86,2100h89.37Z" fill="#ffc54e"/>
              <path d="M457.06,2100h89.19l58.5-88.12c-29.14-.7-58.78-1.15-88.49-1.27Z" fill="#ffc54e"/>
              <path d="M67.94,2029c-42.6,3.35-67.94,5.8-67.94,5.8V2100H27Z" fill="#ffc54e"/>
              <path d="M950.93,2030.53c-22.51-1.84-51.9-4.11-86.36-6.45L813.13,2100H903Z" fill="#ffc54e"/>
            </g>
          </g>
          <path d="M516.49,2045c-35.78,9.59-61.69-20.35-61.69-20.35s7.47-38.88,43.25-48.47,61.7,20.35,61.69,20.36S552.28,2035.4,516.49,2045Z" fill="#f58345"/>
          <g>
            <g>
              <path d="M859.54,1878.4a20,20,0,0,0,.78-5.44c.06-7.62-4.91-15.31-16.81-17.33a32.8,32.8,0,0,0-5.7-.5c-12.81,0-23,7.71-30.64,16.54s-12.78,18.9-15.45,23.94l1.87,1h0c2.67-5.05,7.75-14.95,15.18-23.55s17.14-15.82,29-15.81a30.74,30.74,0,0,1,5.33.47c11.12,2,15,8.52,15.07,15.25a16.6,16.6,0,0,1-.13,2.07,16.2,16.2,0,0,0-9.31-7.92,13.45,13.45,0,0,0-4.28-.72c-7.56,0-12.88,6.75-12.89,13.34,0,4.33,2.42,8.7,7.87,10.82a13.57,13.57,0,0,0,5,1c6.1-.06,11.14-4.27,13.8-9.81A33.93,33.93,0,0,1,859,1889a31.86,31.86,0,0,1-.2,3.72v.09a24.58,24.58,0,0,1-3.95,11.34,37.31,37.31,0,0,1-2.55,3.62c-.69.86-1.12,1.32-1.12,1.32l1.54,1.45c0-.09,7.68-8.06,8.19-17.57a36.09,36.09,0,0,0-1.39-14.54Zm-5.39,5.91c-2.52,3.11-5.93,5.11-9.68,5.1a11.48,11.48,0,0,1-4.23-.83c-4.72-1.9-6.5-5.28-6.53-8.86a11.69,11.69,0,0,1,3.06-7.7,10.35,10.35,0,0,1,7.71-3.52,11.41,11.41,0,0,1,3.61.61,14.52,14.52,0,0,1,9,8.83l.2.51A18.46,18.46,0,0,1,854.15,1884.31Zm-103.73-2.93c-7.48,0-14.29,4.52-19.58,7.05l-.64-.6c-2.67-2.42-5.35-3.57-7.95-3.57a10.69,10.69,0,0,0-6.6,2.53,20.46,20.46,0,0,1-3.87-4.91,9.5,9.5,0,0,0,4.15,1.05c6.57.3,11.63-6.26,11.63-6.26s-2.94-4.6-7.56-6.49c3.17-5.62,1.28-13,1.28-13s-8.67-.83-13.67,4.16c-4.53-5.52-13.13-6.08-13.13-6.08s-3.43,7.91-.58,14.46C687.18,1871.89,684,1880,684,1880s5.71,5,12.16,4.8c-.43,5,2.33,9.69,2.33,9.69s8.14-1.51,10.87-7.5a10,10,0,0,0,.94-3.51,22.43,22.43,0,0,0,3.8,4.74c-6.82,6.81-11.39,20.46-13.55,28.68l2,.53h0a95.78,95.78,0,0,1,7.42-19.79,33,33,0,0,1,5.72-8.06,14,14,0,0,0,8.32,2.83,15.41,15.41,0,0,0,5.91-1.24l.42-.18a46.15,46.15,0,0,1,6.21,9.3c2.94,5.6,6.64,8.06,10.5,8,4.07,0,7.91-2.55,11.32-5.71a67.14,67.14,0,0,0,8.58-10.18l.44-.62-.45-.61C761.65,1883.94,755.9,1881.36,750.42,1881.38Zm-26.4,8.9a11.6,11.6,0,0,1-6.65-2.13,8.32,8.32,0,0,1,4.89-1.77c1.94,0,4.08.83,6.48,3A13.11,13.11,0,0,1,724,1890.28Zm32.93,10.78c-3.23,3-6.75,5.17-9.88,5.15-2.9,0-5.82-1.68-8.63-6.92a50,50,0,0,0-6.08-9.25c5.38-2.65,11.69-6.57,18.07-6.54,4.67,0,9.45,2,14.37,8.33A63.28,63.28,0,0,1,756.94,1901.05Z" fill="#73a533"/>
              <g>
                <path d="M760,1894.94c2.66-12,11.24-29.88,15.8-33.6,1.63-1.33,31.16-15.58,31.16-15.58l4.43,8s-19.27,13.71-20.55,16.18c-1.06,2.05,0,11.65,6.64,23.16Z" fill="#73a533"/>
                <path d="M790.85,1869.93c1.28-2.47,20.55-16.18,20.55-16.18l-1.48-2.66c-8,3.81-24.54,14.16-26.06,17.21s-5.6,16.86-2.59,25.6l16.23-.8C790.87,1881.58,789.79,1872,790.85,1869.93Z" fill="#5f8d2a"/>
              </g>
            </g>
            <g>
              <g>
                <path d="M816.35,1958.6c0,57.42-16.84,77.23-37.6,77.23s-37.6-19.81-37.6-77.23,16.83-76.11,37.6-76.11S816.35,1901.18,816.35,1958.6Z" fill="#f7941d"/>
                <path d="M816.35,1958.6c0,57.42-16.84,77.23-37.6,77.23s-37.6-19.81-37.6-77.23c0,45.48,16.83,70.27,37.6,70.27S816.35,2004.29,816.35,1958.6Z" fill="#e0861a"/>
              </g>
              <g>
                <path d="M719.71,1902.87a22.14,22.14,0,0,0-7-1.08c-16.11,0-29.17,15.42-29.17,61.3s15.08,62.42,31.18,62.42a19.55,19.55,0,0,0,8.42-1.8c-9.45-9.68-15.71-29.26-15.71-62.87C707.48,1931.56,712.24,1913.28,719.71,1902.87Z" fill="#f7941d"/>
                <path d="M721.21,2021.49c-15.51.78-37.63-13.27-37.63-58.39,0,45.88,15.08,62.42,31.18,62.42a19.55,19.55,0,0,0,8.42-1.8Q722.18,2022.68,721.21,2021.49Z" fill="#e0861a"/>
              </g>
              <g>
                <path d="M741.15,1958.6c0-32.14,5.27-52.14,13.56-63.53a25.07,25.07,0,0,0-13.42-3.67c-18.67,0-33.8,17.21-33.8,69.44s15.14,70.57,33.8,70.57a24.25,24.25,0,0,0,15.81-5.6C747.45,2014.77,741.15,1993.72,741.15,1958.6Z" fill="#faa61a"/>
                <path d="M755.68,2024.1c-21.12,9-48.2-9.48-48.2-63.26,0,52.23,15.14,70.57,33.8,70.57a24.26,24.26,0,0,0,15.8-5.6Q756.37,2025,755.68,2024.1Z" fill="#e39717"/>
              </g>
              <g>
                <path d="M816.11,1891.4a25.08,25.08,0,0,0-13.35,3.63c8.3,11.38,13.59,31.39,13.59,63.57,0,35.17-6.32,56.23-16,67.27a24.26,24.26,0,0,0,15.74,5.54c18.67,0,33.8-18.34,33.8-70.57S834.78,1891.4,816.11,1891.4Z" fill="#faa61a"/>
                <path d="M801.79,2024.14q-.7.9-1.42,1.73a24.25,24.25,0,0,0,15.74,5.55c18.67,0,33.8-18.34,33.8-70.57C849.91,2014.55,822.9,2033.05,801.79,2024.14Z" fill="#e39717"/>
              </g>
              <g>
                <path d="M844.64,1901.79a22.13,22.13,0,0,0-7,1.08c7.47,10.41,12.23,28.68,12.23,58,0,33.62-6.27,53.19-15.71,62.87a19.55,19.55,0,0,0,8.42,1.8c16.11,0,31.18-16.54,31.18-62.42S860.74,1901.79,844.64,1901.79Z" fill="#f7941d"/>
                <path d="M836.17,2021.49q-1,1.19-2,2.23a19.55,19.55,0,0,0,8.42,1.8c16.11,0,31.18-16.54,31.18-62.42C873.8,2008.22,851.68,2022.27,836.17,2021.49Z" fill="#e0861a"/>
              </g>
            </g>
          </g>
        </g>
      </g>
      <g>
        <g>
          <g>
            <rect x="1100" y="1100" width="1000" height="1000" fill="#e8f2f8"/>
            <path d="M1100,1716.45c264.66,101.38,699.33,168,1000,61.59V1100H1100Z" fill="#d5e7f0"/>
            <path d="M1100,1493.49c281.77,107.38,731.35,55.59,1000-110.79V1100H1100Z" fill="#c5deeb"/>
            <path d="M1100,1184.38c260.07,129,713.45,173,1000,23.37V1100H1100Z" fill="#b5d5e5"/>
          </g>
          <path d="M1315.14,1603.87a20.81,20.81,0,1,0,20.81,20.81A20.81,20.81,0,0,0,1315.14,1603.87Zm-51.38-251.6a20.81,20.81,0,1,0,20.81,20.81A20.81,20.81,0,0,0,1263.75,1352.26ZM1393,1213.81a20.81,20.81,0,1,0,20.81,20.81A20.81,20.81,0,0,0,1393,1213.81Zm38,252.07a20.81,20.81,0,1,0,20.81,20.81A20.81,20.81,0,0,0,1431,1465.88Zm-259.34-323.56a20.81,20.81,0,1,0,20.81,20.81A20.81,20.81,0,0,0,1171.64,1142.31ZM1503,1121.5a20.81,20.81,0,1,0,20.81,20.81A20.81,20.81,0,0,0,1503,1121.5Zm375.69,41.63a20.81,20.81,0,1,0-20.81-20.81A20.81,20.81,0,0,0,1878.69,1163.13Zm149,195.2a20.81,20.81,0,1,0,20.81-20.81A20.81,20.81,0,0,0,2027.65,1358.32ZM1158.6,1654.55a20.81,20.81,0,1,0,20.81,20.81A20.81,20.81,0,0,0,1158.6,1654.55Zm525.85-474.34a20.81,20.81,0,1,0,20.81,20.81A20.81,20.81,0,0,0,1684.45,1180.21Zm366.48,8.26a20.81,20.81,0,1,0-20.81,20.81A20.81,20.81,0,0,0,2050.93,1188.47ZM1878.7,1583.05a20.81,20.81,0,1,0,20.81,20.81A20.81,20.81,0,0,0,1878.7,1583.05ZM1986,1675.36a20.81,20.81,0,1,0,20.81,20.81A20.81,20.81,0,0,0,1986,1675.36Zm62.44-184.62a20.81,20.81,0,1,0,20.81,20.81A20.81,20.81,0,0,0,2048.46,1490.75ZM1633,1610.58a20.81,20.81,0,1,0,20.81,20.81A20.81,20.81,0,0,0,1633,1610.58Zm-44-273.07a20.81,20.81,0,1,0,20.81,20.81A20.81,20.81,0,0,0,1589,1337.51Zm279,8a20.81,20.81,0,1,0-20.81,20.81A20.81,20.81,0,0,0,1868,1345.52Zm-43.85,416.41a20.81,20.81,0,1,0,20.81,20.81A20.81,20.81,0,0,0,1824.1,1761.93Z" fill="#f5f5f5"/>
        </g>
        <g>
          <g>
            <polygon points="1178.82 2035.83 1138.38 2035.83 1132.52 1897.49 1158.6 1881.87 1184.67 1897.49 1178.82 2035.83" fill="#c6a87d"/>
            <polygon points="1237.41 2035.83 1196.98 2035.83 1191.12 1897.49 1217.19 1881.87 1243.27 1897.49 1237.41 2035.83" fill="#c6a87d"/>
            <polygon points="1296.01 2035.83 1255.58 2035.83 1249.72 1897.49 1275.79 1881.87 1301.87 1897.49 1296.01 2035.83" fill="#c6a87d"/>
            <polygon points="1354.61 2035.83 1314.17 2035.83 1308.32 1897.49 1334.39 1881.87 1360.47 1897.49 1354.61 2035.83" fill="#c6a87d"/>
            <polygon points="1413.2 2035.83 1372.77 2035.83 1366.91 1897.49 1392.99 1881.87 1419.07 1897.49 1413.2 2035.83" fill="#c6a87d"/>
            <polygon points="1471.8 2035.83 1431.37 2035.83 1425.51 1897.49 1451.59 1881.87 1477.66 1897.49 1471.8 2035.83" fill="#c6a87d"/>
            <polygon points="1530.4 2035.83 1489.97 2035.83 1484.11 1897.49 1510.18 1881.87 1536.26 1897.49 1530.4 2035.83" fill="#c6a87d"/>
          </g>
          <g>
            <polygon points="1120.22 2035.83 1100 2035.83 1100 1881.87 1126.08 1897.49 1120.22 2035.83" fill="#ccb28b"/>
            <polygon points="1178.82 2035.83 1158.6 2035.83 1158.6 1881.87 1184.67 1897.49 1178.82 2035.83" fill="#ccb28b"/>
            <polygon points="1237.41 2035.83 1217.19 2035.83 1217.19 1881.87 1243.27 1897.49 1237.41 2035.83" fill="#ccb28b"/>
            <polygon points="1296.01 2035.83 1275.79 2035.83 1275.79 1881.87 1301.87 1897.49 1296.01 2035.83" fill="#ccb28b"/>
            <polygon points="1354.61 2035.83 1334.39 2035.83 1334.39 1881.87 1360.47 1897.49 1354.61 2035.83" fill="#ccb28b"/>
            <polygon points="1413.2 2035.83 1392.99 2035.83 1392.99 1881.87 1419.07 1897.49 1413.2 2035.83" fill="#ccb28b"/>
            <polygon points="1471.8 2035.83 1451.59 2035.83 1451.59 1881.87 1477.66 1897.49 1471.8 2035.83" fill="#ccb28b"/>
            <polygon points="1530.4 2035.83 1510.18 2035.83 1510.18 1881.87 1536.26 1897.49 1530.4 2035.83" fill="#ccb28b"/>
          </g>
          <rect x="1100" y="1918.65" width="448.78" height="18.03" fill="#977348"/>
          <rect x="1100" y="1979.13" width="448.78" height="18.03" fill="#977348"/>
          <path d="M1275.79,1923.89a3.77,3.77,0,1,0,3.77,3.77A3.77,3.77,0,0,0,1275.79,1923.89Zm58.6,0a3.77,3.77,0,1,0,3.77,3.77A3.77,3.77,0,0,0,1334.39,1923.89Zm-175.79,0a3.77,3.77,0,1,0,3.77,3.77A3.77,3.77,0,0,0,1158.6,1923.89Zm-58.6,0v7.54a3.77,3.77,0,0,0,0-7.54Zm117.2,0a3.77,3.77,0,1,0,3.77,3.77A3.77,3.77,0,0,0,1217.2,1923.89Zm175.79,0a3.77,3.77,0,1,0,3.77,3.77A3.77,3.77,0,0,0,1393,1923.89Zm117.2,0a3.77,3.77,0,1,0,3.77,3.77A3.77,3.77,0,0,0,1510.18,1923.89Zm-58.6,0a3.77,3.77,0,1,0,3.77,3.77A3.77,3.77,0,0,0,1451.59,1923.89Z" fill="#876740"/>
          <path d="M1275.79,1985.34a3.77,3.77,0,1,0,3.77,3.77A3.77,3.77,0,0,0,1275.79,1985.34Zm58.6,0a3.77,3.77,0,1,0,3.77,3.77A3.77,3.77,0,0,0,1334.39,1985.34Zm-175.79,0a3.77,3.77,0,1,0,3.77,3.77A3.77,3.77,0,0,0,1158.6,1985.34Zm-58.6,0v7.54a3.77,3.77,0,0,0,0-7.54Zm117.2,0a3.77,3.77,0,1,0,3.77,3.77A3.77,3.77,0,0,0,1217.2,1985.34Zm175.79,0a3.77,3.77,0,1,0,3.77,3.77A3.77,3.77,0,0,0,1393,1985.34Zm117.2,0a3.77,3.77,0,1,0,3.77,3.77A3.77,3.77,0,0,0,1510.18,1985.34Zm-58.6,0a3.77,3.77,0,1,0,3.77,3.77A3.77,3.77,0,0,0,1451.59,1985.34Z" fill="#876740"/>
        </g>
        <path d="M1824.39,1501.76c-14.56-4.43-21.52,35.44-34.17,51.26-11.18,14-26.32,12.64-46.71,12.14-1.35-38.26-2.67-70.31-3.89-91.37-1.11-19.18-6.31-26.56-21-26.56h0c-14.7,0-19.9,7.38-21,26.56-2.69,46.35-5.92,147.52-8.79,250.88-33.16-1.19-72.26-15.12-95.42-43.66-24.24-29.87-33.21-116.57-47.19-113.53s-10.28,102.63,23.07,144.78c26.65,33.67,66.88,58.66,118.22,60.45-3.54,132.47-6.26,255-6.26,255H1756s-5.59-252-11.18-424c33-1,51.08-7.8,64.39-22.85C1824.21,1563.89,1838.95,1506.19,1824.39,1501.76Z" fill="#b18963"/>
        <g>
          <path d="M1600,2010.58c-250,0-500,24.24-500,24.24V2100H2100v-65.18S1850,2010.58,1600,2010.58Z" fill="#d5e7f0"/>
          <g>
            <circle cx="1390.59" cy="1925.7" r="126.84" fill="#fff"/>
            <circle cx="1390.59" cy="1746.41" r="81.97" fill="#fff"/>
            <path d="M1444.37,1719.52a11.66,11.66,0,1,1-11.66-11.66A11.66,11.66,0,0,1,1444.37,1719.52Z" fill="#241f21"/>
            <circle cx="1436.06" cy="1716.26" r="5.09" fill="#fff"/>
            <circle cx="1348.46" cy="1719.52" r="11.66" fill="#241f21"/>
            <path d="M1356.9,1716.26a5.09,5.09,0,1,1-5.09-5.09A5.09,5.09,0,0,1,1356.9,1716.26Z" fill="#fff"/>
            <circle cx="1343.43" cy="1762.73" r="5.24" fill="#58595b"/>
            <path d="M1363.3,1775.71a7,7,0,1,1-7-7A7,7,0,0,1,1363.3,1775.71Z" fill="#58595b"/>
            <circle cx="1377.6" cy="1781.79" r="9.27" fill="#58595b"/>
            <circle cx="1437.75" cy="1762.73" r="5.24" fill="#58595b"/>
            <circle cx="1424.91" cy="1775.71" r="7.03" fill="#58595b"/>
            <circle cx="1403.58" cy="1781.79" r="9.27" fill="#58595b"/>
            <polygon points="1315.13 1869.39 1238.71 1825.43 1226.39 1779.46 1217.09 1781.96 1226.92 1818.65 1190.75 1797.84 1185.93 1806.18 1222.37 1827.13 1185.27 1837.07 1187.76 1846.38 1233.9 1834.02 1233.83 1833.73 1310.32 1877.73 1315.13 1869.39" fill="#917b48"/>
            <path d="M1400.62,1748.13c-1.65,6.17-7.28,10-17.34,7.33-12.06-3.23-28-12.86-26.34-19s20.26-6.54,32.33-3.31C1399.33,1735.81,1402.27,1742,1400.62,1748.13Z" fill="#f15b40"/>
            <path d="M1400.62,1748.13c-1.65,6.17-7.28,10-17.34,7.33-12.06-3.23-28-12.86-26.34-19S1396.27,1763.94,1400.62,1748.13Z" fill="#c74a34"/>
            <path d="M1322.32,1841.46c-17.31,11.1-47.37,70-29,123a142.07,142.07,0,0,0,47.87,31.81c-10.4-34.64-17.82-116.66,11.16-147.77" fill="#8dc63f"/>
            <path d="M1310.54,1832.33c14.16,14,50.78,20.29,80.16,20.29,29.12,0,61.86-8.06,76.57-17.64,9.85-6.42,12.3-14.72,8.24-26.92s-16.79-16.08-16.79-16.08c-13.55,9.72-38.91,16.28-68,16.28-29.38,0-54.94-6.67-68.4-16.54a27.5,27.5,0,0,0-15.76,16.34C1303.13,1817.22,1305.29,1827.12,1310.54,1832.33Z" fill="#8dc63f"/>
            <path d="M1421.59,1805.57c7.94,10,8.37,29.57,6.24,43.16a149.65,149.65,0,0,0,30.62-9.27c6.18-17.91-1.38-33.25-10-41.89A114.15,114.15,0,0,1,1421.59,1805.57Z" fill="#73a533"/>
            <path d="M1394.1,1808.2c-1.13,0-2.26,0-3.41,0a181.42,181.42,0,0,1-25.89-1.81c-6.94,10.82-9.76,29.74-7.92,43.57a224.11,224.11,0,0,0,33.82,2.61c1.4,0,2.81,0,4.22-.07C1400.32,1837.28,1397.57,1818.54,1394.1,1808.2Z" fill="#73a533"/>
            <path d="M1326.86,1794.64a50.22,50.22,0,0,1-4.56-2.93,27.5,27.5,0,0,0-15.76,16.34c-3.42,9.16-1.26,19.07,4,24.28.13.13.3.25.43.38C1309.09,1821.63,1314.18,1804,1326.86,1794.64Z" fill="#73a533"/>
            <path d="M1369,1829.5c-4.15,20.79-16.76,26.27-30.41,23.54s-23.18-12.64-19-33.42,16.76-26.27,30.41-23.54S1373.18,1808.71,1369,1829.5Z" fill="#8dc63f"/>
            <path d="M1308.89,1856.4A126.39,126.39,0,0,0,1297,1880c6.94,14,22.39,23.41,35.5,29.17.88-13,2.92-25.49,6.5-36.39C1328.21,1869.23,1317.76,1864.48,1308.89,1856.4Z" fill="#73a533"/>
            <path d="M1287.92,1920.19a110.54,110.54,0,0,0,5.41,44.3,142.07,142.07,0,0,0,47.87,31.81c-3.66-12.18-6.94-30.23-8.41-49.85C1310.68,1939.82,1301.11,1936.11,1287.92,1920.19Z" fill="#73a533"/>
            <path d="M1345.34,1795.48c-11.78-.66-22.08,5.75-25.75,24.14-4.15,20.79,5.38,30.7,19,33.42a29.33,29.33,0,0,0,10,.38C1338.46,1836.82,1340.08,1808.27,1345.34,1795.48Z" fill="#73a533"/>
            <path d="M1372.67,1882.8a16,16,0,1,0,16-16A16,16,0,0,0,1372.67,1882.8Z" fill="#58595b"/>
            <polygon points="1558.57 1827.13 1595 1806.18 1590.18 1797.84 1554.02 1818.65 1563.85 1781.96 1554.54 1779.46 1542.22 1825.43 1465.8 1869.39 1470.62 1877.73 1547.11 1833.73 1547.03 1834.02 1593.18 1846.38 1595.66 1837.07 1558.57 1827.13" fill="#917b48"/>
            <path d="M1372.67,1945.26a16,16,0,1,0,16-16A16,16,0,0,0,1372.67,1945.26Z" fill="#58595b"/>
          </g>
        </g>
      </g>
    </g>
  </g>
</svg>
