<svg xmlns="http://www.w3.org/2000/svg" viewBox="0 0 62.09 22.87">
  <title>shoe</title>
  <g style="isolation: isolate">
    <g id="Layer_2" data-name="Layer 2">
      <g id="Layer_2-2" data-name="Layer 2">
        <g>
          <path d="M2.83,2.79S.8,7.61.8,11.5s.42,4.4.42,4.4a47.41,47.41,0,0,0,9.21.76c5.07-.08,11.84,1.1,18.35,1.94S53.73,18,60.15,15.22c0,0-.85-2.62-1.94-2.87s-7.1-.93-10.91-2.79A14.86,14.86,0,0,0,41,7.78S36.48,1.69,29.89,0c0,0-3,3.89-10.06,4.31S2.83,2.79,2.83,2.79Z" fill="#cd5334"/>
          <path d="M46.5,11.72a2.76,2.76,0,0,0,2.31-1.53c-.53-.2-1-.41-1.5-.64A14.86,14.86,0,0,0,41,7.78s-.27-.37-.77-.94a6.1,6.1,0,0,1-2.57,1.42C36.27,8.5,30.87,7.25,26,8s-6.85,8.54-6.85,8.54l.72.87,3.94.54a11,11,0,0,0,2.33-2c1.25-1.45,4.15-2.8,8-4.21S44.76,11.73,46.5,11.72Z" fill="#cd5334" style="mix-blend-mode: multiply"/>
          <path d="M39,8.66l1.27-1.72C38.79,5.22,35,1.3,29.89,0a9.87,9.87,0,0,1-2.34,2C29.61,2.71,35.65,5.12,39,8.66Z" fill="#cd5334" style="mix-blend-mode: multiply"/>
          <path d="M15.94,12.85c-.59-3.76-6-4.57-10.14-5.62s-3-4.44-3-4.44S.8,7.61.8,11.5s.42,4.4.42,4.4a47.41,47.41,0,0,0,9.21.76,51.81,51.81,0,0,1,6,.32C16.37,16.11,16.24,14.75,15.94,12.85Z" fill="#cd5334" style="mix-blend-mode: multiply"/>
          <path d="M40,9.88c.38-.05.93-2.11.93-2.11A20.52,20.52,0,0,0,39.41,6C39.25,6.64,38,7.57,38,7.57s-8.79-2.2-14.08,1a14.41,14.41,0,0,0-6.23,8.58l2.7.34a13.14,13.14,0,0,1,7.46-8C31.75,8,39.65,9.93,40,9.88Z" fill="#f37e42"/>
          <path d="M15.94,12.85c-.59-3.76-6-4.57-10.14-5.62s-3-4.44-3-4.44A33,33,0,0,0,1.47,7,3,3,0,0,0,4.14,9.17c3.13.59,7.65,1.27,8.71,4.27a10.26,10.26,0,0,1,.65,3.29c.95.06,1.93.14,2.94.24C16.37,16.11,16.24,14.75,15.94,12.85Z" fill="#f37e42"/>
          <path d="M48.48,12.55a1.59,1.59,0,0,0,1.37-2,20.25,20.25,0,0,1-2.17-.82c.24.31.45.79-.13,1.13-.93.55-10.31-.55-16,.25-4.94.7-7.63,5.51-8.23,6.73l2.45.34a15.11,15.11,0,0,1,5.36-4.92C33.94,11.75,46.41,12.85,48.48,12.55Z" fill="#f37e42"/>
          <path d="M61.67,17a4.18,4.18,0,0,0-1.52-1.76C53.73,18,35.3,19.44,28.79,18.6s-13.27-2-18.35-1.94a47.41,47.41,0,0,1-9.21-.76,3.41,3.41,0,0,0-1.1,2.3C0,19.78-.25,21.09,1,21.35s14.41,1.14,14.79.85.34-.8,1.27-.85S28,22.91,34.24,22.87,54,21.94,58.63,20.25,62,18,61.67,17Z" fill="#3f1311"/>
          <circle cx="2.45" cy="6.61" r="0.38" fill="#cd5334" style="mix-blend-mode: multiply"/>
          <circle cx="3.63" cy="7.51" r="0.38" fill="#cd5334" style="mix-blend-mode: multiply"/>
          <circle cx="5.04" cy="8.05" r="0.38" fill="#cd5334" style="mix-blend-mode: multiply"/>
          <circle cx="6.6" cy="8.51" r="0.38" fill="#cd5334" style="mix-blend-mode: multiply"/>
          <circle cx="8.24" cy="8.81" r="0.38" fill="#cd5334" style="mix-blend-mode: multiply"/>
          <circle cx="9.92" cy="9.42" r="0.38" fill="#cd5334" style="mix-blend-mode: multiply"/>
          <circle cx="11.26" cy="9.98" r="0.38" fill="#cd5334" style="mix-blend-mode: multiply"/>
          <circle cx="12.79" cy="10.74" r="0.38" fill="#cd5334" style="mix-blend-mode: multiply"/>
          <circle cx="13.71" cy="11.84" r="0.38" fill="#cd5334" style="mix-blend-mode: multiply"/>
          <circle cx="14.31" cy="13.18" r="0.38" fill="#cd5334" style="mix-blend-mode: multiply"/>
          <circle cx="14.6" cy="14.68" r="0.38" fill="#cd5334" style="mix-blend-mode: multiply"/>
          <circle cx="14.79" cy="16.23" r="0.38" fill="#cd5334" style="mix-blend-mode: multiply"/>
          <circle cx="19.26" cy="16.23" r="0.38" fill="#cd5334" style="mix-blend-mode: multiply"/>
          <circle cx="25.07" cy="17.18" r="0.38" fill="#cd5334" style="mix-blend-mode: multiply"/>
          <circle cx="25.97" cy="15.91" r="0.38" fill="#cd5334" style="mix-blend-mode: multiply"/>
          <circle cx="26.97" cy="14.84" r="0.38" fill="#cd5334" style="mix-blend-mode: multiply"/>
          <circle cx="28.31" cy="13.81" r="0.38" fill="#cd5334" style="mix-blend-mode: multiply"/>
          <circle cx="29.65" cy="12.96" r="0.38" fill="#cd5334" style="mix-blend-mode: multiply"/>
          <circle cx="31.25" cy="12.2" r="0.38" fill="#cd5334" style="mix-blend-mode: multiply"/>
          <circle cx="32.84" cy="11.82" r="0.38" fill="#cd5334" style="mix-blend-mode: multiply"/>
          <circle cx="34.47" cy="11.72" r="0.38" fill="#cd5334" style="mix-blend-mode: multiply"/>
          <circle cx="36.11" cy="11.63" r="0.33" fill="#cd5334" style="mix-blend-mode: multiply"/>
          <circle cx="37.64" cy="11.63" r="0.33" fill="#cd5334" style="mix-blend-mode: multiply"/>
          <circle cx="39.19" cy="11.63" r="0.33" fill="#cd5334" style="mix-blend-mode: multiply"/>
          <circle cx="40.72" cy="11.63" r="0.33" fill="#cd5334" style="mix-blend-mode: multiply"/>
          <circle cx="42.1" cy="11.63" r="0.33" fill="#cd5334" style="mix-blend-mode: multiply"/>
          <circle cx="43.61" cy="11.63" r="0.33" fill="#cd5334" style="mix-blend-mode: multiply"/>
          <circle cx="45.16" cy="11.72" r="0.33" fill="#cd5334" style="mix-blend-mode: multiply"/>
          <circle cx="46.48" cy="11.77" r="0.28" fill="#cd5334" style="mix-blend-mode: multiply"/>
          <circle cx="47.74" cy="11.63" r="0.28" fill="#cd5334" style="mix-blend-mode: multiply"/>
          <circle cx="48.8" cy="11.1" r="0.28" fill="#cd5334" style="mix-blend-mode: multiply"/>
          <path d="M48.91,10.23h0a.28.28,0,0,0,.5.18Z" fill="#cd5334" style="mix-blend-mode: multiply"/>
          <circle cx="20.02" cy="14.84" r="0.38" fill="#cd5334" style="mix-blend-mode: multiply"/>
          <circle cx="20.93" cy="13.34" r="0.38" fill="#cd5334" style="mix-blend-mode: multiply"/>
          <circle cx="21.9" cy="12.1" r="0.38" fill="#cd5334" style="mix-blend-mode: multiply"/>
          <circle cx="22.96" cy="10.83" r="0.38" fill="#cd5334" style="mix-blend-mode: multiply"/>
          <circle cx="24.32" cy="9.88" r="0.38" fill="#cd5334" style="mix-blend-mode: multiply"/>
          <circle cx="25.73" cy="9.04" r="0.38" fill="#cd5334" style="mix-blend-mode: multiply"/>
          <circle cx="27.21" cy="8.46" r="0.38" fill="#cd5334" style="mix-blend-mode: multiply"/>
          <circle cx="28.97" cy="8.04" r="0.38" fill="#cd5334" style="mix-blend-mode: multiply"/>
          <circle cx="30.78" cy="7.89" r="0.38" fill="#cd5334" style="mix-blend-mode: multiply"/>
          <circle cx="32.57" cy="7.89" r="0.38" fill="#cd5334" style="mix-blend-mode: multiply"/>
          <circle cx="34.27" cy="8.04" r="0.38" fill="#cd5334" style="mix-blend-mode: multiply"/>
          <circle cx="35.93" cy="8.27" r="0.38" fill="#cd5334" style="mix-blend-mode: multiply"/>
          <circle cx="38.01" cy="8.51" r="0.38" fill="#cd5334" style="mix-blend-mode: multiply"/>
          <circle cx="39.31" cy="7.89" r="0.32" fill="#cd5334" style="mix-blend-mode: multiply"/>
          <path d="M40.44,7.13,40,6.65a.31.31,0,1,0,.41.47Z" fill="#cd5334" style="mix-blend-mode: multiply"/>
          <path d="M31.52.1c.15.11.22.26.16.35l-1.47,2c-.06.08-.23.06-.38,0h0c-.15-.11-.22-.26-.16-.35l1.47-2c.06-.08.23-.06.38,0Z" fill="#571514"/>
          <path d="M33.31.91c.15.11.22.26.16.35L32,3.28c-.06.08-.23.06-.38,0h0c-.15-.11-.22-.26-.16-.35l1.47-2c.06-.08.23-.06.38,0Z" fill="#571514"/>
          <path d="M35.12,2c.15.11.22.26.16.35l-1.47,2c-.06.08-.23.06-.38,0h0c-.15-.11-.22-.26-.16-.35l1.47-2c.06-.08.23-.06.38,0Z" fill="#571514"/>
          <path d="M37,3.17c.15.11.22.26.16.35l-1.47,2c-.06.08-.23.06-.38,0h0c-.15-.11-.22-.26-.16-.35l1.47-2c.06-.08.23-.06.38,0Z" fill="#571514"/>
          <path d="M38.48,4.51c.15.11.22.26.16.35l-1.47,2c-.06.08-.23.06-.38,0h0c-.15-.11-.22-.26-.16-.35l1.47-2c.06-.08.23-.06.38,0Z" fill="#571514"/>
          <path d="M28.32,5.51h0a2.08,2.08,0,0,1-1.71-.78,1.59,1.59,0,0,1-.19-1.46C27.11,1.19,31,.12,31.15.08a.25.25,0,0,1,.29.13c0,.05.65,1.34-.67,3.76A2.8,2.8,0,0,1,28.32,5.51ZM31,.64c-.83.26-3.63,1.23-4.15,2.79a1.08,1.08,0,0,0,.12,1A1.6,1.6,0,0,0,28.32,5a2.3,2.3,0,0,0,2-1.27A4.57,4.57,0,0,0,31,.64Z" fill="#571514"/>
          <path d="M32.19,9.17h0a.25.25,0,0,1-.21-.29,17,17,0,0,0-1-8.45.25.25,0,1,1,.47-.2A17.2,17.2,0,0,1,32.44,9,.25.25,0,0,1,32.19,9.17Z" fill="#571514"/>
          <path d="M32.12,6.55a13.63,13.63,0,0,1-.17,2.33.25.25,0,0,0,.21.29h0A.25.25,0,0,0,32.44,9a14.3,14.3,0,0,0,.18-2.41Z" fill="#571514" style="mix-blend-mode: multiply"/>
          <path d="M52.66,18.84c4.77-1,7.71-1.91,8.49-2.74a5.14,5.14,0,0,0-1-.88C53.73,18,35.3,19.44,28.79,18.6s-13.27-2-18.35-1.94a47.41,47.41,0,0,1-9.21-.76,3.11,3.11,0,0,0-.9,1.38,37.58,37.58,0,0,0,10.92,1.24,62.6,62.6,0,0,1,15.58,1.35C31.58,20.77,46.79,20.12,52.66,18.84Z" fill="#3f1311" style="mix-blend-mode: multiply"/>
          <path d="M58.21,12.34c-.22-.05-.63-.12-1.19-.21a1.92,1.92,0,0,0,0,.34c.34,3.43-17.75,5.45-27.38,3.43S14.23,14.68,7.86,13.43c-4.75-.94-3.77-7.18-3-10.28-1.28-.21-2.06-.36-2.06-.36S.8,7.61.8,11.5s.42,4.4.42,4.4a47.41,47.41,0,0,0,9.21.76c5.07-.08,11.84,1.1,18.35,1.94S53.73,18,60.15,15.22C60.15,15.22,59.31,12.6,58.21,12.34Z" fill="#cd5334" style="mix-blend-mode: multiply"/>
        </g>
      </g>
    </g>
  </g>
</svg>
