<svg id="Layer_1" data-name="Layer 1" xmlns="http://www.w3.org/2000/svg" viewBox="0 0 64 64">
  <title>signature</title>
  <g>
    <path d="M62,41.42H2Q2,32,2,22.58H62Q62,32,62,41.42ZM22.73,34.13c0,.28-.18.29-.36.32l-1.59.25c-.55.1-1.1.2-1.65.33a.65.65,0,0,0-.32.22c-.11.12,0,.27.13.29a1.51,1.51,0,0,0,.31,0l1.1-.08c.83-.07,1.67-.14,2.5-.23.22,0,.39,0,.48.2h0a3.18,3.18,0,0,0,2.07,1.12l.33,0a4.67,4.67,0,0,0,.87.08,12.85,12.85,0,0,0,1.53-.24,11.46,11.46,0,0,1,1.7-.35c.65,0,1.3,0,1.95-.07a22.83,22.83,0,0,0,4.54-.36c.31-.07.63-.08.94-.14.62-.13,1.24-.27,1.86-.41a15.36,15.36,0,0,0,2.46-.64l.17,0a1,1,0,0,0,.74-.58.17.17,0,0,0,0-.23,1.57,1.57,0,0,1-.14-.18l0,0q3.32,0,6.63.12v0l-.44.33a.4.4,0,0,0,.36,0l1.23-.46.36-.11c.1,0,.15,0,.17.12a.35.35,0,0,0,.1.19l.8.68a2.34,2.34,0,0,0,1.32.67c.34,0,.68.18,1,.19a1.06,1.06,0,0,1,.2,0c.26.06.51.13.78.18a3.52,3.52,0,0,0,1.9-.19A2.28,2.28,0,0,0,58.14,34,.72.72,0,0,0,58,33l-.18-.15a3.92,3.92,0,0,0-1.07-.54,3.81,3.81,0,0,0-1.79-.23l-2.07.31a5.7,5.7,0,0,0-1.47.34.13.13,0,0,1-.18-.06,1.32,1.32,0,0,1-.08-.17,2.57,2.57,0,0,1,.05-2,4.7,4.7,0,0,0,.16-.45.22.22,0,0,0-.07-.28c-.06,0,0-.09,0-.13l.16-.09c.26-.17.52-.33.77-.51a1.52,1.52,0,0,0,.29-.33.23.23,0,0,0,0-.29c-.07-.1-.17-.08-.27-.07l-.33,0v-.05l.09-.06a5.43,5.43,0,0,0,.57-.3c.48-.33.95-.68,1.42-1,.31-.22.62-.44.92-.66a1.33,1.33,0,0,0,.25-.27.16.16,0,0,0,0-.25.62.62,0,0,0-.52-.12,3.4,3.4,0,0,0-1.18.61q-.42.32-.82.67c-.69.6-1.38,1.21-2.08,1.8a3.26,3.26,0,0,1-.8.5,8.26,8.26,0,0,0-.88.45c-.29.17-.6.31-.9.46a.93.93,0,0,1-.18,0l0,0a1.93,1.93,0,0,1,.14-.19,10.67,10.67,0,0,1,1.76-1.52.6.6,0,0,1,.43-.11.75.75,0,0,0,.5-.11c.08-.05.12-.11,0-.21a.38.38,0,0,1-.06-.15.31.31,0,0,0-.31-.27.63.63,0,0,0-.3.07,7.08,7.08,0,0,0-.61.41c-.4.29-.79.61-1.2.89a4,4,0,0,0-1.19,1.39.18.18,0,0,0,0,.16,2.77,2.77,0,0,0,.27.31s.06,0,.09,0a5.64,5.64,0,0,0,.61-.26c.36-.2.72-.42,1.07-.64l.23-.12a.18.18,0,0,1,0,.12c-.06.1-.13.19-.18.29a.36.36,0,0,0,.16.4c.12.08.17,0,.23-.09.41-.36.8-.74,1.22-1.09s.6-.44.9-.65a.83.83,0,0,1,.22-.07l0,0a.62.62,0,0,1-.09.13c-.25.21-.5.43-.76.63a1.6,1.6,0,0,1-.37.13.6.6,0,0,0-.12.09s.07.11.12.13a.61.61,0,0,0,.21,0c.21,0,.26.06.18.25s-.19.42-.3.63a4,4,0,0,0-.4,1.19,1,1,0,0,0,.13.79c.2.26.11.33-.18.38h0c-.44,0-.88.06-1.32.05-2.2,0-4.41-.09-6.61-.12-1.15,0-2.29,0-3.44,0-.77,0-1.54.08-2.31.13l-2.09.14-1,0a.3.3,0,0,1-.32-.27,1.28,1.28,0,0,0-.35-.61A1.76,1.76,0,0,0,31.47,32a9.48,9.48,0,0,0-1.31,0A3.05,3.05,0,0,0,28,33.32c-.09.11-.16.25-.24.37a.37.37,0,0,1-.31.18l-.32,0-2.27.27-1.57.15a.45.45,0,0,1-.38-.11A.59.59,0,0,0,22.73,34.13Zm-2-7.89c0-.12,0-.24,0-.35s-.11-.28-.3-.23a.28.28,0,0,0-.22.31.89.89,0,0,1-.15.53c-.23.37-.46.75-.71,1.11a26.1,26.1,0,0,1-2,2.48,2.43,2.43,0,0,1-.5.37,2.51,2.51,0,0,1-.25.1l-.55.3c-.79.43-1.59.85-2.38,1.3s-1.25.77-1.88,1.16c-.38.24-.77.47-1.15.73-.72.5-1.39,1-2.1,1.56-.18.13-.35.29-.53.42a14.84,14.84,0,0,0-2.45,2.22,5.14,5.14,0,0,0-.52.72.52.52,0,0,0,.08.66,1.18,1.18,0,0,0,1,.47l.41,0a5,5,0,0,0,2-.7c.88-.5,1.74-1.05,2.6-1.59a4,4,0,0,0,.39-.31,1.45,1.45,0,0,1,.22-.18,13.06,13.06,0,0,0,2.49-1.64A34.2,34.2,0,0,0,19.7,30a3.89,3.89,0,0,1,.28-.33.29.29,0,0,1,.13-.09l1.61-.39a3.94,3.94,0,0,1,.47-.07.12.12,0,0,1,.1,0s0,.08,0,.1l-.23.19a16.82,16.82,0,0,0-2,2.13,4,4,0,0,0-.31.47c0,.06-.05.17,0,.2a.27.27,0,0,0,.21.06,2,2,0,0,0,1.26-.62c.49-.55,1-1.09,1.49-1.63l.22-.27c0-.06.08-.14,0-.2a.41.41,0,0,0-.21-.13c-.05,0-.12.08-.17.13s-.08.16-.14.24a6.27,6.27,0,0,1-.49.63c-.33.34-.67.66-1,1l-.09.06,0,0a2.06,2.06,0,0,1,.17-.25c.55-.63,1.1-1.25,1.66-1.87A2.38,2.38,0,0,1,23,29a1,1,0,0,1,.3-.12c.08,0,.12,0,.1.11a.47.47,0,0,1-.08.12.79.79,0,0,0-.14.2.64.64,0,0,0,.07.54c.08.13.06.21-.05.31-.33.33-.65.67-1,1a3.75,3.75,0,0,0-.36.44.58.58,0,0,0-.08.28.16.16,0,0,0,.11.12.7.7,0,0,0,.35,0,2,2,0,0,0,.68-.69,2,2,0,0,1,.56-.59c.14-.1.3-.19.44-.3L25.64,29l.1-.07a.33.33,0,0,1-.09.16c-.26.27-.52.56-.8.81a6,6,0,0,0-1,1,2.42,2.42,0,0,0-.22.39c-.07.15.06.37.21.34a.94.94,0,0,0,.55-.28s0-.1,0-.15-.16-.11,0-.25l1.13-1.17c.26-.27.51-.55.76-.83s.1-.28-.08-.38a.35.35,0,0,0-.38,0,2.87,2.87,0,0,0-.25.16l-1,.81-.24.18,0,0a1.3,1.3,0,0,1,.08-.13l.63-.78a7.62,7.62,0,0,1,1.79-1.64,10.92,10.92,0,0,0,1.11-.85,1.45,1.45,0,0,0,.46-.62.65.65,0,0,0,0-.2.51.51,0,0,0-.2,0,1.76,1.76,0,0,0-.37.21c-.15.12-.29.26-.43.39l-1.18,1a2.66,2.66,0,0,1-1,.63l-.45.15-1.3.4a1.16,1.16,0,0,0-.37.14,1.56,1.56,0,0,1-.6.29l-1.86.43h-.15c.08-.12.13-.22.2-.3a11.34,11.34,0,0,1,2-1.91,2.74,2.74,0,0,1,1.25-.55,2.31,2.31,0,0,0,.55-.17A.22.22,0,0,0,24.6,26a.28.28,0,0,0-.28-.2,2.45,2.45,0,0,0-1.21.4,1,1,0,0,1-.4.16c-.25,0-.52,0-.77,0A3.67,3.67,0,0,1,20.75,26.24ZM25,31.61a.65.65,0,0,0,.75-.07l.36-.34c.2-.18.2-.18.44-.07a4.57,4.57,0,0,1,.59.32.38.38,0,0,0,.4.07.81.81,0,0,1,.54,0,1.25,1.25,0,0,0,.33,0l.86,0,2.37-.05a.55.55,0,0,0,.41-.18,8.66,8.66,0,0,0,1.16-1.48,1.63,1.63,0,0,1,.16-.2,1.78,1.78,0,0,0,.14-.16c.12-.18.22-.37.34-.55s.27-.31.61-.21h0a.17.17,0,0,1,.16.23,2.39,2.39,0,0,1-.22.59,5.54,5.54,0,0,1-.95,1.29,2.31,2.31,0,0,0-.3.35.8.8,0,0,0-.11.22c0,.13,0,.2.15.19a.53.53,0,0,0,.38-.23c.21-.26.42-.51.6-.78a23.32,23.32,0,0,1,2.63-3.28l.83-.85.44-.47c0-.05.05-.1,0-.14a.54.54,0,0,0-.66.1l-.74.88a9,9,0,0,1-1.39,1.46.71.71,0,0,0-.1.11c-.11.12-.19.11-.26,0s0-.14-.06-.2a1.17,1.17,0,0,0-.13-.31.21.21,0,0,1,0-.29,4.31,4.31,0,0,1,2-1.65l.16-.07c.08,0,.15-.11.12-.21a.23.23,0,0,0-.21-.19.75.75,0,0,0-.28,0c-.17.06-.33.14-.5.21a5.73,5.73,0,0,1-2.09.32l-.07,0a3.71,3.71,0,0,0,.06-.46.3.3,0,0,0-.1-.21.19.19,0,0,0-.25,0c-.12.1-.24.21-.35.32a.86.86,0,0,0-.23.42,1.85,1.85,0,0,1-.2.48.32.32,0,0,1-.21.14,1,1,0,0,0-.51.22.6.6,0,0,0-.27.55,1,1,0,0,1-.18.59,4.07,4.07,0,0,1-.41.52c-.43.45-.88.89-1.32,1.34a2.59,2.59,0,0,0-.25.28.67.67,0,0,0-.07.18l0,0a1.38,1.38,0,0,0,.18-.12,15.34,15.34,0,0,0,2-1.87c.13-.17.14-.16.34-.07l.62.22.23.08a1,1,0,0,1-.11.21,10,10,0,0,1-1.44,1.39,5.38,5.38,0,0,1-.95.6,5.55,5.55,0,0,1-2.45.43.43.43,0,0,1-.3-.09c-.07-.1,0-.23.1-.31s.38-.41.57-.61.42-.42.59-.66a2.39,2.39,0,0,0,.28-.54.44.44,0,0,0,0-.39.12.12,0,0,0-.19-.06l-.35.14-.33.15-.13.09c-.13.08-.18.05-.21-.09s0-.17,0-.26a.12.12,0,0,0-.16-.11.76.76,0,0,0-.51.29.56.56,0,0,0-.06.16c0,.09,0,.2-.09.26-.38.38-.77.75-1.16,1.12-.09.08-.15.06-.2-.05a.74.74,0,0,0-.07-.13s-.06,0-.09,0,0,.06,0,.09a.6.6,0,0,0,0,.19.43.43,0,0,1-.12.52l-.48.53A2,2,0,0,0,25,31.61ZM44,30l0,0-.05.15c0,.05,0,.1-.06.15s0,.3.21.31a1.06,1.06,0,0,0,.35-.05,3.17,3.17,0,0,0,1-.52q.48-.37.94-.76A3,3,0,0,1,48,28.5a6.44,6.44,0,0,0,.65-.14.12.12,0,0,0,.1-.16c0-.08-.07-.09-.14-.09l-.24,0c-.19,0-.38.05-.57.06s-.31,0-.31-.3a.25.25,0,0,0-.37-.26,2.6,2.6,0,0,0-.53.29c-.37.27-.72.57-1.07.86a5.62,5.62,0,0,1-1.53,1,2.35,2.35,0,0,0-.53.29,4.17,4.17,0,0,1-.65.34.84.84,0,0,1-.24,0l0,0a3.2,3.2,0,0,1,.23-.43,5.35,5.35,0,0,1,1.34-1.23.39.39,0,0,1,.37,0c.24.09.32,0,.41-.19a.59.59,0,0,0,0-.23c0-.32-.15-.42-.42-.28a4.05,4.05,0,0,0-.72.44c-.63.52-1.24,1.06-1.87,1.58-.26.22-.54.43-.82.63a.6.6,0,0,1-.22.05.63.63,0,0,1,.06-.2c.22-.29.44-.59.68-.86s.66-.7,1-1a.38.38,0,0,0,0-.55c-.12-.18-.24-.22-.42-.1a3.93,3.93,0,0,0-.33.25l-.37.3a.93.93,0,0,1-.14.08l0,0,.09-.23c.08-.23,0-.38-.26-.37a1.72,1.72,0,0,0-.38.07,3.42,3.42,0,0,1-.41.12c-.15,0-.23.07-.22.23s0,.13-.14.1-.15,0-.15.11a.21.21,0,0,1-.14.2.57.57,0,0,0-.16.12c-.07.07-.13.16-.21.23l-1.19,1.1c-.18.16-.37.31-.55.47a1.07,1.07,0,0,1-.18.1l0,0a1.3,1.3,0,0,1,.1-.18,8.5,8.5,0,0,1,.58-.7c.42-.42.87-.82,1.3-1.23a.12.12,0,0,0,0-.09.93.93,0,0,0,0-.25A.22.22,0,0,0,39,28.2a2,2,0,0,0-.17.19l-.45.45a.78.78,0,0,1-.2.09c0-.09,0-.15,0-.2s0-.13.05-.19c0-.22-.06-.34-.28-.34a1,1,0,0,0-.59.21,1.66,1.66,0,0,1-.21.15.21.21,0,0,1-.16,0,1.56,1.56,0,0,0-1.07,0s-.08.06-.12.09.09.07.14.07l.81,0,.26,0-.16.19c-.24.25-.48.5-.71.75q-.64.72-1.27,1.47a1.35,1.35,0,0,0-.2.37c0,.12,0,.21.15.22a.5.5,0,0,0,.2,0,2.41,2.41,0,0,0,.51-.22c.38-.25.74-.53,1.11-.8l.23-.16,0,0-.16.25c-.08.12-.17.24-.25.36s-.05.17.1.18a1,1,0,0,0,.88-.25,2.46,2.46,0,0,1,.25-.21l.56-.4,0-.05a2,2,0,0,1,.22-.27l1.23-1,.6-.48a.72.72,0,0,1,.14-.07l0,0c0,.06-.08.12-.13.17L39,30.3c-.19.2-.37.41-.54.62a.63.63,0,0,0-.11.21.17.17,0,0,0,0,.14s.09,0,.12,0a4.77,4.77,0,0,1,.43-.26,1,1,0,0,0,.35-.3,4.12,4.12,0,0,1,.46-.5c.72-.6,1.45-1.19,2.18-1.79l.11-.07,0,0c-.07.09-.14.2-.22.28-.41.44-.82.86-1.22,1.3a3.66,3.66,0,0,0-.45.63c-.12.21,0,.37.21.38a1.66,1.66,0,0,0,1.14-.36c.16-.13.15-.14.34,0l.22.1a.86.86,0,0,0,.7,0c.22-.1.44-.22.65-.34Z" fill="#fff"/>
    <path d="M22.73,34.13a.59.59,0,0,1,.14.07.45.45,0,0,0,.38.11l1.57-.15,2.27-.27.32,0a.37.37,0,0,0,.31-.18c.08-.12.15-.25.24-.37A3.05,3.05,0,0,1,30.16,32a9.48,9.48,0,0,1,1.31,0,1.76,1.76,0,0,1,1.16.52,1.28,1.28,0,0,1,.35.61.3.3,0,0,0,.32.27l1,0,2.09-.14c.77,0,1.54-.11,2.31-.13,1.14,0,2.29,0,3.44,0,2.2,0,4.41.08,6.61.12.44,0,.88,0,1.32-.05h0c.29-.05.37-.12.18-.38a1,1,0,0,1-.13-.79,4,4,0,0,1,.4-1.19c.1-.21.21-.42.3-.63s0-.26-.18-.25a.61.61,0,0,1-.21,0s-.08-.09-.12-.13a.6.6,0,0,1,.12-.09,1.6,1.6,0,0,0,.37-.13c.26-.19.51-.41.76-.63a.62.62,0,0,0,.09-.13l0,0a.83.83,0,0,0-.22.07c-.31.21-.62.41-.9.65s-.81.73-1.22,1.09c-.06.05-.11.17-.23.09a.36.36,0,0,1-.16-.4c.05-.1.12-.19.18-.29a.18.18,0,0,0,0-.12l-.23.12c-.36.21-.71.44-1.07.64a5.64,5.64,0,0,1-.61.26s-.07,0-.09,0a2.77,2.77,0,0,1-.27-.31.18.18,0,0,1,0-.16A4,4,0,0,1,48.08,29c.41-.28.8-.6,1.2-.89a7.08,7.08,0,0,1,.61-.41.63.63,0,0,1,.3-.07.31.31,0,0,1,.31.27.38.38,0,0,0,.06.15c.07.09,0,.15,0,.21a.75.75,0,0,1-.5.11.6.6,0,0,0-.43.11A10.67,10.67,0,0,0,47.82,30a1.93,1.93,0,0,0-.14.19l0,0a.93.93,0,0,0,.18,0c.3-.15.61-.3.9-.46a8.26,8.26,0,0,1,.88-.45,3.26,3.26,0,0,0,.8-.5c.7-.59,1.39-1.2,2.08-1.8q.4-.35.82-.67a3.4,3.4,0,0,1,1.18-.61.62.62,0,0,1,.52.12.16.16,0,0,1,0,.25,1.33,1.33,0,0,1-.25.27c-.3.23-.62.44-.92.66-.47.34-.94.69-1.42,1a5.43,5.43,0,0,1-.57.3l-.09.06v.05l.33,0c.1,0,.2,0,.27.07a.23.23,0,0,1,0,.29,1.52,1.52,0,0,1-.29.33c-.25.18-.51.34-.77.51l-.16.09c-.06,0-.07.09,0,.13a.22.22,0,0,1,.07.28,4.7,4.7,0,0,1-.16.45,2.57,2.57,0,0,0-.05,2,1.32,1.32,0,0,0,.08.17.13.13,0,0,0,.18.06,5.7,5.7,0,0,1,1.47-.34l2.07-.31a3.81,3.81,0,0,1,1.79.23,3.92,3.92,0,0,1,1.07.54L58,33a.72.72,0,0,1,.18.93,2.28,2.28,0,0,1-1.38,1.24,3.52,3.52,0,0,1-1.9.19c-.26,0-.52-.12-.78-.18a1.06,1.06,0,0,0-.2,0c-.36,0-.69-.16-1-.19a2.34,2.34,0,0,1-1.32-.67l-.8-.68a.35.35,0,0,1-.1-.19c0-.11-.07-.15-.17-.12l-.36.11-1.23.46a.4.4,0,0,1-.36,0l.44-.33v0q-3.31-.14-6.63-.12l0,0a1.57,1.57,0,0,0,.14.18.17.17,0,0,1,0,.23,1,1,0,0,1-.74.58l-.17,0a15.36,15.36,0,0,1-2.46.64c-.62.14-1.24.29-1.86.41-.31.06-.63.07-.94.14a22.83,22.83,0,0,1-4.54.36c-.65,0-1.3,0-1.95.07a11.46,11.46,0,0,0-1.7.35,12.85,12.85,0,0,1-1.53.24,4.67,4.67,0,0,1-.87-.08l-.33,0a3.18,3.18,0,0,1-2.07-1.12h0c-.1-.23-.27-.22-.48-.2-.83.09-1.67.16-2.5.23l-1.1.08a1.51,1.51,0,0,1-.31,0c-.16,0-.23-.17-.13-.29a.65.65,0,0,1,.32-.22c.55-.12,1.1-.23,1.65-.33l1.59-.25C22.55,34.42,22.74,34.41,22.73,34.13Zm7.85,1.58v0l.22,0c1.08,0,2.16,0,3.23-.09A20.29,20.29,0,0,0,37,35.28c1.33-.3,2.67-.56,4-1l.81-.29s.11-.08.11-.11-.06-.09-.11-.12a.71.71,0,0,0-.22-.08c-.58-.09-1.15-.21-1.73-.24a23.31,23.31,0,0,0-3.06.13c-.69,0-1.37.13-2.05.19l-1.12.08a1.33,1.33,0,0,1-.43,0,.19.19,0,0,0-.25.09l-.58.72a2,2,0,0,1-.7.53l-.8.38ZM55.65,35l.75-.05a1.55,1.55,0,0,0,1.36-1.12c.14-.47.15-.46-.3-.65s-.91-.36-1.38-.52a2.28,2.28,0,0,0-.61-.13,12.78,12.78,0,0,0-3.18.31c-.26.05-.51.13-.77.19-.08,0-.1.07-.06.13a.73.73,0,0,0,.18.22l1.07.7c.11.07.26.07.33.21l0,0a5,5,0,0,1,.52.21A4.16,4.16,0,0,0,55.65,35Zm-26.39.93a1.53,1.53,0,0,1-.26-.17.41.41,0,0,0-.3-.13h-.29c-.18,0-.21,0-.29-.2s-.17-.33-.25-.5-.14-.17-.05-.24.17,0,.23.1.1.15.16.22.14.11.21,0l.47-.58a.44.44,0,0,0,0-.11.57.57,0,0,0-.48.05.18.18,0,0,1-.09,0c-.12,0-.25,0-.37,0L24.4,35c-.23,0-.46.05-.69.08s-.21.09-.12.23a1.46,1.46,0,0,0,.22.28,3.21,3.21,0,0,0,2,.82,7.63,7.63,0,0,0,2.54-.23ZM31.88,34h0l-.6,0a1.46,1.46,0,0,0-1,.37c-.32.32-.63.66-.93,1-.09.1-.07.16.07.19a1.2,1.2,0,0,0,.72,0,7.43,7.43,0,0,0,1.59-.83,3.16,3.16,0,0,0,.51-.52c.09-.1,0-.17-.09-.18Zm-1.3-1.87h-.21a3.66,3.66,0,0,0-1.06.31l0,0-.48.41c-.18.16-.37.31-.54.48a1.09,1.09,0,0,0-.19.28c-.06.11,0,.16.1.17h.11l1-.09a.68.68,0,0,0,.56-.33l.71-1.1S30.55,32.23,30.59,32.16ZM31,33.58v0h.26l.95-.06c.24,0,.32,0,.31-.37a.75.75,0,0,0-.1-.28c0-.09-.11-.17-.15-.26-.12-.25-.26-.26-.43,0l-.61.71Zm-3.43.64v-.06a.57.57,0,0,0-.15-.06h-.26l-1.71.23-1.62.22c-.18,0-.36,0-.54.08s-.08.08-.12.12.1.07.14.07a6.47,6.47,0,0,0,.76,0l2.82-.44Zm-8.29,1v.05a1.73,1.73,0,0,0,.29,0c.79-.05,1.58-.11,2.36-.18a7.75,7.75,0,0,0,.87-.16s.08-.06.12-.09a.93.93,0,0,0-.15-.11.24.24,0,0,0-.12,0c-.41,0-.83.06-1.24.12s-1.12.18-1.67.27Zm11-1.54c.18,0,.32,0,.41-.2a2.2,2.2,0,0,1,.18-.25c.19-.25.38-.49.56-.75s.07-.25-.13-.29a.18.18,0,0,0-.2.1c-.1.15-.19.3-.3.45s-.4.51-.6.77c0,0-.06.11,0,.13S30.25,33.64,30.28,33.65Zm-.19.51c-.34,0-.47,0-.63.15s-.5.56-.76.85a.15.15,0,0,0,0,.24c.09.08.17.09.25,0Z"/>
    <path d="M20.75,26.24a3.67,3.67,0,0,0,1.19.15c.26,0,.52,0,.77,0a1,1,0,0,0,.4-.16,2.45,2.45,0,0,1,1.21-.4.28.28,0,0,1,.28.2.22.22,0,0,1-.15.28,2.31,2.31,0,0,1-.55.17,2.74,2.74,0,0,0-1.25.55,11.34,11.34,0,0,0-2,1.91c-.07.08-.12.17-.2.3h.15l1.86-.43a1.56,1.56,0,0,0,.6-.29,1.16,1.16,0,0,1,.37-.14l1.3-.4.45-.15a2.66,2.66,0,0,0,1-.63l1.18-1c.15-.13.28-.27.43-.39a1.76,1.76,0,0,1,.37-.21.51.51,0,0,1,.2,0,.65.65,0,0,1,0,.2,1.45,1.45,0,0,1-.46.62,10.92,10.92,0,0,1-1.11.85A7.62,7.62,0,0,0,25,28.84l-.63.78a1.3,1.3,0,0,0-.08.13l0,0,.24-.18,1-.81a2.87,2.87,0,0,1,.25-.16.35.35,0,0,1,.38,0c.18.1.22.23.08.38s-.5.56-.76.83L24.38,31c-.13.14-.13.14,0,.25s.07.1,0,.15a.94.94,0,0,1-.55.28c-.15,0-.28-.19-.21-.34a2.42,2.42,0,0,1,.22-.39,6,6,0,0,1,1-1c.28-.25.54-.53.8-.81a.33.33,0,0,0,.09-.16l-.1.07-1.7,1.36c-.14.11-.3.2-.44.3a2,2,0,0,0-.56.59,2,2,0,0,1-.68.69.7.7,0,0,1-.35,0,.16.16,0,0,1-.11-.12.58.58,0,0,1,.08-.28,3.75,3.75,0,0,1,.36-.44c.32-.34.64-.68,1-1,.11-.11.13-.18.05-.31a.64.64,0,0,1-.07-.54.79.79,0,0,1,.14-.2.47.47,0,0,0,.08-.12c0-.07,0-.13-.1-.11A1,1,0,0,0,23,29a2.38,2.38,0,0,0-.41.34c-.56.62-1.11,1.24-1.66,1.87a2.06,2.06,0,0,0-.17.25l0,0,.09-.06c.34-.32.69-.64,1-1a6.27,6.27,0,0,0,.49-.63c.05-.07.08-.17.14-.24s.12-.14.17-.13a.41.41,0,0,1,.21.13c.07.06,0,.14,0,.2l-.22.27c-.5.55-1,1.08-1.49,1.63a2,2,0,0,1-1.26.62.27.27,0,0,1-.21-.06s0-.15,0-.2a4,4,0,0,1,.31-.47,16.82,16.82,0,0,1,2-2.13l.23-.19s.05-.08,0-.1a.12.12,0,0,0-.1,0,3.94,3.94,0,0,0-.47.07l-1.61.39a.29.29,0,0,0-.13.09,3.89,3.89,0,0,0-.28.33,34.2,34.2,0,0,1-5.38,5.65,13.06,13.06,0,0,1-2.49,1.64,1.45,1.45,0,0,0-.22.18,4,4,0,0,1-.39.31c-.86.54-1.71,1.09-2.6,1.59a5,5,0,0,1-2,.7l-.41,0a1.18,1.18,0,0,1-1-.47A.52.52,0,0,1,5.08,39a5.14,5.14,0,0,1,.52-.72A14.84,14.84,0,0,1,8,36c.18-.13.35-.29.53-.42.71-.51,1.39-1.06,2.1-1.56.37-.26.76-.49,1.15-.73.62-.39,1.24-.8,1.88-1.16s1.58-.87,2.38-1.3l.55-.3a2.51,2.51,0,0,0,.25-.1,2.43,2.43,0,0,0,.5-.37,26.1,26.1,0,0,0,2-2.48c.25-.36.48-.74.71-1.11a.89.89,0,0,0,.15-.53.28.28,0,0,1,.22-.31c.19,0,.3,0,.3.23S20.75,26.12,20.75,26.24ZM18.86,30l0,0-.17,0-.71.27a3.33,3.33,0,0,0-1.12.64.83.83,0,0,1-.18.12l-.13,0a3.56,3.56,0,0,0-.43.1,5,5,0,0,0-.66.29c-.49.27-1,.54-1.46.84s-1,.68-1.48,1c-.85.5-1.65,1.06-2.46,1.62a1.56,1.56,0,0,0-.32.26.51.51,0,0,1-.31.17.57.57,0,0,0-.41.3.45.45,0,0,1-.14.16c-.23.15-.47.28-.69.44-.54.41-1.07.84-1.61,1.25a1.71,1.71,0,0,0-.46.53,2,2,0,0,1-.25.3s-.07.06-.09.1a3.47,3.47,0,0,0-.22.62.48.48,0,0,0,.55.53A7.14,7.14,0,0,0,8,39a12.2,12.2,0,0,0,2.06-1.22,18.68,18.68,0,0,1,1.73-1.26,2.36,2.36,0,0,0,.45-.35,3.86,3.86,0,0,1,1-.67,1.8,1.8,0,0,0,.66-.52c.1-.13.21-.25.32-.37a.28.28,0,0,1,.16-.09c.1,0,.13-.07.18-.13a1.26,1.26,0,0,1,.26-.25c.11-.07.25-.11.37-.17s.11-.1.11-.14a.29.29,0,0,1,.1-.24l.31-.31,1-1A3.33,3.33,0,0,0,17,32a1,1,0,0,1,.13-.17,15.58,15.58,0,0,0,1.67-1.65A.63.63,0,0,0,18.86,30Zm-1.07,0,0,.06.32-.12.17-.08.63-.17c.08,0,.17,0,.24-.06a.85.85,0,0,0,.29-.14c.41-.4.8-.81,1.22-1.2s1.13-1,1.7-1.52l.11-.11h-.09l-1.8.08a.49.49,0,0,0-.39.25c-.08.11-.15.23-.23.34a31,31,0,0,1-2,2.47Zm7.35-1.85,0-.05a1.16,1.16,0,0,0-.23,0l-1.24.55a.17.17,0,0,0-.11.17c0,.27-.05.54-.08.81a.86.86,0,0,0,0,.15A15.81,15.81,0,0,0,25.14,28.16Z"/>
    <path d="M25,31.61a2,2,0,0,1,.14-.2l.48-.53a.43.43,0,0,0,.12-.52.6.6,0,0,1,0-.19s0-.06,0-.09.07,0,.09,0a.74.74,0,0,1,.07.13c.06.11.12.13.2.05.39-.37.78-.74,1.16-1.12.06-.06.06-.17.09-.26a.56.56,0,0,1,.06-.16.76.76,0,0,1,.51-.29.12.12,0,0,1,.16.11c0,.09,0,.17,0,.26s.08.17.21.09l.13-.09.33-.15.35-.14a.12.12,0,0,1,.19.06.44.44,0,0,1,0,.39,2.39,2.39,0,0,1-.28.54c-.18.23-.39.44-.59.66s-.39.4-.57.61-.17.21-.1.31a.43.43,0,0,0,.3.09,5.55,5.55,0,0,0,2.45-.43,5.38,5.38,0,0,0,.95-.6A10,10,0,0,0,33,28.81a1,1,0,0,0,.11-.21l-.23-.08-.62-.22c-.21-.08-.21-.09-.34.07a15.34,15.34,0,0,1-2,1.87,1.38,1.38,0,0,1-.18.12l0,0a.67.67,0,0,1,.07-.18,2.59,2.59,0,0,1,.25-.28c.44-.45.88-.88,1.32-1.34a4.07,4.07,0,0,0,.41-.52,1,1,0,0,0,.18-.59.6.6,0,0,1,.27-.55,1,1,0,0,1,.51-.22.32.32,0,0,0,.21-.14,1.85,1.85,0,0,0,.2-.48.86.86,0,0,1,.23-.42c.11-.11.23-.22.35-.32a.19.19,0,0,1,.25,0,.3.3,0,0,1,.1.21,3.71,3.71,0,0,1-.06.46l.07,0a5.73,5.73,0,0,0,2.09-.32c.17-.07.33-.15.5-.21a.75.75,0,0,1,.28,0,.23.23,0,0,1,.21.19c0,.1,0,.16-.12.21l-.16.07a4.31,4.31,0,0,0-2,1.65.21.21,0,0,0,0,.29,1.17,1.17,0,0,1,.13.31c0,.07,0,.14.06.2s.15.16.26,0a.71.71,0,0,1,.1-.11,9,9,0,0,0,1.39-1.46l.74-.88a.54.54,0,0,1,.66-.1c.07,0,.06.09,0,.14l-.44.47-.83.85a23.32,23.32,0,0,0-2.63,3.28c-.18.27-.39.53-.6.78a.53.53,0,0,1-.38.23c-.14,0-.2-.06-.15-.19a.8.8,0,0,1,.11-.22,2.31,2.31,0,0,1,.3-.35,5.54,5.54,0,0,0,.95-1.29,2.39,2.39,0,0,0,.22-.59.17.17,0,0,0-.16-.23h0c-.34-.09-.41-.08-.61.21s-.22.37-.34.55a1.78,1.78,0,0,1-.14.16,1.63,1.63,0,0,0-.16.2,8.66,8.66,0,0,1-1.16,1.48.55.55,0,0,1-.41.18l-2.37.05-.86,0a1.25,1.25,0,0,1-.33,0,.81.81,0,0,0-.54,0,.38.38,0,0,1-.4-.07,4.57,4.57,0,0,0-.59-.32c-.24-.12-.24-.12-.44.07l-.36.34A.65.65,0,0,1,25,31.61Zm7.3-3.75a.25.25,0,0,0,.16.25l.76.33a.1.1,0,0,0,.09,0l.57-.64a.16.16,0,0,0,0-.26,1.32,1.32,0,0,0-.86-.35.4.4,0,0,0-.25.1,4.25,4.25,0,0,0-.38.43A.74.74,0,0,0,32.34,27.87ZM27,31a1,1,0,0,0,.16-.11l.88-1,.7-.76A.6.6,0,0,0,28.9,29c0-.08,0-.12-.1-.09a1.13,1.13,0,0,0-.22.12c-.46.33-.93.65-1.38,1a7.75,7.75,0,0,0-.65.61s-.09.12,0,.16Zm8.45-4.84,0,0h-.12a6.85,6.85,0,0,1-1.38.12.92.92,0,0,0-.68.34c-.1.11-.09.16.06.21l.7.22a.79.79,0,0,1,.26.16c.08.08.14.08.22,0l.68-.68C35.31,26.43,35.39,26.31,35.49,26.2Zm-.86,2.16c0-.16-.06-.27-.14-.26s-.19.16-.18.24.13.16.22.16S34.63,28.42,34.63,28.36Z"/>
    <path d="M44,30l-.54.32c-.21.12-.43.24-.65.34a.86.86,0,0,1-.7,0l-.22-.1c-.19-.09-.18-.08-.34,0a1.66,1.66,0,0,1-1.14.36c-.24,0-.33-.18-.21-.38a3.66,3.66,0,0,1,.45-.63c.4-.44.82-.87,1.22-1.3.08-.09.15-.19.22-.28l0,0-.11.07c-.73.59-1.46,1.18-2.18,1.79a4.12,4.12,0,0,0-.46.5,1,1,0,0,1-.35.3,4.77,4.77,0,0,0-.43.26s-.11,0-.12,0a.17.17,0,0,1,0-.14.63.63,0,0,1,.11-.21c.18-.21.36-.42.54-.62l1.5-1.6c0-.05.09-.11.13-.17l0,0a.72.72,0,0,0-.14.07l-.6.48-1.23,1a2,2,0,0,0-.22.27l0,.05-.56.4a2.46,2.46,0,0,0-.25.21,1,1,0,0,1-.88.25c-.15,0-.17-.06-.1-.18s.17-.24.25-.36l.16-.25,0,0-.23.16c-.37.27-.73.55-1.11.8a2.41,2.41,0,0,1-.51.22.5.5,0,0,1-.2,0c-.13,0-.2-.1-.15-.22a1.35,1.35,0,0,1,.2-.37q.62-.74,1.27-1.47c.23-.26.48-.5.71-.75l.16-.19-.26,0-.81,0s-.09,0-.14-.07.07-.08.12-.09a1.56,1.56,0,0,1,1.07,0,.21.21,0,0,0,.16,0,1.66,1.66,0,0,0,.21-.15A1,1,0,0,1,38,28.2c.23,0,.32.11.28.34,0,.06,0,.13-.05.19s0,.11,0,.2a.78.78,0,0,0,.2-.09l.45-.45A2,2,0,0,1,39,28.2a.22.22,0,0,1,.35.09.93.93,0,0,1,0,.25.12.12,0,0,1,0,.09c-.43.41-.88.81-1.3,1.23a8.5,8.5,0,0,0-.58.7,1.3,1.3,0,0,0-.1.18l0,0a1.07,1.07,0,0,0,.18-.1c.19-.15.38-.3.55-.47l1.19-1.1c.08-.07.13-.16.21-.23a.57.57,0,0,1,.16-.12.21.21,0,0,0,.14-.2c0-.1,0-.15.15-.11s.14,0,.14-.1.06-.21.22-.23a3.42,3.42,0,0,0,.41-.12,1.72,1.72,0,0,1,.38-.07c.24,0,.34.15.26.37l-.09.23,0,0a.93.93,0,0,0,.14-.08l.37-.3a3.93,3.93,0,0,1,.33-.25c.18-.12.3-.09.42.1a.38.38,0,0,1,0,.55c-.32.35-.66.69-1,1s-.46.57-.68.86a.63.63,0,0,0-.06.2.6.6,0,0,0,.22-.05c.28-.2.55-.41.82-.63.63-.52,1.24-1.07,1.87-1.58a4.05,4.05,0,0,1,.72-.44c.27-.14.4,0,.42.28a.59.59,0,0,1,0,.23c-.09.24-.17.28-.41.19a.39.39,0,0,0-.37,0A5.35,5.35,0,0,0,42.73,30a3.2,3.2,0,0,0-.23.43l0,0a.84.84,0,0,0,.24,0,4.17,4.17,0,0,0,.65-.34,2.35,2.35,0,0,1,.53-.29,5.62,5.62,0,0,0,1.53-1c.36-.29.71-.58,1.07-.86a2.6,2.6,0,0,1,.53-.29.25.25,0,0,1,.37.26c0,.26,0,.31.31.3s.38,0,.57-.06l.24,0c.07,0,.12,0,.14.09a.12.12,0,0,1-.1.16,6.44,6.44,0,0,1-.65.14,3,3,0,0,0-1.58.8q-.46.4-.94.76a3.17,3.17,0,0,1-1,.52,1.06,1.06,0,0,1-.35.05c-.19,0-.26-.13-.21-.31s0-.1.06-.15L44,30Zm-8.22.93,0,0,.16-.09c.3-.22.61-.43.9-.65a7.79,7.79,0,0,0,.68-.61,1,1,0,0,0,.29-.55c0-.14,0-.21-.18-.16a1.76,1.76,0,0,0-.33.17,5.28,5.28,0,0,0-1.5,1.7A.63.63,0,0,0,35.78,30.92Zm8.81-.81,0,0a.51.51,0,0,0,.31-.13,8.29,8.29,0,0,0,1.47-1.32.8.8,0,0,0,.09-.17.7.7,0,0,0-.19.09c-.17.16-.33.34-.51.5s-.65.53-1,.8Z"/>
    <path d="M30.58,35.72l.24-.14.8-.38a2,2,0,0,0,.7-.53l.58-.72a.19.19,0,0,1,.25-.09,1.33,1.33,0,0,0,.43,0l1.12-.08c.68-.06,1.37-.14,2.05-.19a23.31,23.31,0,0,1,3.06-.13c.58,0,1.15.16,1.73.24a.71.71,0,0,1,.22.08s.11.07.11.12-.06.09-.11.11L41,34.3c-1.3.43-2.64.68-4,1a20.29,20.29,0,0,1-2.94.39c-1.07.08-2.16.07-3.23.09l-.22,0Z" fill="#fff"/>
    <path d="M55.65,35a4.16,4.16,0,0,1-2.05-.49,5,5,0,0,0-.52-.21l0,0c-.06-.14-.22-.14-.33-.21l-1.07-.7a.73.73,0,0,1-.18-.22c0-.06,0-.11.06-.13.26-.06.51-.14.77-.19a12.78,12.78,0,0,1,3.18-.31,2.28,2.28,0,0,1,.61.13c.46.16.93.32,1.38.52s.43.19.3.65a1.55,1.55,0,0,1-1.36,1.12Z" fill="#fff"/>
    <path d="M29.26,35.91l-.94.26a7.63,7.63,0,0,1-2.54.23,3.21,3.21,0,0,1-2-.82,1.46,1.46,0,0,1-.22-.28c-.09-.14,0-.21.12-.23s.46,0,.69-.08L28,34.42c.12,0,.25,0,.37,0a.18.18,0,0,0,.09,0,.57.57,0,0,1,.48-.05.44.44,0,0,1,0,.11l-.47.58c-.08.09-.15.07-.21,0s-.1-.16-.16-.22-.15-.16-.23-.1,0,.16.05.24.18.33.25.5.11.2.29.2h.29a.41.41,0,0,1,.3.13A1.53,1.53,0,0,0,29.26,35.91Z" fill="#fff"/>
    <path d="M31.88,34h.26c.13,0,.17.08.09.18a3.16,3.16,0,0,1-.51.52,7.43,7.43,0,0,1-1.59.83,1.2,1.2,0,0,1-.72,0c-.13,0-.16-.09-.07-.19.31-.33.62-.66.93-1a1.46,1.46,0,0,1,1-.37l.6,0Z" fill="#fff"/>
    <path d="M30.59,32.16c0,.07-.05.12-.08.16l-.71,1.1a.68.68,0,0,1-.56.33l-1,.09h-.11c-.12,0-.16-.06-.1-.17a1.09,1.09,0,0,1,.19-.28c.17-.17.36-.32.54-.48l.48-.41,0,0a3.66,3.66,0,0,1,1.06-.31Z" fill="#fff"/>
    <path d="M31,33.58l.23-.27.61-.71c.18-.21.32-.2.43,0,0,.09.11.17.15.26a.75.75,0,0,1,.1.28c0,.32-.07.35-.31.37l-.95.06H31Z" fill="#fff"/>
    <path d="M27.57,34.22l-.67.13-2.82.44a6.47,6.47,0,0,1-.76,0s-.1,0-.14-.07.07-.11.12-.12.36-.06.54-.08l1.62-.22,1.71-.23h.26a.57.57,0,0,1,.15.06Z" fill="#fff"/>
    <path d="M19.28,35.19l.46-.08c.56-.09,1.11-.19,1.67-.27s.83-.08,1.24-.12a.24.24,0,0,1,.12,0,.93.93,0,0,1,.15.11s-.07.08-.12.09a7.75,7.75,0,0,1-.87.16c-.79.07-1.58.12-2.36.18a1.73,1.73,0,0,1-.29,0Z" fill="#fff"/>
    <path d="M30.28,33.65s-.09,0-.12-.06,0-.09,0-.13c.2-.26.41-.51.6-.77s.2-.3.3-.45a.18.18,0,0,1,.2-.1c.19,0,.24.13.13.29s-.37.5-.56.75a2.2,2.2,0,0,0-.18.25C30.6,33.6,30.46,33.63,30.28,33.65Z" fill="#fff"/>
    <path d="M30.09,34.16,29,35.39c-.08.09-.16.08-.25,0a.15.15,0,0,1,0-.24c.25-.28.5-.57.76-.85S29.74,34.12,30.09,34.16Z" fill="#fff"/>
    <path d="M18.86,30a.63.63,0,0,1-.06.11,15.58,15.58,0,0,1-1.67,1.65A1,1,0,0,0,17,32a3.33,3.33,0,0,1-.26.32l-1,1-.31.31a.29.29,0,0,0-.1.24s-.06.12-.11.14-.26.1-.37.17a1.26,1.26,0,0,0-.26.25c-.05.06-.09.12-.18.13a.28.28,0,0,0-.16.09c-.11.12-.22.24-.32.37a1.8,1.8,0,0,1-.66.52,3.86,3.86,0,0,0-1,.67,2.36,2.36,0,0,1-.45.35,18.68,18.68,0,0,0-1.73,1.26A12.2,12.2,0,0,1,8,39a7.14,7.14,0,0,1-1.93.58.48.48,0,0,1-.55-.53,3.47,3.47,0,0,1,.22-.62s.06-.07.09-.1a2,2,0,0,0,.25-.3,1.71,1.71,0,0,1,.46-.53c.54-.41,1.07-.84,1.61-1.25.22-.16.46-.29.69-.44A.45.45,0,0,0,9,35.67a.57.57,0,0,1,.41-.3.51.51,0,0,0,.31-.17,1.56,1.56,0,0,1,.32-.26c.81-.56,1.61-1.12,2.46-1.62.51-.3,1-.67,1.48-1s1-.57,1.46-.84a5,5,0,0,1,.66-.29,3.56,3.56,0,0,1,.43-.1l.13,0a.83.83,0,0,0,.18-.12A3.33,3.33,0,0,1,18,30.31l.71-.27.17,0Z" fill="#fff"/>
    <path d="M17.79,30,18,29.8a31,31,0,0,0,2-2.47c.08-.11.15-.23.23-.34a.49.49,0,0,1,.39-.25l1.8-.08h.09l-.11.11c-.57.51-1.15,1-1.7,1.52s-.81.81-1.22,1.2a.85.85,0,0,1-.29.14c-.08,0-.16,0-.24.06l-.63.17-.17.08-.32.12Z" fill="#fff"/>
    <path d="M25.14,28.16a15.81,15.81,0,0,1-1.66,1.67.86.86,0,0,1,0-.15c0-.27.06-.54.08-.81a.17.17,0,0,1,.11-.17l1.24-.55a1.16,1.16,0,0,1,.23,0Z" fill="#fff"/>
    <path d="M32.34,27.87a.74.74,0,0,1,.08-.16,4.25,4.25,0,0,1,.38-.43.4.4,0,0,1,.25-.1,1.32,1.32,0,0,1,.86.35.16.16,0,0,1,0,.26l-.57.64a.1.1,0,0,1-.09,0l-.76-.33A.25.25,0,0,1,32.34,27.87Z" fill="#fff"/>
    <path d="M27,31l-.49-.22c-.09,0,0-.12,0-.16A7.75,7.75,0,0,1,27.2,30c.45-.34.92-.67,1.38-1a1.13,1.13,0,0,1,.22-.12c.08,0,.13,0,.1.09a.6.6,0,0,1-.12.19l-.7.76-.88,1A1,1,0,0,1,27,31Z" fill="#fff"/>
    <path d="M35.49,26.2c-.09.11-.18.23-.28.33l-.68.68c-.08.08-.13.08-.22,0a.79.79,0,0,0-.26-.16l-.7-.22c-.14,0-.16-.1-.06-.21a.92.92,0,0,1,.68-.34,6.85,6.85,0,0,0,1.38-.12h.12Z" fill="#fff"/>
    <path d="M34.63,28.36c0,.06,0,.13-.1.14s-.22-.09-.22-.16.12-.24.18-.24S34.63,28.2,34.63,28.36Z" fill="#fff"/>
    <path d="M35.78,30.92a.63.63,0,0,1,0-.15,5.28,5.28,0,0,1,1.5-1.7,1.76,1.76,0,0,1,.33-.17c.13-.05.2,0,.18.16a1,1,0,0,1-.29.55,7.79,7.79,0,0,1-.68.61c-.29.23-.6.44-.9.65l-.16.09Z" fill="#fff"/>
    <path d="M44.59,30.12l.23-.21c.32-.27.66-.52,1-.8s.34-.33.51-.5a.7.7,0,0,1,.19-.09.8.8,0,0,1-.09.17A8.29,8.29,0,0,1,44.92,30a.51.51,0,0,1-.31.13Z" fill="#fff"/>
  </g>
</svg>
