<svg id="Layer_1" data-name="Layer 1" xmlns="http://www.w3.org/2000/svg" viewBox="0 0 300 300">
  <title>skirt</title>
  <g>
    <path id="node1" d="M88.43,19.15c-1.4,2.8-2.2,8.3-1.6,10.8s2.5,3.2,18.9,6.7c10.2,2.1,13.4,2.3,43,2.3,29,0,33.1-.2,44-2.3,6.6-1.2,13.7-2.7,15.8-3.2,3.6-1.1,3.7-1.2,3.7-6,0-8.6-2.7-11.6-8.5-9.4-1.4.6-1.1.9,1.3,1.9,6.2,2.7,4.6,11.5-2.2,11.5-1.8,0-3.8-.6-4.4-1.3-2.4-2.9-1.3-9.6,1.6-9.8.9,0,1.2-.3.6-.5s-7.6.5-15.5,1.6c-27.3,4-50.9,3.5-83.4-1.6-3.9-.6-4-.6-1.7,1,4.4,3.4,1.7,10.6-4,10.6-6.3,0-7.8-8.2-2-11.1,2.5-1.3,2.9-1.8,1.6-2.3C92.63,16.95,89.33,17.45,88.43,19.15Zm26.5,6.1c1.6,2.8,1.7,2.8,3.5,1,3.8-3.8,10.8-1,10.8,4.4,0,2.5-3.6,5.8-6.2,5.8s-6.8-3.6-6.9-5.9c0-1.1-.4-.9-1.1.7-2.3,4.6-10.1,3.7-11.4-1.3C101.93,23.25,111.53,19.25,114.93,25.25Zm79.3-.9c3.6,6.9-3.6,13.5-9,8.1-2.4-2.4-2.5-4.8-.4-7.8S192.73,21.55,194.23,24.35Zm-13,3.3c3.6,6.5-5.3,12.1-9.9,6.2-1.3-1.6-2.1-2.1-2.1-1.2,0,2.3-4.6,6-7.1,5.6a9,9,0,0,1-4.3-3.1c-1.9-2.6-1.9-3-.5-5.5,2-3.6,8.1-4.4,10.1-1.3,1.4,2.3,2.8,2.7,2.8.9a6.68,6.68,0,0,1,1.7-3C174.43,23.45,179.23,24.25,181.23,27.65Zm-39.8,1.3c2.7,6-3.3,11.6-8.6,8.1-2.8-1.8-3.4-5.2-1.6-8.7.8-1.4,2.1-1.9,5.1-1.9C139.63,26.45,140.43,26.85,141.43,28.95Zm12.6-1.3c2.1,2.1,1.5,7.5-1,9.2-3.1,2.2-5.4,2-7.8-.6s-2.6-5.5-.3-8C146.73,26.25,152.23,25.85,154,27.65Z" fill="#0c0c0c"/>
    <path id="node2" d="M83.33,50.55c-2.4,7.7-4,14.3-3.7,14.6s3.4.6,6.7.5c7.3-.2,13.6-3.3,20.4-10,5.3-5.2,10.2-13,8.9-14.2-.9-.8-23.2-5-26.4-5C88,36.45,86.43,40.35,83.33,50.55Z" fill="#0c0c0c"/>
    <path id="node3" d="M195.33,38.55c-5.7,1-11,2-11.7,2.3-1,.4-.5,2,1.9,6.1,7.2,12.6,16,18.5,27.8,18.5,6.3,0,7.1-.2,6.6-1.8-.3-.9-2.3-7.4-4.4-14.4C211.13,34.35,213,35.35,195.33,38.55Z" fill="#0c0c0c"/>
    <path id="node4" d="M117.23,46.85c-4.9,8.7-11,14.8-18.6,18.6-5.8,2.9-7.9,3.4-13.9,3.5-6.6,0-7,.1-7.3,2.4s-.3,2.3,8,1.9c6.4-.3,9.6-1,14.1-3,7.7-3.6,16.3-12.4,20.5-20.9,3.6-7.6,3.7-7.9,1.8-7.9C121,41.45,118.93,43.85,117.23,46.85Z" fill="#0c0c0c"/>
    <path id="node5" d="M126.73,42.45c-.3.5-2.4,4.5-4.5,8.8-4.8,9.6-14.1,19-22.7,22.9-4.9,2.3-7.1,2.7-14.1,2.6-5.5-.1-8.5.3-8.7,1.1-.2.6-1.2,7.6-2.1,15.6-3,25.2-3,137.4,0,153.6.2,1.1.7,6.3,1.1,11.6l.7,9.7,7.6,2.5c20.7,6.7,36.5,9.9,55.2,11.1l10.5.7-4-2.7c-5.9-4-14.4-12.5-16.5-16.5l-1.8-3.5,2.9-4.5c3.3-5,14.4-15.7,17.1-16.6,5.4-1.7,23.8,15,23.8,21.7,0,2.3-10.3,14-15.8,18l-5.7,4.1,11.5-.6c16.9-1,40.1-5.9,54.5-11.5l7-2.7,1.1-13.5c5.3-63.4,5-136.1-.6-170.4-.5-3.3-1-6.4-1-6.9s-2.2-.6-4.9-.2c-9.3,1.2-21.6-3.3-29.4-10.7-5.3-5-12.3-15.5-13.9-20.9l-1.1-3.8h-22.8C136.13,41.45,127.13,41.85,126.73,42.45Zm27.6,32.3c7.7,4.7,16.9,15.2,16.9,19.1,0,4.1-11.2,16.5-18.7,20.8-2.9,1.7-3,1.6-7.4-1.2-10.1-6.7-17.7-16.6-16.5-21.4,1.5-5.9,15.8-19.6,20.5-19.6C150,72.45,152.33,73.45,154.33,74.75Zm-47.9,34.7c5.6,3.7,12.3,10.8,14.5,15.4,1.6,3.4,1.6,3.6-1.2,7.8-3.4,5.2-11.3,12.9-16,15.4-3,1.6-3.7,1.6-6.2.3-4.2-2.2-14.6-12.3-17-16.7l-2.2-3.9,2.8-4.4c5-7.8,15.1-16.7,19.2-16.8C101.13,106.45,103.93,107.85,106.43,109.45Zm98.9,2.3c6.3,4.7,13.7,13,14.5,16.4,1,3.9-9.7,16.5-18.4,21.5-2.9,1.7-3,1.7-7.6-1.3-5.5-3.7-15.4-14.4-16.2-17.5-.7-2.8,3.2-9.6,8.3-14.6,4.4-4.1,11.1-8.8,12.7-8.8C199.23,107.45,202.23,109.35,205.33,111.75Zm-49.8,19.7c5.8,3.8,15.7,15.2,15.7,18.1,0,2.3-8.6,13.2-12.9,16.3-8.3,6-8.6,6.1-13.4,2.7-7.6-5.3-16.7-15.9-16.7-19.5,0-3.4,16.7-20.7,20.8-21.5C149.23,127.45,152.13,129.25,155.53,131.45Zm-49,34.3c6,3.9,12,10.3,14.4,15.2,1.5,3.1,1.5,3.6.1,5.7-2.9,4.4-11.5,13.3-16.1,16.5l-4.5,3.3-4.3-3.2A52.24,52.24,0,0,1,82,189.65l-3.9-5.3,3-4.7c4.5-7,15.6-17.1,18.9-17.2C100.73,162.45,103.63,163.95,106.53,165.75Zm96.8-.5c5.2,3.4,15.7,14.7,16.5,17.8,1,4-10.5,17.7-18.2,21.7-2.7,1.4-3.2,1.4-6.4-.6-9.5-5.9-18-15.5-18-20.2s16-21.3,20.6-21.5C198.33,162.45,200.83,163.75,203.33,165.25ZM157,187.85c5.7,4.2,14.2,14,14.2,16.3,0,4.6-11.5,17.7-18.5,21-3.4,1.6-3.7,1.6-7.3-.2-4.8-2.6-13.6-11.5-15.7-15.9-2.2-4.6-1.5-7.1,3.5-13.5,4.2-5.3,13.3-12.1,16.1-12.1C150.23,183.45,153.73,185.45,157,187.85Zm45.4,31.8c9.8,6.7,17.8,15.4,17.8,19.4,0,3.7-9.5,14.6-17.3,19.8l-3.9,2.5-4.1-2.1c-2.3-1.1-7-4.9-10.4-8.4-9.1-9.3-9.3-13.2-.9-22.6,3.2-3.5,12.8-10.8,14.3-10.8C198.63,217.45,200.63,218.45,202.43,219.65Zm-96.9,2.1c5.8,3.8,12.7,10.8,15.1,15.5,1.2,2.3,1.3,3.7.6,5.7-1.5,3.8-12.8,15.3-17.4,17.7l-3.8,2-5.4-3.8c-5.1-3.4-11-9.7-14.7-15.4-1.5-2.4-1.5-2.7,1.4-7.3a57,57,0,0,1,14.9-15.3,39.46,39.46,0,0,1,3.8-2.3C100.23,218.45,102.63,219.95,105.53,221.75Z" fill="#0c0c0c"/>
    <path id="node6" d="M145.23,77.15c-7.8,5.1-14.5,14.1-13.5,18,.7,3,9.5,12.5,14.2,15.4,2.7,1.7,3.9,1.9,5.6,1.1,3.4-1.5,11-8.6,14.2-13.1,2.3-3.4,2.6-4.5,1.8-6.4-2.8-5.8-14.7-16.8-18.2-16.6A9.78,9.78,0,0,0,145.23,77.15Zm8.4,8.4,3.8,8-3.2,7.4c-1.8,4.2-3.7,7.2-4.4,6.9-1.6-.6-7.6-11.9-7.6-14.3,0-1.1,1.1-4.6,2.5-7.7a33.4,33.4,0,0,0,2.5-7C147.23,75.25,150.13,78.25,153.63,85.55Z" fill="#0c0c0c"/>
    <path id="node7" d="M95.63,112.25c-4.7,3.4-11.1,10.4-12.6,13.7-.8,1.9-.7,3,1,5.7,3.5,5.5,13.9,14.8,16.8,14.8,1.7,0,14-11.6,16.4-15.5,2-3.3,2.1-3.5.3-6.2-4-6.3-14.1-15.3-17.1-15.3C99.93,109.45,97.73,110.75,95.63,112.25Zm7.5,7.6,4.3,8.3-3.7,7.3c-2.8,5.5-3.9,7-4.6,5.9-.5-.8-2.6-4.2-4.5-7.6l-3.6-6.3,3.3-8c1.8-4.4,3.6-8,4-8S100.83,115.25,103.13,119.85Z" fill="#0c0c0c"/>
    <path id="node8" d="M193.53,113.85c-5.1,3.5-13.3,12.8-13.3,15s7.2,10.8,12.4,15.1c3.7,3,5.1,3.6,7.3,3,3.1-.7,15.7-13.2,16.8-16.4,1.1-3.6-8.4-14.8-16.2-18.9C198.73,110.65,197.73,110.95,193.53,113.85Zm9.8,7,4,8.4-3.6,7.1c-2,3.9-3.7,7.1-3.9,7.1a56.5,56.5,0,0,1-4.6-7.1l-4.2-7.1,2.8-7.2c2.6-6.7,4.1-9.6,5.1-9.6C199.13,112.45,201.13,116.25,203.33,120.85Z" fill="#0c0c0c"/>
    <path id="node9" d="M143.63,134.75c-6.1,5.1-12.4,12.6-12.4,14.8s7.1,10.2,13.3,15l4.9,3.9,4.2-3c5.6-3.8,14.6-13.7,14.6-15.9,0-3.2-16.1-19.3-19.1-19.1A48.16,48.16,0,0,0,143.63,134.75Zm10.4,7.9,4.1,8.1-3.5,6.9c-1.9,3.7-3.8,6.8-4.2,6.8s-2.4-3-4.6-6.7l-3.9-6.6,1.8-5.1c.9-2.8,2.2-6.6,2.9-8.4s1.6-3.2,2.2-3.2S151.73,138.15,154,142.65Z" fill="#0c0c0c"/>
    <path id="node10" d="M94.83,169.25c-7.5,5.6-13,12.6-12.2,15.4,1.1,4.3,14.9,17.8,18.2,17.8,1.7,0,12.1-9.6,15.5-14.4,2.6-3.5,2.7-4,1.5-6.5-2.6-4.9-14.6-16.1-17.3-16.1C100.13,165.45,97.53,167.15,94.83,169.25Zm9.5,8.5,4.1,8.2-3.2,6.8c-1.7,3.7-3.5,6.7-3.9,6.7-.8,0-3.4-3.7-7.5-10.3-1.7-2.8-1.7-3.1,1.5-11.3,1.9-4.6,3.7-8.4,4.1-8.4S102.13,173.15,104.33,177.75Z" fill="#0c0c0c"/>
    <path id="node11" d="M194,167.95c-4.9,3.2-11.4,10.1-12.8,13.5-.9,2.2-.8,3.4.4,5.8,1.9,3.6,10.2,12,14.3,14.4,2.9,1.7,3,1.6,7.8-2,5.6-4.3,13.5-13.5,13.5-15.9,0-1.9-16.4-18.3-18.2-18.2C198.33,165.55,196,166.65,194,167.95Zm8.7,23.5c-2,3.9-3.9,6.8-4.4,6.6s-2.5-3.4-4.6-6.8l-3.8-6.3,2.3-6.5a48.4,48.4,0,0,1,3.8-8.9c1.5-2.5,1.5-2.4,5.9,6.2l4.3,8.7Z" fill="#0c0c0c"/>
    <path id="node12" d="M143,189.95c-5,3.7-11.7,12-11.8,14.5,0,4,10.4,15.7,16.1,18,2.7,1.2,3.3.9,8.6-3.1,5.5-4.3,12.2-12.2,12.3-14.5.1-3.5-15.6-18.4-19.2-18.4C148.33,186.45,145.63,188,143,189.95Zm11.3,6.7,4.1,8.2-3.3,6.8c-1.8,3.8-3.7,6.7-4.3,6.5s-2.7-3.2-4.9-6.6l-4-6.3,1.8-5.2c3.1-8.7,4.5-11.6,5.5-11.6C149.73,188.45,152,192.15,154.33,196.65Z" fill="#0c0c0c"/>
    <path id="node13" d="M188.23,228.35c-5.8,5.6-8,8.5-8,10.3,0,5.7,14.6,19.6,19.3,18.4,4.5-1.1,17.7-14.6,17.7-18.1,0-3.8-15.4-18.5-19.4-18.5C196.93,220.45,192.63,223.95,188.23,228.35Zm13.9,2.3,4.3,8.3-2.9,6c-4.2,9-4.2,8.9-6.2,6.3-.9-1.3-3-4.5-4.5-7.2l-2.8-4.8,3.2-8.4c1.8-4.6,3.6-8.4,4-8.4S199.83,226.15,202.13,230.65Z" fill="#0c0c0c"/>
    <path id="node14" d="M90.13,230.35c-4.3,4.4-7.9,8.8-7.9,9.8,0,2.4,7.4,11.3,13.2,15.8l4.7,3.7,3.4-2.1c3.8-2.3,12.8-11.5,14.6-14.9,1.1-2.1.8-2.9-2.9-7.7-4.7-6.1-12.5-12.5-15.2-12.5C98.93,222.45,94.53,226,90.13,230.35Zm13.6,1.4c1.9,4.1,3.5,8.1,3.5,9.1,0,2-5.7,13.6-6.8,13.6-.9,0-8.2-12.8-8.2-14.5,0-2.1,6.5-15.5,7.6-15.5C100,224.45,101.83,227.75,103.73,231.75Z" fill="#0c0c0c"/>
    <path id="node15" d="M176.23,42.55c0,.6,1.7,4.3,3.7,8.3,7.6,14.5,19.8,22.6,34.3,22.6,6.8,0,7-.1,7-2.5s-.2-2.5-7.2-2.5c-5.9,0-8.3-.5-12.6-2.7-6.7-3.4-15.4-12-19.4-19C179.33,41.95,176.23,39.75,176.23,42.55Z" fill="#0c0c0c"/>
    <path id="node16" d="M142.53,246.25c-7.5,6.3-11.7,12.3-10.8,15.3,1.1,3.3,15,16.9,17.4,16.9,2.7,0,12.4-8.2,16.2-13.6,2.9-4.2,3-4.8,1.8-7.2-2.6-5.1-15-16.2-18.1-16.2C148.63,241.45,145.73,243.65,142.53,246.25Zm11.7,4.6,4.3,8.3-2.6,5.4c-4.7,9.8-4.6,9.8-9.5,1.9l-4.3-7,3.2-8.5c1.7-4.7,3.5-8.5,3.9-8.5S151.93,246.25,154.23,250.85Z" fill="#0c0c0c"/>
  </g>
  <g>
    <path id="node18" d="M105.45,24.73a6.56,6.56,0,0,0-1,5c1.3,5,9.1,5.9,11.4,1.3.7-1.6,1.1-1.8,1.1-.7.1,2.3,4.4,5.9,6.9,5.9s6.2-3.3,6.2-5.8c0-5.4-7-8.2-10.8-4.4-1.8,1.8-1.9,1.8-3.5-1A6.12,6.12,0,0,0,105.45,24.73Z" fill="#a2a2a2"/>
    <path id="node19" d="M185.65,24.43c-2.1,3-2,5.4.4,7.8,5.4,5.4,12.6-1.2,9-8.1C193.55,21.33,187.65,21.53,185.65,24.43Z" fill="#a2a2a2"/>
    <path id="node20" d="M172.75,26a6.68,6.68,0,0,0-1.7,3c0,1.8-1.4,1.4-2.8-.9-2-3.1-8.1-2.3-10.1,1.3-1.4,2.5-1.4,2.9.5,5.5A9,9,0,0,0,163,38c2.5.4,7.1-3.3,7.1-5.6,0-.9.8-.4,2.1,1.2,2.9,3.6,7.7,3.3,9.9-.7,1.3-2.4,1.3-3,0-5.5C180.05,24,175.25,23.23,172.75,26Z" fill="#a2a2a2"/>
    <path id="node21" d="M132,28.13c-1.8,3.5-1.2,6.9,1.6,8.7,5.3,3.5,11.3-2.1,8.6-8.1-1-2.1-1.8-2.5-5.1-2.5C134.15,26.23,132.85,26.73,132,28.13Z" fill="#a2a2a2"/>
    <path id="node22" d="M145.75,28c-2.3,2.5-2.1,5.4.3,8s4.7,2.8,7.8.6c2.5-1.7,3.1-7.1,1-9.2C153.05,25.63,147.55,26,145.75,28Z" fill="#a2a2a2"/>
    <path id="node23" d="M143.45,75.53c-5.6,3.9-13.1,12.5-14,16.3-1.2,4.8,6.4,14.7,16.5,21.4,4.4,2.8,4.5,2.9,7.4,1.2,7.5-4.3,18.7-16.7,18.7-20.8,0-3.9-9.2-14.4-16.9-19.1C150.35,71.53,149.15,71.63,143.45,75.53Zm12.3,2.6c4.4,3.2,10.9,10.4,12.6,13.8.8,1.9.5,3-1.8,6.4-3.2,4.5-10.8,11.6-14.2,13.1-2.8,1.4-7.2-1.3-14.1-8.6-6.7-7.1-7.2-9.3-3.4-14.8,4.5-6.5,11.9-12.6,15.3-12.7C151.05,75.23,153.55,76.53,155.75,78.13Z" fill="#a2a2a2"/>
    <path id="node24" d="M148.05,78.63a33.4,33.4,0,0,1-2.5,7c-1.4,3.1-2.5,6.6-2.5,7.7,0,2.4,6,13.7,7.6,14.3.7.3,2.6-2.7,4.4-6.9l3.2-7.4-3.8-8C151,78,148.05,75,148.05,78.63Z" fill="#a2a2a2"/>
    <path id="node25" d="M95.85,108.73a54.63,54.63,0,0,0-13.9,14.4l-2.8,4.4,2.2,3.9c2.4,4.4,12.8,14.5,17,16.7,2.5,1.3,3.2,1.3,6.2-.3,4.7-2.5,12.6-10.2,16-15.4,2.8-4.2,2.8-4.4,1.2-7.8-3.3-6.8-16.4-18.5-20.6-18.3C100.25,106.33,97.95,107.43,95.85,108.73Zm10.5,3.4a45.67,45.67,0,0,1,12,12.4c1.8,2.7,1.7,2.9-.3,6.2-2.4,3.9-14.7,15.5-16.4,15.5-2.9,0-13.3-9.3-16.8-14.8-1.7-2.7-1.8-3.8-1-5.7,2.3-4.9,14.5-16.5,17.4-16.5C101.75,109.23,104,110.53,106.35,112.13Z" fill="#a2a2a2"/>
    <path id="node26" d="M95.15,119.23l-3.3,8,3.6,6.3c1.9,3.4,4,6.8,4.5,7.6.7,1.1,1.8-.4,4.6-5.9l3.7-7.3-4.3-8.3c-2.3-4.6-4.5-8.4-4.8-8.4S96.95,114.83,95.15,119.23Z" fill="#a2a2a2"/>
    <path id="node27" d="M194.45,109.83c-9.2,6.1-17.1,16.4-16,20.8.8,3.1,10.7,13.8,16.2,17.5,4.6,3,4.7,3,7.6,1.3,8.7-5,19.4-17.6,18.4-21.5-1.2-4.9-17.4-20.7-21.2-20.7C198.85,107.23,196.55,108.43,194.45,109.83Zm12.9,5.8c5.9,4.7,11,12.1,10.2,14.7-1.1,3.2-13.7,15.7-16.8,16.4-2.2.6-3.6,0-7.3-3-5.2-4.3-12.4-13-12.4-15.1s8.2-11.5,13.3-15C199.85,109.83,200.25,109.93,207.35,115.63Z" fill="#a2a2a2"/>
    <path id="node28" d="M198.35,113.43a69.46,69.46,0,0,0-3.7,8.4l-2.8,7.2,4.2,7.1a56.5,56.5,0,0,0,4.6,7.1c.2,0,1.9-3.2,3.9-7.1l3.6-7.1-4-8.4c-2.2-4.6-4.2-8.4-4.4-8.4S198.85,112.83,198.35,113.43Z" fill="#a2a2a2"/>
    <path id="node29" d="M145.95,129.73c-5.3,3.5-16.9,16.6-16.9,19.1,0,3.6,9.1,14.2,16.7,19.5,4.8,3.4,5.1,3.3,13.4-2.7,4.3-3.1,12.9-14,12.9-16.3,0-2.9-9.9-14.3-15.7-18.1-3.4-2.2-6.3-4-6.5-3.9A37.11,37.11,0,0,0,145.95,129.73Zm7.7,2.6c4.5,2.8,15.4,14.8,15.4,17s-9,12.1-14.6,15.9l-4.2,3-4.9-3.9c-6.2-4.8-13.3-12.9-13.3-15s6.3-9.7,12.4-14.8a48.16,48.16,0,0,1,5.5-4.3A20.92,20.92,0,0,1,153.65,132.33Z" fill="#a2a2a2"/>
    <path id="node30" d="M147.45,137.43c-.7,1.8-2,5.6-2.9,8.4l-1.8,5.1,3.9,6.6c2.2,3.7,4.2,6.7,4.6,6.7s2.3-3.1,4.2-6.8l3.5-6.9-4.1-8.1c-2.3-4.5-4.6-8.2-5.2-8.2S148.05,135.73,147.45,137.43Z" fill="#a2a2a2"/>
    <path id="node31" d="M96.55,164.43c-5.2,3.7-11.5,10.1-14.6,15l-3,4.7,3.9,5.3A52.24,52.24,0,0,0,96.95,203l4.3,3.2,4.5-3.3c4.6-3.2,13.2-12.1,16.1-16.5,1.4-2.1,1.4-2.6-.1-5.7-2.4-4.9-8.4-11.3-14.4-15.2S100.55,161.63,96.55,164.43Zm8.8,3c4.3,3,11.6,10.7,13.3,13.9,1.2,2.5,1.1,3-1.5,6.5-3.4,4.8-13.8,14.4-15.5,14.4-3.3,0-17.1-13.5-18.2-17.8-.5-1.7.3-3.5,3.3-7,3.9-4.6,13-12.2,14.6-12.2A13.73,13.73,0,0,1,105.35,167.43Z" fill="#a2a2a2"/>
    <path id="node32" d="M96.15,177.63c-3.2,8.2-3.2,8.5-1.5,11.3,4.1,6.6,6.7,10.3,7.5,10.3.4,0,2.2-3,3.9-6.7l3.2-6.8-4.1-8.2c-2.2-4.6-4.4-8.3-4.9-8.3S98,173,96.15,177.63Z" fill="#a2a2a2"/>
    <path id="node33" d="M192.25,166.13c-6.1,4.4-14.2,14.4-14.2,17.6,0,4.7,8.5,14.3,18,20.2,3.2,2,3.7,2,6.4.6,7.7-4,19.2-17.7,18.2-21.7-1.2-5-18.1-20.7-22-20.6C198.05,162.23,195.15,164,192.25,166.13Zm17.3,7.4c4.7,4.6,8.5,9.1,8.5,10,0,2.4-7.9,11.6-13.5,15.9-4.8,3.6-4.9,3.7-7.8,2-4.1-2.4-12.4-10.8-14.3-14.4-1.2-2.4-1.3-3.6-.4-5.8,2.1-5.1,14-15.8,17.8-15.9C200.55,165.23,205,169,209.55,173.53Z" fill="#a2a2a2"/>
    <path id="node34" d="M196.85,169.33a48.4,48.4,0,0,0-3.8,8.9l-2.3,6.5,3.8,6.3c2.1,3.4,4.1,6.5,4.6,6.8s2.4-2.7,4.4-6.6l3.5-7-4.3-8.7C198.35,166.93,198.35,166.83,196.85,169.33Z" fill="#a2a2a2"/>
    <path id="node35" d="M143.25,186.73c-5.6,3.8-12.8,12.2-13.8,16.1-.4,1.4.1,3.9,1.1,6,2.1,4.4,10.9,13.3,15.7,15.9,3.6,1.8,3.9,1.8,7.3.2,7-3.3,18.5-16.4,18.5-21,0-4.1-17.6-20.7-21.9-20.7C149.25,183.23,146.15,184.83,143.25,186.73Zm12.4,2.7c4.7,3.4,13.4,13.2,13.4,15.2-.1,2.3-6.8,10.2-12.3,14.5-5.3,4-5.9,4.3-8.6,3.1-5.7-2.3-16.1-14-16.1-18s13.8-17.9,17.8-18C150.65,186.23,153.25,187.63,155.65,189.43Z" fill="#a2a2a2"/>
    <path id="node36" d="M147.75,191.43c-.8,1.8-2.2,5.6-3.2,8.4l-1.8,5.2,4,6.3c2.2,3.4,4.4,6.4,4.9,6.6s2.5-2.7,4.3-6.5l3.3-6.8-4.1-8.2c-2.3-4.5-4.6-8.2-5.1-8.2S148.45,189.73,147.75,191.43Z" fill="#a2a2a2"/>
    <path id="node37" d="M192.25,221.33c-10.1,7.6-14.7,14.2-13.8,19.5.9,4.3,11,15.1,17.3,18.2l4.1,2.1,3.9-2.5c7.8-5.2,17.3-16.1,17.3-19.8,0-2.4-6.5-11-10.8-14.2-6.3-4.9-10.2-7.4-11.5-7.4C198.05,217.23,195.15,219,192.25,221.33Zm12.9,2.5c5.1,3.7,12.9,12.8,12.9,14.9,0,3.5-13.2,17-17.7,18.1-4.7,1.2-19.3-12.7-19.3-18.4,0-1.8,2.2-4.7,8-10.3,4.4-4.4,8.7-7.9,9.6-7.9S202.45,221.83,205.15,223.83Z" fill="#a2a2a2"/>
    <path id="node38" d="M194.05,230.63l-3.2,8.4,2.8,4.8c1.5,2.7,3.6,5.9,4.5,7.2,2,2.6,2,2.7,6.2-6.3l2.9-6-4.3-8.3c-2.3-4.5-4.5-8.2-4.9-8.2S195.85,226,194.05,230.63Z" fill="#a2a2a2"/>
    <path id="node39" d="M97,220.63a57,57,0,0,0-14.9,15.3c-2.9,4.6-2.9,4.9-1.4,7.3,3.7,5.7,9.6,12,14.7,15.4l5.4,3.8,3.8-2c4.6-2.4,15.9-13.9,17.4-17.7,1.2-3.3-.5-6.9-6.3-13.3-3.4-3.7-13.7-11.4-14.9-11.1A39.46,39.46,0,0,0,97,220.63Zm10.3,5.2a61.32,61.32,0,0,1,8.7,8.9c3.7,4.8,4,5.6,2.9,7.7-1.8,3.4-10.8,12.6-14.6,14.9l-3.4,2.1-4.7-3.7c-5.8-4.5-13.2-13.4-13.2-15.8s15.4-17.7,17.8-17.7C101.85,222.23,104.75,223.83,107.35,225.83Z" fill="#a2a2a2"/>
    <path id="node40" d="M99.35,225.43c-1.8,3-6.3,13.1-6.3,14.3,0,1.7,7.3,14.5,8.2,14.5,1.1,0,6.8-11.6,6.8-13.6,0-1.8-6.6-16.4-7.4-16.4C100.35,224.23,99.85,224.83,99.35,225.43Z" fill="#a2a2a2"/>
    <path id="node41" d="M146.15,250.73l-3.2,8.5,4.3,7c4.9,7.9,4.8,7.9,9.5-1.9l2.6-5.4-4.3-8.3c-2.3-4.6-4.5-8.4-5-8.4S147.85,246,146.15,250.73Z" fill="#a2a2a2"/>
  </g>
</svg>
