<svg xmlns="http://www.w3.org/2000/svg" viewBox="0 0 64 64">
  <title>snow</title>
  <g id="snow">
    <g>
      <path d="M52.12,34.5A9.88,9.88,0,1,0,51,14.81a11.95,11.95,0,0,0-22.82,3.85,7.93,7.93,0,0,0,.59,15.84Z" fill="#c2d7e1"/>
      <path d="M40,45.78a12,12,0,1,0-1.39-23.92,14.52,14.52,0,0,0-27.73,4.67,9.63,9.63,0,0,0,.71,19.24Z" fill="#ccdde7"/>
      <polygon points="12.08 52.24 14.56 50.81 13.89 49.65 11.41 51.08 11.41 48.21 10.06 48.21 10.06 51.08 7.58 49.65 6.91 50.81 9.39 52.24 6.91 53.68 7.58 54.84 10.06 53.41 10.06 56.28 11.41 56.28 11.41 53.41 13.89 54.84 14.56 53.68 12.08 52.24" fill="#60c9dd"/>
      <polygon points="26.83 52.24 29.31 50.81 28.64 49.65 26.16 51.08 26.16 48.21 24.81 48.21 24.81 51.08 22.33 49.65 21.66 50.81 24.14 52.24 21.66 53.68 22.33 54.84 24.81 53.41 24.81 56.28 26.16 56.28 26.16 53.41 28.64 54.84 29.32 53.68 26.83 52.24" fill="#60c9dd"/>
      <polygon points="41.58 52.24 44.06 50.81 43.39 49.65 40.91 51.08 40.91 48.21 39.56 48.21 39.56 51.08 37.08 49.65 36.41 50.81 38.89 52.24 36.41 53.68 37.08 54.84 39.56 53.41 39.56 56.28 40.91 56.28 40.91 53.41 43.39 54.84 44.06 53.68 41.58 52.24" fill="#60c9dd"/>
    </g>
  </g>
</svg>
