<svg xmlns="http://www.w3.org/2000/svg" viewBox="0 0 60 48.68">
  <title>snow</title>
  <g id="Layer_2" data-name="Layer 2">
    <g id="snow">
      <g>
        <path d="M50.12,26.78A9.88,9.88,0,1,0,49,7.09a11.95,11.95,0,0,0-22.82,3.85,7.93,7.93,0,0,0,.59,15.84Z" fill="#c2d7e1"/>
        <path d="M38,38.06a12,12,0,1,0-1.39-23.92A14.52,14.52,0,0,0,8.92,18.82a9.63,9.63,0,0,0,.71,19.24Z" fill="#ccdde7"/>
        <polygon points="10.08 44.52 12.56 43.09 11.89 41.92 9.41 43.36 9.41 40.49 8.06 40.49 8.06 43.36 5.58 41.92 4.91 43.09 7.39 44.52 4.91 45.96 5.58 47.12 8.06 45.69 8.06 48.55 9.41 48.55 9.41 45.69 11.89 47.12 12.56 45.96 10.08 44.52" fill="#d1eae1" stroke="#a7a9ac" stroke-miterlimit="10" stroke-width="0.25"/>
        <polygon points="24.83 44.52 27.31 43.09 26.64 41.92 24.16 43.36 24.16 40.49 22.81 40.49 22.81 43.36 20.33 41.92 19.66 43.09 22.14 44.52 19.66 45.96 20.33 47.12 22.81 45.69 22.81 48.55 24.16 48.55 24.16 45.69 26.64 47.12 27.32 45.96 24.83 44.52" fill="#d1eae1" stroke="#a7a9ac" stroke-miterlimit="10" stroke-width="0.25"/>
        <polygon points="39.58 44.52 42.06 43.09 41.39 41.92 38.91 43.36 38.91 40.49 37.56 40.49 37.56 43.36 35.08 41.92 34.41 43.09 36.89 44.52 34.41 45.96 35.08 47.12 37.56 45.69 37.56 48.55 38.91 48.55 38.91 45.69 41.39 47.12 42.06 45.96 39.58 44.52" fill="#d1eae1" stroke="#a7a9ac" stroke-miterlimit="10" stroke-width="0.25"/>
      </g>
    </g>
  </g>
</svg>
