<svg xmlns="http://www.w3.org/2000/svg" viewBox="0 0 44.02 60.35">
  <title>sports-coat</title>
  <g id="Layer_2" data-name="Layer 2">
    <g id="sports-coat">
      <g>
        <path d="M20.5,42.69h0s0,0,0-.07h0Z" fill="none"/>
        <path d="M30.94,41.78h.53l-.67,0h.13Z" fill="none"/>
        <path d="M30.75,41.78h0Z" fill="none"/>
        <path d="M34.55,41.27h0l-.1,0h0Z" fill="none"/>
        <path d="M20.94,47.08v0Z" fill="none"/>
        <path d="M30.56,41.79h0Z" fill="none"/>
        <path d="M31.62,41.74h0Z" fill="none"/>
        <path d="M20.51,43h0v0Z" fill="none"/>
        <path d="M31.82,41.73h0Z" fill="none"/>
        <path d="M20.51,42.36h0v0h0Z" fill="none"/>
        <path d="M29.25,41.8h0l0,.61h.63c-.36,0-.58,0-.63,0v0h0Z" fill="none"/>
        <path d="M33.68,41.5h0l-.15,0h0Z" fill="none"/>
        <path d="M30,41.79h0Z" fill="none"/>
        <path d="M30.38,41.79h0Z" fill="none"/>
        <path d="M30.21,41.79h0Z" fill="none"/>
        <path d="M34.68,41.21h0l-.1,0h0Z" fill="none"/>
        <path d="M21.67,38.07h0l.05-.09h0Z" fill="none"/>
        <path d="M20.55,44.09v0Z" fill="none"/>
        <path d="M33.31,41.56h0l-.14,0h0Z" fill="none"/>
        <path d="M33.12,41.59h0l-.15,0h0Z" fill="none"/>
        <path d="M20,43.72v0Z" fill="none"/>
        <path d="M20.72,45.73v0Z" fill="none"/>
        <path d="M20.66,45.31v0Z" fill="none"/>
        <path d="M33.49,41.53h0l-.14,0h0Z" fill="none"/>
        <path d="M21,39.11h0Z" fill="none"/>
        <path d="M22.65,36.37l-.15.26h0Z" fill="none"/>
        <path d="M32.23,41.7h0Z" fill="none"/>
        <path d="M32,41.71h0Z" fill="none"/>
        <path d="M32.43,41.68h.06l.25,0H33l-.72.08h.18Z" fill="none"/>
        <path d="M21.11,39h0Z" fill="none"/>
        <path d="M33.85,41.46h0l.25-.06.06,0,.09,0h0l-.6.14h.06Z" fill="none"/>
        <path d="M21.27,38.72l0,0Z" fill="none"/>
        <path d="M34.41,41.31h0l-.11,0h0Z" fill="none"/>
        <path d="M21.48,38.38h0l0-.08,0,0Z" fill="none"/>
        <path d="M21.35,38.59v0l0,0h0Z" fill="none"/>
        <path d="M22.42,36.77l.06-.11h0Z" fill="none"/>
        <path d="M22.1,37.34h0l.25-.43h0Z" fill="none"/>
        <path d="M21.41,38.5h0l0-.05h0Z" fill="none"/>
        <path d="M22.36,36.87l.06-.1-.06.1Z" fill="none"/>
        <path d="M21.76,37.92h0l.09-.15,0,0Z" fill="none"/>
        <path d="M21.87,37.73v0l.09-.15h0Z" fill="none"/>
        <path d="M34.8,41.16h0l-.09,0h0Z" fill="none"/>
        <path d="M13.5,60a13.55,13.55,0,0,0,1.6-.1,13.68,13.68,0,0,1-1.6.1Z" fill="none"/>
        <path d="M21.59,38.2l0,0,.05-.09h0Z" fill="none"/>
        <path d="M22,37.53h0l.08-.14h0Z" fill="none"/>
        <path d="M29.81,41.8h0Z" fill="none"/>
        <circle cx="20.8" cy="39.32" fill="none"/>
        <path d="M21.15,38.89h0v0h0Z" fill="none"/>
        <path d="M21,39.06h0Z" fill="none"/>
        <circle cx="20.9" cy="39.22" transform="translate(-22.37 29.09) rotate(-48.77)" fill="none"/>
        <path d="M35,40.77c0,.09,0,.18,0,.27l-.19.11,0,0,.06,0,.08,0,0,0h0v-.26h0Z" fill="none"/>
        <path d="M21.2,38.82h0l0,0h0Z" fill="none"/>
        <path d="M29.25,41.08v.37h0Z" fill="none"/>
        <path d="M35,41.06l0,0h0Z" fill="#f9c7a5"/>
        <path d="M8.88,44.56v0Z" fill="#f9c7a5"/>
        <path d="M30.38,41.79h0Z" fill="#f9c7a5"/>
        <path d="M8.89,44.29v0Z" fill="#f9c7a5"/>
        <path d="M30,41.71h0Z" fill="#f9c7a5"/>
        <path d="M30.21,41.71h0Z" fill="#f9c7a5"/>
        <path d="M8.91,43.84v0Z" fill="#f9c7a5"/>
        <path d="M8.9,44v0Z" fill="#f9c7a5"/>
        <circle cx="22.06" cy="39.8" r="0.53" fill="#f9c7a5"/>
        <path d="M35.7,21.25a55.27,55.27,0,0,0,0,10.9.51.51,0,0,1,0,.09,25.36,25.36,0,0,0,.38,2.68,28,28,0,0,1,.45,3.27c0,.15,0,.36,0,.6a54.36,54.36,0,0,0,.32,7.4,72.21,72.21,0,0,1,.2,8.43c0,1.16,0,2.12,0,2.71a7.86,7.86,0,0,0,6.36,0c-.07-1.67-.24-7.82-.15-10.59.08-2.49.33-10.87,0-14.37-.14-1.54-.22-3-.33-5.09-.12-2.4-.28-5.39-.61-9.93C42.05,13.69,41.1,9,38.11,7c-.55,1.49-1.45,7.69-2.05,11.87C35.93,19.73,35.81,20.55,35.7,21.25Zm6.94,34.89a.57.57,0,1,1-.57.57A.57.57,0,0,1,42.65,56.14Z" fill="#f9c7a5"/>
        <path d="M8.9,44.13v0Z" fill="#f9c7a5"/>
        <circle cx="42.87" cy="56.38" r="0.33" fill="#f9c7a5"/>
        <path d="M37.28,57.28v.08c.06.86,1.64,1.16,3.1,1.16h.26c2-.09,2.69-.61,2.88-.82a.43.43,0,0,0,.13-.3s0-.07,0-.14a8.66,8.66,0,0,1-3.27.65A7.68,7.68,0,0,1,37.28,57.28Z" fill="#f9c7a5"/>
        <path d="M6,7.42a11,11,0,0,0-2.32,3.71c-1.17,2.44-1.23,7.48-1.23,7.53,0,.48-.15,3.09-.32,6.12-.22,3.78-.51,8.95-.46,9.28s-.12,3.88-.41,8.88c-.1,1.74-.18,3.25-.22,4S1,49.11,1,50.48c0,2.32,0,5-.2,6.37a6.39,6.39,0,0,0,0,.76A9.15,9.15,0,0,0,7,57.37v-.16c-.09-1.16-.25-3.1-.25-3.77,0-.5.14-1.68.31-3.05s.32-2.65.42-3.85c.12-1.49.52-4.34.87-6.86.24-1.76.45-3.28.54-4.09.2-1.89.5-5.14.52-5.39s-.59-6.95-.59-9.1C8.81,18.65,7.42,8.93,6,7.42ZM1.49,57.58A.57.57,0,1,1,2.06,57,.57.57,0,0,1,1.49,57.58Z" fill="#f9c7a5"/>
        <path d="M30.56,41.79h0Z" fill="#f9c7a5"/>
        <path d="M8.87,44.68v0Z" fill="#f9c7a5"/>
        <path d="M21.41,38.5l0,0Z" fill="#f9c7a5"/>
        <path d="M8.87,44.79v0Z" fill="#f9c7a5"/>
        <path d="M21.35,38.59v0Z" fill="#f9c7a5"/>
        <path d="M30.75,41.78h0Z" fill="#f9c7a5"/>
        <path d="M21.2,38.82h0Z" fill="#f9c7a5"/>
        <path d="M30.94,41.78h0Z" fill="#f9c7a5"/>
        <path d="M31.42,41.75h0Z" fill="#f9c7a5"/>
        <path d="M31.21,41.76h0Z" fill="#f9c7a5"/>
        <path d="M26.92,2.79c0-.82,0-1.41,0-1.65l-.07,0a17,17,0,0,0-5.1-.74c-2.38,0-4,.42-4.16.65a16.55,16.55,0,0,0-.28,1.76A20.24,20.24,0,0,1,26.92,2.79Z" fill="#dbc0ad"/>
        <path d="M13.33,6.7l1.81,1.2-.56,0a3.87,3.87,0,0,0-1,.17l-.25.12c-.05,0-.08.08-.08.11.38,8,4.55,16.74,7.07,21.37-1.17-3.8-3.3-12-3.61-17.7A49.23,49.23,0,0,1,17,1.74a9.07,9.07,0,0,1-2.31,1.89A11,11,0,0,0,13.33,6.7Z" fill="#f9c7a5"/>
        <path d="M20,42.36v0Z" fill="#f9c7a5"/>
        <path d="M9,40.62H9Z" fill="#f9c7a5"/>
        <path d="M9,41.59v0Z" fill="#f9c7a5"/>
        <path d="M20.9,39.22h0Z" fill="#f9c7a5"/>
        <path d="M27.48,17A22.49,22.49,0,0,1,26,25.15c-1,2.46-2.08,5.67-2.66,7.43a82.79,82.79,0,0,0,4.5-8,5.42,5.42,0,0,1,.25-.74c.6-1.6,2.2-5.82,2.81-15.41L29,7.82l1.81-.65A10,10,0,0,0,30,3.87l-.45-.14h0a4.1,4.1,0,0,1-2-1.87,2.66,2.66,0,0,0-.28-.44C27.31,3.68,27.53,15.17,27.48,17Z" fill="#f9c7a5"/>
        <path d="M9.1,40l0,.46h0Z" fill="#f9c7a5"/>
        <path d="M20,42.69v0Z" fill="#f9c7a5"/>
        <path d="M21,39.06h0Z" fill="#f9c7a5"/>
        <path d="M21.48,38.38l0,0Z" fill="#f9c7a5"/>
        <polygon points="20.8 39.32 20.8 39.32 20.8 39.32 20.8 39.32" fill="#f9c7a5"/>
        <path d="M8.92,43.69v0Z" fill="#f9c7a5"/>
        <path d="M20,43v0Z" fill="#f9c7a5"/>
        <path d="M9,42.62v0Z" fill="#f9c7a5"/>
        <path d="M9,42.8v0Z" fill="#f9c7a5"/>
        <path d="M8.92,43.53l0-.69Z" fill="#f9c7a5"/>
        <path d="M21,38.89h0Z" fill="#f9c7a5"/>
        <circle cx="1.16" cy="57.01" r="0.33" fill="#f9c7a5"/>
        <path d="M9,41.86v0Z" fill="#f9c7a5"/>
        <path d="M9,42.43v0Z" fill="#f9c7a5"/>
        <path d="M9,42.07v0Z" fill="#f9c7a5"/>
        <path d="M.38,57.87a.94.94,0,0,0,.15.54.13.13,0,0,0,.11.05.2.2,0,0,0,.08,0l.05,0H.84a27.77,27.77,0,0,0,3,.32h.25c2.3-.2,2.61-.45,2.66-.51l0,0a.34.34,0,0,1,0-.15s0-.18,0-.4a8.71,8.71,0,0,1-3.42.66A10.45,10.45,0,0,1,.38,57.87Z" fill="#f9c7a5"/>
        <path d="M30.92,7.42l-1.11.4,1,.35,1.11.35v.12a39.16,39.16,0,0,1-1.34,11,33.5,33.5,0,0,1-4.92,11C24.81,32,24,33.4,23,35.09l-.85,1.53.15-.26-.15.26,0,0-.06.11-.06.1,0,0-.25.43,0,.06-.08.14,0,.06-.09.15,0,0-.09.15,0,.06-.05.09,0,.06-.05.09-.05.08,0,.08,0,.06,0,.05,0,.06,0,0-.07.11,0,0,0,.06,0,0,0,.05-.1,0s-.16.07-.16.11h0s.06,0,.05,0h0s0,0,0,0h0l-.08.11v-.08s-.07,0-.1,0h0a20.82,20.82,0,0,0-.29,3.08s-.58.07-.58.08-.58.22-.58.31v.07c0,.09.58.18.58.27s-.3,0-.3.05c0,.23-.28.46-.28.7v0c0,.11.61.23.61.35s.3,0,.3,0c0,.38.21.77.26,1.19l.08,0c0,.13.07.26.09.4l0,0c.06.42.14.86.23,1.32v0c.06.3.13.61.2.92l.14.57c1.16,4.86,2.37,9.88,5.65,11.19,1.84-.08,4.15-.2,5.93-.38,2.81-.28,3.19-1.69,3.22-1.86l-.1-3.28c-.13-2.51-1-8.45-1.21-11.64l-.42-.9h0c-1,.61-3.61.68-4.82.68h.3a4.06,4.06,0,0,1-.61,0l0-.65H28v.08a14.26,14.26,0,0,0,1.5-.08h.12s.05,0,.08,0l.08,0,.09,0s0,0,.07,0h.17s.08,0,.11,0l.06,0h.17l.67,0h.78a5.51,5.51,0,0,0,.72-.09h0l.15,0h0l.14,0h0l.14,0s0,.1,0,.1.1.08.15.08h0c.21,0,.41-.2.6-.25,0,0,0-.06,0-.06l.11-.06,0,0,.1,0,0,0,.1,0h0l.09,0h0c.07,0,.13.4.19.36s0,.2,0,.2H34v-.94h0c-1,.6-3.58.68-4.8.68-.23,0-.24.13-.35.12a6.51,6.51,0,0,0,.68.13h0a1.83,1.83,0,0,1-.64-.14v-.43s4.34.09,5.75-.75c0-1.46.11-3.33.19-4.5.07-1,.14-2,.22-2.83s.11-1.11.14-1.23a55.48,55.48,0,0,1,0-11c.1-.7.22-1.52.35-2.39.65-4.48,1.52-10.53,2.1-12-.9-.39-5.06-1.7-7.51-2.45a13.16,13.16,0,0,1,.74,3.26ZM21.73,40.58a.78.78,0,1,1,.78-.78A.78.78,0,0,1,21.73,40.58Z" fill="#f9c7a5"/>
        <path d="M9,42.24v0Z" fill="#f9c7a5"/>
        <path d="M9,40.55H9Z" fill="#f9c7a5"/>
        <path d="M8.87,44.89v0Z" fill="#f9c7a5"/>
        <path d="M18.92,58.65c1.31.07,5.05.25,6.24.2-1.53-1.44-2.49-3.84-3.25-6.51C21.61,53.81,20.79,56.9,18.92,58.65Z" fill="#ffd9c0"/>
        <path d="M33.31,41.56l-.11,0Z" fill="#f9c7a5"/>
        <path d="M33.68,41.5l-.1,0Z" fill="#f9c7a5"/>
        <path d="M33.49,41.53l-.11,0Z" fill="#f9c7a5"/>
        <path d="M33.12,41.59l-.11,0Z" fill="#f9c7a5"/>
        <path d="M22.53,34.09l.05-.17.18-.55c.51-1.57,1.72-5.26,2.85-8a22.17,22.17,0,0,0,1.5-8.07c0-1.48-.11-9.78-.18-13.77a19.74,19.74,0,0,0-9.69,0,56.48,56.48,0,0,0-.11,8.81c.41,7.55,3.77,18.44,4.24,19.55,0,0,0,.16.05.16h0S22.14,33.31,22.53,34.09Z" fill="#ffd9c0"/>
        <path d="M32.93,41.62h0Z" fill="#f9c7a5"/>
        <path d="M12.86,13.81c.63,2.43,1.39,4.84,1.54,5.28,0,.12,4.23,11.59,7.81,15.43l.14-.35c-.3-.65-1.25-2.4-1.26-2.42h0L21,31.65l-.1-.18c-2.25-3.92-7.53-14-8-23-.24.13-.53.3-.83.5C12.06,9,11.73,9.41,12.86,13.81Z" fill="#dbc0ad"/>
        <path d="M34.68,41.21l-.07,0Z" fill="#f9c7a5"/>
        <path d="M32.74,41.64l-.25,0Z" fill="#f9c7a5"/>
        <path d="M34.26,41.36l-.09,0Z" fill="#f9c7a5"/>
        <path d="M34.1,41.4l-.25.06Z" fill="#f9c7a5"/>
        <path d="M33.85,41.46l-.11,0Z" fill="#f9c7a5"/>
        <path d="M34.41,41.31l-.08,0Z" fill="#f9c7a5"/>
        <path d="M34.8,41.16l-.07,0Z" fill="#f9c7a5"/>
        <path d="M25.4,59.43c-.17,0-.45,0-.81,0-1.8,0-5.47-.2-6.07-.23a4.77,4.77,0,0,1-.64.42q.83,0,1.63,0a31.84,31.84,0,0,1,3.57.21c.39,0,.69.07.89.07s1.12,0,2.19-.06a5.28,5.28,0,0,1-.77-.54Z" fill="#f9c7a5"/>
        <path d="M34.55,41.27l-.08,0Z" fill="#f9c7a5"/>
        <path d="M34.85,41.13l.06,0Z" fill="#f9c7a5"/>
        <path d="M8.86,45.08v0Z" fill="#f9c7a5"/>
        <path d="M9,45.26v0Z" fill="#f9c7a5"/>
        <path d="M9,45.16v0Z" fill="#f9c7a5"/>
        <path d="M21.87,37.73l.07-.13Z" fill="#f9c7a5"/>
        <path d="M22,37.53l.07-.12Z" fill="#f9c7a5"/>
        <path d="M21.67,38.07l0-.07Z" fill="#f9c7a5"/>
        <path d="M31.62,41.74h0Z" fill="#f9c7a5"/>
        <path d="M8.87,45v0Z" fill="#f9c7a5"/>
        <path d="M21.76,37.92l.07-.11Z" fill="#f9c7a5"/>
        <path d="M21.59,38.2l0-.05Z" fill="#f9c7a5"/>
        <path d="M9.94,40.46c.22.38,2.81,1,5.08,1.33l-.09.61s-1.37-.2-2.71-.5a8.72,8.72,0,0,1-2.48-.81c-.1,1.84-.18,3.56-.18,4.16,0,.9-.24,4.79-.43,7.91-.13,2.17-.25,4-.25,4.34a2.24,2.24,0,0,0,1,1.42,6.44,6.44,0,0,0,3.92,1,13.76,13.76,0,0,0,1.61-.1c.48-.06.89-.11,1.45-.15h0c4-.68,5.09-7.46,5.17-8-.27-1-.53-2-.77-3.06l-.14-.57a21,21,0,0,1-.33-9,1.56,1.56,0,0,1,.12-.43L22.4,34.9c-3.66-3.77-7.84-15.2-8-15.69s-.93-2.9-1.56-5.35c-1.23-4.8-.78-5.09-.59-5.22a11.29,11.29,0,0,1,1.31-.75,2.32,2.32,0,0,1,.83-.27l-1.15-.77,0-.13A20.52,20.52,0,0,1,14.39,4L14.17,4A59.34,59.34,0,0,0,6.56,7l-.3.21C7.95,9.06,9.18,19.27,9.18,21.1c0,2.19.58,9,.59,9.09h0S10,34,10,34.82c0,.4-.08,2.52-.21,4.85h0s0,.37,2.51.92c1.32.29,2.66.49,2.67.49l-.05.37s-1.37-.2-2.7-.5a8.43,8.43,0,0,1-2.45-.8l0,.35h.17A.1.1,0,0,0,9.94,40.46ZM13.83,60h0a13.68,13.68,0,0,0,1.6-.1A13.55,13.55,0,0,1,13.83,60Z" fill="#f9c7a5"/>
        <path d="M22.37,36.87l.06-.1.06-.11Z" fill="#f9c7a5"/>
        <path d="M32,41.71h0Z" fill="#f9c7a5"/>
        <path d="M32.43,41.68h0Z" fill="#f9c7a5"/>
        <path d="M22.77,34.21h0L21.21,38.1c.36-.6.93-1.58,1.82-3.19s1.83-3.15,2.62-4.42a33.2,33.2,0,0,0,4.88-10.9,40.12,40.12,0,0,0,1.34-10.8l-.64-.2C30.6,18.17,29,22.41,28.39,24a5.59,5.59,0,0,0-.23.68,47.55,47.55,0,0,1-2.59,4.84c-.63,1.07-1.26,2.14-1.75,2.92a7.76,7.76,0,0,1-.94,1.38l-.13.32Z" fill="#dbc0ad"/>
        <path d="M32.23,41.7h0Z" fill="#f9c7a5"/>
        <path d="M22.1,37.34l.24-.42Z" fill="#f9c7a5"/>
        <path d="M31.82,41.73h0Z" fill="#f9c7a5"/>
        <path d="M44,57.36c0-.48-.27-7.84-.16-10.95.08-2.49.33-10.9,0-14.41-.14-1.54-.22-3-.32-5.07-.12-2.4-.28-5.39-.61-9.94-.28-3.78-1.29-8.71-4.51-10.72l-.06,0c-.62-.4-7.78-2.57-8.68-2.84a3.73,3.73,0,0,1-1.79-1.72,1.56,1.56,0,0,0-.93-.9A17.32,17.32,0,0,0,21.72,0c-2.2,0-4.22.38-4.49.84a7.94,7.94,0,0,1-3.48,2.83A58.36,58.36,0,0,0,6,6.68C4.8,7.48,4.22,8.4,3,11s-1.27,7.48-1.27,7.69c0,.47-.16,3.2-.32,6.1-.31,5.48-.52,9.1-.45,9.38S.72,39.56.53,42.92c-.1,1.74-.18,3.25-.22,4s0,2.18-.06,3.56c0,2.31,0,4.94-.2,6.33-.11,1,0,1.56.21,1.84a.5.5,0,0,0,.38.18.56.56,0,0,0,.19,0,26.58,26.58,0,0,0,3,.32h.28c2.37-.2,2.82-.47,3-.7a.38.38,0,0,0,0-.38h0c0-.08,0-.33-.06-.82-.09-1.15-.25-3.08-.25-3.74,0-.48.14-1.65.31-3s.32-2.66.42-3.86c.12-1.48.52-4.33.87-6.84.24-1.77.46-3.29.54-4.1s.2-1.94.29-2.93c.05.92.1,1.81.12,2.14S9.23,37.67,9.1,40l0,.46.37,0,0-.35c-.29-.19-.35-.35-.34-.5l.37,0c.12-2.33.24-4.46.21-4.85-.05-.77-.26-4.59-.26-4.62H9.38l-.31,0v0c0,.25-.32,3.5-.52,5.39-.08.81-.3,2.33-.54,4.09-.35,2.52-.74,5.38-.87,6.86-.1,1.19-.27,2.6-.42,3.85s-.31,2.55-.31,3.05c0,.67.16,2.61.25,3.77v.16l.13-.06.12.22-.23.11c0,.22,0,.37,0,.4a.34.34,0,0,0,0,.15l0,0c0,.06-.36.31-2.66.51H3.88a27.77,27.77,0,0,1-3-.32H.77l-.05,0a.2.2,0,0,1-.08,0,.13.13,0,0,1-.11-.05.94.94,0,0,1-.15-.54L.15,57.8l.07-.23.15,0a6.39,6.39,0,0,1,0-.76c.16-1.42.18-4,.2-6.37,0-1.38,0-2.68.06-3.55s.12-2.25.22-4c.28-5,.48-8.56.41-8.88s.25-5.5.46-9.28c.17-3,.32-5.64.32-6.12,0-.05.07-5.1,1.23-7.53A11,11,0,0,1,5.64,7.42l-.11-.1L5.76,7a1.23,1.23,0,0,1,.17.16L6.23,7A59.34,59.34,0,0,1,13.84,4L14.05,4a1.9,1.9,0,0,1,.49-.66l.2.31h0A9.07,9.07,0,0,0,17,1.74c.09-.53.16-.81.17-.84l.36.09V1c.2-.23,1.78-.65,4.16-.65a17,17,0,0,1,5.1.74l.07,0V1h.37V1.4a2.66,2.66,0,0,1,.28.44,4.1,4.1,0,0,0,2,1.87h0l.45.14,0,0,.3-.22A2.32,2.32,0,0,1,30.5,4c2.45.75,6.62,2.05,7.51,2.44l.08-.17.33.17a1.71,1.71,0,0,0-.08.19c3,2,3.95,6.71,4.22,10.36.34,4.55.49,7.53.61,9.93.11,2.06.18,3.54.33,5.09.33,3.49.08,11.88,0,14.37-.09,2.78.08,8.92.15,10.59l.14-.06.1.23-.22.09c0,.06,0,.11,0,.14a.43.43,0,0,1-.13.3c-.19.22-.85.73-2.88.82h-.26c-1.46,0-3-.3-3.1-1.16v-.08L37,57.15l.12-.21.12.06c0-.59,0-1.55,0-2.71a72.21,72.21,0,0,0-.2-8.43,54.36,54.36,0,0,1-.32-7.4c0-.24,0-.45,0-.6a28,28,0,0,0-.45-3.27,25.36,25.36,0,0,1-.38-2.68.51.51,0,0,0,0-.09v.07l-.37,0v-.11c0,.13-.06.43-.14,1.23s-.15,1.84-.22,2.82c-.08,1.17-.19,3-.19,4.48l.08-.05-.29.31c-.08.06.22.11-.78.16h0V41h.5l.08.51c-.09.06.42.12-.58.18h0l.59.9c.26,3.19,1,9.14,1.12,11.64L36,57.55c0,.17-.35,1.58-3.16,1.86-1.78.18-4.06.3-5.89.38h.05l-.13.34a4.83,4.83,0,0,1-.67-.33c-1.07,0-1.89.06-2.19.06s-.5,0-.89-.07a31.83,31.83,0,0,0-3.57-.21q-.79,0-1.63,0a4.24,4.24,0,0,1-1.31.46l-.06-.36-1.42.15a13.39,13.39,0,0,1-1.59.1,6.44,6.44,0,0,1-3.92-1,2.24,2.24,0,0,1-1-1.42c0-.29.11-2.17.25-4.34.19-3.13.43-7,.43-7.91,0-.61.09-2.32.18-4.16a1,1,0,0,1-.35-.33l0,.73v.37s0,0,0,0,0,.11,0,.17H9c0,.05,0,.11,0,.16s0,0,0,.06,0,.09,0,.13v.41l0,.69v.6s.06,0,.06,0,.06.07.06.11v0c0,.09-.07.17-.07.25s0,0,0,0,0,.06,0,.08,0,0,0,0,0,.05,0,.08V45s.07,0,.07,0,.07,0,.07.05v.18c0,.89-.31,4.77-.5,7.89-.14,2.27-.29,4.06-.29,4.36a2.51,2.51,0,0,0,1.14,1.72,6.77,6.77,0,0,0,4.13,1.12,13.69,13.69,0,0,0,1.62-.1A37,37,0,0,1,19.5,60a31.45,31.45,0,0,1,3.53.2c.41,0,.71.07.93.07,1.05,0,5.9-.17,8.93-.47,3.23-.32,3.54-2.11,3.55-2.19v0l-.11-3.32c-.13-2.51-.61-8.46-.87-11.66l-.07-.9a72.93,72.93,0,0,1,.34-8.24c.06.37.13.78.2,1.19a28.15,28.15,0,0,1,.45,3.2c0,.15,0,.35,0,.6a54.63,54.63,0,0,0,.32,7.46,72.16,72.16,0,0,1,.2,8.37c0,1.45,0,2.59,0,3.1.1,1.36,2.45,1.5,3.46,1.5h.28c2.1-.1,2.87-.64,3.14-.95A.77.77,0,0,0,44,57.36Z"/>
        <path d="M27.16,2.85l-.09.36-.13,0c.07,4,.22,12.29.18,13.77A22.15,22.15,0,0,1,25.61,25c-1.13,2.77-2.34,6.45-2.85,8l-.18.54h0l.34.13-.06.14a7.76,7.76,0,0,0,.94-1.38c.49-.78,1.12-1.85,1.75-2.92a47.55,47.55,0,0,0,2.59-4.84,5.59,5.59,0,0,1,.23-.68c.61-1.6,2.21-5.85,2.83-15.43L31,8.29l.11-.58h0l-1-.12,1.11-.28V7.22A13,13,0,0,0,30.5,4a2.17,2.17,0,0,0-.24-.41l-.3.23,0,.05a10,10,0,0,1,.86,3.31L29,7.82l1.82.65c-.61,9.59-2.21,13.82-2.81,15.41a5.42,5.42,0,0,0-.25.74,82.79,82.79,0,0,1-4.5,8c.58-1.77,1.65-5,2.66-7.43A22.49,22.49,0,0,0,27.48,17c0-1.78-.17-13.27-.22-15.55V1h-.37v.12c0,.24,0,.83,0,1.65Z"/>
        <path d="M20.83,39.39a2.22,2.22,0,0,1,0,.32h-.23s-.56-.45-.56-.49h.67s.17-.07.2-.11h.06l.06,0h.06s.06,0,.06,0h0a.22.22,0,0,1,.05-.11H21s.1,0,.11-.05h.08l0-.06,0,0,.07-.11v0h0l0-.06h0l0,0h0l0-.06h0l0,0,0,0,.05-.08,0,0,0-.05h0l0-.06h0l0-.07h0l0-.06h0l.07-.11,0,0,0,0v0l.07-.13h0l0-.06h0l.07-.12h0l0-.06h0l.24-.42h0l0,0h0l.11-.2h0l0,0h0l.85-1.53C24.29,33.4,25.14,32,26,30.69a33.5,33.5,0,0,0,4.92-11,39.16,39.16,0,0,0,1.34-11V8.29l-1.11-.58h0L31,8.29l.22.18.64.26a40.28,40.28,0,0,1-1.34,10.83,33.28,33.28,0,0,1-4.88,10.91C24.86,31.75,24,33.21,23,34.91s-1.46,2.59-1.82,3.19l1.51-3.88-.31.12-.07-.16-.14.35.2.21-.26.26-.08-.09-1.48,3.79a1.57,1.57,0,0,0-.12.43.71.71,0,0,1,0,.08Z"/>
        <path d="M22.75,34.17l.13-.32.06-.14-.34-.13h0l-.05.14C22.63,33.9,22.71,34.06,22.75,34.17Z"/>
        <path d="M21.29,48.6,21.15,48q-.11-.47-.2-.92v0q-.13-.68-.22-1.32v0l-.05-.4v0c0-.41-.08-.81-.11-1.19v0q0-.18,0-.35l-.25,0c0-.24-.27-.48-.27-.7h0v-.31h0v-.05h0v-.27h0v-.65h.54s.2-2.34.27-2.69h0c0-.08,0,0,0,0h-.36v.06a21.06,21.06,0,0,0,.32,9l.14.58c.24,1,.49,2.06.76,3.06v0l.37.05c0,.06-.05.36-.14.81.76,2.67,1.71,5.06,3.25,6.51h.2l0,.22a5.29,5.29,0,0,0,.77.54,4.87,4.87,0,0,0,.68.33l.13-.34h0C23.65,58.48,22.45,53.46,21.29,48.6Z"/>
        <path d="M16.75,12c.31,5.75,2.44,13.9,3.61,17.7-2.51-4.63-6.69-13.41-7.07-21.37,0,0,0-.08.08-.11l-.44.23c.46,9,5.74,19.11,8,23l.1.18.05.11.32-.18-.05-.1c-.47-1.11-3.83-11.94-4.24-19.5a56.48,56.48,0,0,1,.11-8.81l-.12,0L17,2.85l.27-.08A16.55,16.55,0,0,1,17.56,1V1L17.21.89s-.08.31-.17.84A49.23,49.23,0,0,0,16.75,12Z"/>
        <path d="M12.89,6.85,14,7.62a2.32,2.32,0,0,0-.83.27l.28-.13.14.34h0a3.87,3.87,0,0,1,1-.17l.56,0L13.33,6.7a11,11,0,0,1,1.4-3.08h0l-.2-.31a1.9,1.9,0,0,0-.49.66,20.52,20.52,0,0,0-1.11,2.76Z"/>
        <path d="M22.41,34.73l-.2-.21c-3.58-3.84-7.77-15.32-7.81-15.43-.15-.43-.91-2.85-1.54-5.28-1.13-4.4-.8-4.83-.76-4.86.3-.2.59-.37.83-.5l.44-.23.25-.12h0l-.14-.34-.28.13a11.29,11.29,0,0,0-1.31.75c-.19.13-.64.43.59,5.22.63,2.46,1.4,4.91,1.56,5.35s4.35,11.92,8,15.69l.08.09Z"/>
        <path d="M22.35,34.17l.07.16.31-.12h0l0,0c0-.11-.12-.32-.22-.51-.39-.78-1.09-2.18-1.12-2.18h0l-.32.23h0S22,33.52,22.35,34.17Z"/>
        <path d="M26.93,3.17l.13,0,.09-.36-.24-.06a20.24,20.24,0,0,0-9.64,0L17,2.85l.11.35.12,0A19.74,19.74,0,0,1,26.93,3.17Z"/>
        <path d="M35.56,20.86a55.46,55.46,0,0,0,0,11v.11l.37,0v-.07a55.27,55.27,0,0,1,0-10.9c.1-.7.22-1.52.35-2.39.6-4.18,1.5-10.38,2.05-11.87a1.71,1.71,0,0,1,.08-.19l-.33-.17L38,6.47c-.57,1.47-1.45,7.53-2.1,12C35.78,19.35,35.67,20.16,35.56,20.86Z"/>
        <path d="M8.85,21.1c0-1.82-1.23-12-2.92-13.91A1.23,1.23,0,0,0,5.76,7l-.22.29.11.1C7.09,8.93,8.48,18.65,8.48,21.1c0,2.16.56,8.74.59,9.1v0l.31,0h.06C9.43,30.12,8.85,23.29,8.85,21.1Z"/>
        <path d="M18.44,59.22l0-.37.46,0c1.86-1.75,2.69-4.84,3-6.31.09-.45.14-.75.14-.81l-.37-.05s0,0,0,0c-.08.53-1.18,7.31-5.17,8h0l0,.36a4.18,4.18,0,0,0,1.3-.46,4.71,4.71,0,0,0,.64-.42Z"/>
        <path d="M18.92,58.88l-.46,0,0,.37h.08c.6,0,4.27.23,6.07.23.36,0,.64,0,.81,0l0-.15,0-.22h-.2C24,59.13,20.24,58.94,18.92,58.88Z"/>
        <path d="M14.62,41.44l.05-.37s-1.35-.2-2.67-.49c-2.46-.55-2.51-.91-2.51-.92h0l-.37,0c0,.15.05.31.34.5a8.43,8.43,0,0,0,2.45.8C13.25,41.24,14.6,41.44,14.62,41.44Z"/>
        <path d="M9.42,41.1a8.72,8.72,0,0,0,2.48.81c1.34.3,2.69.5,2.71.5l.09-.61c-2.28-.33-4.86-.95-5.08-1.33a.1.1,0,0,1,0,0H9.45l-.37,0H9s0,0,0,.07H9a.32.32,0,0,0,0,.07H9a.5.5,0,0,0,.05.14A1,1,0,0,0,9.42,41.1Z"/>
        <path d="M29.25,41.08v.37h.64A15.13,15.13,0,0,0,35,40.77l.29-.16-.21-.31-.08.05C33.59,41.19,29.29,41.08,29.25,41.08Z"/>
        <path d="M34.91,41.1l-.06,0,0,0h0l-.07,0h-.06l-.07,0h-.06l-.08,0h-.06l-.08,0h-.07l-.09,0-.06,0-.25.06h0s-.07.12-.11.13,0,.12-.06.12h0v-.1s-.07,0-.1,0l0,0h-.23l-.11,0h-.08l-.11,0h-.27l-.25,0h-.06l-.12,0-.07,0h-.6l0,0H31.5l0,0h-.62s0,0,0,0,0,0,0,0h0s-.06,0-.09,0l0,0-.06,0h-.11s0,0-.07,0v0l-.08,0h0s0,0-.07,0v0l-.08,0h-.28c-.23,0-.83.08-.83.08h0l.27-.07h0s.26.35.62.35c1.22,0,3.86.1,5.17-.51.12-.05.22,0,.32-.09L35,41v0l0,0Z"/>
        <path d="M37.27,57l-.12-.06-.12.21.26.13a7.68,7.68,0,0,0,3.1.63,8.66,8.66,0,0,0,3.27-.65l.22-.09-.1-.23-.14.06A7.86,7.86,0,0,1,37.27,57Z"/>
        <path d="M.37,57.61l-.15,0-.07.23.23.07a10.45,10.45,0,0,0,2.9.42,8.71,8.71,0,0,0,3.42-.66l.23-.11-.12-.22-.13.06A9.15,9.15,0,0,1,.37,57.61Z"/>
        <path d="M22.06,39a.78.78,0,1,0,.78.78A.78.78,0,0,0,22.06,39Zm0,1.31a.53.53,0,1,1,.53-.53A.53.53,0,0,1,22.06,40.34Z"/>
        <path d="M42.87,57a.57.57,0,1,0-.57-.57A.57.57,0,0,0,42.87,57Zm0-.9a.33.33,0,1,1-.33.33A.33.33,0,0,1,42.87,56.05Z"/>
        <path d="M1.16,56.43a.57.57,0,1,0,.57.57A.57.57,0,0,0,1.16,56.43Zm0,.9A.33.33,0,1,1,1.48,57,.33.33,0,0,1,1.16,57.34Z"/>
      </g>
    </g>
  </g>
</svg>
