<svg xmlns="http://www.w3.org/2000/svg" viewBox="0 0 64 64">
  <title>stomach</title>
  <g style="isolation: isolate">
    <g id="stomach">
      <g id="_Group_" data-name="&lt;Group&gt;">
        <path id="_Path_" data-name="&lt;Path&gt;" d="M42.25,13.36s24-.18,15.23,29.61c0,0-9,28.34-38,10.18,0,0-6-3-7.72,2.34l-1.53,5a2.12,2.12,0,0,1-2.65,1.41l-1.5-.46A2.12,2.12,0,0,1,4.68,58.8l2-6.47s4.76-9.56,13.59-6.17,16.63-6.73,15.43-11.8-.11-16.42,1.15-17.53c0,0-.93-9.93,3-14.2a1.94,1.94,0,0,1,2-.53l.84.27a2,2,0,0,1,1.07,2.84A11.11,11.11,0,0,0,42.25,13.36Z" fill="#d05957"/>
        <path id="_Path_2" data-name="&lt;Path&gt;" d="M44.39,15.53A5.3,5.3,0,0,0,40,16.72c-1.13,1-1.9,2.53-.46,4.76,2.87,4.45,12.95,5.29,15,8.24C56.71,32.85,61.94,18.37,44.39,15.53Z" fill="#fff" opacity="0.26" style="mix-blend-mode: overlay"/>
        <path id="_Path_3" data-name="&lt;Path&gt;" d="M38.41,13.34a.53.53,0,0,1-1-.2c0-2.48.27-6.43,2.18-8.5C41.84,2.17,39.81,9.58,38.41,13.34Z" fill="#fff" opacity="0.26" style="mix-blend-mode: overlay"/>
      </g>
    </g>
  </g>
</svg>
