<svg id="Layer_1" data-name="Layer 1" xmlns="http://www.w3.org/2000/svg" viewBox="0 0 300 300">
  <title>suit</title>
  <g>
    <g id="pants">
      <path id="node11" d="M115.72,121c0,5.89-.34,5.72,8.92,4.71.67-.17,1.18-2.53,1.18-5.22,0-4.55-.51-5.05-5.05-5.05S115.72,115.9,115.72,121Z" fill="#1d1a1a"/>
      <path id="node12" d="M131.88,119.77c-1.52,6.06.51,7.74,7.07,5.89,2.86-.84,5.72-1,6.23-.17.51.67,5.72,1.18,11.79,1.18l10.94-.17V115.39H156.13c-9.26,0-11.45.51-10.78,2.36.51,1.35,2.19,2,4.21,1.52,2.19-.67,3.2,0,3.2,2,0,2.19-1,2.69-3.7,1.85a42.31,42.31,0,0,0-5.05-1c-.84,0-1.35-1.52-1.35-3.37,0-2.53-1.18-3.37-4.88-3.37C133.9,115.39,132.72,116.24,131.88,119.77Z" fill="#1d1a1a"/>
      <path id="node13" d="M173.47,121.12c-.17,5.39,0,5.56,5.05,5.22,4.71-.34,5.39-1,5.89-5.72.51-4.88.17-5.22-5.05-5.22C174.31,115.39,173.81,115.9,173.47,121.12Z" fill="#1d1a1a"/>
      <path id="node17" d="M119.59,131.89l-3.87.51V295.55h26.43l1.18-20.71c.51-11.28,1.85-43.27,2.86-71.05,1.52-45.29,3-58.59,5.72-51.18.34,1.35,1.68,33.84,2.86,72.23L157,294.7l14,.51,13.81.51-.34-82-.51-81.83-30.31-.34C136.93,131.56,121.61,131.56,119.59,131.89Z" fill="#1d1a1a"/>
    </g>
    <g id="jacket">
      <path id="node3" d="M132.15,6.07c-.84.84-7.41,3.54-14.14,5.56l-12.46,4-3.87,11.45c-3.54,10.44-10.1,32.33-25.76,85.53C73.22,121.74,71,129.82,71,130.49c0,1,15,5.05,19.36,5.05,2.36,0,6.23-11.62,17-50.17,3.37-12.12,6.9-22.22,7.91-22.22s1.35,13,.84,37.88l-.84,37.88h9.93c10.78,0,18.69-3,21.55-8.42,1.18-2.19,1.68-16.33,1.52-39.23-.17-28.12.34-37.55,2.36-44.79,2.53-8.59,2.53-20.2,0-27.11-1.18-3.2-3.54,3.7-3.7,11.28-.17,3-.84,5.56-1.68,5.56-1.85,0-8.59-26.6-7.41-29.63C138.88,3.88,134.84,3.38,132.15,6.07Z" fill="#1d1a1a" stroke="#4d4d4d" stroke-miterlimit="10"/>
      <path id="node4" d="M162.29,7.92c.17,2.19-2.69,14.14-6.06,26.6-6.06,22.56-6.06,22.9-6.06,56.74,0,18.69.67,35.86,1.68,38.22,2.36,6.57,10.27,9.6,22.39,9.09l10.27-.51L184,100.19c-.34-24.75.17-37.38,1.18-36.2,1,.84,6.06,17.17,11.45,36.2s10.1,35,10.61,35.69c.84,1,20.2-3,21.72-4.55.17-.17-1.68-7.58-4.55-16.16-2.69-8.76-10.44-34.52-17.17-57.58L195.12,16l-12-3.54c-6.57-2-13.47-4.71-15.32-5.89C163.3,3.38,162.29,3.55,162.29,7.92Zm-5.05,59.43a2.69,2.69,0,0,1-1.85,2.19c-1,.34-1.85-.67-1.85-2.19s.84-2.53,1.85-2.19A2.69,2.69,0,0,1,157.23,67.36Zm.51,16c.51.84-.17,1.68-1.52,1.68-1.52,0-2.69-.84-2.69-1.68A1.55,1.55,0,0,1,155,81.67,3.2,3.2,0,0,1,157.74,83.35Zm-.51,16a2.69,2.69,0,0,1-1.85,2.19c-1,.34-1.85-.67-1.85-2.19s.84-2.53,1.85-2.19A2.69,2.69,0,0,1,157.23,99.35Z" fill="#1d1a1a" stroke="#333" stroke-miterlimit="10"/>
      <path id="node5" d="M145.79,13c1,1.68,2.69,3,3.7,3s3-1.35,4.55-3c2.53-2.69,2.19-2.86-3.7-2.86C144.61,10.11,144.1,10.45,145.79,13Z" fill="#1d1a1a" stroke="#4d4d4d" stroke-miterlimit="10"/>
    </g>
  </g>
</svg>
