<svg xmlns="http://www.w3.org/2000/svg" viewBox="0 0 57.18 57.18">
  <title>summer</title>
  <g id="Layer_2" data-name="Layer 2">
    <g id="Layer_1-2" data-name="Layer 1">
      <g id="summer">
        <g>
          <g>
            <rect width="57.18" height="57.18" fill="#c7eafb"/>
            <path d="M0,35.25c15.13,5.8,40,9.61,57.18,3.52V0H0Z" fill="#b2e3fa"/>
            <path d="M0,22.5c16.11,6.14,41.82,3.18,57.18-6.33V0H0Z" fill="#9ddcf9"/>
            <path d="M0,4.82c14.87,7.38,40.79,9.89,57.18,1.34V0H0Z" fill="#7ed3f7"/>
          </g>
          <path d="M19.65,6.21a2.8,2.8,0,0,0-.6.07,3.59,3.59,0,0,0-6.49.93,2.3,2.3,0,0,0,.3,4.59h6.79a2.79,2.79,0,1,0,0-5.58Z" fill="#fff"/>
        </g>
        <g>
          <g>
            <path d="M41.42,23c-.83-.25-1.23,2-2,2.93s-1.5.72-2.67.69c-.08-2.19-.15-4-.22-5.22s-.36-1.52-1.2-1.52h0c-.84,0-1.14.42-1.2,1.52-.15,2.65-.34,8.44-.5,14.35a7.54,7.54,0,0,1-5.46-2.5c-1.39-1.71-1.9-6.67-2.7-6.49S24.93,32.6,26.83,35a8.89,8.89,0,0,0,6.76,3.46C33.39,46,33.23,53,33.23,53h4.27s-.32-14.41-.64-24.25c1.89-.06,2.92-.45,3.68-1.31S42.25,23.23,41.42,23Z" fill="#b18963"/>
            <path d="M32.46,30.38a3.73,3.73,0,0,1-2,3.11,3.73,3.73,0,0,1-2-3.11,3.73,3.73,0,0,1,2-3.11A3.73,3.73,0,0,1,32.46,30.38Z" fill="#58ba57"/>
            <path d="M33.08,17.67a3.73,3.73,0,0,1-2,3.11,3.73,3.73,0,0,1-2-3.11,3.73,3.73,0,0,1,2-3.11A3.73,3.73,0,0,1,33.08,17.67Z" fill="#58ba57"/>
            <path d="M28.19,19a3.73,3.73,0,0,1-2,3.11,3.73,3.73,0,0,1-2-3.11,3.73,3.73,0,0,1,2-3.11A3.73,3.73,0,0,1,28.19,19Z" fill="#58ba57"/>
            <path d="M30.08,12.53a3.73,3.73,0,0,1-2,3.11,3.73,3.73,0,0,1-2-3.11,3.73,3.73,0,0,1,2-3.11A3.73,3.73,0,0,1,30.08,12.53Z" fill="#58ba57"/>
            <path d="M34.64,10.34a3.73,3.73,0,0,1-2,3.11,3.73,3.73,0,0,1-2-3.11,3.73,3.73,0,0,1,2-3.11A3.73,3.73,0,0,1,34.64,10.34Z" fill="#58ba57"/>
            <path d="M45.1,12.63a3.73,3.73,0,0,1-2,3.11,3.73,3.73,0,0,1-2-3.11,3.73,3.73,0,0,1,2-3.11A3.73,3.73,0,0,1,45.1,12.63Z" fill="#58ba57"/>
            <path d="M43.06,18.84a3.73,3.73,0,0,1-2,3.11,3.73,3.73,0,0,1-2-3.11,3.73,3.73,0,0,1,2-3.11A3.73,3.73,0,0,1,43.06,18.84Z" fill="#58ba57"/>
            <path d="M20.76,30.46a3.73,3.73,0,0,1-3.11-2,3.73,3.73,0,0,1,3.11-2,3.73,3.73,0,0,1,3.11,2A3.73,3.73,0,0,1,20.76,30.46Z" fill="#58ba57"/>
            <path d="M50.34,27.58a3.73,3.73,0,0,1-3.11-2,3.39,3.39,0,0,1,6.21,0A3.73,3.73,0,0,1,50.34,27.58Z" fill="#58ba57"/>
            <path d="M44.51,30.32a3.73,3.73,0,0,1-3.11-2,3.39,3.39,0,0,1,6.21,0A3.73,3.73,0,0,1,44.51,30.32Z" fill="#58ba57"/>
            <path d="M30.73,25.63a3.73,3.73,0,0,1-3.64.76,3.73,3.73,0,0,1,.76-3.64A3.73,3.73,0,0,1,31.49,22,3.73,3.73,0,0,1,30.73,25.63Z" fill="#58ba57"/>
            <path d="M47.78,18.59a3.73,3.73,0,0,1-3.64.76,3.73,3.73,0,0,1,.76-3.64A3.73,3.73,0,0,1,48.53,15,3.73,3.73,0,0,1,47.78,18.59Z" fill="#58ba57"/>
            <path d="M46.54,24.32a3.73,3.73,0,0,1-3.64.76,3.73,3.73,0,0,1,.76-3.64,3.73,3.73,0,0,1,3.64-.76A3.73,3.73,0,0,1,46.54,24.32Z" fill="#58ba57"/>
            <path d="M23.52,35a3.73,3.73,0,0,1-3.64.76,3.73,3.73,0,0,1,.76-3.64,3.73,3.73,0,0,1,3.64-.76A3.73,3.73,0,0,1,23.52,35Z" fill="#58ba57"/>
            <path d="M50.16,12.44a3.73,3.73,0,0,1-3.64.76,3.73,3.73,0,0,1,.76-3.64,3.73,3.73,0,0,1,3.64-.76A3.73,3.73,0,0,1,50.16,12.44Z" fill="#58ba57"/>
            <path d="M52.1,21.36a3.73,3.73,0,0,1-3.64.76,3.73,3.73,0,0,1,.76-3.64,3.73,3.73,0,0,1,3.64-.76A3.73,3.73,0,0,1,52.1,21.36Z" fill="#58ba57"/>
            <path d="M39.11,33.61A3.73,3.73,0,0,1,38.35,30a3.39,3.39,0,0,1,4.39,4.39A3.73,3.73,0,0,1,39.11,33.61Z" fill="#58ba57"/>
            <path d="M21.67,24.94a3.73,3.73,0,0,1-.76-3.64,3.73,3.73,0,0,1,3.64.76,3.73,3.73,0,0,1,.76,3.64A3.73,3.73,0,0,1,21.67,24.94Z" fill="#58ba57"/>
            <path d="M16.21,24.6A3.73,3.73,0,0,1,15.46,21a3.73,3.73,0,0,1,3.64.76,3.73,3.73,0,0,1,.76,3.64A3.73,3.73,0,0,1,16.21,24.6Z" fill="#58ba57"/>
            <path d="M19.59,19.25a3.73,3.73,0,0,1-.76-3.64,3.73,3.73,0,0,1,3.64.76A3.73,3.73,0,0,1,23.23,20,3.73,3.73,0,0,1,19.59,19.25Z" fill="#58ba57"/>
            <path d="M44.89,35a3.73,3.73,0,0,1-.76-3.64,3.39,3.39,0,0,1,4.39,4.39A3.73,3.73,0,0,1,44.89,35Z" fill="#58ba57"/>
            <path d="M34.62,17.86a3.73,3.73,0,0,1-.76-3.64A3.73,3.73,0,0,1,37.5,15a3.73,3.73,0,0,1,.76,3.64A3.73,3.73,0,0,1,34.62,17.86Z" fill="#58ba57"/>
            <path d="M36.31,13.34a3.73,3.73,0,0,1-.76-3.64,3.73,3.73,0,0,1,3.64.76,3.73,3.73,0,0,1,.76,3.64A3.73,3.73,0,0,1,36.31,13.34Z" fill="#58ba57"/>
            <path d="M27.12,38.2a3.73,3.73,0,0,1-2,3.11,3.73,3.73,0,0,1-2-3.11,3.73,3.73,0,0,1,2-3.11A3.73,3.73,0,0,1,27.12,38.2Z" fill="#58ba57"/>
          </g>
          <g>
            <path d="M28,19.39a2.22,2.22,0,0,1-2.4-2.4A1.7,1.7,0,0,1,28,15.27,1.7,1.7,0,0,1,30.44,17,2.22,2.22,0,0,1,28,19.39Z" fill="#ed1c24"/>
            <path d="M28.16,14.3a.76.76,0,0,0-.23,0s0,1.27,0,1.28a.2.2,0,0,0,.16,0S28.17,14.31,28.16,14.3Z" fill="#977348"/>
          </g>
          <g>
            <path d="M20.64,28.6a2.22,2.22,0,0,1-2.4-2.4,1.7,1.7,0,0,1,2.4-1.72A1.7,1.7,0,0,1,23,26.2,2.22,2.22,0,0,1,20.64,28.6Z" fill="#ed1c24"/>
            <path d="M20.76,23.51a.76.76,0,0,0-.23,0s0,1.27,0,1.28a.2.2,0,0,0,.16,0S20.77,23.52,20.76,23.51Z" fill="#977348"/>
          </g>
          <g>
            <path d="M30.36,36a2.22,2.22,0,0,1-2.4-2.4,1.7,1.7,0,0,1,2.4-1.72,1.7,1.7,0,0,1,2.4,1.72A2.22,2.22,0,0,1,30.36,36Z" fill="#ed1c24"/>
            <path d="M30.47,31a.76.76,0,0,0-.23,0s0,1.27,0,1.28a.2.2,0,0,0,.16,0S30.48,31,30.47,31Z" fill="#977348"/>
          </g>
          <g>
            <path d="M40.55,17.11a2.22,2.22,0,0,1-2.4-2.4A1.7,1.7,0,0,1,40.55,13a1.7,1.7,0,0,1,2.4,1.72A2.22,2.22,0,0,1,40.55,17.11Z" fill="#ed1c24"/>
            <path d="M40.66,12a.76.76,0,0,0-.23,0s0,1.27,0,1.28a.2.2,0,0,0,.16,0S40.67,12,40.66,12Z" fill="#977348"/>
          </g>
          <g>
            <path d="M47.62,24.35a2.22,2.22,0,0,1-2.4-2.4,1.7,1.7,0,0,1,2.4-1.72A1.7,1.7,0,0,1,50,22,2.22,2.22,0,0,1,47.62,24.35Z" fill="#ed1c24"/>
            <path d="M47.73,19.27a.76.76,0,0,0-.23,0s0,1.27,0,1.28a.2.2,0,0,0,.16,0S47.74,19.28,47.73,19.27Z" fill="#977348"/>
          </g>
          <g>
            <path d="M42.72,33.76a2.22,2.22,0,0,1-2.4-2.4,1.7,1.7,0,0,1,2.4-1.72,1.7,1.7,0,0,1,2.4,1.72A2.22,2.22,0,0,1,42.72,33.76Z" fill="#ed1c24"/>
            <path d="M42.84,28.67a.76.76,0,0,0-.23,0s0,1.27,0,1.28a.2.2,0,0,0,.16,0S42.85,28.68,42.84,28.67Z" fill="#977348"/>
          </g>
        </g>
        <g>
          <g>
            <g>
              <polygon points="4.51 53.51 2.19 53.51 1.86 45.6 3.35 44.71 4.84 45.6 4.51 53.51" fill="#c6a87d"/>
              <polygon points="7.86 53.51 5.54 53.51 5.21 45.6 6.7 44.71 8.19 45.6 7.86 53.51" fill="#c6a87d"/>
              <polygon points="11.21 53.51 8.9 53.51 8.56 45.6 10.05 44.71 11.54 45.6 11.21 53.51" fill="#c6a87d"/>
              <polygon points="14.56 53.51 12.25 53.51 11.91 45.6 13.4 44.71 14.89 45.6 14.56 53.51" fill="#c6a87d"/>
              <polygon points="17.91 53.51 15.6 53.51 15.26 45.6 16.75 44.71 18.24 45.6 17.91 53.51" fill="#c6a87d"/>
              <polygon points="21.26 53.51 18.95 53.51 18.61 45.6 20.1 44.71 21.59 45.6 21.26 53.51" fill="#c6a87d"/>
              <polygon points="24.61 53.51 22.3 53.51 21.96 45.6 23.45 44.71 24.95 45.6 24.61 53.51" fill="#c6a87d"/>
            </g>
            <g>
              <polygon points="1.16 53.51 0 53.51 0 44.71 1.49 45.6 1.16 53.51" fill="#ccb28b"/>
              <polygon points="4.51 53.51 3.35 53.51 3.35 44.71 4.84 45.6 4.51 53.51" fill="#ccb28b"/>
              <polygon points="7.86 53.51 6.7 53.51 6.7 44.71 8.19 45.6 7.86 53.51" fill="#ccb28b"/>
              <polygon points="11.21 53.51 10.05 53.51 10.05 44.71 11.54 45.6 11.21 53.51" fill="#ccb28b"/>
              <polygon points="14.56 53.51 13.4 53.51 13.4 44.71 14.89 45.6 14.56 53.51" fill="#ccb28b"/>
              <polygon points="17.91 53.51 16.75 53.51 16.75 44.71 18.24 45.6 17.91 53.51" fill="#ccb28b"/>
              <polygon points="21.26 53.51 20.1 53.51 20.1 44.71 21.59 45.6 21.26 53.51" fill="#ccb28b"/>
              <polygon points="24.61 53.51 23.45 53.51 23.45 44.71 24.95 45.6 24.61 53.51" fill="#ccb28b"/>
            </g>
            <rect y="46.81" width="25.66" height="1.03" fill="#977348"/>
            <rect y="50.27" width="25.66" height="1.03" fill="#977348"/>
            <path d="M10.05,47.11a.22.22,0,1,0,.22.22A.22.22,0,0,0,10.05,47.11Zm3.35,0a.22.22,0,1,0,.22.22A.22.22,0,0,0,13.4,47.11Zm-10.05,0a.22.22,0,1,0,.22.22A.22.22,0,0,0,3.35,47.11ZM0,47.11v.43a.22.22,0,0,0,.22-.22A.22.22,0,0,0,0,47.11Zm6.7,0a.22.22,0,1,0,.22.22A.22.22,0,0,0,6.7,47.11Zm10.05,0a.22.22,0,1,0,.22.22A.22.22,0,0,0,16.75,47.11Zm6.7,0a.22.22,0,1,0,.22.22A.22.22,0,0,0,23.45,47.11Zm-3.35,0a.22.22,0,1,0,.22.22A.22.22,0,0,0,20.1,47.11Z" fill="#876740"/>
            <path d="M10.05,50.62a.22.22,0,1,0,.22.22A.22.22,0,0,0,10.05,50.62Zm3.35,0a.22.22,0,1,0,.22.22A.22.22,0,0,0,13.4,50.62Zm-10.05,0a.22.22,0,1,0,.22.22A.22.22,0,0,0,3.35,50.62ZM0,50.62v.43a.22.22,0,0,0,.22-.22A.22.22,0,0,0,0,50.62Zm6.7,0a.22.22,0,1,0,.22.22A.22.22,0,0,0,6.7,50.62Zm10.05,0a.22.22,0,1,0,.22.22A.22.22,0,0,0,16.75,50.62Zm6.7,0a.22.22,0,1,0,.22.22A.22.22,0,0,0,23.45,50.62Zm-3.35,0a.22.22,0,1,0,.22.22A.22.22,0,0,0,20.1,50.62Z" fill="#876740"/>
          </g>
          <g>
            <path d="M28.59,52.07C14.3,52.07,0,53.45,0,53.45v3.73H57.18V53.45S42.88,52.07,28.59,52.07Z" fill="#8dc63f"/>
            <g>
              <path d="M5.85,57.18h5.08l3.13-4.72c-1.89.1-3.66.2-5.27.31Z" fill="#a3cf62"/>
              <path d="M24.43,52.1c-1.76,0-3.49.08-5.18.14L16,57.18h5.09Z" fill="#a3cf62"/>
              <path d="M44.53,52.54c-1.57-.09-3.24-.17-5-.24L36.3,57.18h5.11Z" fill="#a3cf62"/>
              <path d="M26.13,57.18h5.1l3.35-5c-1.67,0-3.36-.07-5.06-.07Z" fill="#a3cf62"/>
              <path d="M3.88,53.12c-2.44.19-3.88.33-3.88.33v3.73H1.54Z" fill="#a3cf62"/>
              <path d="M54.37,53.21c-1.29-.11-3-.24-4.94-.37l-2.94,4.34h5.14Z" fill="#a3cf62"/>
            </g>
          </g>
        </g>
      </g>
    </g>
  </g>
</svg>
