<svg xmlns="http://www.w3.org/2000/svg" viewBox="0 0 64 64">
  <title>tooth</title>
  <g style="isolation: isolate">
    <g id="tooth">
      <g id="_Group_" data-name="&lt;Group&gt;">
        <path id="_Path_" data-name="&lt;Path&gt;" d="M2,31.25C3.37,58.4,30.9,58.68,30.9,58.68,55.4,59.54,60.19,38.58,62,31.25Z" fill="#d68080"/>
        <path id="_Path_2" data-name="&lt;Path&gt;" d="M32.08,8.46S16.69.92,15.59,11.6s6.6,15.08,6.6,19.32,2.2,28.9,5.5,17.9,3-16.8,7.07-15.39,1.1,22.14,4.55,18.38S42,35.32,42.76,32.18s8.17-18.69,4.87-23.71C45.19,4.75,36.95,3.75,32.08,8.46Z" fill="#ebebeb"/>
        <path id="_Path_3" data-name="&lt;Path&gt;" d="M18.51,8.55s-2.73,4-1.3,8.3c1.36,4.12,5.1,12.37,5.86,8.25s-1-12.59-.54-14.76S19.05,7.36,18.51,8.55Z" fill="#fff" opacity="0.26" style="mix-blend-mode: overlay"/>
      </g>
    </g>
  </g>
</svg>
