<svg xmlns="http://www.w3.org/2000/svg" viewBox="0 0 60 60">
  <title>uppercase</title>
  <g id="Layer_2" data-name="Layer 2">
    <g id="Uppercase">
      <circle cx="30" cy="30" r="30" fill="#fdec00"/>
      <g>
        <g id="letters">
          <path d="M18.06,32.91l-2.43,7.36H12.51l7.95-23.4H24.1l8,23.4H28.86l-2.5-7.36Zm7.67-2.36-2.29-6.73c-.52-1.53-.87-2.92-1.21-4.27h-.07c-.35,1.39-.73,2.81-1.18,4.23l-2.29,6.77Z" fill="#8a2be2"/>
          <path d="M44.86,40.27l-.24-2.12h-.1a6.26,6.26,0,0,1-5.14,2.5,4.79,4.79,0,0,1-5.14-4.83c0-4.06,3.61-6.28,10.1-6.25v-.35c0-1.39-.38-3.89-3.82-3.89a8.37,8.37,0,0,0-4.37,1.25l-.69-2A10.43,10.43,0,0,1,41,23.08c5.14,0,6.39,3.51,6.39,6.87v6.28a23.68,23.68,0,0,0,.28,4Zm-.45-8.57c-3.33-.07-7.12.52-7.12,3.78a2.7,2.7,0,0,0,2.88,2.92,4.18,4.18,0,0,0,4.06-2.81,3.18,3.18,0,0,0,.17-1Z" fill="#8a2be2"/>
        </g>
        <line id="underline" x1="12.37" y1="43.13" x2="32.09" y2="43.13" fill="#8a2be2" stroke="#8a2be2" stroke-miterlimit="10"/>
      </g>
    </g>
  </g>
</svg>
