<svg xmlns="http://www.w3.org/2000/svg" viewBox="0 0 57.62 35.67">
  <title>wrist-watch</title>
  <g id="Layer_2" data-name="Layer 2">
    <g id="wrist-watch">
      <g>
        <path d="M37,.83h0Z" fill="#bc8c79"/>
        <path d="M36.39.34h0Z" fill="#bc8c79"/>
        <path d="M38.1,1.39l0,0Z" fill="#bc8c79"/>
        <path d="M36.84.49h0Z" fill="#bc8c79"/>
        <path d="M36.63.41h0Z" fill="#bc8c79"/>
        <path d="M38.15,1.49l0,.06Z" fill="#bc8c79"/>
        <path d="M38,1.3l0,0Z" fill="#bc8c79"/>
        <path d="M22.68,2.11l-2,.17a10.8,10.8,0,0,1-3.17-.49,3.39,3.39,0,0,0-4.25,1.85L17.86,5A17.75,17.75,0,0,1,22.68,2.11Z" fill="#bfb3af"/>
        <path d="M35.22.49,34.58.44,34.4,1.91l.27.07Z" fill="#bc8c79"/>
        <path d="M38.19,1.59a1,1,0,0,1,0,.11A1,1,0,0,0,38.19,1.59Z" fill="#bc8c79"/>
        <path d="M34.21.42a.82.82,0,0,0-.4.14c-.2.16-.2.43-.2.72a1.65,1.65,0,0,1,0,.46l.46.08Z" fill="#bc8c79"/>
        <polygon points="37.74 0.97 37.77 0.92 37.74 0.97 37.74 0.97" fill="#bc8c79"/>
        <path d="M34.6,0h0Z" fill="#bc8c79"/>
        <path d="M36.14.27h0Z" fill="#bc8c79"/>
        <path d="M33.75.13l.05,0Z" fill="#bc8c79"/>
        <path d="M34,.06h0Z" fill="#bc8c79"/>
        <path d="M34.07,0h0Z" fill="#bc8c79"/>
        <path d="M33.55.24l.08-.05Z" fill="#bc8c79"/>
        <path d="M33.66.17l.05,0Z" fill="#bc8c79"/>
        <path d="M33.85.09l.05,0Z" fill="#bc8c79"/>
        <path d="M34.76,0h0Z" fill="#bc8c79"/>
        <path d="M34.19,0h0Z" fill="#bc8c79"/>
        <path d="M9.94,20.8l2.27.78a17.71,17.71,0,0,1,.85-9,13.68,13.68,0,0,1,2-4.32,16.19,16.19,0,0,1,2.52-2.86l-1.94-.58Z" fill="#757474"/>
        <path d="M34.46.83h0Z" fill="#bc8c79"/>
        <path d="M34.32,0h0Z" fill="#bc8c79"/>
        <path d="M33.76,6.47A12.94,12.94,0,1,0,41.55,23,13,13,0,0,0,33.76,6.47ZM20.05,15.72,17.8,15l.22-.64,2.25.76ZM33.19,7.19l.63.24L33,9.65l-.63-.24ZM25.49,30l-.63-.24.85-2.22.63.24ZM34.62,26l-5.48-7a.58.58,0,0,1-.68-.81l0-.08-3-3.33.4-.36,2.73,3L27.3,8.56l.53-.08L29.27,18a.48.48,0,0,1,.28.58.75.75,0,0,1-.16.26v.06l5.43,6.93Zm5.86-2.89-2.25-.76.22-.64,2.25.76Z" fill="#f4dbd3"/>
        <path d="M37.25,1.15,36.62.9l-.56,1.55.41.18Z" fill="#bc8c79"/>
        <path d="M33.93,5.51A13.44,13.44,0,1,0,42,22.72,13.46,13.46,0,0,0,33.93,5.51Zm7.74,17.08A13.08,13.08,0,1,1,33.81,5.85,13.09,13.09,0,0,1,41.67,22.59Z" fill="#d3c8c5"/>
        <path d="M42.78,32.35l1.67.49v0l.19.09s.56.26,4.44,1.6c1.66.57,2.54.54,3,.35l-.94-.29.14-.47,1.25.39a.79.79,0,0,0,.12-.41V34s.82-2.8,3.21-8.93c1.37-3.5,1.19-5,.8-5.73a.9.9,0,0,0-.58-.48h0L50.5,16.54v0l-1.82-.66ZM54.85,19.07l1.39.57-.15.38-1.39-.57Zm-1.92-.79,1.39.57-.15.37-1.39-.57Zm-1.82-.75,1.39.57-.15.37L51,17.91Zm-.4,16.75-1.43-.45.11-.35,1.43.45ZM49.3,16.79l1.39.57-.15.38-1.39-.57ZM45,32.52,43.52,32l.11-.35,1.51.47Zm1.82.57-1.47-.46.11-.35,1.47.46Zm1.9.59-1.51-.47.11-.35,1.51.47Z" fill="#bc8c79"/>
        <path d="M34.67,2.65a10.49,10.49,0,0,0-1.52-.3,1.28,1.28,0,0,1-.52-.06c-1.74-.51-7.64-.09-7.7-.09l-.34,0A16.83,16.83,0,0,0,15.7,8.64a13.5,13.5,0,0,0-2,4.2v0a16.6,16.6,0,0,0,.67,13.36h0c3.54,5.37,7.44,7.34,12.21,8.66s9.47-1,9.51-1.06l0,0v0A17.47,17.47,0,0,0,45.29,23a14.29,14.29,0,0,0-1.21-11.89h0v-.07C43.3,9.81,40.21,6.19,40,5.92L37,3.61A8.27,8.27,0,0,0,35.66,3Zm8,20.54A14.12,14.12,0,1,1,34.16,5.12,14.13,14.13,0,0,1,42.65,23.19Z" fill="#d3c8c5"/>
        <path d="M36.67,34l1.72.62c.26.09.94.23,2.56.78,1.94.65,3.2-1.26,3.56-1.91L39.68,32A15.7,15.7,0,0,1,36.67,34Z" fill="#bfb3af"/>
        <path d="M15.34,4.76,13,4.08V4h0L8.11,2.26C6,1.51,5.45,1.77,5.3,1.92a.43.43,0,0,0-.08.4l0,.07-2.54,7S1.41,12.3.48,15.1c-.49,1.47-.3,2-.15,2.16a.44.44,0,0,0,.39.13h.1s1.62.48,3.2,1c2.59.89,3.17,1.27,3.3,1.49l2.28.78Zm-2.12.12,1.38.5-.12.34-1.38-.5ZM2,17.29.63,16.8l.12-.34,1.38.5ZM3.84,18l-1.49-.54.12-.34L4,17.61ZM11.5,4.26l1.38.5-.12.34-1.38-.5Zm-1.95-.7,1.38.5-.12.34L9.43,3.9ZM7.6,2.85l1.49.54L9,3.74,7.48,3.2ZM5.88,2.23l1.38.5-.12.34-1.38-.5ZM5.68,18.62l-1.38-.5.12-.34,1.38.5Zm1.95.7-1.38-.5.12-.34,1.38.5Zm.34.12.12-.34,1.38.5-.12.34Z" fill="#bc8c79"/>
        <path d="M7.37,20.22c.11,2.67.6,3.2.66,3.27C9.41,24,12.2,25,13.46,25.6a16,16,0,0,1-1.17-3.69Z" fill="#bfb3af"/>
        <path d="M37.09,2.94c.3-.22.8-.72.72-1.17a.77.77,0,0,0-.26-.43L36.83,2.8Z" fill="#bc8c79"/>
        <polygon points="35.84 0.19 35.85 0.17 35.84 0.19 35.84 0.19" fill="#bc8c79"/>
        <path d="M48.8,15.73l-2.46-.89a15.57,15.57,0,0,1-.41,8q-.13.41-.27.8a18.4,18.4,0,0,1-5.35,7.82l2.58.76Z" fill="#757474"/>
        <path d="M51.12,16.18,51,16h0s.21-.22.13-1.08a2.38,2.38,0,0,0-1.66-2.26A44.4,44.4,0,0,1,45,11.21a14.17,14.17,0,0,1,1.2,3.2Z" fill="#bfb3af"/>
        <path d="M35.7.57l-.56,1.54.46.16L36.18.7l-.39-.1Z" fill="#bc8c79"/>
        <path d="M35.7.57l.08,0,.39.1.13-.35,1.25.78c-.15-.09-.31,0-.51,0h0c-.06,0-.13-.34-.19-.37V.63c-.07,0-.14-.12-.21-.15v0L36.4.36h0L36.16.28h0L35.88.2h0Z"/>
        <path d="M57.28,19.13a1.31,1.31,0,0,0-.83-.65l-5.38-2.24a2,2,0,0,0,.2-1.35,2.79,2.79,0,0,0-2-2.61,26.71,26.71,0,0,1-4.88-1.71c-.82-1.34-4-5-4.15-5.2L37.44,3.19a1.76,1.76,0,0,0,.78-1.48,1,1,0,0,0,0-.11v0l0-.06,0-.05,0,0,0-.06,0,0A1.5,1.5,0,0,0,37.74,1h0l-.19.37a.77.77,0,0,1,.26.43c.08.45-.43.94-.72,1.17l.12.07L37,3.36h0l3,2.29c.23.27,3.32,3.86,4.1,5.13h0l.33-.23a7.41,7.41,0,0,1,.38.66,44.4,44.4,0,0,0,4.41,1.46,2.38,2.38,0,0,1,1.66,2.26c.08.85-.13,1.07-.13,1.08h0l.13.18.06,0-.12.34-.05,0v0l5.57,2.31h0a.9.9,0,0,1,.58.48c.39.68.57,2.23-.8,5.73C53.75,31.2,52.94,34,52.93,34v.07a.79.79,0,0,1-.12.41l.14,0-.15.47-.46-.14c-.47.19-1.36.23-3-.35-3.88-1.34-4.42-1.59-4.44-1.6l-.19-.09v0l.17,0-.11.39-.24-.07c-.37.66-1.62,2.56-3.56,1.91-1.62-.54-2.3-.68-2.56-.78l-1.72-.62-.41.18-.14-.35,0,0S31.28,36,26.56,34.65,17.88,31.36,14.35,26h0l-.34.2s-.13-.21-.3-.59C12.44,25,9.65,24,8.27,23.49c-.07-.06-.55-.6-.66-3.27l-.28-.1.13-.38.1,0c-.13-.22-.71-.6-3.3-1.49-1.58-.54-3.18-1-3.2-1H1a.44.44,0,0,1-.39-.13C.42,17,.23,16.46.72,15c.93-2.81,2.21-5.66,2.23-5.68l2.54-7,0-.07a.43.43,0,0,1,.08-.4c.15-.15.73-.41,2.81.34l4.94,1.78h0l.1-.35.22.07a3.39,3.39,0,0,1,4.25-1.85A10.8,10.8,0,0,0,21,2.28l2-.17c.45-.18.92-.43,1.42-.59l.12.31h0l.34,0c.06,0,6-.51,7.7,0,.21.06.38,0,.52,0h0l0-.27c.13,0,.26.1.38.12a1.43,1.43,0,0,0,0-.43c0-.29,0-.55.2-.7a.83.83,0,0,1,.4-.14l.06-.4,1.36.13A6.68,6.68,0,0,0,34.79,0h-.14s0,.42,0,.42-.06.42-.09.42h-.05S34.4.42,34.37.42s0-.21-.05-.21-.05-.1-.08-.1,0,0-.05,0l-.07,0H33.9l-.05,0,0,0-.05,0,0,0-.05,0,0,0-.08.05a1.22,1.22,0,0,0-.35,1c0,.15,0,.36-.06.4s-.1.06-.4,0c-1.81-.53-7.6-.12-7.85-.1L21,1.88a10.39,10.39,0,0,1-3-.46,3.78,3.78,0,0,0-4.75,2.09L8.48,1.79c-1.71-.62-2.77-.72-3.23-.27-.27.26-.16.6-.21.72L2.56,9.13c-.06.17-1.32,3-2.23,5.72C-.09,16.12-.11,17,.27,17.41a.84.84,0,0,0,.72.26c2.86.85,5.93,1.93,6.21,2.3.11,3.34.77,3.82.9,3.88h0A51.25,51.25,0,0,1,14,26.21c3.6,5.47,7.59,7.47,12.44,8.81a14.74,14.74,0,0,0,9.73-1.07l2.22.8v0c.24.06.85.23,2.38.74,2.29.77,3.76-1.5,4.12-2.16.37.15,1.42.55,4.3,1.54,1.75.6,3,.65,3.64.15a1.22,1.22,0,0,0,.48-.94c.09-.3.93-3.09,3.19-8.87C58,21.55,57.72,19.88,57.28,19.13Z"/>
        <path d="M13.69,12.62v0a13.44,13.44,0,0,1,2-4.27c1.44-2.08,4.14-4.49,8.89-6.49h0l-.12-.31c-.49.16-1,.37-1.42.55A17.77,17.77,0,0,0,18.23,5l.1,0-.12.39-.35-.1a16.19,16.19,0,0,0-2.52,2.86,13.68,13.68,0,0,0-2,4.32,17.71,17.71,0,0,0-.85,9l.31.11-.13.38-.1,0a16,16,0,0,0,1.17,3.69c.17.37.29.58.3.59l.34-.2h0A16.6,16.6,0,0,1,13.69,12.62Z"/>
        <path d="M35.14,2.13l.46.15h0l-.46-.16Z"/>
        <path d="M34.54,2.36,34.68,2l-.27-.07,0,.29-.4,0,0-.32-.46-.08-.38-.05,0,.4h0a10.49,10.49,0,0,1,1.52.3Z"/>
        <path d="M36.75,3l-.36-.18.08-.15-.41-.18-.13.37-.27-.09A8.67,8.67,0,0,1,37,3.36h0L37.21,3l-.12-.07-.26-.14Z"/>
        <polygon points="12.63 21.95 12.76 21.56 12.45 21.46 10.19 20.68 10.1 20.91 9.76 20.79 9.84 20.56 7.56 19.78 7.46 19.74 7.33 20.13 7.61 20.22 12.53 21.91 12.63 21.95"/>
        <polygon points="15.58 4.64 15.59 4.62 15.93 4.74 15.93 4.74 17.87 5.32 18.21 5.42 18.33 5.04 18.23 5 13.63 3.64 13.41 3.57 13.3 3.92 13.29 3.96 15.58 4.64"/>
        <polygon points="15.93 4.74 15.59 4.62 15.58 4.64 9.84 20.56 9.76 20.79 10.1 20.91 10.19 20.68 15.93 4.74 15.93 4.74"/>
        <path d="M45.29,22.91a17.39,17.39,0,0,1-9.18,10.71v0l.14.33.41-.2a15.81,15.81,0,0,0,3-1.95l-.11,0,.11-.39.37.11a18.4,18.4,0,0,0,5.35-7.82q.14-.39.27-.8a15.57,15.57,0,0,0,.41-8l-.44-.16.12-.34.22.08a14.17,14.17,0,0,0-1.2-3.2c-.22-.42-.37-.47-.38-.48l-.33.41h0A13.94,13.94,0,0,1,45.29,22.91Z"/>
        <polygon points="45.77 14.34 45.65 14.68 46.09 14.84 48.55 15.73 48.59 15.61 48.98 15.75 48.93 15.86 50.75 16.52 50.81 16.54 50.93 16.2 50.88 16.18 45.99 14.41 45.77 14.34"/>
        <polygon points="42.91 32.67 42.53 32.53 42.64 32.24 40.06 31.47 39.69 31.37 39.58 31.75 39.68 31.79 44.51 33.21 44.75 33.28 44.87 32.9 44.7 32.85 43.03 32.35 42.91 32.67"/>
        <polygon points="42.53 32.53 42.91 32.67 43.03 32.35 48.93 15.86 48.98 15.75 48.59 15.61 48.55 15.73 42.64 32.24 42.53 32.53"/>
        <polygon points="34.27 0.01 34.21 0.42 34.02 1.83 33.97 2.15 34.37 2.2 34.4 1.91 34.58 0.44 35.22 0.49 34.68 1.98 34.54 2.36 34.67 2.4 35.66 2.73 35.93 2.82 36.06 2.45 36.62 0.9 37.24 1.15 36.47 2.63 36.4 2.78 36.75 2.96 36.83 2.8 37.56 1.35 37.74 0.97 37.77 0.92 37.55 0.84 36.31 0.34 36.18 0.7 35.61 2.27 35.61 2.28 35.14 2.13 35.15 2.12 35.7 0.57 35.84 0.19 35.85 0.17 35.63 0.14 34.27 0.01"/>
        <path d="M29,18.19l-.54-.59,0,.08a.58.58,0,0,0,.68.81L29,18.26Z"/>
        <path d="M29.55,18.07a.48.48,0,0,0-.28-.58l.13.84A.75.75,0,0,0,29.55,18.07Z"/>
        <polygon points="29.17 18.09 29.4 18.39 29.39 18.33 29.27 17.5 27.83 7.99 27.3 8.07 28.64 16.94 25.91 13.91 25.51 14.27 28.5 17.6 29.04 18.19 29.17 18.09"/>
        <polygon points="29.17 18.09 29.04 18.19 28.96 18.26 29.14 18.49 34.62 25.49 34.83 25.32 29.4 18.39 29.17 18.09"/>
        <rect x="18.7" y="13.35" width="0.68" height="2.38" transform="translate(-0.82 27.93) rotate(-71.38)"/>
        <rect x="39.12" y="20.71" width="0.68" height="2.38" transform="translate(6.11 52.3) rotate(-71.38)"/>
        <rect x="31.89" y="7.6" width="2.38" height="0.68" transform="translate(13.79 35.95) rotate(-68.95)"/>
        <rect x="24.42" y="27.98" width="2.38" height="0.68" transform="translate(-10.02 42.06) rotate(-68.97)"/>
        <path d="M34.16,4.88a14.12,14.12,0,1,0,8.49,18.07A14.13,14.13,0,0,0,34.16,4.88ZM42,22.72a13.44,13.44,0,1,1-8.09-17.2A13.46,13.46,0,0,1,42,22.72Z"/>
        <path d="M33.81,5.85a13.08,13.08,0,1,0,7.87,16.74A13.09,13.09,0,0,0,33.81,5.85Zm7.74,16.69A12.94,12.94,0,1,1,33.76,6,13,13,0,0,1,41.55,22.55Z"/>
        <rect x="1.44" y="16.02" width="0.37" height="1.46" transform="translate(-14.68 12.6) rotate(-70.17)"/>
        <rect x="3.22" y="16.6" width="0.37" height="1.58" transform="translate(-14.11 14.69) rotate(-70.17)"/>
        <rect x="5.11" y="17.34" width="0.37" height="1.46" transform="translate(-13.5 16.92) rotate(-70.17)"/>
        <rect x="7.06" y="18.05" width="0.37" height="1.46" transform="translate(-12.88 19.22) rotate(-70.17)"/>
        <rect x="8.78" y="18.67" width="0.37" height="1.46" transform="translate(-12.32 21.25) rotate(-70.18)"/>
        <rect x="6.57" y="1.8" width="0.37" height="1.46" transform="translate(2.08 8.02) rotate(-70.17)"/>
        <rect x="8.35" y="2.38" width="0.37" height="1.58" transform="translate(2.65 10.12) rotate(-70.17)"/>
        <rect x="10.24" y="3.12" width="0.37" height="1.46" transform="translate(3.26 12.35) rotate(-70.17)"/>
        <rect x="12.19" y="3.83" width="0.37" height="1.46" transform="translate(3.88 14.65) rotate(-70.17)"/>
        <rect x="13.91" y="4.45" width="0.37" height="1.46" transform="translate(4.44 16.68) rotate(-70.17)"/>
        <rect x="49.96" y="16.51" width="0.41" height="1.5" transform="translate(15.12 57.1) rotate(-67.66)"/>
        <rect x="51.77" y="17.26" width="0.41" height="1.5" transform="translate(15.56 59.24) rotate(-67.66)"/>
        <rect x="53.59" y="18.01" width="0.41" height="1.5" transform="translate(15.99 61.38) rotate(-67.65)"/>
        <rect x="55.51" y="18.8" width="0.41" height="1.5" transform="translate(16.46 63.65) rotate(-67.66)"/>
        <rect x="44.39" y="31.32" width="0.37" height="1.58" transform="translate(0.66 65.11) rotate(-72.69)"/>
        <rect x="46.23" y="31.91" width="0.37" height="1.54" transform="translate(1.4 67.27) rotate(-72.69)"/>
        <rect x="48.12" y="32.48" width="0.37" height="1.58" transform="translate(2.16 69.48) rotate(-72.69)"/>
        <rect x="50.11" y="33.14" width="0.37" height="1.5" transform="translate(2.97 71.83) rotate(-72.69)"/>
        <polygon points="51.41 34.56 52.35 34.85 52.8 34.99 52.95 34.53 52.81 34.48 51.55 34.09 51.41 34.56"/>
      </g>
    </g>
  </g>
</svg>
